<svg width="132" height="86" viewBox="0 0 132 86" fill="none" xmlns="http://www.w3.org/2000/svg">
<path d="M19.7717 49.6017C19.7717 49.6017 18.2521 43.6138 20.1292 38.0727C22.0958 32.5316 24.7774 30.0291 24.7774 30.0291C24.7774 30.0291 27.1909 26.2755 33.18 24.6668C39.0797 23.0581 44.0854 24.3093 44.0854 24.3093C44.0854 24.3093 49.6275 25.6499 53.2925 28.8673C56.9574 32.0847 58.6558 36.1065 58.6558 36.1065C58.6558 36.1065 60.4436 41.7369 59.9966 44.6862C59.5497 47.6355 58.3876 49.8698 58.3876 49.8698L56.5999 52.4616L54.5439 54.3385L53.4713 56.6621C53.4713 56.6621 51.7729 60.5945 46.4095 63.097C41.1356 65.5994 39.4372 65.0632 39.4372 65.0632L34.1633 64.795L19.7717 49.6017Z" fill="#F47218"/>
<path d="M32.8224 65.51C32.8224 65.51 30.1408 68.5486 23.6154 69.7998C17.09 71.1404 11.3691 67.923 11.3691 67.923C11.3691 67.923 7.07846 65.3312 5.46946 63.2757C3.86046 61.2201 2.43024 58.8964 1.98329 56.5727C1.53635 54.249 1.44696 51.4785 1.44696 51.4785L2.25146 47.9036L3.5029 44.9543L5.46946 46.7417L39.616 54.4278C39.616 54.3384 38.3645 61.9351 32.8224 65.51Z" fill="#FFCB04"/>
<path d="M38.007 54.6065L36.3086 58.9858C36.3086 58.9858 34.5208 61.7563 33.0906 62.7394C31.6604 63.7225 30.1408 62.9182 30.1408 62.9182C30.1408 62.9182 27.5485 61.1307 26.4758 59.7901C25.4032 58.4495 21.47 52.1041 21.47 52.1041L22.4533 51.4785L23.2578 50.6741C23.2578 50.5848 38.1858 53.8022 38.007 54.6065Z" fill="#F7893B"/>
<path d="M27.1909 63.7225C27.1909 63.7225 27.2803 65.0631 27.2803 65.7781C27.2803 66.4931 25.4031 67.5656 25.4031 67.5656C25.4031 67.5656 22.0958 68.2805 20.5762 67.8337C19.0565 67.3868 17.6263 66.7612 17.6263 66.7612L16.9112 65.0631L20.8443 52.4616L21.1125 53.8022C21.1125 53.8022 27.2803 62.8288 27.1909 63.7225Z" fill="#F47218"/>
<path d="M20.308 52.7297L17.5369 58.092L15.3022 63.1862C15.3022 63.1862 14.3189 65.5993 11.9054 65.2418C9.49194 64.8843 7.61477 62.65 7.61477 62.65C7.61477 62.65 5.827 60.7732 6.45272 58.7176C7.16783 56.662 9.76011 55.9471 9.76011 55.9471L19.4141 51.2103L20.4868 52.0147L20.308 52.7297Z" fill="#F47218"/>
<path d="M18.4308 50.406L8.41927 55.2321C8.41927 55.2321 4.93311 57.0196 3.86044 54.7853C2.78778 52.6403 3.68166 50.7635 3.68166 50.7635L5.46944 46.7418L18.4308 49.5123V50.406Z" fill="#F47218"/>
<path d="M31.0346 30.5654C28.7999 33.9615 27.7273 38.0726 28.0848 42.0944C28.5318 46.1162 30.3195 49.9592 33.18 52.8191C29.6044 51.3891 25.9395 50.3167 22.1852 49.6017C21.7382 49.5123 21.2019 49.423 20.9337 49.0655C20.6655 48.7973 20.5762 48.3505 20.4868 47.9036C19.9504 44.15 21.2019 40.3963 23.079 37.0896C24.4199 34.7659 26.0289 32.6209 27.8166 30.7441C28.7999 29.761 29.962 28.6885 31.3922 28.4204C31.6604 28.331 32.0179 28.4204 32.0179 28.6885C32.0179 28.7779 32.0179 28.8673 31.9285 28.9567C31.4816 29.6716 31.124 30.3866 30.6771 31.1016L31.0346 30.5654Z" fill="#D85D1E"/>
<path d="M35.4147 63.6331C37.1131 63.2756 38.9009 63.8119 40.5993 63.4544C41.8507 63.2756 43.0128 62.65 44.0854 62.1138C46.6777 60.7732 49.4488 59.3432 51.1471 56.9302C51.5047 56.4833 51.7729 55.8577 51.5047 55.3215C50.2533 57.2877 48.1079 58.807 45.7838 59.3432C43.4597 59.8795 40.9568 59.4326 38.9009 58.092C38.2752 60.237 36.8449 62.2032 35.2359 63.8119L35.4147 63.6331Z" fill="#D85D1E"/>
<path opacity="0.42" d="M39.9735 54.6959C40.0629 55.4108 40.0629 56.2152 40.1523 56.9302C40.2417 57.7345 40.2417 58.5389 40.2417 59.2539C40.1523 60.7732 39.7054 62.2925 38.9009 63.5437C38.6327 63.9906 38.3645 64.3481 37.9176 64.7056C36.9343 65.4206 35.5935 65.2418 34.4314 64.795C36.9343 61.935 38.8115 58.4495 39.7948 54.7852L39.9735 54.6959Z" fill="#D85D1E"/>
<path d="M43.0127 26.8116C46.3201 27.0798 49.3594 29.2247 50.7002 32.174C51.5941 34.1402 51.5047 36.8214 49.7169 38.0726C48.1079 39.1451 45.9626 38.6088 44.0854 38.6982C41.8507 38.7876 39.7054 39.86 38.3645 41.6475C37.8282 42.2731 37.4706 42.9881 36.7555 43.4349C35.5041 44.418 33.5375 44.0605 32.3755 42.9881C31.2134 41.9156 30.6771 40.2175 30.6771 38.6088C30.6771 37.0001 31.124 35.4808 31.6604 33.9614C32.1967 32.4421 32.733 30.8334 33.9845 29.7609C34.5208 29.2247 35.2359 28.8672 35.951 28.5097C38.3645 27.2585 41.225 26.186 43.9066 26.9904L43.0127 26.8116Z" fill="#F67F2B"/>
<path d="M32.733 44.6862C34.789 44.2393 37.2025 48.4398 35.1465 49.6016C34.789 49.7804 34.342 49.7804 33.8951 49.6016C33.5375 49.4229 33.18 49.1548 32.9118 48.7973C32.2861 48.1717 31.7498 47.4567 31.6604 46.6523C31.4816 45.848 31.9285 44.8649 32.733 44.6862Z" fill="#F67F2B"/>
<path d="M58.5664 44.2393C58.3876 45.1331 57.8513 46.1162 56.9574 46.1162C56.3317 46.1162 55.8847 45.6693 55.5272 45.1331C54.3651 43.5244 54.097 41.2901 54.9015 39.5026C53.9182 40.2176 53.9182 41.6475 54.097 42.8094C54.6333 45.6693 55.9741 48.5292 55.6166 51.4785C57.1362 51.0317 58.2089 49.6911 58.8346 48.2611C60.8011 44.0606 60.1754 39.0557 57.9407 35.1234C59.1921 38.2514 59.3709 41.0219 58.5664 44.2393Z" fill="#D85D1E"/>
<path d="M49.0912 26.1861C51.6835 27.9735 54.5439 29.761 56.2423 32.4422C57.8513 35.034 58.6558 38.162 58.477 41.2007C58.477 41.7369 58.3876 42.3625 57.9407 42.8094C57.4938 43.2562 56.7786 43.3456 56.4211 42.8094C56.1529 42.4519 56.2423 42.005 56.3317 41.6475C56.7786 38.6982 55.9741 35.749 54.5439 33.1572C53.0243 30.5653 51.0578 28.331 49.0912 26.1861Z" fill="#F67F2B"/>
<path d="M53.4712 42.5412C53.0243 41.8262 52.3092 41.4687 51.5047 41.2006C50.9684 41.0219 50.432 41.0219 49.8063 40.8431C49.9851 40.8431 50.5214 40.4856 50.7002 40.3069C51.0577 40.0388 51.3259 39.7707 51.5941 39.4132C52.041 38.7876 52.3986 38.0726 52.5774 37.3576C52.9349 38.2513 53.8288 38.8769 54.7227 39.3238C54.2757 39.7707 53.9182 40.1282 53.65 40.7538C53.5606 41.0219 53.4712 41.29 53.4712 41.5581C53.3819 41.8262 53.2925 42.3625 53.4712 42.5412Z" fill="#2B5A20"/>
<path d="M52.2198 40.0389C51.7729 40.0389 51.4153 40.4857 51.0578 40.6645C51.5047 40.3964 51.7729 39.9495 52.1304 39.5026C52.3092 39.3239 52.3986 39.0558 52.488 38.877C52.5774 38.6983 52.7561 38.3408 52.7561 38.162C52.9349 38.877 53.65 39.3239 54.2758 39.592C53.65 40.0389 53.2925 40.7539 53.2031 41.5582C53.2031 41.2007 53.2031 40.8432 53.2925 40.4857C53.2925 40.307 52.5774 40.1282 52.488 40.1282C52.3092 40.0389 52.2198 40.0389 52.2198 40.0389Z" fill="#9D952B"/>
<path d="M53.7394 42.72C56.868 48.3505 56.1529 55.2321 51.5047 59.7901C47.3034 63.9013 40.0629 67.2974 34.0739 65.1525C33.6269 64.9737 33.8057 64.4375 34.2526 64.4375C40.3311 65.2419 45.9626 63.7225 50.6108 59.522C55.7954 54.6959 55.3484 49.0654 53.4712 42.8094C53.4712 42.6306 53.65 42.5412 53.7394 42.72Z" fill="#A04612"/>
<path d="M55.259 53.6234C58.1195 50.6741 59.9073 46.8311 59.9073 42.72C59.8179 38.9663 58.0301 35.4808 55.9741 32.3528C52.5774 27.4373 46.7671 24.9348 40.9568 24.488C34.789 24.0411 28.9787 26.0967 24.8668 30.7441C20.4868 35.7489 19.2353 41.8262 20.0398 48.2611C20.0398 48.5292 19.5929 48.6186 19.5035 48.3504C17.7157 41.8262 20.3974 34.4083 24.8668 29.6716C29.3363 25.0242 35.5041 23.1474 41.8507 23.8624C48.5549 24.5773 54.1864 27.8841 57.6725 33.6933C61.695 40.3963 61.7844 48.3504 55.6166 53.8022C55.3484 53.8915 55.0803 53.7128 55.259 53.6234Z" fill="#D85D1E"/>
<path d="M52.488 36.9107C53.0243 38.0726 53.65 38.8769 54.8121 39.3238C54.9015 39.3238 54.9015 39.5025 54.8121 39.5025C53.7394 40.0388 53.2925 41.1112 53.5606 42.2731C53.5606 42.3625 53.4713 42.5412 53.3819 42.3625C52.3092 41.29 50.9684 40.9325 49.4488 41.0219C49.3594 41.0219 49.27 40.8431 49.4488 40.8431C51.2365 40.3963 52.3986 38.7876 52.488 36.9107C52.3986 36.732 52.6668 36.732 52.6668 36.9107C52.6668 38.5194 51.7729 39.9494 50.432 40.7537C50.3426 40.8431 50.2533 40.8431 50.1639 40.9325C49.7169 41.1112 49.8957 40.9325 50.0745 40.9325C50.432 40.9325 50.879 40.9325 51.2365 41.0219C52.1304 41.2006 52.9349 41.7368 53.65 42.3625C53.5606 42.3625 53.5606 42.4518 53.4713 42.4518C53.2925 41.9156 53.2925 41.4687 53.4713 40.9325C53.65 40.3963 54.097 40.1281 54.2758 39.6813C54.4545 39.6813 54.5439 39.5919 54.4545 39.5025C54.2758 39.4132 54.097 39.3238 53.9182 39.145C53.7394 39.0557 53.5606 38.8769 53.3819 38.6982C52.9349 38.2513 52.5774 37.6257 52.3092 37.0001C52.3092 36.8214 52.488 36.8214 52.488 36.9107Z" fill="#173D11"/>
<path d="M5.11124 46.4729C4.48573 46.0262 3.77086 45.5795 3.2347 45.1328C3.05599 44.9541 3.2347 44.5968 3.50278 44.6861C4.12829 45.1328 4.7538 45.6689 5.37932 46.1156C5.64739 46.2943 5.37932 46.6516 5.11124 46.4729Z" fill="#FFD86B"/>
<path d="M37.7388 55.6791C36.9343 57.7346 34.2526 64.7057 30.9453 63.6332C26.5652 62.2033 23.526 55.6791 21.47 52.1042C21.3807 52.0148 21.5594 51.9254 21.6488 52.0148C23.7942 55.1428 25.4925 58.8071 28.353 61.3989C29.6044 62.5608 30.2301 63.0076 31.9285 62.8289C33.7163 62.5608 33.8951 62.1139 34.789 60.6839C35.8616 59.0752 36.8449 57.3772 37.56 55.5897C37.6494 55.5897 37.7388 55.6791 37.7388 55.6791Z" fill="#D85D1E"/>
<path d="M21.2019 53.7128C22.7215 56.1259 24.2411 58.4496 25.7607 60.7732C26.4758 61.9351 28.1742 63.8119 27.9954 65.4206C27.7273 67.5655 24.6881 68.0124 22.9897 68.1018C21.2019 68.1912 18.0733 68.1912 17.09 66.3143C16.4643 65.1525 17.1794 63.8119 17.5369 62.6501C18.4308 60.0583 19.2353 57.4665 20.2186 54.8747C20.2186 54.7853 20.3974 54.8747 20.3974 54.964C19.5035 57.9133 18.2521 60.7732 17.4476 63.8119C16.4643 67.3868 19.8611 68.0124 22.7215 67.923C23.526 67.923 24.3305 67.8337 25.135 67.5656C27.8167 66.6718 27.3697 63.7225 26.2077 61.8457C24.4199 59.0752 22.8109 56.394 21.2019 53.7128C21.2019 53.6234 21.1125 53.7128 21.2019 53.7128Z" fill="#D85D1E"/>
<path d="M20.1292 53.4447C18.8778 55.9471 17.5369 58.3602 16.3749 60.8626C15.7492 62.1138 15.2128 63.7226 14.1402 64.7057C12.263 66.4931 10.1177 65.0631 8.50867 63.6332C6.81028 62.2032 5.29067 59.8795 6.89967 57.824C8.2405 56.2153 10.5646 55.4109 12.3524 54.5172C14.5871 53.3553 16.9112 52.1935 19.2353 51.121C19.3247 51.121 19.4141 51.2104 19.3247 51.2998C16.5537 52.6404 13.7826 54.0703 11.1009 55.5003C9.93889 56.1259 7.07844 57.2877 6.6315 58.6283C6.00578 60.7733 7.25722 62.4713 8.86622 63.7226C10.3858 64.9738 12.6206 66.0462 14.1402 64.4375C14.8553 63.6332 15.3022 62.5607 15.7492 61.5776C17.09 58.8071 18.5202 56.1259 20.1292 53.4447C20.1292 53.4447 20.0398 53.4447 20.1292 53.4447Z" fill="#D85D1E"/>
<path d="M17.7157 50.7635C14.7659 52.8191 11.1903 54.4278 7.79355 55.679C6.45272 56.1259 4.75433 56.5728 3.77105 55.1428C2.34083 52.9979 3.77106 47.993 5.29067 46.2055C5.38005 46.1162 5.46944 46.2055 5.38005 46.2949C4.48617 48.6186 3.05594 51.2104 3.59228 53.8022C4.30739 57.2877 7.88294 55.3215 10.0283 54.4278C12.7099 53.266 15.2128 52.0148 17.7157 50.7635C17.8051 50.7635 17.7157 50.7635 17.7157 50.7635Z" fill="#D85D1E"/>
<path d="M23.0785 50.9421C22.8997 51.2993 22.6317 51.4779 22.3636 51.7457C22.0955 51.9243 21.7381 52.1922 21.3806 52.1922C21.2913 52.1922 21.2913 52.1029 21.2913 52.1029C21.5594 51.9243 21.8274 51.835 22.0955 51.6564C22.3636 51.4779 22.721 51.21 22.8997 50.9421C22.9891 50.7636 23.1678 50.8529 23.0785 50.9421Z" fill="#D85D1E"/>
<path d="M20.397 52.104C20.1289 52.104 19.9502 52.0146 19.6821 51.8359C19.5034 51.6572 19.3247 51.4785 19.3247 51.2997C19.3247 51.2104 19.4141 51.2104 19.4141 51.2997C19.5034 51.4785 19.5928 51.6572 19.7715 51.7465C19.9502 51.8359 20.2183 51.9253 20.397 52.104C20.4864 52.104 20.4864 52.0146 20.397 52.104Z" fill="#D85D1E"/>
<path d="M18.7883 50.4952C18.6989 50.3165 18.6095 50.2271 18.5202 50.0484C18.4308 49.8697 18.4308 49.691 18.5202 49.5123C18.5202 49.4229 18.7883 49.4229 18.7883 49.5123C18.7883 49.691 18.7883 49.8697 18.7883 50.0484C18.7883 50.2271 18.7883 50.4059 18.7883 50.4952C18.7883 50.5846 18.8776 50.4952 18.7883 50.4952Z" fill="#D85D1E"/>
<path d="M39.169 54.249C33.4481 53.534 27.8167 51.8359 22.2745 50.5847C16.643 49.3335 11.0116 47.9929 5.38006 46.7417C5.11189 46.6523 5.20128 46.2055 5.46945 46.2948C11.1009 47.546 16.7324 48.7973 22.3639 50.1378C27.906 51.3891 33.7163 52.3722 39.169 54.1596C39.2584 54.1596 39.2584 54.249 39.169 54.249Z" fill="#FFCB04"/>
<path d="M36.3086 55.2321C35.2359 57.7345 33.7163 59.9689 31.8392 61.9351C31.9286 61.3988 32.1073 60.8626 31.8392 60.4157C31.571 59.9689 30.7665 59.8795 30.5877 60.3263C30.6771 58.5389 30.8559 56.6621 30.9453 54.8746C30.9453 54.6065 30.9453 54.3384 30.6771 54.3384C30.5877 54.3384 30.4983 54.4278 30.4089 54.5171C29.3363 55.679 28.353 56.9302 27.2803 58.092C27.1909 56.6621 27.1016 55.3215 26.9228 53.8915C26.9228 53.7128 26.8334 53.3553 26.5652 53.4447C26.4758 53.4447 26.3864 53.534 26.2971 53.6234C25.8501 54.0703 25.4032 54.5171 24.9562 54.964C25.0456 53.8021 24.7774 52.6403 24.0623 51.7466C25.0456 52.0147 25.9395 52.3722 26.9228 52.6403C27.5485 52.8191 28.2636 53.0872 28.4424 53.7128C28.5318 53.9809 28.5318 54.249 28.4424 54.5171C28.353 55.2321 28.2636 56.0365 28.1742 56.7514C29.0681 55.679 29.962 54.6065 31.0347 53.7128C31.2134 53.6234 31.3028 53.4447 31.4816 53.534C31.6604 53.6234 31.7498 53.8022 31.7498 53.9809C31.9286 55.7683 31.3028 57.7345 32.1073 59.4326C32.4649 59.0751 32.8224 58.6283 33.2694 58.2708C33.4482 58.4495 33.5375 58.5389 33.7163 58.7176C34.0739 57.377 34.9678 56.1258 36.2192 55.4109C36.3086 55.3215 36.398 55.3215 36.4874 55.4109C36.5768 55.5002 36.398 55.5896 36.398 55.5002L36.3086 55.2321Z" fill="#FA9D5B"/>
<path d="M25.0456 65.5994C23.6154 66.1356 22.0958 66.4931 20.5762 66.5825C20.1292 66.5825 19.5929 66.5825 19.1459 66.4037C18.699 66.225 18.252 65.8675 18.1627 65.4206C18.4308 65.4206 18.7884 65.4206 18.9672 65.2419C18.5202 64.8844 18.6096 64.1694 18.699 63.5438C19.2353 61.0414 19.861 58.5389 20.5762 56.0365C20.7549 57.9133 20.5762 59.7901 20.0398 61.5776C19.861 62.1138 19.6823 62.6501 19.7717 63.1863C19.7717 63.7225 20.0398 64.3481 20.5762 64.5269C20.8443 64.6163 21.1125 64.7056 21.2019 64.9737C21.2913 65.1525 21.2019 65.2419 21.2913 65.4206C21.3807 65.5994 21.5594 65.5994 21.7382 65.5994C23.079 65.7781 24.5093 65.8675 25.8501 65.8675L25.0456 65.5994Z" fill="#F7893B"/>
<path d="M19.0566 53.0871C19.1459 52.9084 19.2353 52.6403 19.2353 52.4615C18.7884 52.3722 18.3414 52.6403 17.8945 52.819C14.4977 54.4277 11.1903 56.3046 7.97234 58.2707C7.88295 58.3601 7.79356 58.3601 7.70417 58.5389C7.61478 58.6282 7.61478 58.807 7.70417 58.9857C7.79356 59.4326 7.88295 59.8795 7.97234 60.3263C8.06173 59.6113 8.41928 58.9857 9.045 58.5389C10.1177 60.3263 11.5479 61.935 13.2463 63.0969C11.8161 61.7563 10.3858 60.2369 9.8495 58.3601C11.6373 57.2877 13.3357 56.2152 15.1234 55.1427C15.481 55.5896 16.0173 55.9471 16.4643 56.2152C16.3749 55.7683 16.1961 55.4108 16.1961 54.964C17.2688 54.5171 18.3414 53.8915 19.3247 53.1765C19.1459 53.1765 18.9672 53.2659 18.7884 53.2659L19.0566 53.0871Z" fill="#F7893B"/>
<path d="M16.8218 50.3166C16.0173 50.1379 15.2128 49.8698 14.4977 49.5123C14.3189 49.7804 14.1402 50.0485 14.1402 50.406C14.0508 50.0485 13.6932 49.9591 13.3357 49.8698C11.816 49.5123 10.3858 49.0654 8.86621 48.7973C8.59805 48.7079 8.41927 48.7079 8.1511 48.7973C7.97232 48.8867 7.88293 49.1548 7.79355 49.3335C7.43599 50.3166 7.16782 51.2104 6.81027 52.1934C6.89966 51.121 6.98905 50.0485 6.98905 48.8867C6.81027 48.8867 6.63149 48.7973 6.45271 48.7973C5.38005 50.4954 4.84372 52.4616 4.9331 54.5171C4.30738 52.3722 5.02249 50.0485 5.82699 47.9036C7.52538 48.7079 9.67071 48.3504 11.4585 48.976C11.816 49.1548 12.1736 49.3335 12.6205 49.4229C13.0675 49.5123 13.5144 49.4229 13.9614 49.5123C14.6765 49.5123 15.3916 49.691 16.0173 50.0485C16.3749 50.2273 16.8218 50.406 17.09 50.0485L16.8218 50.3166Z" fill="#F7893B"/>
<path d="M30.5877 64.2587C30.8559 64.5268 30.8559 65.0631 30.6771 65.3312C30.4983 65.6887 30.0514 65.8674 29.6044 65.6887C29.1575 65.5993 28.8893 65.1524 28.6212 64.795C27.4591 63.0969 26.2077 61.3094 25.0456 59.6114C23.526 57.4664 22.0958 55.2321 21.2913 52.7297C22.9897 55.0534 24.688 57.377 26.3864 59.7007C26.8334 60.3263 27.3697 60.9519 27.906 61.5776C28.8893 62.65 30.0514 63.5437 30.8559 64.7056L30.5877 64.2587Z" fill="#FFD14B"/>
<path d="M19.5929 56.0365C18.7884 57.109 18.5202 58.4496 18.0733 59.7008C17.5369 61.5776 16.8218 63.4544 16.0173 65.2419C15.9279 65.4206 15.8385 65.5994 15.6598 65.5994C15.481 65.6887 15.2128 65.51 15.1234 65.2419C15.034 65.0631 15.1234 64.795 15.2128 64.5269C16.3749 60.6839 18.6096 57.3771 20.2186 53.7128C19.9504 55.1428 19.5929 56.5728 19.1459 58.0027L19.5929 56.0365Z" fill="#FFD14B"/>
<path d="M18.6096 69.6211C18.699 69.7999 18.9672 69.7105 18.9672 69.4424C18.9672 69.2636 18.7884 69.0849 18.6096 68.9955C17.8051 68.4593 17.09 67.9231 16.2855 67.3868C16.1067 67.2974 15.9279 67.1187 15.7492 67.1187C15.5704 67.0293 15.3916 67.0293 15.1234 67.0293C13.1569 66.94 11.1903 66.6718 9.22379 66.225C11.3691 67.2081 13.4251 68.1912 15.5704 69.1743C16.5537 69.6211 17.7157 70.068 18.7884 69.7999L18.6096 69.6211Z" fill="#FFD14B"/>
<path d="M6.0058 57.5558C5.38007 58.1815 4.93313 58.9858 4.93313 59.8795C4.12863 60.0583 3.5923 59.1646 3.23474 58.4496C2.60902 56.7515 2.25146 54.964 2.25146 53.0872C2.69841 54.6959 3.5923 56.394 5.11191 56.9302C5.38007 57.0196 5.73763 57.109 5.82702 57.3771C6.0058 57.6452 5.64824 58.0921 5.38007 57.9133L6.0058 57.5558Z" fill="#FFD14B"/>
<path d="M39.7948 54.6065C37.7388 65.8674 26.3864 72.6597 15.3916 69.7998C5.02251 67.1187 -2.9331 55.0534 3.05595 44.8649C3.32412 44.418 3.94984 44.7755 3.68167 45.2224C-1.77104 55.5002 5.64823 67.0293 16.2855 69.353C26.9228 71.766 37.2025 65.1525 39.3478 54.5171C39.4372 54.249 39.8842 54.3384 39.7948 54.6065Z" fill="#D85D1E"/>
<path d="M129.809 23.2368C129.809 23.2368 130.435 30.1185 130.435 35.5703C130.435 41.022 129.452 49.1549 129.452 49.1549L127.575 64.1695L127.128 67.5656L120.692 68.5487L92.9811 73.2855L66.1645 79.184L45.6944 84.6358C45.6944 84.6358 42.2083 84.6358 40.8674 83.3846C39.616 82.1333 39.0797 81.5077 39.0797 81.5077L39.4372 78.8266L41.3144 76.9497C41.3144 76.9497 40.1523 74.2686 40.1523 73.7323C40.1523 73.2855 40.1523 69.4424 40.1523 69.4424L41.225 68.8168C41.225 68.8168 39.9735 64.1695 40.2417 59.8796C40.5993 55.5897 40.8674 53.3554 40.8674 53.3554C40.8674 53.3554 41.4931 47.6355 40.8674 44.865C40.2417 42.1838 39.7054 38.7877 39.7054 37.3577C39.7054 35.9277 40.6887 31.7272 40.6887 31.7272L73.9413 26.0074L125.876 18.947C125.966 18.947 129.631 18.5895 129.809 23.2368Z" fill="#F5D357"/>
<path d="M127.664 63.5437C128.915 57.1983 129.005 50.5847 129.452 44.1499C129.72 39.2344 129.899 34.2296 129.72 29.3141C129.631 26.8116 129.452 24.2198 129.631 21.7174C129.541 22.9686 130.346 25.0242 130.435 26.3648C130.614 28.1522 130.793 29.9397 130.882 31.8165C131.061 35.8383 130.971 39.86 130.793 43.8818C130.524 50.8528 130.524 58.1814 127.485 64.5268C127.575 64.1693 127.575 63.9012 127.664 63.5437Z" fill="#F3B279"/>
<g opacity="0.68">
<g opacity="0.68">
<path opacity="0.68" d="M64.5553 35.2126C64.466 35.302 64.466 35.302 64.2873 35.3914C64.1979 35.3914 64.1085 35.3914 64.1979 35.302C64.1979 35.1233 64.1979 35.1233 64.3766 35.0339C64.466 34.8552 64.7341 35.0339 64.5553 35.2126Z" fill="#F1BF6F"/>
</g>
<g opacity="0.68">
<path opacity="0.68" d="M62.7676 32.5314C62.6782 32.5314 62.6782 32.5314 62.7676 32.5314C62.4102 32.3527 62.4102 31.9059 62.6782 31.8166C62.6782 31.8166 62.6782 31.8166 62.7676 31.8166C63.0357 31.6379 63.4825 31.8166 63.4825 32.174C63.3931 32.5314 63.0357 32.7102 62.7676 32.5314Z" fill="#F1BF6F"/>
</g>
<g opacity="0.68">
<path opacity="0.68" d="M60.5328 37.9831C59.9967 37.9831 59.9967 37.1789 60.5328 37.1789C61.069 37.1789 61.069 37.9831 60.5328 37.9831Z" fill="#F1BF6F"/>
</g>
<g opacity="0.68">
<path opacity="0.68" d="M60.801 35.6594C60.0861 35.6594 60.0861 34.5871 60.801 34.5871C61.5158 34.5871 61.5158 35.6594 60.801 35.6594Z" fill="#F1BF6F"/>
</g>
<g opacity="0.68">
<path opacity="0.68" d="M71.0808 35.4807C71.0808 35.4807 70.9914 35.4807 70.9914 35.3914C70.7233 35.2126 70.7233 34.8552 70.9914 34.7659C70.9914 34.7659 71.0808 34.7659 71.0808 34.6765C71.3488 34.4978 71.7956 34.6765 71.7956 35.0339C71.7956 35.4807 71.3488 35.6594 71.0808 35.4807Z" fill="#F1BF6F"/>
</g>
<g opacity="0.68">
<path opacity="0.68" d="M70.8127 30.7441C70.8127 30.7441 70.8127 30.6548 70.8127 30.7441C70.902 30.6548 70.902 30.7441 70.8127 30.7441Z" fill="#F1BF6F"/>
</g>
<g opacity="0.68">
<path opacity="0.68" d="M69.6505 32.9783C69.025 32.9783 69.025 31.9953 69.6505 31.9953C70.276 31.9953 70.276 32.9783 69.6505 32.9783Z" fill="#F1BF6F"/>
</g>
<g opacity="0.68">
<path opacity="0.68" d="M69.2927 30.8327C69.2927 30.922 69.2927 30.922 69.2927 30.8327C69.2033 31.547 68.2203 31.547 68.0416 30.922V30.8327C67.8629 29.8506 69.4714 29.8506 69.2927 30.8327Z" fill="#F1BF6F"/>
</g>
<g opacity="0.68">
<path opacity="0.68" d="M66.2537 36.3745C65.7176 36.3745 65.7176 35.5702 66.2537 35.5702C66.7899 35.4809 66.7899 36.3745 66.2537 36.3745Z" fill="#F1BF6F"/>
</g>
<g opacity="0.68">
<path opacity="0.68" d="M69.0249 37.9832L69.1142 37.8939C69.293 37.6258 69.6504 37.6258 69.8291 37.8939L69.9185 37.9832C70.0972 38.3407 69.8291 38.7875 69.4717 38.7875C69.1142 38.7875 68.8462 38.2513 69.0249 37.9832Z" fill="#F1BF6F"/>
</g>
<g opacity="0.68">
<path opacity="0.68" d="M66.5218 34.5859C65.7176 34.5859 65.7176 33.3359 66.5218 33.3359C67.326 33.3359 67.326 34.5859 66.5218 34.5859Z" fill="#F1BF6F"/>
</g>
<g opacity="0.68">
<path opacity="0.68" d="M64.2871 39.3226C63.4829 39.3226 63.4829 38.0726 64.2871 38.0726C65.0913 38.0726 65.0913 39.3226 64.2871 39.3226Z" fill="#F1BF6F"/>
</g>
<g opacity="0.68">
<path opacity="0.68" d="M57.7617 35.4795C56.9575 35.4795 56.9575 34.1403 57.7617 34.1403C58.5659 34.1403 58.5659 35.4795 57.7617 35.4795Z" fill="#F1BF6F"/>
</g>
<g opacity="0.68">
<path opacity="0.68" d="M54.3651 40.0385C54.1864 39.5024 54.5438 38.9664 55.08 38.9664C55.6161 38.9664 55.9736 39.4131 55.7949 39.9491V40.0385C55.6161 40.7532 54.5438 40.7532 54.3651 40.0385Z" fill="#F1BF6F"/>
</g>
<g opacity="0.68">
<path opacity="0.68" d="M73.8519 32.2633C73.8519 32.2633 73.8519 32.174 73.9413 32.174C74.0306 31.9059 74.4774 31.9059 74.5668 32.174C74.5668 32.174 74.5668 32.2633 74.6561 32.2633C74.8348 32.5314 74.6561 32.9782 74.2987 32.9782C73.8519 32.9782 73.7625 32.5314 73.8519 32.2633Z" fill="#F1BF6F"/>
</g>
<g opacity="0.68">
<path opacity="0.68" d="M73.5835 30.6534C72.7793 30.6534 72.7793 29.4034 73.5835 29.4034C74.3878 29.4034 74.3878 30.6534 73.5835 30.6534Z" fill="#F1BF6F"/>
</g>
<g opacity="0.68">
<path opacity="0.68" d="M82.0756 33.6933C81.6288 33.6933 81.6288 32.9785 82.0756 32.9785C82.6117 32.9785 82.6117 33.6933 82.0756 33.6933Z" fill="#F1BF6F"/>
</g>
<g opacity="0.68">
<path opacity="0.68" d="M79.3046 36.285C79.3939 36.285 79.3939 36.285 79.3046 36.285C79.5726 36.0171 79.9301 36.0171 80.1981 36.285C80.6449 36.6421 80.2875 37.4457 79.7514 37.4457C79.2152 37.4457 78.8578 36.6421 79.3046 36.285Z" fill="#F1BF6F"/>
</g>
<g opacity="0.68">
<path opacity="0.68" d="M76.5335 39.0546H76.4441C76.0867 38.876 76.0867 38.3403 76.3547 38.0725C76.6228 37.8046 77.159 37.8046 77.3377 38.1617C77.3377 38.1617 77.3377 38.251 77.427 38.251C77.6058 38.7867 77.159 39.3225 76.5335 39.0546Z" fill="#F1BF6F"/>
</g>
<g opacity="0.68">
<path opacity="0.68" d="M78.5892 30.565C78.5892 30.565 78.5892 30.6543 78.6785 30.6543C78.9466 31.19 78.4104 31.7257 77.8743 31.4579C77.8743 31.4579 77.7849 31.4579 77.7849 31.3686C77.4275 31.19 77.4275 30.6543 77.6956 30.3865C77.8743 30.1186 78.4104 30.2079 78.5892 30.565Z" fill="#F1BF6F"/>
</g>
<g opacity="0.68">
<path opacity="0.68" d="M92.4447 30.744C91.9979 30.744 91.9979 30.0291 92.4447 30.0291C92.8915 30.0291 92.8915 30.744 92.4447 30.744Z" fill="#F1BF6F"/>
</g>
<g opacity="0.68">
<path opacity="0.68" d="M90.6568 33.6932C89.9419 33.6932 89.9419 32.6209 90.6568 32.6209C91.2823 32.6209 91.2823 33.6932 90.6568 33.6932Z" fill="#F1BF6F"/>
</g>
<g opacity="0.68">
<path opacity="0.68" d="M89.4052 30.1184C89.4052 30.2077 89.4052 30.2077 89.4052 30.1184C89.1372 30.4758 88.6904 30.4758 88.5116 30.2077C88.5116 30.2077 88.5116 30.2077 88.5116 30.1184C88.2436 29.7609 88.601 29.3141 88.9584 29.3141C89.4052 29.3141 89.6733 29.7609 89.4052 30.1184Z" fill="#F1BF6F"/>
</g>
<g opacity="0.68">
<path opacity="0.68" d="M87.528 32.9775C87.3493 33.4239 86.7238 33.4239 86.5451 33.0668C86.5451 33.0668 86.5451 33.0668 86.5451 32.9775C86.3664 32.6204 86.5451 32.0847 87.0812 32.0847C87.528 32.0847 87.7068 32.5311 87.528 32.9775Z" fill="#F1BF6F"/>
</g>
<g opacity="0.68">
<path opacity="0.68" d="M86.4557 35.8373C86.3663 35.8373 86.3663 35.8373 86.4557 35.8373C85.8301 35.123 86.6344 34.4087 87.2599 34.8551L87.3492 34.9444C87.8854 35.4801 86.9024 36.4623 86.4557 35.8373Z" fill="#F1BF6F"/>
</g>
<g opacity="0.68">
<path opacity="0.68" d="M86.3661 29.3139C85.5619 29.3139 85.5619 28.1522 86.3661 28.1522C87.1704 28.1522 87.1704 29.3139 86.3661 29.3139Z" fill="#F1BF6F"/>
</g>
<g opacity="0.68">
<path opacity="0.68" d="M102.992 27.4371C102.992 27.4371 102.992 27.5265 102.992 27.4371C102.009 27.7945 102.009 26.0074 102.903 26.3648H102.992C103.529 26.5435 103.529 27.2584 102.992 27.4371Z" fill="#F1BF6F"/>
</g>
<g opacity="0.68">
<path opacity="0.68" d="M101.115 27.2586C101.115 27.3479 101.204 27.3479 101.204 27.4373C101.562 28.3309 99.7748 28.3309 100.132 27.4373C100.132 27.3479 100.222 27.3479 100.222 27.2586C100.311 26.8118 100.936 26.8118 101.115 27.2586Z" fill="#F1BF6F"/>
</g>
<g opacity="0.68">
<path opacity="0.68" d="M98.5232 32.7094C98.4338 32.4415 98.3445 32.2629 98.5232 31.9951C98.6125 31.8165 98.8806 31.7272 99.1487 31.7272C99.4168 31.8165 99.5955 31.9951 99.6849 32.2629C100.132 32.9772 98.8806 33.5129 98.5232 32.7094Z" fill="#F1BF6F"/>
</g>
<g opacity="0.68">
<path opacity="0.68" d="M96.3774 27.9733C96.3774 27.8839 96.3774 27.8839 96.3774 27.9733C96.3774 27.7946 96.3774 27.7052 96.2881 27.6159C96.9136 28.2413 95.9306 29.2241 95.3051 28.5987C95.1264 28.42 94.9477 28.152 95.037 27.7946C95.1264 26.7225 96.5561 26.9012 96.3774 27.9733Z" fill="#F1BF6F"/>
</g>
<g opacity="0.68">
<path opacity="0.68" d="M95.8414 31.6376C95.2159 31.6376 95.2159 30.6547 95.8414 30.6547C96.4669 30.744 96.4669 31.6376 95.8414 31.6376Z" fill="#F1BF6F"/>
</g>
<g opacity="0.68">
<path opacity="0.68" d="M94.7688 33.0676C94.7688 32.9783 94.7688 32.9783 94.7688 33.0676C95.0369 32.7997 95.3943 32.7997 95.573 33.0676C96.0198 33.4247 95.6624 34.139 95.1263 34.139C94.6795 34.139 94.322 33.4247 94.7688 33.0676Z" fill="#F1BF6F"/>
</g>
<g opacity="0.68">
<path opacity="0.68" d="M113.183 23.7718H113.093C112.557 23.6825 112.468 22.9682 112.736 22.611C113.093 22.2539 113.808 22.3432 113.898 22.9682V23.0575C114.076 23.5039 113.719 23.8611 113.183 23.7718Z" fill="#F1BF6F"/>
</g>
<g opacity="0.68">
<path opacity="0.68" d="M110.233 27.1691C109.876 27.1691 109.876 26.633 110.233 26.633C110.59 26.7224 110.59 27.1691 110.233 27.1691Z" fill="#F1BF6F"/>
</g>
<g opacity="0.68">
<path opacity="0.68" d="M109.518 24.9343C109.607 25.0236 109.607 25.0236 109.518 24.9343C109.518 25.8271 108.267 25.8271 108.267 25.0236V24.9343C108.356 24.1307 109.518 24.1307 109.518 24.9343Z" fill="#F1BF6F"/>
</g>
<g opacity="0.68">
<path opacity="0.68" d="M107.015 28.8661C106.211 28.8661 106.211 27.6161 107.015 27.6161C107.819 27.6161 107.819 28.8661 107.015 28.8661Z" fill="#F1BF6F"/>
</g>
<g opacity="0.68">
<path opacity="0.68" d="M110.054 29.6704C109.25 29.6704 109.25 28.4204 110.054 28.4204C110.858 28.4204 110.858 29.6704 110.054 29.6704Z" fill="#F1BF6F"/>
</g>
<g opacity="0.68">
<path opacity="0.68" d="M113.272 27.616C113.272 27.5267 113.272 27.5267 113.272 27.616C113.451 26.9905 114.345 26.9905 114.434 27.5267V27.616C114.702 28.599 113.004 28.599 113.272 27.616Z" fill="#F1BF6F"/>
</g>
<g opacity="0.68">
<path opacity="0.68" d="M112.646 26.006C112.646 26.006 112.646 25.9167 112.646 26.006C111.932 25.7381 111.932 24.8453 112.557 24.6667H112.646C113.093 24.4881 113.54 24.9346 113.54 25.381C113.54 25.7381 113.093 26.0953 112.646 26.006Z" fill="#F1BF6F"/>
</g>
<g opacity="0.68">
<path opacity="0.68" d="M125.161 20.9118C124.267 20.9118 124.267 19.5725 125.161 19.5725C126.054 19.5725 126.054 20.9118 125.161 20.9118Z" fill="#F1BF6F"/>
</g>
<g opacity="0.68">
<path opacity="0.68" d="M127.127 25.0241C126.502 25.0241 126.502 23.9518 127.127 23.9518C127.753 23.9518 127.753 25.0241 127.127 25.0241Z" fill="#F1BF6F"/>
</g>
<g opacity="0.68">
<path opacity="0.68" d="M124.446 23.7729C123.82 23.7729 123.82 22.79 124.446 22.79C125.071 22.8793 125.071 23.7729 124.446 23.7729Z" fill="#F1BF6F"/>
</g>
<g opacity="0.68">
<path opacity="0.68" d="M123.463 26.9903C123.016 26.9903 123.016 26.2755 123.463 26.2755C123.999 26.2755 123.999 26.9903 123.463 26.9903Z" fill="#F1BF6F"/>
</g>
<g opacity="0.68">
<path opacity="0.68" d="M126.77 22.0739C126.144 22.0739 126.144 21.0909 126.77 21.0909C127.395 21.0016 127.395 22.0739 126.77 22.0739Z" fill="#F1BF6F"/>
</g>
<g opacity="0.68">
<path opacity="0.68" d="M118.725 29.8502C117.921 29.8502 117.921 28.6885 118.725 28.6885C119.529 28.5992 119.529 29.8502 118.725 29.8502Z" fill="#F1BF6F"/>
</g>
<g opacity="0.68">
<path opacity="0.68" d="M117.474 28.2416C116.848 28.2416 116.848 27.2586 117.474 27.2586C118.099 27.2586 118.099 28.2416 117.474 28.2416Z" fill="#F1BF6F"/>
</g>
<g opacity="0.68">
<path opacity="0.68" d="M113.719 30.3861C113.719 30.2968 113.719 30.2968 113.719 30.3861C113.898 29.6718 114.792 29.6718 114.97 30.2968V30.3861C115.238 31.3683 113.451 31.3683 113.719 30.3861Z" fill="#F1BF6F"/>
</g>
<g opacity="0.68">
<path opacity="0.68" d="M107.283 32.2622C106.479 32.2622 106.479 31.0122 107.283 31.0122C108.087 31.1015 108.087 32.2622 107.283 32.2622Z" fill="#F1BF6F"/>
</g>
<g opacity="0.68">
<path opacity="0.68" d="M105.674 26.6328C105.049 26.6328 105.049 25.6498 105.674 25.6498C106.3 25.6498 106.3 26.6328 105.674 26.6328Z" fill="#F1BF6F"/>
</g>
<g opacity="0.68">
<path opacity="0.68" d="M103.171 32.5315C102.725 32.5315 102.725 31.8166 103.171 31.8166C103.707 31.8166 103.707 32.5315 103.171 32.5315Z" fill="#F1BF6F"/>
</g>
<g opacity="0.68">
<path opacity="0.68" d="M102.098 31.1014C102.009 31.1014 102.009 31.1014 102.098 31.1014C101.026 31.3695 101.026 29.6717 102.009 29.9398H102.098C102.635 30.1185 102.635 30.9227 102.098 31.1014Z" fill="#F1BF6F"/>
</g>
<g opacity="0.68">
<path opacity="0.68" d="M98.4336 30.2958C97.4506 30.2958 97.4506 28.7779 98.4336 28.7779C99.4165 28.7779 99.4165 30.2958 98.4336 30.2958Z" fill="#F1BF6F"/>
</g>
<g opacity="0.68">
<path opacity="0.68" d="M98.9697 26.9896C98.9697 27.0788 98.9697 27.0788 98.9697 27.1681C98.8804 27.7931 97.8974 27.7931 97.7187 27.1681C97.7187 27.0788 97.7187 27.0788 97.7187 26.9896C97.4506 25.8288 99.2378 25.8288 98.9697 26.9896Z" fill="#F1BF6F"/>
</g>
<g opacity="0.68">
<path opacity="0.68" d="M104.512 30.2958C103.618 30.2958 103.618 28.8672 104.512 28.8672C105.406 28.8672 105.406 30.2958 104.512 30.2958Z" fill="#F1BF6F"/>
</g>
<g opacity="0.68">
<path opacity="0.68" d="M110.412 31.9057C109.607 31.9057 109.607 30.7441 110.412 30.7441C111.216 30.7441 111.216 31.9057 110.412 31.9057Z" fill="#F1BF6F"/>
</g>
<g opacity="0.68">
<path opacity="0.68" d="M109.429 27.884C108.803 27.884 108.803 26.9011 109.429 26.9011C110.054 26.9011 110.054 27.884 109.429 27.884Z" fill="#F1BF6F"/>
</g>
<g opacity="0.68">
<path opacity="0.68" d="M107.105 25.0242C107.105 25.0242 107.105 24.9349 107.105 25.0242C107.194 24.9349 107.194 25.0242 107.105 25.0242Z" fill="#F1BF6F"/>
</g>
<g opacity="0.68">
<path opacity="0.68" d="M81.0922 32.4409C80.288 32.4409 80.288 31.1909 81.0922 31.1909C81.8964 31.1909 81.8964 32.4409 81.0922 32.4409Z" fill="#F1BF6F"/>
</g>
<g opacity="0.68">
<path opacity="0.68" d="M77.1591 35.7477C76.3549 35.7477 76.3549 34.4977 77.1591 34.4977C77.9633 34.4977 77.9633 35.7477 77.1591 35.7477Z" fill="#F1BF6F"/>
</g>
<g opacity="0.68">
<path opacity="0.68" d="M77.0695 32.3521C77.1588 33.3343 75.7291 33.3343 75.7291 32.4414V32.3521C75.7291 31.4593 76.9801 31.4593 77.0695 32.3521Z" fill="#F1BF6F"/>
</g>
<g opacity="0.68">
<path opacity="0.68" d="M74.1199 37.4457C73.2263 37.4457 73.2263 36.1064 74.1199 36.1064C74.9241 36.1064 74.9241 37.4457 74.1199 37.4457Z" fill="#F1BF6F"/>
</g>
<g opacity="0.68">
<path opacity="0.68" d="M80.2878 34.6764C79.841 34.6764 79.841 33.9615 80.2878 33.9615C80.8239 33.8722 80.8239 34.6764 80.2878 34.6764Z" fill="#F1BF6F"/>
</g>
<g opacity="0.68">
<path opacity="0.68" d="M83.2377 35.9276C83.2377 35.7489 83.3271 35.5701 83.4164 35.4808C83.5952 35.3021 83.7739 35.3021 83.9526 35.4808C84.1313 35.6595 84.1313 35.7489 84.1313 35.9276C84.3994 36.7318 83.059 36.7318 83.2377 35.9276Z" fill="#F1BF6F"/>
</g>
<g opacity="0.68">
<path opacity="0.68" d="M90.4781 28.2415C89.8526 28.2415 89.8526 27.1692 90.4781 27.1692C91.1036 27.2585 91.1036 28.2415 90.4781 28.2415Z" fill="#F1BF6F"/>
</g>
<g opacity="0.68">
<path opacity="0.68" d="M93.0704 27.9734C92.5342 27.9734 92.5342 27.1692 93.0704 27.1692C93.6065 27.1692 93.6065 27.9734 93.0704 27.9734Z" fill="#F1BF6F"/>
</g>
<g opacity="0.68">
<path opacity="0.68" d="M92.7129 34.7658C92.4448 34.7658 92.4448 34.4084 92.7129 34.4084C92.981 34.4084 92.981 34.7658 92.7129 34.7658Z" fill="#F1BF6F"/>
</g>
<g opacity="0.68">
<path opacity="0.68" d="M89.9418 35.7489C89.7631 35.7489 89.7631 35.3915 89.9418 35.3915C90.2099 35.3915 90.2099 35.7489 89.9418 35.7489Z" fill="#F1BF6F"/>
</g>
<g opacity="0.68">
<path opacity="0.68" d="M53.2925 35.8383C53.2925 35.7489 53.2925 35.7489 53.3818 35.6596C53.4712 35.3915 53.8286 35.3915 54.0073 35.6596C54.0073 35.7489 54.0073 35.7489 54.0967 35.8383C54.1861 36.4638 53.0244 36.4638 53.2925 35.8383Z" fill="#F1BF6F"/>
</g>
<g opacity="0.68">
<path opacity="0.68" d="M53.2028 33.7826C53.0241 33.872 52.8454 33.872 52.6667 33.7826C52.2199 33.5146 52.3986 32.7997 52.9347 32.7997C53.5603 32.7997 53.6496 33.5146 53.2028 33.7826Z" fill="#F1BF6F"/>
</g>
<g opacity="0.68">
<path opacity="0.68" d="M58.3873 38.7864C58.3873 38.7864 58.2979 38.7864 58.3873 38.7864C57.9405 39.1435 57.315 38.6971 57.315 38.2507C57.315 37.8042 57.9405 37.3578 58.2979 37.6257C58.2979 37.6257 58.2979 37.6257 58.3873 37.6257C58.7447 37.9828 58.7447 38.5185 58.3873 38.7864Z" fill="#F1BF6F"/>
</g>
<g opacity="0.68">
<path opacity="0.68" d="M52.041 38.1618C52.2197 37.3577 53.3814 37.3577 53.5601 38.0724V38.1618C53.6495 38.6978 53.2921 39.1445 52.7559 39.1445C52.3091 39.1445 51.9517 38.6978 52.041 38.1618Z" fill="#F1BF6F"/>
</g>
<g opacity="0.68">
<path opacity="0.68" d="M64.913 31.1904C64.913 31.1011 64.913 31.1011 64.913 31.1904C65.0024 30.4761 66.0747 30.4761 66.164 31.1011V31.1904C66.2534 31.6368 65.9853 32.0832 65.5385 32.0832C65.0917 31.994 64.8237 31.6368 64.913 31.1904Z" fill="#F1BF6F"/>
</g>
<g opacity="0.68">
<path opacity="0.68" d="M63.3038 34.5858C62.4102 34.5858 62.4102 33.2465 63.3038 33.2465C64.108 33.3358 64.108 34.5858 63.3038 34.5858Z" fill="#F1BF6F"/>
</g>
<g opacity="0.68">
<path opacity="0.68" d="M126.591 42.72C126.234 42.72 126.234 42.1838 126.591 42.1838C126.949 42.1838 126.949 42.72 126.591 42.72Z" fill="#F1BF6F"/>
</g>
<g opacity="0.68">
<path opacity="0.68" d="M124.714 45.0436C124.625 45.0436 124.625 44.9542 124.714 45.0436C124.446 44.5968 124.714 44.15 125.161 44.15C125.608 44.15 125.876 44.5968 125.697 45.0436C125.697 45.0436 125.697 45.0435 125.697 45.1329C125.429 45.401 124.893 45.401 124.714 45.0436Z" fill="#F1BF6F"/>
</g>
<g opacity="0.68">
<path opacity="0.68" d="M123.194 44.2392C122.569 44.2392 122.569 43.2563 123.194 43.2563C123.82 43.2563 123.82 44.2392 123.194 44.2392Z" fill="#F1BF6F"/>
</g>
<g opacity="0.68">
<path opacity="0.68" d="M119.708 48.9749C118.904 48.9749 118.904 47.7249 119.708 47.7249C120.512 47.7249 120.512 48.9749 119.708 48.9749Z" fill="#F1BF6F"/>
</g>
<g opacity="0.68">
<path opacity="0.68" d="M125.518 50.4954C125.518 50.4954 125.518 50.5848 125.518 50.4954C125.876 51.4784 124.178 51.4784 124.446 50.5848V50.4954C124.625 50.0486 125.34 50.0486 125.518 50.4954Z" fill="#F1BF6F"/>
</g>
<g opacity="0.68">
<path opacity="0.68" d="M124.178 46.7418C124.535 47.0992 124.356 47.6354 123.82 47.6354C123.373 47.6354 123.195 47.0992 123.463 46.7418C123.641 46.563 123.999 46.563 124.178 46.7418Z" fill="#F1BF6F"/>
</g>
<g opacity="0.68">
<path opacity="0.68" d="M113.54 46.5629C113.272 46.9204 112.825 46.831 112.825 46.4736C112.825 46.1162 113.362 45.9374 113.54 46.2949C113.54 46.2949 113.54 46.3842 113.63 46.3842C113.63 46.3842 113.63 46.4736 113.54 46.5629Z" fill="#F1BF6F"/>
</g>
<g opacity="0.68">
<path opacity="0.68" d="M111.127 51.2102C111.127 51.1209 111.127 51.1209 111.127 51.2102C111.395 50.9423 111.752 50.9423 112.021 51.2102C112.467 51.5673 112.11 52.3709 111.574 52.3709C111.038 52.2816 110.68 51.5673 111.127 51.2102Z" fill="#F1BF6F"/>
</g>
<g opacity="0.68">
<path opacity="0.68" d="M115.865 50.942C115.865 50.8527 115.865 50.7633 115.865 50.7633C115.954 50.0486 117.205 50.0486 117.384 50.7633C117.384 50.8527 117.384 50.942 117.384 50.942C117.473 51.4781 117.205 52.0141 116.58 52.0141C116.043 51.9248 115.775 51.4781 115.865 50.942Z" fill="#F1BF6F"/>
</g>
<g opacity="0.68">
<path opacity="0.68" d="M117.295 46.0254C116.312 46.0254 116.312 44.5969 117.295 44.5969C118.188 44.5076 118.188 46.0254 117.295 46.0254Z" fill="#F1BF6F"/>
</g>
<g opacity="0.68">
<path opacity="0.68" d="M102.546 50.7634C101.92 50.7634 101.92 49.7805 102.546 49.7805C103.171 49.8698 103.171 50.7634 102.546 50.7634Z" fill="#F1BF6F"/>
</g>
<g opacity="0.68">
<path opacity="0.68" d="M106.479 49.511C105.585 49.511 105.585 48.1718 106.479 48.1718C107.372 48.1718 107.372 49.511 106.479 49.511Z" fill="#F1BF6F"/>
</g>
<g opacity="0.68">
<path opacity="0.68" d="M102.903 54.5166C103.082 53.8023 104.065 53.8023 104.244 54.4273V54.5166C104.333 54.963 104.065 55.4095 103.529 55.4095C103.082 55.4095 102.814 54.963 102.903 54.5166Z" fill="#F1BF6F"/>
</g>
<g opacity="0.68">
<path opacity="0.68" d="M95.2156 51.5664C94.2326 51.5664 94.2326 50.0485 95.2156 50.0485C96.1092 50.0485 96.1092 51.5664 95.2156 51.5664Z" fill="#F1BF6F"/>
</g>
<g opacity="0.68">
<path opacity="0.68" d="M93.8748 55.3214C93.16 55.3214 93.16 54.1597 93.8748 54.1597C94.5897 54.1597 94.5897 55.3214 93.8748 55.3214Z" fill="#F1BF6F"/>
</g>
<g opacity="0.68">
<path opacity="0.68" d="M99.4169 53.3541C98.6127 53.3541 98.6127 52.1041 99.4169 52.1041C100.221 52.1934 100.221 53.3541 99.4169 53.3541Z" fill="#F1BF6F"/>
</g>
<g opacity="0.68">
<path opacity="0.68" d="M99.3275 50.3155C98.5233 50.3155 98.5233 49.0655 99.3275 49.0655C100.132 49.0655 100.132 50.3155 99.3275 50.3155Z" fill="#F1BF6F"/>
</g>
<g opacity="0.68">
<path opacity="0.68" d="M113.987 49.7803C113.272 49.7803 113.272 48.6187 113.987 48.6187C114.702 48.6187 114.702 49.7803 113.987 49.7803Z" fill="#F1BF6F"/>
</g>
<g opacity="0.68">
<path opacity="0.68" d="M111.574 48.2599C111.484 48.3492 111.306 48.3492 111.216 48.4385C110.769 48.5277 110.412 48.1706 110.501 47.7242C110.501 47.6349 110.591 47.4563 110.68 47.367C110.859 47.0099 111.484 46.9206 111.752 47.1885C112.02 47.5456 111.931 48.0813 111.574 48.2599Z" fill="#F1BF6F"/>
</g>
<g opacity="0.68">
<path opacity="0.68" d="M69.4716 56.0353C68.6674 56.0353 68.6674 54.696 69.4716 54.696C70.3652 54.7853 70.3652 56.0353 69.4716 56.0353Z" fill="#F1BF6F"/>
</g>
<g opacity="0.68">
<path opacity="0.68" d="M67.237 62.6499C66.7009 62.6499 66.7009 61.8457 67.237 61.8457C67.7732 61.8457 67.7732 62.6499 67.237 62.6499Z" fill="#F1BF6F"/>
</g>
<g opacity="0.68">
<path opacity="0.68" d="M65.0917 59.2538C65.3598 59.1646 65.6278 59.0753 65.8959 59.3431C66.2534 59.611 66.2534 60.0574 65.9853 60.3253C65.181 61.0395 64.1981 59.611 65.0917 59.2538Z" fill="#F1BF6F"/>
</g>
<g opacity="0.68">
<path opacity="0.68" d="M63.3037 56.8403C62.2314 56.8403 62.2314 55.2321 63.3037 55.2321C64.3761 55.2321 64.3761 56.8403 63.3037 56.8403Z" fill="#F1BF6F"/>
</g>
<g opacity="0.68">
<path opacity="0.68" d="M54.6331 63.9895C53.8289 63.9895 53.8289 62.7395 54.6331 62.7395C55.4373 62.8288 55.4373 63.9895 54.6331 63.9895Z" fill="#F1BF6F"/>
</g>
<g opacity="0.68">
<path opacity="0.68" d="M59.8178 60.3263C59.7284 60.2369 59.7284 60.2369 59.639 60.1475C59.371 59.8795 59.5497 59.254 59.9965 59.3433C60.0858 59.3433 60.2646 59.3433 60.3539 59.4327C61.2475 59.522 60.5326 61.0411 59.8178 60.3263Z" fill="#F1BF6F"/>
</g>
<g opacity="0.68">
<path opacity="0.68" d="M52.9345 57.0188C52.9345 57.1081 52.9345 57.1081 52.9345 57.0188C52.6664 57.6438 51.9515 57.6438 51.6835 57.1081V57.0188C51.5047 56.5724 51.9515 56.2153 52.309 56.2153C52.7558 56.2153 53.1132 56.6617 52.9345 57.0188Z" fill="#F1BF6F"/>
</g>
<g opacity="0.68">
<path opacity="0.68" d="M51.8621 60.3263C51.4153 60.3263 51.4153 59.6115 51.8621 59.6115C52.3089 59.6115 52.3089 60.3263 51.8621 60.3263Z" fill="#F1BF6F"/>
</g>
<g opacity="0.68">
<path opacity="0.68" d="M78.7683 56.4834C78.7683 56.4834 78.7683 56.394 78.8576 56.394C78.947 56.1259 79.3938 56.1259 79.4832 56.394C79.4832 56.394 79.4832 56.4834 79.5725 56.4834C79.7512 56.7514 79.5725 57.1982 79.2151 57.1982C78.7683 57.1982 78.6789 56.7514 78.7683 56.4834Z" fill="#F1BF6F"/>
</g>
<g opacity="0.68">
<path opacity="0.68" d="M86.7237 53.3553C86.6343 53.4446 86.6343 53.534 86.5449 53.6234C86.4556 53.7127 86.2769 53.7127 86.1875 53.6234C86.0981 53.534 86.0088 53.534 86.0088 53.3553C85.9194 53.0872 86.0088 52.7298 86.3662 52.7298C86.7236 52.6404 86.9024 52.9978 86.7237 53.3553Z" fill="#F1BF6F"/>
</g>
<g opacity="0.68">
<path opacity="0.68" d="M85.5618 56.2152C85.3831 56.2152 85.3831 55.9471 85.5618 55.9471C85.7405 55.9471 85.7405 56.2152 85.5618 56.2152Z" fill="#F1BF6F"/>
</g>
<g opacity="0.68">
<path opacity="0.68" d="M88.8692 56.8405C88.8692 56.6618 88.8692 56.4831 88.8692 56.3044C88.9586 55.5003 90.0309 55.5003 90.1202 56.3044C90.1202 56.4831 90.1202 56.6618 90.1202 56.8405C90.0309 57.6446 88.9586 57.6446 88.8692 56.8405Z" fill="#F1BF6F"/>
</g>
<g opacity="0.68">
<path opacity="0.68" d="M91.4612 49.4229C92.5335 49.5122 92.5335 50.8515 91.5506 50.9408H91.4612C91.0144 51.0301 90.657 50.5836 90.657 50.1372C90.657 49.7801 91.0144 49.3336 91.4612 49.4229Z" fill="#F1BF6F"/>
</g>
<g opacity="0.68">
<path opacity="0.68" d="M76.3544 56.1252C74.9247 56.1252 74.9247 53.981 76.3544 53.981C77.7842 53.981 77.7842 56.1252 76.3544 56.1252Z" fill="#F1BF6F"/>
</g>
<g opacity="0.68">
<path opacity="0.68" d="M76.4438 58.2708C76.4438 58.2708 76.5332 58.2708 76.4438 58.2708C76.7119 58.4495 76.7119 58.8963 76.4438 59.075C76.0864 59.4325 75.4609 59.1644 75.4609 58.6282C75.4609 58.1814 76.0864 57.9134 76.4438 58.2708Z" fill="#F1BF6F"/>
</g>
<g opacity="0.68">
<path opacity="0.68" d="M83.7741 58.1804C83.6847 57.734 83.7741 57.5554 84.0421 57.2876C84.2209 57.109 84.5783 57.109 84.757 57.2876C85.0251 57.5554 85.1144 57.8233 85.0251 58.1804C84.9357 58.8054 83.8634 58.8054 83.7741 58.1804Z" fill="#F1BF6F"/>
</g>
<g opacity="0.68">
<path opacity="0.68" d="M82.5225 54.0703C82.4331 54.0703 82.4331 54.0703 82.3438 54.0703C82.0757 53.9809 82.0757 53.6235 82.3438 53.6235C82.4331 53.6235 82.4331 53.6235 82.5225 53.6235C82.9693 53.3554 82.9693 54.1596 82.5225 54.0703Z" fill="#F1BF6F"/>
</g>
<g opacity="0.68">
<path opacity="0.68" d="M70.9913 60.3262C70.3658 60.3262 70.3658 59.3433 70.9913 59.3433C71.6168 59.3433 71.6168 60.3262 70.9913 60.3262Z" fill="#F1BF6F"/>
</g>
<g opacity="0.68">
<path opacity="0.68" d="M72.4215 56.6619C71.6172 56.6619 71.6172 55.5002 72.4215 55.5002C73.2257 55.5002 73.2257 56.6619 72.4215 56.6619Z" fill="#F1BF6F"/>
</g>
<g opacity="0.68">
<path opacity="0.68" d="M67.0581 58.1801C66.1645 58.1801 66.1645 56.8408 67.0581 56.8408C67.9517 56.8408 67.9517 58.1801 67.0581 58.1801Z" fill="#F1BF6F"/>
</g>
<g opacity="0.68">
<path opacity="0.68" d="M63.3037 63.1852C63.2143 63.1852 63.0356 63.2745 62.9463 63.2745C62.142 63.2745 62.142 62.1138 62.9463 62.0245C63.125 62.0245 63.2143 62.0245 63.3037 62.1138C63.8398 62.203 63.8398 63.0066 63.3037 63.1852Z" fill="#F1BF6F"/>
</g>
<g opacity="0.68">
<path opacity="0.68" d="M57.7619 57.7346C57.6725 57.7346 57.6725 57.6452 57.7619 57.7346C57.7619 57.6452 57.7619 57.7346 57.7619 57.7346Z" fill="#F1BF6F"/>
</g>
<g opacity="0.68">
<path opacity="0.68" d="M56.1525 61.3984C55.9738 61.8451 55.0802 61.7557 54.9909 61.2197C54.9015 60.6836 55.0802 60.3263 55.6164 60.1476C56.3312 59.8796 56.778 60.9517 56.1525 61.3984Z" fill="#F1BF6F"/>
</g>
<g opacity="0.68">
<path opacity="0.68" d="M49.5379 61.577C48.4656 61.577 48.4656 59.9689 49.5379 59.9689C50.6102 59.9689 50.6102 61.577 49.5379 61.577Z" fill="#F1BF6F"/>
</g>
<g opacity="0.68">
<path opacity="0.68" d="M58.4765 57.0193C58.4765 57.3767 58.3871 57.6447 58.119 57.9128C57.5829 58.4488 56.868 58.0021 56.7786 57.3767C56.7786 57.1087 56.868 56.8406 56.9574 56.662C57.4935 56.0366 58.5658 56.2152 58.4765 57.0193Z" fill="#F1BF6F"/>
</g>
<g opacity="0.68">
<path opacity="0.68" d="M50.0745 66.4037C50.0745 66.3143 50.0745 66.3143 50.0745 66.4037C50.1638 65.7782 50.8787 65.7782 50.9681 66.3143V66.4037C50.9681 66.9398 50.0745 66.9398 50.0745 66.4037Z" fill="#F1BF6F"/>
</g>
<g opacity="0.68">
<path opacity="0.68" d="M57.4042 65.4205C56.8681 65.4205 56.8681 64.6163 57.4042 64.6163C57.9404 64.6163 57.9404 65.4205 57.4042 65.4205Z" fill="#F1BF6F"/>
</g>
<g opacity="0.68">
<path opacity="0.68" d="M62.1417 64.8831C61.2482 64.8831 61.2482 63.5438 62.1417 63.5438C63.0353 63.5438 63.0353 64.8831 62.1417 64.8831Z" fill="#F1BF6F"/>
</g>
<g opacity="0.68">
<path opacity="0.68" d="M57.8511 62.8274C56.8681 62.8274 56.8681 61.3095 57.8511 61.3095C58.834 61.3095 58.834 62.8274 57.8511 62.8274Z" fill="#F1BF6F"/>
</g>
</g>
<path d="M128.022 63.3651C128.022 63.3651 124.357 63.5438 120.066 64.1694C115.775 64.795 111.306 65.5994 111.306 65.5994L91.1933 69.4424L76.8017 72.481L61.6056 75.8772L48.3761 78.469L46.3201 78.9159L44.7112 77.6647L41.4932 76.8603C41.4932 76.8603 39.2584 78.2903 39.2584 79.4521C39.2584 80.614 39.2584 82.1333 39.2584 82.1333L41.8507 84.1888L44.5324 84.6357H45.6944L68.0416 79.184L90.1207 74.2685L109.339 70.6042L127.128 67.5656L128.022 63.3651Z" fill="#C37B51"/>
<path d="M127.217 64.7057L113.094 66.5825L80.7348 72.7492C80.7348 72.7492 67.2371 75.5198 64.8236 76.1454C62.4995 76.771 45.6944 80.4352 45.6944 80.4352C45.6944 80.4352 44.5324 79.0947 43.1915 78.6478C41.8507 78.2903 40.5993 78.0222 40.5993 78.0222L41.4038 77.486H44.1748L46.5883 78.5584L52.7561 77.5753L66.1645 75.341L78.4107 71.9449L93.6962 68.9062L117.742 64.5269L128.022 63.4545L127.217 64.7057Z" fill="#915B3A"/>
<path d="M46.1414 78.9159C45.7838 80.2564 45.6944 81.597 45.6944 82.9376C45.6944 83.3845 45.6944 83.9207 45.4263 84.1888C44.9793 84.8144 43.996 84.5463 43.2809 84.1888C42.2976 83.742 41.3144 83.2951 40.3311 82.8482C39.9735 82.6695 39.5266 82.4908 39.4372 82.0439C39.3478 81.6864 39.4372 81.3289 39.4372 81.0608C39.4372 80.7033 39.2584 80.3458 39.169 79.899C39.0796 79.0052 39.9735 78.2902 40.6886 77.754C41.0462 77.4859 41.3144 77.3071 41.7613 77.2178C42.0295 77.2178 42.2976 77.2178 42.6552 77.3071C43.2809 77.3965 43.9066 77.3071 44.5324 77.4859C45.3369 77.754 46.052 78.3796 46.3201 79.2733L46.1414 78.9159Z" fill="#AC6D47"/>
<path opacity="0.54" d="M109.518 67.4762C109.16 67.8336 108.892 68.1018 108.535 68.4593C108.892 68.1911 109.518 68.4593 109.518 68.9955C107.373 70.7829 104.155 70.5148 101.294 70.9617C99.1489 71.2298 97.093 72.0342 94.9477 72.6598C88.5117 74.8047 81.8075 76.2347 75.1033 77.039C75.3715 76.8603 75.6397 76.5922 75.9078 76.4134C75.6397 76.5028 75.3715 76.1453 75.3715 75.8772C75.2821 74.4472 76.9805 73.7322 78.3213 73.3747C84.3998 72.0342 90.3888 70.6936 96.4673 69.353C100.847 68.3699 105.227 67.3868 109.697 67.0293L109.518 67.4762Z" fill="#D19977"/>
<path d="M96.9142 0.357482C102.099 3.75364 107.462 6.70293 112.915 9.56285C115.686 10.9928 118.457 12.6015 121.496 13.674C122.926 14.2102 124.446 14.5677 126.055 14.6571C126.77 14.6571 127.396 14.5677 128.022 14.5677C128.468 14.5677 130.077 14.6571 130.435 14.9252C128.915 13.5846 127.575 13.5846 125.697 13.4059C123.82 13.1378 121.943 12.6909 120.245 12.0653C117.474 10.9928 114.792 9.56285 112.11 8.22226C107.105 5.63046 102.188 2.85991 97.2718 0.178737C96.9142 -0.0893807 96.7354 0.178737 96.9142 0.357482Z" fill="#965C2E"/>
<path d="M38.9903 82.0439C40.4205 83.8313 43.4597 85.6188 45.7838 84.9038C45.9626 84.8144 46.052 84.4569 45.7838 84.4569C44.7111 84.1888 43.6385 84.1888 42.6552 83.8313C41.4038 83.3845 40.4205 82.5801 39.4372 81.6864C39.169 81.4183 38.7221 81.7758 38.9903 82.0439Z" fill="#6E4E40"/>
<path d="M45.9626 84.7251C49.3594 84.3676 52.7561 83.2057 56.0635 82.4014C59.3709 81.597 62.7677 80.7927 66.0751 79.9883C72.7792 78.3796 79.4834 76.8603 86.277 75.5197C99.7747 72.7492 113.362 70.4255 127.038 68.4593C127.753 68.3699 127.485 67.2081 126.77 67.2974C105.317 70.3361 84.0422 74.4472 62.9465 79.6308C59.9966 80.3458 57.0468 81.0608 54.1864 81.8652C51.4153 82.5801 48.3761 83.2057 45.7838 84.457C45.6944 84.457 45.7838 84.7251 45.9626 84.7251Z" fill="#6B4327"/>
<path d="M41.3144 77.6642C42.1189 77.6642 42.9234 77.5749 43.7279 77.7535C44.3536 77.9321 44.9793 78.3787 45.605 78.3787C45.7838 78.3787 45.8732 78.2001 45.7838 78.0215C45.3369 77.3069 44.3536 77.1283 43.6385 77.039C42.834 76.8604 41.9401 76.8604 41.225 77.1283C40.9568 77.3069 41.1356 77.6642 41.3144 77.6642Z" fill="#6E4E40"/>
<path d="M46.1414 78.9159C48.6443 78.8265 51.2365 78.2009 53.7394 77.7541C56.4211 77.3072 59.1921 76.771 61.8738 76.3241C64.3767 75.8772 66.8796 75.4304 69.2931 74.7154C71.8854 74.0004 74.3882 73.1961 76.9805 72.5705C87.5284 70.1574 98.2551 68.37 108.892 66.4931C114.971 65.4207 121.049 64.2588 127.128 63.4545C127.664 63.3651 127.485 62.5607 126.949 62.6501C113.272 64.5269 99.7747 67.4762 86.1876 69.9787C82.8802 70.6043 79.4834 71.1405 76.176 71.8555C72.8686 72.5705 69.74 73.7323 66.4326 74.4473C63.1252 75.1623 59.8179 75.6985 56.4211 76.3241C53.0243 76.9497 49.3594 77.3072 46.052 78.4691C45.9626 78.6478 45.9626 78.9159 46.1414 78.9159Z" fill="#C37B51"/>
<path d="M45.605 81.3289C45.5156 81.9545 45.5156 82.5801 45.605 83.2057C45.605 83.742 45.5156 84.2782 45.605 84.8145C45.605 85.0826 45.9626 84.9932 46.052 84.8145C46.1414 84.1888 45.9626 83.5632 45.9626 82.9376C45.9626 82.4014 45.9626 81.8652 45.8732 81.3289C45.6944 81.2396 45.605 81.2396 45.605 81.3289Z" fill="#6E4E40"/>
<path d="M39.4372 22.9686C39.169 23.5942 38.8115 24.1305 38.6327 24.7561C38.4539 25.3817 38.3645 26.0967 38.4539 26.8116C38.4539 27.4373 38.5433 28.0629 38.9009 28.5991C39.169 29.1353 39.616 29.6716 39.7054 30.2972C39.8842 31.459 39.8842 32.6209 39.7948 33.7827C39.7054 35.7489 39.5266 37.6257 39.7054 39.5919C39.9735 42.005 40.5993 44.418 40.8674 46.9205C41.225 49.8698 40.3311 52.6403 40.1523 55.5896C39.9735 58.6283 39.9735 61.6669 40.1523 64.7056C40.2417 65.7781 40.0629 69.6211 41.6719 69.7998C41.6719 69.5317 41.6719 69.2636 41.6719 68.9955C41.225 68.9955 40.778 68.9955 40.3311 68.9955C40.0629 68.9955 39.9735 69.1742 39.8842 69.353C39.7054 70.5148 39.7054 71.6767 39.7948 72.8385C39.9735 74.0897 40.9568 75.7878 40.5099 76.8603C40.1523 77.8434 39.8842 77.5752 39.169 78.2008C38.9903 78.3796 38.9009 78.469 38.8115 78.7371C38.4539 79.4521 38.8115 80.3458 38.9009 81.1501C38.9009 81.6864 39.7054 81.6864 39.7054 81.1501C39.7054 80.7033 39.5266 80.2564 39.5266 79.8989C39.616 78.5583 39.9735 78.7371 40.6887 78.2902C41.225 78.0221 41.7613 77.6646 41.8507 77.039C41.9401 76.1453 41.1356 74.8941 40.9568 74.0897C40.5099 72.5704 40.5099 70.9617 40.778 69.4423C40.5993 69.5317 40.5099 69.7105 40.3311 69.7998C40.778 69.7998 41.225 69.7998 41.6719 69.7998C42.2083 69.7998 42.2083 69.0848 41.6719 68.9955C41.225 68.9061 41.0462 66.2249 41.0462 65.9568C40.8674 64.2587 40.8674 62.5607 40.8674 60.8626C40.8674 58.1814 40.6887 55.2321 41.3144 52.6403C41.8507 50.406 41.9401 48.3504 41.5825 46.0267C41.225 43.2562 40.4205 40.4856 40.3311 37.6257C40.2417 35.3914 40.778 33.1571 40.5993 30.9228C40.5099 30.1184 40.3311 29.3141 39.8842 28.5991C39.3478 27.7054 39.169 26.9904 39.0796 26.0073C38.9009 24.9348 39.0797 23.9517 39.4372 22.9686Z" fill="#7A3E31"/>
<path d="M127.396 64.4375C127.396 64.3482 127.396 64.3482 127.396 64.2588C127.396 63.9907 127.396 63.8119 127.396 63.5438C127.664 63.4544 127.843 63.3651 128.022 63.2757C128.379 63.9907 128.558 64.9738 128.468 65.6888C128.379 66.4931 128.111 67.3868 127.485 68.0124C127.396 68.1018 127.217 68.1912 127.128 68.1912V68.1018C127.038 68.1018 127.038 68.1912 126.949 68.1912C126.77 68.1912 126.591 68.1912 126.413 68.0124C127.128 66.94 127.396 65.6887 127.396 64.4375Z" fill="#935D3C"/>
<path d="M126.413 26.3648C126.502 26.3648 126.502 26.2755 126.591 26.2755V26.6329C126.591 26.5435 126.502 26.4542 126.413 26.3648Z" fill="#F6D39B"/>
<path d="M126.591 26.1861C126.681 26.1861 126.859 26.1861 126.949 26.1861C126.859 26.1861 126.681 26.2755 126.591 26.2755V26.1861Z" fill="#F6D39B"/>
<path d="M41.6719 74.626C42.5658 75.5197 45.1581 76.0559 46.4095 76.5028C46.4989 76.5028 46.5883 76.5922 46.6777 76.5922C48.6443 77.1284 52.3092 75.6985 54.2758 75.341C56.9574 74.8047 59.5497 74.3579 62.2314 73.7323C64.7342 73.1067 84.0422 69.0849 90.2994 67.7443C95.5734 66.5825 118.278 62.1138 125.608 60.6839C125.608 60.5945 125.519 60.5051 125.519 60.4158C126.055 60.1476 126.591 59.7902 126.859 59.2539C126.949 58.9858 126.949 58.8071 126.949 58.5389C127.038 57.2877 127.038 56.0365 127.128 54.7853C127.128 54.4278 127.038 53.9809 126.77 53.9809C127.753 52.7297 128.022 50.8529 127.485 49.3336C127.575 49.1548 127.664 48.9761 127.843 48.708C127.664 48.4398 127.306 48.2611 126.949 48.3505L127.038 48.6186C126.859 48.3505 126.591 48.2611 126.323 48.3505C127.485 47.8142 128.647 47.278 129.809 46.7418C130.167 47.7249 129.988 48.8867 129.899 49.9592C129.541 52.3722 129.184 54.8747 128.826 57.2877C128.647 58.5389 128.826 62.2926 127.575 63.0076C127.306 63.1863 127.038 63.1863 126.77 63.1863C124.804 63.4544 122.748 63.8119 120.781 63.9907C117.474 64.5269 114.256 65.0631 110.948 65.5994L92.8023 69.0849L73.8519 72.8385L68.578 74.7154L61.9632 76.0559L50.3426 77.8434C49.0912 78.2009 47.0353 79.0052 45.8732 78.2903C45.3369 77.9328 44.8899 77.2178 44.2642 77.1284C43.9066 77.039 43.5491 77.2178 43.2809 77.2178C42.6552 77.2178 41.8507 77.2178 41.5825 76.5028C41.4932 76.1453 41.4038 75.7878 41.4038 75.4303C41.3144 74.3579 41.0462 73.2854 40.6887 72.3023C40.6887 73.2854 41.0462 74.0898 41.6719 74.626Z" fill="#F6D39B"/>
<path d="M130.614 17.5169C130.703 17.6957 130.703 17.785 130.793 17.9638C131.15 19.0363 131.15 20.1981 131.061 21.3599C124.625 18.0532 119.53 19.8406 112.825 21.0918C106.211 22.343 99.6853 23.5943 93.0705 24.9348C81.6287 27.0798 70.187 29.4035 58.6558 31.2803C56.5999 31.6378 52.2198 31.3697 50.5214 32.3528C48.3761 33.604 48.1079 37.6257 47.9291 39.8601C47.9291 38.162 47.9291 36.3745 47.9291 34.6765C47.9291 34.1402 47.9291 33.5146 47.5716 33.0677C46.4989 31.5484 41.8507 33.7827 40.778 31.8165C40.778 31.8165 39.2584 28.8672 40.2417 26.4542C41.225 23.9517 117.831 13.6739 117.831 13.6739C121.764 12.9589 128.647 13.1377 130.614 17.5169Z" fill="#D19977"/>
<path d="M91.5509 1.2512L96.7354 0.0893555L105.496 5.09422L117.742 11.7078L126.144 14.1208L122.301 15.4614L96.646 21.7175L72.4217 26.0968C62.142 27.8842 51.7729 29.4929 41.3144 29.761C40.9568 29.761 40.6886 29.761 40.4205 29.5823C40.2417 29.4035 40.0629 29.2248 39.9735 28.9567C39.3478 27.8842 38.9903 26.633 38.9903 25.4711C39.2584 20.5557 44.7111 19.1257 48.3761 17.6064C53.2925 15.5508 58.1195 13.4059 62.8571 11.0822C66.4326 9.3841 70.3657 8.57974 74.1201 7.23916C79.8409 5.36233 85.7406 3.30677 91.5509 1.2512Z" fill="#8C2F1E"/>
<path d="M60.9799 28.0629C59.0134 28.4204 57.0468 28.7779 55.1696 29.2247C50.7896 30.2972 44.8005 30.476 40.3311 30.1185C44.8005 28.6885 50.2533 29.046 54.9909 28.331C59.1027 27.7054 63.2146 27.3479 67.3265 26.7223C70.0976 26.2755 72.958 25.918 75.7291 25.4711C81.5393 24.5774 87.2602 23.4155 92.9811 22.1643C104.691 19.6619 116.312 16.5339 127.932 13.7633C128.29 13.6739 128.379 14.2102 128.022 14.2995C121.407 15.9976 114.792 17.6063 108.177 19.215C96.9142 21.9856 85.4724 24.6667 73.9413 26.2755C69.6506 26.8117 65.2706 27.3479 60.9799 28.0629Z" fill="#965C2E"/>
<path d="M98.0763 19.393C98.1657 19.0355 98.1657 18.5886 98.0763 18.0524C97.8975 17.6949 97.7187 17.4268 97.6293 17.0693L97.8975 17.1586C97.2718 14.835 95.7522 12.0644 95.3052 10.4557C94.4113 7.41704 92.8023 4.64649 91.9084 1.60782C91.819 1.42908 92.0872 1.33971 92.1766 1.51845C93.9644 4.73586 95.5734 8.22139 97.1824 11.5282C98.1657 13.6731 99.3277 15.5499 100.49 17.5161C100.669 17.8736 100.847 18.1417 101.115 18.4099L102.635 19.0355C102.546 19.0355 102.456 19.1248 102.456 19.1248C102.993 19.2142 103.529 19.2142 103.976 19.4823C102.188 20.0186 101.026 20.5548 100.132 20.2867C99.9534 20.3761 99.864 20.3761 99.6853 20.4654C98.6126 20.8229 97.4505 20.8229 96.3779 20.376C97.0036 20.8229 97.8975 20.1973 98.0763 19.393Z" fill="#5D1803"/>
<path d="M67.4159 9.11597C69.5612 8.57973 71.9747 8.49036 73.7625 7.86475C72.8686 8.13287 71.9747 8.49036 71.1702 9.11597C68.8461 10.9928 70.9914 13.3165 72.2429 15.1933C72.6898 15.8189 74.9246 19.4832 76.8911 22.1644L80.6454 24.5774C80.7348 24.7562 80.4667 24.8455 80.3773 24.8455C80.0197 24.9349 79.6622 24.9349 79.394 25.0243C79.6622 25.203 79.8409 25.2924 79.9303 25.203C81.5393 24.488 82.2544 24.2199 82.4332 22.075C82.612 19.4832 81.4499 16.3551 80.9136 13.8527C80.4667 11.6184 79.5728 8.57973 80.3773 6.25605C80.2879 5.98793 80.3773 5.63044 80.7348 5.4517C80.8242 5.36232 80.9136 5.18358 81.003 5.09421C81.3606 4.64734 81.9863 4.73672 82.1651 5.18358C87.439 9.92032 91.2827 15.9977 96.5567 20.7344C96.646 20.8238 96.5567 20.9131 96.4673 20.8238C93.875 18.5895 91.819 15.9977 89.5843 13.4058C87.9753 11.529 86.2769 9.83095 84.5785 8.22224C85.0255 8.93722 85.3831 9.6522 85.7406 10.0991C88.4223 13.9421 91.2827 17.9638 93.6068 22.075C93.6962 22.1644 93.5174 22.3431 93.428 22.2537C91.1933 19.8407 89.4055 16.9808 87.3496 14.4783C86.5451 13.4952 85.7406 12.4228 84.9361 11.4397C84.3998 10.7247 83.1483 8.57973 82.0757 7.50726C81.7181 11.9759 83.3271 16.4445 83.4165 20.9131C83.4165 22.1644 83.6847 24.1306 82.7014 25.203C82.0757 25.918 80.3773 25.5605 79.7516 25.7393C79.5728 25.7393 79.4834 25.5605 79.6622 25.4711C79.6622 25.4711 79.7516 25.4711 79.7516 25.3818C79.6622 25.2924 79.4834 25.203 79.394 25.0243C77.5168 25.2924 75.6397 25.6499 73.6731 25.918C74.1201 25.3818 75.0139 25.2924 75.6397 24.9349C76.2654 24.5774 76.8017 23.9518 76.8017 23.1475C76.8017 22.8793 76.7123 22.6112 76.6229 22.2537C76.3548 21.9856 76.0866 21.6281 75.8184 21.36L76.3548 21.7175C75.3715 20.0194 73.2262 17.8745 72.4217 16.802C70.0976 13.4058 68.7567 11.0822 64.2873 10.5459C65.0918 9.83095 66.1645 9.38409 67.4159 9.11597Z" fill="#5D1803"/>
<path d="M61.1587 22.3431C60.4436 19.7513 59.6391 17.2489 59.0134 14.5677C59.0134 14.4783 59.1027 14.4783 59.1027 14.5677C60.2648 17.6064 61.695 25.5605 65.6281 26.633C65.0024 24.1306 64.6448 21.4494 64.5555 18.7682C65.36 21.0919 65.9857 23.505 66.6114 25.918C66.7008 26.1861 66.7008 26.4542 66.522 26.633C65.36 27.9736 59.7285 27.7948 58.0301 28.0629C59.0134 27.8842 59.9966 27.6161 60.7117 26.9905C62.3207 25.7393 61.6056 23.9518 61.1587 22.3431Z" fill="#5D1803"/>
<path d="M43.6385 19.7513C43.9066 19.6619 44.0854 19.5725 44.3536 19.4832C45.2475 20.5556 46.1414 21.7175 47.1246 22.7899C48.823 24.6668 50.432 26.5436 51.7729 28.6885C51.7729 28.7779 51.7729 28.7779 51.6835 28.7779C49.4488 27.2586 47.661 25.3817 45.7838 23.4155C44.8005 22.3431 43.7279 21.2706 42.7446 20.1088C43.1021 20.0194 43.3703 19.93 43.6385 19.7513Z" fill="#5D1803"/>
<path d="M100.222 7.686C102.814 9.38408 105.585 10.814 108.356 12.244C110.859 13.4952 113.362 13.8527 115.954 14.7464C116.49 14.9252 117.027 15.1039 117.474 15.4614C117.921 15.8189 118.278 16.3551 118.189 16.8914C116.848 17.6064 115.15 17.6064 113.63 17.0701C111.306 16.2658 110.054 14.6571 108.177 13.2271C105.585 11.3503 102.725 9.74157 100.132 7.95412C99.9535 7.77538 100.043 7.59663 100.222 7.686Z" fill="#5D1803"/>
<path d="M98.8808 19.0365C98.9702 18.679 98.9702 18.2322 98.8808 17.6959C98.702 17.3384 98.5232 17.0703 98.4338 16.7128L98.702 16.8022C98.0763 14.4785 96.5567 11.708 96.1097 10.0993C95.2158 7.06059 93.6068 4.29004 92.7129 1.25138C92.6235 1.07263 92.8917 0.983261 92.9811 1.16201C94.7689 4.37942 96.3779 7.86495 97.9869 11.1717C98.9702 13.3167 100.132 15.1935 101.294 17.1597C101.473 17.5172 101.652 17.7853 101.92 18.0534L103.44 18.679C103.35 18.679 103.261 18.7684 103.261 18.7684C103.797 18.8578 104.333 18.8578 104.78 19.1259C102.993 19.6621 101.831 20.1984 100.937 19.9302C100.758 20.0196 100.669 20.0196 100.49 20.109C99.4171 20.4665 98.255 20.4665 97.1824 20.0196C97.8975 20.4665 98.7914 19.8409 98.8808 19.0365Z" fill="#FAF180"/>
<path d="M68.2204 8.75849C70.3657 8.22225 72.7792 8.13288 74.567 7.50727C73.6731 7.77539 72.7792 8.13288 71.9747 8.75849C69.6506 10.6353 71.7959 12.959 73.0474 14.8358C73.4943 15.4614 75.7291 19.1257 77.6956 21.8069L81.4499 24.2199C81.5393 24.3987 81.2712 24.488 81.1818 24.488C80.8242 24.5774 80.4667 24.5774 80.1985 24.6668C80.4667 24.8455 80.6454 24.9349 80.7348 24.8455C82.3438 24.1306 83.0589 23.8624 83.2377 21.7175C83.4165 19.1257 82.2544 15.9977 81.7181 13.4952C81.2712 11.2609 80.2879 8.22225 81.1818 5.89856C81.0924 5.63045 81.1818 5.27296 81.5393 5.09421C81.6287 5.00484 81.7181 4.82609 81.8075 4.73672C82.1651 4.28986 82.7908 4.37923 82.9695 4.82609C88.2435 9.56284 92.0872 15.6402 97.3612 20.3769C97.4505 20.4663 97.3612 20.5557 97.2718 20.4663C94.6795 18.232 92.6235 15.6402 90.3888 13.0484C88.7798 11.1715 87.0814 9.47347 85.3831 7.86476C85.83 8.57974 86.1875 9.29472 86.5451 9.74158C89.2268 13.5846 92.0872 17.6064 94.4113 21.7175C94.5007 21.8069 94.3219 21.9856 94.2325 21.8962C91.9978 19.4832 90.21 16.6233 88.1541 14.1208C87.3496 13.1377 86.5451 12.0653 85.7406 11.0822C85.2043 10.3672 83.9528 8.22225 82.8802 7.14978C82.5226 11.6184 84.1316 16.087 84.221 20.5557C84.221 21.8069 84.4892 23.7731 83.5059 24.8455C82.8802 25.5605 81.1818 25.203 80.5561 25.3818C80.3773 25.3818 80.2879 25.203 80.4667 25.1137C80.4667 25.1137 80.5561 25.1137 80.5561 25.0243C80.4667 24.9349 80.2879 24.8455 80.1985 24.6668C78.3213 24.9349 76.4442 25.2924 74.4776 25.5605C74.9246 25.0243 75.8184 24.9349 76.4442 24.5774C77.0699 24.2199 77.6062 23.5943 77.6062 22.79C77.6062 22.5219 77.5168 22.2537 77.4274 21.8962C77.1593 21.6281 76.8911 21.2706 76.6229 21.0025L77.1593 21.36C76.176 19.6619 74.0307 17.517 73.2262 16.4445C70.9021 13.0484 69.5612 10.7247 65.0918 10.1884C65.8963 9.47347 67.0583 9.0266 68.2204 8.75849Z" fill="#FAF180"/>
<path d="M62.0526 21.9856C61.3375 19.3938 60.533 16.8913 59.9072 14.2102C59.9072 14.1208 59.9966 14.1208 59.9966 14.2102C61.1587 17.2488 62.5889 25.203 66.522 26.2754C65.8963 23.6836 65.5387 21.0918 65.4494 18.4107C66.2539 20.7344 66.8796 23.1474 67.5053 25.5605C67.5947 25.8286 67.5947 26.0967 67.4159 26.2754C66.2539 27.616 60.6224 27.4373 58.924 27.7054C59.9073 27.5267 60.8905 27.2585 61.6056 26.6329C63.1253 25.3817 62.4995 23.5943 62.0526 21.9856Z" fill="#FAF180"/>
<path d="M44.443 19.4831C44.7111 19.3938 44.8899 19.3044 45.1581 19.215C46.052 20.2875 46.9459 21.4493 47.9291 22.5218C49.6275 24.3986 51.2365 26.2755 52.5774 28.4204C52.5774 28.5098 52.5774 28.5098 52.488 28.5098C50.2533 26.9904 48.4655 25.1136 46.5883 23.1474C45.605 22.0749 44.5324 21.0025 43.5491 19.8406C43.9066 19.6619 44.1748 19.5725 44.443 19.4831Z" fill="#FAF180"/>
<path d="M101.115 7.32841C103.708 9.02649 106.479 10.4565 109.25 11.8864C111.753 13.1376 114.256 13.4951 116.848 14.3888C117.384 14.5676 117.921 14.7463 118.368 15.1038C118.814 15.4613 119.172 15.9975 119.083 16.5338C117.742 17.2488 116.043 17.2488 114.524 16.7125C112.2 15.9082 110.948 14.2995 109.071 12.8695C106.479 10.9927 103.618 9.38398 101.026 7.59653C100.847 7.50716 100.937 7.23904 101.115 7.32841Z" fill="#FAF180"/>
<path d="M84.5786 4.37922L88.9586 3.39612L96.4673 7.686L107.015 13.4058L114.166 15.4614L110.859 16.6232L88.8692 21.9856L68.131 25.7392C59.2815 27.2586 50.432 28.6885 41.4931 28.8673C41.225 28.8673 40.9568 28.8673 40.6886 28.6885C40.5099 28.5992 40.4205 28.4204 40.2417 28.1523C39.7054 27.2586 39.3478 26.1861 39.4372 25.1136C39.7054 20.9131 44.3536 19.6619 47.4822 18.3213C51.6835 16.5339 55.7954 14.7464 59.9072 12.7802C62.9465 11.3503 66.3432 10.6353 69.5612 9.47345C74.567 7.86474 79.5728 6.16667 84.5786 4.37922Z" fill="url(#paint0_radial)"/>
<path d="M125.965 14.5676C125.518 14.4783 124.982 14.1208 124.625 14.657C124.625 14.7464 124.625 14.8357 124.625 14.9251C124.982 15.4612 125.518 15.0144 125.965 15.0144C126.144 14.8357 126.144 14.5676 125.965 14.5676Z" fill="white"/>
<path d="M120.066 15.2827C119.351 15.1933 118.725 15.3721 118.01 15.5508C117.295 15.6402 116.58 15.6402 116.043 16.1764C115.686 16.5339 115.865 16.9808 116.312 17.1595C116.937 17.4276 117.652 17.0701 118.278 16.8914C118.904 16.7126 119.708 16.6233 120.245 16.2658C120.513 16.087 120.602 15.3721 120.066 15.2827Z" fill="white"/>
<path d="M113.63 17.4275C113.004 17.4275 112.378 17.3382 111.842 17.4275C111.395 17.5169 110.859 17.5169 110.591 17.7851C110.501 17.8745 110.501 18.0533 110.68 18.0533C111.127 18.1427 111.485 17.9639 111.932 17.8745C112.557 17.7851 113.094 17.6063 113.719 17.6063C113.719 17.6063 113.719 17.4275 113.63 17.4275Z" fill="white"/>
<path d="M105.764 19.215C98.4338 21.1812 90.8358 21.4493 83.5059 23.5048C82.7908 23.6836 83.1483 24.7561 83.7741 24.5773C91.1933 22.7005 98.7914 22.6111 105.764 19.215C105.853 19.215 105.853 19.215 105.764 19.215Z" fill="white"/>
<path d="M81.9863 24.0412C81.3606 23.6837 80.3773 23.773 79.6622 23.8624C78.5001 23.9518 78.6789 25.6499 79.841 25.4711C80.5561 25.3817 81.45 25.1136 81.9863 24.6668C82.2545 24.488 82.1651 24.1305 81.9863 24.0412Z" fill="white"/>
<path d="M75.0132 25.1135C74.3877 25.0241 73.4941 24.6667 72.958 25.0241C72.7793 25.1135 72.7793 25.2922 72.958 25.3816C73.5835 25.8284 74.3877 25.4709 75.0132 25.2922C75.1026 25.3816 75.1026 25.2029 75.0132 25.1135Z" fill="white"/>
<path d="M71.5278 25.0242C67.7735 27.0798 61.695 27.2586 57.6725 27.616C53.8288 27.9735 49.9851 27.7054 46.1414 28.331C45.1581 28.5098 45.5156 29.9397 46.4095 30.0291C50.7896 30.3866 55.259 29.4035 59.6391 28.7779C64.0191 28.1523 67.8629 27.4373 71.8854 25.8286C72.3323 25.5605 71.9747 24.8455 71.5278 25.0242Z" fill="white"/>
<path d="M42.9234 28.8673C42.5658 28.7779 42.2083 28.6885 41.8507 28.5992C41.4931 28.5098 41.1356 28.331 40.778 28.4204C40.3311 28.5098 40.1523 29.046 40.4205 29.4035C40.6886 29.8504 41.1356 29.9397 41.6719 30.0291C42.1189 30.1185 42.4764 30.0291 43.0128 29.9397C43.4597 29.761 43.4597 28.9567 42.9234 28.8673Z" fill="white"/>
<path d="M48.823 32.6209C48.7337 34.8552 48.1079 37.9832 48.6443 40.1282C49.1806 42.0944 50.879 41.8262 52.8455 41.3794C52.1304 41.5581 51.4153 41.7369 50.6108 41.8262C50.0745 41.9156 49.4488 42.0944 49.0018 42.4519C47.3928 43.7924 46.9459 50.6741 49.7169 50.7635C48.823 50.7635 47.661 51.2997 48.1079 52.3722C48.5549 53.6234 50.432 52.9978 51.4153 52.9084C54.2758 52.7297 57.1362 52.4616 59.9966 52.2828C55.9741 53.2659 51.5047 52.1935 47.9292 54.249C48.4655 57.0196 46.9459 59.9689 48.1079 62.7394C48.3761 62.2926 49.0018 62.2926 49.5382 62.3819C53.2031 62.65 56.7786 62.0244 60.3542 61.3095C56.4211 62.3819 52.5774 63.365 48.6443 64.4375C48.3761 64.5269 48.0185 64.6162 47.8398 64.8844C47.1247 65.8675 47.3034 68.8167 47.5716 69.8892C48.1973 72.3023 51.2365 70.9617 53.3819 70.6936C51.7729 71.3192 50.1639 71.6767 48.4655 71.6767C48.2867 71.6767 48.0185 71.6767 47.8398 71.766C46.8565 72.3023 46.8565 77.3071 46.6777 78.469C45.0687 77.3965 43.0128 77.039 41.1356 77.3965C40.8674 75.2516 40.5099 73.1066 40.2417 70.9617C40.1523 70.6042 40.1523 70.1573 40.3311 69.7998C40.5099 69.4424 40.8674 69.2636 41.0462 68.9061C41.3144 68.4593 41.225 67.8337 41.1356 67.2974C40.3311 63.1863 40.0629 58.9858 40.5993 54.8746C40.8674 52.9978 41.225 51.121 41.4038 49.2442C41.8507 43.2562 39.3478 37.0895 40.9568 31.1909C42.9234 33.1571 46.4989 31.0122 49.0912 31.9059C49.27 32.2634 49.0912 32.7102 48.823 32.6209Z" fill="#F1BF6F"/>
<path d="M128.915 42.3625C128.915 42.3625 82.5226 49.9591 71.9747 51.6572C61.4269 53.4447 50.5214 55.0534 50.5214 55.0534L112.378 46.563C112.378 46.563 134.189 45.6693 128.915 42.3625Z" fill="#F9E3C0"/>
<path d="M128.915 30.2079C128.915 30.2079 82.5226 37.8046 71.9747 39.5026C61.4269 41.2901 50.5214 42.8988 50.5214 42.8988L112.378 34.4084C112.378 34.4084 134.189 33.604 128.915 30.2079Z" fill="#F9E3C0"/>
<path d="M128.915 29.1354C128.915 29.1354 82.5226 36.732 71.9747 38.4301C61.4269 40.2176 50.5214 41.8263 50.5214 41.8263L112.378 33.3359C112.378 33.3359 134.189 32.4422 128.915 29.1354Z" fill="#F1BF6F"/>
<path d="M128.915 40.7538C128.915 40.7538 82.5226 48.3505 71.9747 50.0486C61.4269 51.836 50.5214 53.4447 50.5214 53.4447L112.378 44.9544C112.378 44.9544 134.189 44.0606 128.915 40.7538Z" fill="#F1BF6F"/>
<path d="M128.379 51.2997C128.379 51.2997 82.3438 58.8964 71.796 60.5945C61.3375 62.3819 50.5214 63.9906 50.5214 63.9906L111.932 55.5002C111.932 55.5002 133.653 54.6065 128.379 51.2997Z" fill="#F9E3C0"/>
<path d="M128.915 50.4061C128.915 50.4061 82.5226 58.0027 71.9747 59.7008C61.4269 61.4883 50.5214 63.097 50.5214 63.097L112.378 54.6066C112.378 54.6066 134.189 53.7128 128.915 50.4061Z" fill="#F1BF6F"/>
<path opacity="0.48" d="M116.937 17.4276C118.546 17.1595 120.334 17.6063 121.675 18.5001C120.334 19.3044 118.725 19.8407 117.116 20.1088C119.261 20.1088 121.496 20.2875 123.552 20.8238C123.82 20.9131 124.178 21.0025 124.357 21.1812C124.625 21.4494 124.714 21.8962 124.804 22.3431C124.982 24.2199 125.161 26.0074 125.34 27.8842C125.34 28.2417 125.429 28.6885 125.161 28.9567C124.982 29.2248 124.625 29.3141 124.357 29.4035C123.195 29.761 122.122 30.1185 120.96 30.5654C122.748 30.7441 124.625 31.0122 126.413 31.191C126.413 33.604 126.413 35.9277 126.413 38.3408C126.413 38.6983 126.413 39.0557 126.234 39.4132C125.966 39.8601 125.519 40.0388 125.161 40.2176C122.837 41.2007 120.602 42.2732 118.278 43.2563C120.602 43.7925 123.105 43.8819 125.429 43.6137C125.161 46.0268 124.893 48.3505 124.625 50.7635C122.748 51.121 120.96 51.6573 119.172 52.3723C120.602 52.7297 121.943 53.0872 123.373 53.5341C123.373 55.5897 123.284 57.6452 123.016 59.7008C122.926 60.237 122.837 60.6839 122.569 61.1308C122.301 61.4883 121.764 61.7564 121.317 61.9351C119.351 62.8288 117.474 63.7226 115.507 64.7057C118.725 65.6888 122.122 64.9738 125.429 64.1694C125.787 64.0801 126.144 63.9907 126.413 63.7226C126.681 63.4544 126.77 63.097 126.859 62.7395C129.541 52.1935 130.882 41.3794 130.971 30.5654C130.971 25.2924 130.614 19.7513 127.843 15.1933C127.575 14.7464 127.306 14.2996 126.77 14.1208C126.144 13.8527 125.519 14.1208 124.893 14.2996C121.943 15.2827 118.993 16.2658 116.133 17.2489L116.937 17.4276Z" fill="#F1BF6F"/>
<path d="M129.631 36.0171C129.899 29.046 130.256 21.6281 125.966 15.7295C125.519 15.1039 125.34 14.1208 125.966 13.7633C126.323 13.5846 126.681 13.5846 127.128 13.6739C128.2 13.8527 129.362 14.1208 130.256 14.7464C132.67 16.6232 131.865 22.7899 131.865 25.4711C131.955 29.761 131.865 34.0509 131.508 38.3408C130.882 46.8311 128.737 54.7853 127.217 63.0969C128.915 54.1597 129.273 45.0437 129.631 36.0171Z" fill="#A76A45"/>
<path opacity="0.16" d="M101.294 21.2706C101.294 21.2706 87.2602 30.3866 80.3773 43.6138C73.4943 56.7515 67.5947 74.8941 67.5947 74.8941L47.3928 79.5415L40.5099 76.9497L40.2417 71.0511C40.2417 71.0511 42.1189 70.1574 41.1356 67.3869C40.0629 64.6163 39.7948 58.8965 40.5099 54.1597C41.3144 49.3336 41.4038 45.9374 40.8674 43.0775C40.3311 40.307 39.9735 37.0896 40.1523 34.4978C40.3311 31.906 39.7054 28.5992 39.7054 28.5992L101.294 21.2706Z" fill="#A76A45"/>
<path d="M46.9459 76.0559C47.0353 75.2515 47.0353 74.3578 47.1246 73.5534C47.214 72.7491 47.661 72.1235 47.3928 71.3191C47.3034 71.1404 47.0353 70.9616 46.8565 71.1404C46.3201 71.8554 46.4989 72.481 46.4095 73.3747C46.4095 74.2684 46.4095 75.2515 46.6777 76.1452C46.7671 76.324 46.9459 76.2346 46.9459 76.0559Z" fill="#FDFCE8"/>
<path d="M56.7786 70.5148C56.868 70.5148 56.868 70.4254 56.7786 70.5148C56.6893 70.4254 56.6893 70.5148 56.7786 70.5148Z" fill="#FDFCE8"/>
<path d="M52.9343 71.3185C52.7556 71.0506 52.4875 70.6935 52.13 70.6042C51.6833 70.5149 51.1471 70.6935 51.0577 71.2292C50.9684 71.6756 51.2365 71.9435 51.6833 71.9435C51.862 71.9435 52.13 71.8542 52.3088 71.7649C52.3981 71.7649 52.3981 71.7649 52.3981 71.6756C52.4875 71.5863 52.4875 71.5863 52.3981 71.6756C52.4875 71.6756 52.4875 71.5863 52.5768 71.6756C52.7556 71.7649 53.0236 71.4971 52.9343 71.3185Z" fill="#FDFCE8"/>
<path d="M47.8394 71.2298C47.6606 71.2298 47.4819 71.1404 47.2139 71.1404C46.499 71.1404 46.499 72.2128 47.2139 72.2128C47.3926 72.2128 47.5713 72.2127 47.8394 72.1234C48.3755 72.1234 48.3755 71.3192 47.8394 71.2298Z" fill="#FDFCE8"/>
<path d="M53.3817 63.1863C53.2924 63.1863 53.203 63.1863 53.1137 63.1863C53.0243 63.1863 53.0243 63.365 53.1137 63.365C53.203 63.365 53.2924 63.365 53.3817 63.365C53.4711 63.4544 53.4711 63.1863 53.3817 63.1863Z" fill="#FDFCE8"/>
<path d="M50.5214 62.8289C49.6275 62.8289 48.5549 62.8289 47.661 63.097C47.3034 63.1864 47.4822 63.8121 47.8398 63.7227C48.2867 63.6334 48.6443 63.4546 49.0912 63.3652C49.5381 63.2758 50.0745 63.2758 50.5214 63.2758C50.7002 63.1864 50.7002 62.8289 50.5214 62.8289Z" fill="#FDFCE8"/>
<path d="M48.6439 53.8915C48.2865 54.0703 48.0184 54.249 47.661 54.4277C47.4822 54.5171 47.661 54.7851 47.8397 54.6958C48.1078 54.4277 48.4652 54.249 48.7333 53.9809C48.8226 53.9809 48.7333 53.8022 48.6439 53.8915Z" fill="#FDFCE8"/>
<path d="M47.9291 59.6114C47.9291 59.3433 48.1079 59.0752 48.1973 58.807C48.2867 58.5389 48.2867 58.3602 48.2867 58.0921C48.2867 57.4664 48.2867 57.0196 48.1079 56.394C48.0185 56.0365 47.4822 56.0365 47.3928 56.394C47.214 56.9302 47.214 57.4664 47.214 58.0921C47.214 58.3602 47.214 58.6283 47.3034 58.807C47.3928 59.0752 47.5716 59.3433 47.5716 59.6114C47.5716 59.8795 47.9291 59.8795 47.9291 59.6114Z" fill="#FDFCE8"/>
<path d="M47.661 53.3553C47.8397 52.3722 48.1973 51.4785 48.1973 50.4954C48.1973 49.6016 48.3761 48.7079 47.9291 47.9036C47.8397 47.7248 47.5716 47.7248 47.4822 47.9929C47.214 48.7973 47.3928 49.691 47.3928 50.4954C47.3928 51.4785 47.5716 52.3722 47.4822 53.3553C47.4822 53.4447 47.661 53.4447 47.661 53.3553Z" fill="#FDFCE8"/>
<path d="M47.929 47.0098C47.929 46.9205 47.929 46.8311 47.929 46.7418C47.929 46.563 47.5716 46.563 47.5716 46.7418C47.5716 46.8311 47.5716 46.9205 47.5716 47.0098C47.4822 47.4566 48.0184 47.4566 47.929 47.0098Z" fill="#FDFCE8"/>
<path d="M48.5549 45.1331C48.1079 43.9712 49.0912 43.5244 49.7169 42.72C50.1639 42.1838 49.8063 41.3794 49.0018 41.5582C47.3034 41.9157 47.3034 44.2394 47.8398 45.4906C48.0185 45.7587 48.6443 45.4906 48.5549 45.1331Z" fill="#FDFCE8"/>
<path d="M48.823 38.3407C48.5549 36.8214 48.9124 35.034 49.27 33.5146C49.5381 32.7103 48.1973 32.3528 48.0185 33.1571C47.5716 35.034 47.8397 36.5533 48.4655 38.3407C48.6442 38.6089 48.823 38.5195 48.823 38.3407Z" fill="#FDFCE8"/>
<path d="M129.362 30.2973C128.915 32.4422 128.826 34.5871 128.647 36.8214C128.379 39.3239 127.843 41.8263 128.022 44.3287C128.022 44.7756 128.647 44.865 128.826 44.4181C130.167 40.3963 130.256 34.4084 129.541 30.2973C129.541 30.2079 129.362 30.2079 129.362 30.2973Z" fill="#FDFCE8"/>
<path d="M71.8847 9.4734C71.5273 9.38405 71.2592 9.29471 70.8124 9.38405C70.3656 9.4734 70.0975 9.83076 70.0082 10.2775C69.6507 11.2602 71.1698 11.7963 71.6166 10.9922C71.6166 10.9029 71.7953 10.5455 71.8847 10.5455C72.4208 10.4562 72.3315 9.65208 71.8847 9.4734Z" fill="#FDFCE8"/>
<path opacity="0.34" d="M115.596 17.8744C121.854 18.4107 114.345 32.6209 112.915 35.1233C110.769 38.9664 109.339 42.6306 107.998 46.7418C105.674 53.7128 103.887 60.7732 100.937 67.4762C100.4 68.7274 99.6853 69.9786 98.6126 70.8723C97.1824 71.9448 95.2158 72.0342 93.4281 72.1236C88.4223 72.481 83.5059 73.4641 78.7683 75.1622C78.3213 74.5366 78.5895 73.7323 78.7683 73.0173C82.7014 61.0414 89.495 50.3167 96.1991 39.6813C100.847 32.3528 105.585 24.8455 112.289 19.3044C113.183 18.5894 114.345 17.7851 115.596 17.8744Z" fill="#F9EBB1"/>
<defs>
<radialGradient id="paint0_radial" cx="0" cy="0" r="1" gradientUnits="userSpaceOnUse" gradientTransform="translate(31.3233 29.0066) rotate(180) scale(78.0353 78.021)">
<stop stop-color="white"/>
<stop offset="0.1571" stop-color="#C2C2C2"/>
<stop offset="0.3247" stop-color="#878787"/>
<stop offset="0.487" stop-color="#575757"/>
<stop offset="0.6396" stop-color="#313131"/>
<stop offset="0.7803" stop-color="#161616"/>
<stop offset="0.9048" stop-color="#060606"/>
<stop offset="1"/>
</radialGradient>
</defs>
</svg>
