<svg width="132" height="113" viewBox="0 0 132 113" fill="none" xmlns="http://www.w3.org/2000/svg">
<path d="M130.88 70.0557L117.109 79.2624L103.863 87.94L80.21 79.8973L70.6436 75.5585C70.6436 75.5585 69.8026 72.9129 69.8026 71.2197C69.8026 69.5265 70.118 68.2566 70.118 68.2566L72.4308 67.3042L74.0076 65.2936L75.3743 64.447C75.3743 64.447 78.528 63.7062 78.7383 63.2829C78.9485 62.8596 81.4715 62.013 81.4715 62.013L83.9945 62.648L85.5714 60.214L91.2481 58.0975L93.666 58.5208L95.0326 56.4043L99.7632 54.3937L109.75 56.9335L111.222 58.5208L112.483 60.6373L116.478 58.415L127.096 61.6955L128.778 65.1877L130.355 65.5052L130.88 70.0557Z" fill="#7A3D30"/>
<path d="M106.176 80.7438L118.055 74.7119L130.46 65.7168L99.8683 57.3567L72.3256 67.3042L70.0129 68.2566L83.6791 72.807L89.1456 74.7119L98.8171 78.204L106.176 80.7438Z" fill="#9F5243"/>
<path d="M106.176 80.7437L105.545 84.0242L103.758 88.0455L100.079 86.564L81.7869 80.3204C81.7869 80.3204 70.6436 75.8757 70.5385 75.4524C70.4334 75.0292 70.0129 71.9603 69.9078 71.537C69.6975 71.1137 70.0129 68.1506 70.0129 68.1506L82.2074 72.4894L92.2994 76.0874L106.176 80.7437Z" fill="#5A291D"/>
<path d="M127.201 62.0135L123.101 64.2358L105.23 74.0775L85.9919 67.9397L77.4767 65.8232L75.2691 64.5533L78.7382 63.3892L81.1561 61.5902L83.9945 62.7543L85.6765 60.3203L89.0405 59.0504L91.3532 58.3096L93.7711 58.7329L95.1377 56.6164L99.8683 54.7116L110.276 57.463L112.588 60.9552L116.583 58.7329L127.201 62.0135Z" fill="#B87160"/>
<path d="M105.545 78.8389L105.23 73.971L75.3742 64.4468C75.3742 64.4468 73.482 65.2934 73.482 65.6109C73.482 65.9284 72.3256 67.8332 72.3256 67.8332L85.7816 72.172L86.8329 72.2778C86.8329 72.2778 89.1456 73.3361 89.461 73.4419C89.7763 73.4419 98.1863 75.6642 98.1863 75.6642L105.545 78.8389Z" fill="#5A291D"/>
<path d="M89.2507 73.442L92.9301 69.7381L98.5017 66.4576L101.13 66.8809L102.286 64.976L107.963 61.9071C107.963 61.9071 110.276 63.0712 110.381 62.7537C110.486 62.4362 111.012 61.5897 111.012 61.5897L112.483 60.8489L110.171 57.3567L105.335 59.579L105.755 62.4363L103.548 63.3887L102.181 61.1664L96.7146 63.4945L96.9248 66.4576L95.6633 67.1983L93.666 66.5634L92.5096 65.3993L86.3072 67.7275L86.6226 72.2779L89.2507 73.442Z" fill="#9F5243"/>
<path d="M105.335 59.6848L95.1377 56.6159L93.666 58.2033L102.181 61.1663L103.653 63.4945L103.968 64.1294L105.65 63.177L105.335 59.6848Z" fill="#5A291D"/>
<path d="M96.8197 67.4099C96.8197 67.0924 96.7146 63.4944 96.7146 63.4944L89.9866 61.3779L85.7816 60.3197L84.2047 62.7536L90.6173 64.9759L92.7198 65.3992C92.7198 65.3992 93.3506 66.3517 93.8762 66.5633C94.1916 66.8808 96.7146 68.3623 96.8197 67.4099Z" fill="#5A291D"/>
<path d="M115.427 68.5742V73.0188L113.114 73.1247L111.537 70.9023L104.809 68.1509L101.13 66.7752L102.286 64.8704L107.753 65.6111L112.904 67.0927C112.904 67.3043 116.163 68.4684 115.427 68.5742Z" fill="#5A291D"/>
<path d="M123.101 64.235L123.416 67.7272L121.524 67.833L120.052 65.8224L110.171 62.5419L110.906 62.0127L111.853 60.9545L112.694 60.8487C112.588 60.9545 120.998 62.3302 123.101 64.235Z" fill="#5A291D"/>
<path d="M127.201 62.0129L128.883 65.5051L123.627 68.1507L123.101 64.2352L127.201 62.0129Z" fill="#9F5243"/>
<path d="M130.46 65.7168L115.532 75.5585L111.117 76.0876L113.64 74.5002L115.952 73.0187L122.05 69.3148L121.524 67.8333L123.732 68.045L128.988 65.3994C128.883 65.5052 130.46 65.3994 130.46 65.7168Z" fill="#BF7867"/>
<path d="M118.686 78.4158C118.475 77.9925 115.427 75.6644 115.427 75.6644L121.629 71.9605L130.355 65.8228L130.775 70.1615L118.686 78.4158Z" fill="#914A3C"/>
<path d="M130.565 65.6111C130.67 66.3519 130.67 67.0926 130.67 67.8334C130.67 68.4683 130.775 69.1033 130.775 69.844C130.775 69.9499 130.565 69.9499 130.565 69.844C130.355 69.2091 130.46 68.5742 130.355 67.8334C130.355 67.0926 130.355 66.3519 130.355 65.6111C130.46 65.6111 130.565 65.6111 130.565 65.6111Z" fill="#7A3D30"/>
<path d="M130.985 70.1615C122.47 76.5109 113.009 81.4847 104.599 87.9399C104.494 88.0457 104.389 87.8341 104.494 87.8341C112.694 81.1672 122.26 76.1934 130.88 70.0556C130.985 69.844 131.09 70.0556 130.985 70.1615Z" fill="#42180A"/>
<path d="M130.565 65.611C123.627 72.1721 114.481 76.5109 106.176 81.0613C105.966 81.1672 105.755 80.8497 105.966 80.638C110.065 78.2041 114.27 75.8759 118.37 73.5478C122.68 71.1139 126.36 68.1508 130.355 65.3994C130.565 65.5052 130.67 65.611 130.565 65.611Z" fill="#C99383"/>
<path d="M103.968 87.8344C104.389 86.6703 104.914 85.6121 105.23 84.3422C105.545 83.1781 105.65 81.9082 105.966 80.7442C105.966 80.6383 106.281 80.6383 106.281 80.7442C106.386 82.9665 105.44 86.0354 104.178 87.8344C104.073 88.046 103.968 87.9402 103.968 87.8344Z" fill="#9F5243"/>
<path d="M103.968 87.7282C92.6147 85.7176 81.051 81.3788 70.959 75.7701C70.7488 75.6643 70.959 75.241 71.1693 75.3468C81.892 80.7438 92.825 83.6011 103.968 87.7282C103.968 87.7282 104.073 87.6224 103.968 87.7282Z" fill="#42180A"/>
<path d="M70.8539 75.664C70.118 75.2407 70.0129 73.865 69.8026 73.1242C69.4873 71.6427 69.4873 70.1612 69.8026 68.6796C69.8026 68.3621 70.3283 68.468 70.2231 68.6796C70.0129 70.5845 69.8026 73.6534 71.0641 75.3465C71.1693 75.5582 71.0641 75.7698 70.8539 75.664Z" fill="#42180A"/>
<path d="M106.071 80.7439C100.499 78.8391 95.1377 77.4634 89.6712 75.3469C83.2586 72.8071 76.5306 70.7964 70.0129 68.6799C69.6975 68.5741 69.9078 68.1508 70.2231 68.2566C76.7409 70.479 83.4689 72.4896 89.8815 75.0294C95.2428 77.1459 100.92 78.4158 106.281 80.6381C106.281 80.6381 106.281 80.8497 106.071 80.7439Z" fill="#42180A"/>
<path d="M130.355 65.8225C129.829 65.7167 129.303 65.6109 128.883 65.3992C128.778 65.3992 128.778 65.1876 128.883 65.1876C129.408 65.1876 129.934 65.3992 130.46 65.505C130.67 65.6109 130.565 65.8225 130.355 65.8225Z" fill="#C99383"/>
<path d="M128.988 65.3995C128.673 64.9762 128.357 64.447 128.042 63.9179C127.726 63.3888 127.306 62.8597 127.096 62.3305C126.991 62.2247 127.201 62.0131 127.306 62.2247C127.726 62.648 127.937 63.1771 128.252 63.6004C128.567 64.1296 128.883 64.6587 129.198 65.1878C129.303 65.3995 129.093 65.6111 128.988 65.3995Z" fill="#42180A"/>
<path d="M129.303 65.3992C127.516 66.5633 125.624 67.4099 123.732 68.3623C123.521 68.4681 123.311 68.0448 123.521 67.939C125.309 66.9866 127.201 65.8225 129.093 64.9759C129.303 64.9759 129.514 65.2934 129.303 65.3992Z" fill="#42180A"/>
<path d="M123.416 68.0448C123.206 67.5157 123.206 66.8807 123.206 66.2458C123.101 65.6109 122.996 64.8701 122.891 64.2352C122.891 64.0235 123.206 63.9177 123.206 64.1293C123.416 64.8701 123.521 65.505 123.627 66.2458C123.732 66.7749 123.837 67.4099 123.627 67.939C123.521 68.1506 123.416 68.1506 123.416 68.0448Z" fill="#42180A"/>
<path d="M126.57 62.3307C126.044 62.754 125.414 62.9656 124.888 63.2831C124.257 63.6006 123.627 64.0239 122.891 64.2355C122.891 64.2355 122.786 64.2355 122.891 64.1297C123.416 63.8122 124.047 63.4947 124.573 63.1773C125.203 62.8598 125.834 62.4365 126.57 62.3307C126.57 62.3307 126.57 62.2248 126.57 62.3307Z" fill="#C99383"/>
<path d="M123.311 64.2353C121.629 63.812 120.157 63.177 118.475 62.6479C116.373 61.9072 114.165 61.4839 111.958 61.0606C111.747 61.0606 111.853 60.7431 111.958 60.7431C115.637 61.4839 119.842 62.3305 123.311 64.1294C123.416 64.1294 123.416 64.2353 123.311 64.2353Z" fill="#42180A"/>
<path d="M112.063 60.9548C111.747 61.1664 111.432 61.4839 111.117 61.8013C110.801 62.1188 110.696 62.5421 110.591 62.8596C110.486 62.9654 110.276 62.9654 110.381 62.7538C110.486 61.9072 111.222 61.0606 112.063 60.7431C112.063 60.7431 112.168 60.8489 112.063 60.9548Z" fill="#42180A"/>
<path d="M119.842 66.2464C119.211 66.7755 118.475 67.1988 117.74 67.6221C117.004 68.1512 116.163 68.6804 115.322 68.9978C115.217 68.9978 115.111 68.892 115.217 68.892C115.847 68.3629 116.688 68.0454 117.319 67.6221C118.055 67.1988 118.791 66.5639 119.632 66.1406C119.842 66.0348 119.947 66.1406 119.842 66.2464Z" fill="#C99383"/>
<path d="M115.532 73.0191C115.427 71.5375 115.322 70.1618 115.217 68.6803C115.217 68.4686 115.637 68.3628 115.637 68.5745C115.742 70.056 115.637 71.5375 115.742 73.0191C115.637 73.0191 115.532 73.0191 115.532 73.0191Z" fill="#42180A"/>
<path d="M121.734 69.6326C121.209 70.4792 119.947 70.9025 119.106 71.4316C118.055 72.0666 116.899 72.7015 115.847 73.4423C115.532 73.6539 115.217 73.2306 115.532 73.019C116.478 72.384 117.319 71.8549 118.265 71.22C119.211 70.585 120.368 69.6326 121.524 69.421C121.734 69.421 121.734 69.5268 121.734 69.6326Z" fill="#42180A"/>
<path d="M121.524 69.6326C121.314 68.9976 121.209 68.4685 120.893 67.8335C120.578 67.3044 120.157 66.7753 119.947 66.2462C119.947 66.1403 120.052 65.9287 120.157 66.0345C120.683 66.352 120.998 66.9869 121.209 67.5161C121.524 68.151 121.734 68.786 121.839 69.4209C122.05 69.7384 121.629 69.8442 121.524 69.6326Z" fill="#42180A"/>
<path d="M115.742 68.3622C113.64 68.0447 111.747 67.304 109.75 66.5632C107.437 65.7166 105.019 65.5049 102.602 65.0816C102.391 65.0816 102.391 64.6584 102.602 64.7642C107.227 65.5049 111.327 66.5632 115.637 68.2564C115.847 68.2564 115.742 68.3622 115.742 68.3622Z" fill="#42180A"/>
<path d="M102.602 65.1875C102.181 65.8225 101.761 66.3516 101.445 66.9866C101.34 67.1982 101.025 67.0924 101.13 66.8807C101.445 66.14 101.761 65.505 102.391 64.9759C102.496 64.9759 102.707 65.0817 102.602 65.1875Z" fill="#42180A"/>
<path d="M113.219 74.0774C113.009 73.5483 112.799 73.0191 112.588 72.49C112.378 71.9609 111.958 71.5376 111.747 71.0085C111.747 70.9027 111.853 70.691 111.958 70.7968C112.378 71.1143 112.588 71.7493 112.904 72.1726C113.114 72.7017 113.429 73.3366 113.535 73.8657C113.429 74.1832 113.219 74.1832 113.219 74.0774Z" fill="#42180A"/>
<path d="M92.7198 70.0554C92.1942 70.5846 91.6686 71.2195 91.143 71.6428C90.5122 72.1719 89.9866 72.9127 89.3559 73.4418C89.2507 73.5476 89.1456 73.4418 89.1456 73.2302C89.5661 72.5952 90.4071 71.9603 90.9327 71.4311C91.4584 70.902 91.984 70.3729 92.6147 69.8438C92.6147 69.738 92.7198 69.9496 92.7198 70.0554Z" fill="#42180A"/>
<path d="M104.599 78.7335C99.4478 76.9344 94.507 74.818 89.1456 73.8655C88.8302 73.7597 88.8302 73.3364 89.1456 73.3364C94.4018 74.0772 100.079 75.8762 104.704 78.5218C104.809 78.5218 104.704 78.7335 104.599 78.7335Z" fill="#42180A"/>
<path d="M113.535 74.6063C112.273 75.6646 110.906 76.5112 109.645 77.4636C108.489 78.3102 107.227 79.1568 105.86 79.5801C105.65 79.6859 105.44 79.2626 105.65 79.2626C107.227 78.7335 108.594 77.8869 109.855 76.8286C110.906 75.982 112.063 74.9238 113.324 74.5005C113.429 74.3947 113.64 74.5005 113.535 74.6063Z" fill="#42180A"/>
<path d="M105.545 79.2626C105.44 78.416 105.545 77.5694 105.44 76.7229C105.335 75.8763 105.125 75.0297 104.914 74.1831C104.809 73.8656 105.335 73.7598 105.44 74.0772C105.966 75.5588 106.491 77.7811 105.86 79.3685C105.755 79.3685 105.65 79.3685 105.545 79.2626Z" fill="#42180A"/>
<path d="M111.432 71.2197C109.75 72.4896 107.437 73.6537 105.335 73.8653C105.23 73.8653 105.125 73.7595 105.23 73.6537C106.281 73.2304 107.332 73.0187 108.383 72.5954C109.435 72.1721 110.381 71.643 111.327 71.0081C111.432 71.0081 111.537 71.1139 111.432 71.2197Z" fill="#C99383"/>
<path d="M105.545 73.9714C101.13 73.7597 97.03 71.2199 92.825 70.2675C92.5096 70.1617 92.5096 69.6326 92.9301 69.7384C95.1377 70.1617 97.3453 71.1141 99.553 71.7491C101.655 72.2782 103.653 73.1248 105.65 73.7597C105.755 73.7597 105.65 73.9714 105.545 73.9714Z" fill="#42180A"/>
<path d="M90.9327 70.6903C90.302 71.1136 89.5661 71.4311 88.8302 71.7486C88.0944 72.066 87.3585 72.4893 86.6226 72.4893C86.5175 72.4893 86.4124 72.2777 86.5175 72.1719C87.1482 71.7486 87.8841 71.6428 88.5149 71.3253C89.2507 71.0078 89.9866 70.6903 90.8276 70.3729C90.9327 70.4787 91.0378 70.6903 90.9327 70.6903Z" fill="#42180A"/>
<path d="M86.3072 72.5956C86.3072 71.8548 86.3072 71.0082 86.3072 70.2674C86.3072 69.5267 86.2021 68.6801 86.3072 67.9393C86.3072 67.7277 86.5175 67.7277 86.6226 67.9393C87.0431 69.315 86.8329 71.2199 86.7277 72.5956C86.6226 72.8072 86.3072 72.8072 86.3072 72.5956Z" fill="#42180A"/>
<path d="M86.5175 68.0445C84.415 67.727 82.3125 67.1979 80.21 66.6688C78.3178 66.2455 76.4255 65.928 74.9538 64.6581C74.7435 64.4465 74.9538 64.129 75.2691 64.2348C78.6331 66.2455 82.9432 66.4571 86.6226 67.727C86.7277 67.8329 86.7277 68.0445 86.5175 68.0445Z" fill="#42180A"/>
<path d="M75.0589 64.7643C74.6384 65.2934 74.1128 65.6109 73.6923 66.14C73.2718 66.6691 72.9564 67.1983 72.5359 67.7274C72.4308 67.939 72.1154 67.7274 72.2205 67.5157C72.7461 66.3517 73.7974 65.0818 74.8486 64.4468C74.9538 64.4468 75.164 64.6585 75.0589 64.7643Z" fill="#42180A"/>
<path d="M86.4124 72.4892C84.0996 72.2776 82.1022 71.431 79.9997 70.5844C77.3716 69.632 74.8486 68.7854 72.1154 68.0446C71.8 67.9388 72.0103 67.4097 72.3256 67.5155C77.1614 68.7854 81.5766 71.0077 86.4124 72.1718C86.6226 72.2776 86.5175 72.4892 86.4124 72.4892Z" fill="#42180A"/>
<path d="M94.0865 67.8336C93.7711 67.4103 93.4557 66.987 93.1403 66.5637C92.9301 66.2462 92.5096 65.9287 92.4045 65.5054C92.4045 65.3996 92.5096 65.2938 92.6147 65.2938C93.0352 65.5054 93.2455 65.9287 93.5608 66.352C93.8762 66.7753 94.0865 67.1986 94.2967 67.7277C94.2967 67.8336 94.1916 67.9394 94.0865 67.8336Z" fill="#42180A"/>
<path d="M92.4045 65.5052C91.5635 66.1401 90.5122 66.5634 89.5661 66.8809C88.62 67.3042 87.5687 67.7275 86.5175 67.9391C86.3072 67.9391 86.2021 67.7275 86.4124 67.6217C87.3585 67.0925 88.5149 66.8809 89.5661 66.4576C90.5122 66.1401 91.3532 65.7168 92.2994 65.3994C92.5096 65.3994 92.5096 65.5052 92.4045 65.5052Z" fill="#C99383"/>
<path d="M92.9301 65.2934C88.9354 65.0818 85.0457 63.0711 81.1561 62.3304C80.8407 62.2246 80.8407 61.6954 81.1561 61.8013C81.9971 61.9071 82.733 62.2246 83.4689 62.542C84.7304 62.9653 85.9919 63.0711 87.2534 63.3886C89.2507 63.8119 91.3532 64.2352 92.9301 65.2934C92.9301 65.2934 93.0352 65.1876 92.9301 65.2934Z" fill="#C99383"/>
<path d="M80.9459 62.2243C79.4741 63.3884 77.3716 64.235 75.5845 64.6583C75.2691 64.7642 75.164 64.235 75.4794 64.235C76.4255 63.9176 77.2665 63.6001 78.2126 63.2826C79.1588 62.9651 79.9997 62.436 80.8407 62.1185C80.9459 61.9069 81.051 62.1185 80.9459 62.2243Z" fill="#C99383"/>
<path d="M103.758 63.8117C103.337 63.4942 103.127 63.0709 102.812 62.6476C102.496 62.2243 102.076 61.801 101.971 61.3777C101.971 61.166 102.076 61.0602 102.181 61.166C102.602 61.3777 102.917 62.0126 103.232 62.4359C103.548 62.8592 103.758 63.2825 103.863 63.8117C103.863 63.7058 103.758 63.8117 103.758 63.8117Z" fill="#42180A"/>
<path d="M101.971 61.2721C101.13 61.5895 100.184 62.0128 99.3427 62.3303C98.5017 62.7536 97.6607 63.2827 96.8197 63.6002C96.7146 63.706 96.5043 63.4944 96.7146 63.3886C98.1863 62.2245 100.184 61.4837 101.971 61.0604C102.076 61.0604 102.181 61.2721 101.971 61.2721Z" fill="#C99383"/>
<path d="M96.7146 67.41C96.5043 66.7751 96.6095 66.246 96.6095 65.611C96.6095 64.9761 96.6095 64.2353 96.6095 63.6004C96.6095 63.3887 97.03 63.3887 97.03 63.6004C97.1351 64.2353 97.03 64.8703 97.03 65.5052C97.03 66.1401 97.03 66.7751 96.9248 67.41C96.8197 67.6217 96.7146 67.5159 96.7146 67.41Z" fill="#42180A"/>
<path d="M96.9248 63.7056C95.348 63.5997 93.666 62.6473 92.0891 62.224C89.8815 61.6949 87.779 61.1658 85.5714 60.6367C85.3611 60.5308 85.4662 60.1076 85.6765 60.2134C87.5687 60.6367 89.5661 61.1658 91.4584 61.5891C93.4557 62.1182 95.1377 62.859 97.03 63.5997C97.1351 63.5997 97.03 63.7056 96.9248 63.7056Z" fill="#42180A"/>
<path d="M85.6765 60.4255C85.5714 61.1663 84.7304 61.9071 84.2047 62.4362C84.0996 62.542 83.7842 62.3304 83.8894 62.1187C84.2047 61.8012 84.5201 61.3779 84.7304 61.0605C84.9406 60.743 85.1509 60.5313 85.4662 60.3197C85.5714 60.3197 85.6765 60.4255 85.6765 60.4255Z" fill="#42180A"/>
<path d="M91.2481 58.4145C89.461 59.2611 87.5687 59.7902 85.7816 60.3193C85.6765 60.3193 85.5714 60.1077 85.7816 60.1077C87.6739 59.5786 89.461 58.9436 91.2481 58.3087C91.2481 58.2029 91.3532 58.4145 91.2481 58.4145Z" fill="#C99383"/>
<path d="M101.971 61.1666C98.3966 60.1084 94.9275 58.7327 91.2481 58.3094C91.0379 58.3094 91.0379 57.9919 91.2481 57.9919C94.9275 58.2035 98.6068 59.5793 102.076 60.955C102.181 61.0608 102.076 61.1666 101.971 61.1666Z" fill="#C99383"/>
<path d="M111.853 60.2137C111.747 60.002 111.537 59.8962 111.327 59.6845C111.117 59.4729 111.012 59.1554 110.906 58.9437C110.696 58.6263 110.276 58.203 110.276 57.7797C110.276 57.6738 110.381 57.568 110.486 57.6738C110.906 57.7797 111.117 58.3088 111.432 58.7321C111.537 58.9437 111.642 59.0496 111.747 59.2612C111.747 59.4729 111.747 59.7904 111.853 60.2137C111.853 60.2137 111.958 60.2137 111.853 60.2137Z" fill="#42180A"/>
<path d="M110.276 57.6744C108.489 58.2035 107.017 58.8385 105.44 59.685C105.335 59.7909 105.125 59.5792 105.335 59.4734C106.807 58.4152 108.594 57.7803 110.276 57.4628C110.381 57.357 110.381 57.5686 110.276 57.6744Z" fill="#C99383"/>
<path d="M105.755 63.1772C105.545 62.0131 105.019 60.6374 105.125 59.3675C105.125 59.2617 105.335 59.1558 105.44 59.3675C105.966 60.5316 105.86 62.0131 106.071 63.1772C106.071 63.283 105.755 63.283 105.755 63.1772Z" fill="#42180A"/>
<path d="M105.335 59.4727C101.971 58.5203 98.5017 57.6737 95.1377 56.7213C94.9275 56.6155 95.0326 56.298 95.2428 56.298C98.6068 57.0388 102.286 57.6737 105.44 59.1553C105.65 59.2611 105.545 59.5785 105.335 59.4727Z" fill="#42180A"/>
<path d="M95.2428 56.7216C95.0326 57.0391 94.8223 57.3565 94.507 57.674C94.2967 57.9915 94.0865 58.2031 93.7711 58.4148C93.666 58.4148 93.5608 58.309 93.5608 58.2031C93.666 57.8857 93.9813 57.5682 94.1916 57.3565C94.4018 57.0391 94.6121 56.8274 94.9275 56.6158C95.1377 56.51 95.348 56.51 95.2428 56.7216Z" fill="#42180A"/>
<path d="M100.184 54.8171C99.3427 55.1345 98.5017 55.452 97.6607 55.7695C96.9248 56.087 96.189 56.4045 95.4531 56.6161C95.348 56.6161 95.348 56.5103 95.348 56.5103C96.6095 55.5578 98.6068 54.9229 100.184 54.8171C100.184 54.8171 100.184 54.7112 100.184 54.8171Z" fill="#C99383"/>
<path d="M110.276 57.6735C106.701 56.7211 103.232 55.7687 99.6581 55.0279C99.3427 54.9221 99.4478 54.4988 99.6581 54.6046C103.232 55.3454 106.912 56.192 110.276 57.4619C110.486 57.5677 110.486 57.6735 110.276 57.6735Z" fill="#C99383"/>
<path d="M115.427 73.3359C114.691 73.4417 113.955 73.3359 113.219 73.2301C113.009 73.2301 113.009 72.8068 113.219 72.8068C113.955 72.9126 114.691 72.9126 115.427 73.1242C115.532 73.1242 115.532 73.2301 115.427 73.3359Z" fill="#42180A"/>
<path d="M123.732 68.574C123.311 68.574 122.786 68.4682 122.365 68.3624C121.945 68.2566 121.629 68.2566 121.314 68.0449C121.104 67.9391 121.209 67.6216 121.419 67.6216C121.839 67.5158 122.26 67.7274 122.68 67.8333C123.101 67.9391 123.521 67.9391 123.837 68.1507C124.152 68.1507 124.047 68.574 123.732 68.574Z" fill="#42180A"/>
<path d="M96.5043 67.9389C95.9787 67.8331 95.5582 67.5156 95.1377 67.4098C94.6121 67.304 94.0865 67.1981 93.666 66.9865C93.5608 66.8807 93.5608 66.7748 93.666 66.669C94.1916 66.5632 94.8223 66.7748 95.2428 66.9865C95.7685 67.1981 96.2941 67.304 96.6095 67.7273C96.7146 67.8331 96.6095 67.9389 96.5043 67.9389Z" fill="#42180A"/>
<path d="M107.963 62.3309C106.176 63.3891 104.284 64.3416 102.391 65.1882C102.181 65.294 101.971 64.9765 102.181 64.7649C103.968 63.7066 105.966 62.86 107.858 62.0134C107.963 62.0134 108.068 62.2251 107.963 62.3309Z" fill="#C99383"/>
<path d="M111.537 71.0078C107.332 69.4205 103.548 67.8331 99.1325 66.9865C98.8171 66.8807 98.9222 66.4574 99.1325 66.4574C103.337 67.1982 107.963 68.3622 111.642 70.7962C111.747 70.902 111.642 71.0078 111.537 71.0078Z" fill="#C99383"/>
<path d="M99.0273 66.8813C98.6068 67.1988 98.1863 67.093 97.7658 67.1988C97.2402 67.4104 96.7146 67.9396 96.189 68.3629C95.1377 68.9978 93.8762 69.6328 92.6147 69.9502C92.5096 69.9502 92.4045 69.8444 92.5096 69.7386C93.7711 68.9978 95.1377 68.5745 96.2941 67.7279C96.7146 67.4104 97.1351 67.093 97.5556 66.8813C97.9761 66.6697 98.5017 66.7755 98.9222 66.6697C99.0273 66.6697 99.1325 66.7755 99.0273 66.8813Z" fill="#C99383"/>
<path d="M116.478 59.1556C115.742 59.5789 115.006 59.7905 114.27 60.2138C113.64 60.5313 113.009 61.0604 112.273 61.2721C112.168 61.2721 112.063 61.1662 112.063 61.0604C112.483 60.5313 113.324 60.108 113.955 59.7905C114.691 59.3672 115.427 59.0498 116.268 58.8381C116.583 58.7323 116.688 59.0498 116.478 59.1556Z" fill="#C99383"/>
<path d="M127.516 62.2248C123.837 61.3782 120.157 60.2141 116.478 59.0501C116.268 58.9443 116.373 58.6268 116.583 58.7326C120.263 59.7908 124.047 60.6374 127.621 62.0132C127.726 62.0132 127.621 62.2248 127.516 62.2248Z" fill="#C99383"/>
<path d="M120.052 66.2461C117.74 65.6112 115.532 64.6587 113.324 63.918C111.537 63.3888 109.54 63.283 107.963 62.2248C107.648 62.0131 107.963 61.6957 108.278 61.8015C109.96 62.7539 112.378 63.0714 114.27 63.7063C116.268 64.4471 118.265 65.082 120.263 65.9286C120.368 66.0345 120.263 66.2461 120.052 66.2461Z" fill="#C99383"/>
<path d="M2.52277 41.6949C2.52277 41.6949 1.7869 49.6317 1.7869 55.8754C1.7869 62.119 2.83815 71.5373 2.83815 71.5373L5.04577 88.8925L5.57139 92.808L12.9301 93.8662L44.5727 99.3691L75.3742 106.142L98.8171 112.385C98.8171 112.385 102.812 112.385 104.284 110.904C105.755 109.422 106.281 108.682 106.281 108.682L105.966 105.507L103.758 103.285C103.758 103.285 105.019 100.11 105.019 99.5807C105.019 99.0516 105.019 94.607 105.019 94.607L103.968 94.0779C103.968 94.0779 105.44 88.7867 105.019 83.7071C104.704 78.7334 104.284 76.1936 104.284 76.1936C104.284 76.1936 103.548 69.5267 104.284 66.4578C105.019 63.283 105.545 59.4734 105.545 57.7802C105.545 56.087 104.494 51.3249 104.494 51.3249L66.4386 44.658L6.93801 36.7212C6.93801 36.7212 2.73302 36.4037 2.52277 41.6949Z" fill="#704228"/>
<path d="M4.94065 53.8642C5.25602 53.1235 5.88677 52.3827 6.62265 51.9594C12.0891 53.1235 17.4505 54.2875 22.917 55.4516C28.2784 56.6157 33.7448 57.7797 39.1062 58.838C41.5241 59.3671 44.0471 59.7904 46.4649 59.1554C46.4649 60.1078 46.4649 60.9544 46.4649 61.9069C46.7803 61.2719 46.9906 60.5311 47.3059 59.8962C64.1259 60.2137 79.7895 68.3621 96.3992 70.5844C95.7685 69.632 96.8197 68.3621 97.871 67.9388C99.0273 67.6214 100.289 67.7272 101.235 67.0922C101.761 66.7748 102.181 66.2457 102.496 65.7165C104.389 62.8593 105.335 59.3671 105.125 55.8749C105.125 55.0283 104.914 54.0759 104.284 53.4409C103.863 53.0176 103.337 52.9118 102.812 52.7002C85.5714 47.8322 67.595 46.5624 49.9341 43.5993C36.0576 41.2711 22.2862 37.9906 8.19952 36.7207C7.56877 36.8265 6.93802 36.8265 6.4124 37.144C5.9919 37.4615 5.78165 37.9906 5.5714 38.5197C3.57403 43.8109 3.0484 49.5254 3.8894 55.1341C4.52015 54.7108 5.04577 54.1817 5.67652 53.7584L4.94065 53.8642Z" fill="#8A5335"/>
<path d="M23.0221 89.5272C28.3835 90.6912 33.7448 91.8553 39.2113 92.9135C41.6292 93.4427 44.1522 93.866 46.5701 93.231C46.5701 94.1834 46.5701 95.03 46.5701 95.9825C46.8854 95.3475 47.0957 94.6067 47.4111 93.9718C56.8723 94.1834 66.0181 96.829 75.0589 99.4746C79.4741 100.745 83.9945 102.12 88.5148 103.178C92.0891 104.025 97.03 106.247 100.079 102.967C101.34 101.485 101.971 99.4747 102.286 97.5698C102.917 93.3368 102.812 87.5165 98.712 85.8233C94.0865 83.8127 87.779 83.4952 82.8381 82.6486C71.9051 80.8496 60.9722 79.6855 50.0392 77.8865C42.0497 76.5108 34.2705 74.9234 26.3861 73.5477C22.3914 72.8069 18.2915 72.172 14.2968 71.6429C12.4045 71.4312 6.20214 69.738 4.7304 71.6429C4.3099 72.172 4.3099 73.0186 4.3099 73.7594C4.3099 77.3574 4.3099 81.1671 5.99189 84.4476C8.19952 88.6806 18.5017 88.5748 23.0221 89.5272Z" fill="#8A5335"/>
<path d="M4.94065 88.1518C3.57402 80.8499 3.36378 73.2306 2.94328 65.8229C2.6279 60.1084 2.41765 54.3939 2.73303 48.6794C2.83815 45.8221 3.0484 42.7532 2.83815 39.896C2.94328 41.2717 2.10228 43.7057 1.89203 45.293C1.68178 47.4095 1.47153 49.4202 1.3664 51.5366C1.15615 56.1929 1.26128 60.8492 1.47153 65.3996C1.7869 73.4422 1.7869 81.9082 5.25602 89.3159C5.1509 88.8926 5.04577 88.4693 4.94065 88.1518Z" fill="#F3B279"/>
<path d="M4.62527 87.9397C4.62527 87.9397 8.83027 88.1513 13.7711 88.8921C18.712 89.6329 23.8631 90.5853 23.8631 90.5853L46.8854 95.0299L63.39 98.5221L80.7356 102.438L95.9787 105.401L98.3966 105.93L100.184 104.448L103.863 103.496C103.863 103.496 106.386 105.189 106.386 106.459C106.386 107.729 106.386 109.634 106.386 109.634L103.443 112.068L100.289 112.597H98.8171L73.1666 106.353L47.9367 100.639L25.9656 96.4056L5.67652 92.8076L4.62527 87.9397Z" fill="#C37B51"/>
<path d="M5.46627 89.5271L21.6555 91.6435L58.6594 98.7338C58.6594 98.7338 74.1128 101.908 76.846 102.649C79.5793 103.39 98.8171 107.517 98.8171 107.517C98.8171 107.517 100.079 105.93 101.655 105.507C103.232 105.083 104.704 104.766 104.704 104.766L103.758 104.131H100.604L97.871 105.295L90.8276 104.131L75.4794 101.485L61.3927 97.5697L43.9419 94.0775L16.3993 88.9979L4.62527 87.9397L5.46627 89.5271Z" fill="#915B3A"/>
<path d="M98.2915 105.824C98.712 107.306 98.8171 108.893 98.8171 110.48C98.8171 111.009 98.8171 111.539 99.1325 111.962C99.6581 112.597 100.814 112.279 101.55 111.962C102.707 111.433 103.863 110.904 104.914 110.375C105.335 110.163 105.755 109.951 105.966 109.528C106.071 109.105 105.966 108.787 105.966 108.364C105.966 107.941 106.176 107.517 106.176 107.094C106.281 106.036 105.335 105.189 104.494 104.66C104.178 104.343 103.758 104.131 103.337 104.025C103.022 104.025 102.707 104.025 102.391 104.131C101.655 104.237 100.92 104.131 100.184 104.343C99.2376 104.66 98.5017 105.401 98.1863 106.353L98.2915 105.824Z" fill="#AC6D47"/>
<path opacity="0.54" d="M25.7554 92.596C26.1759 93.0193 26.4912 93.3368 26.9117 93.7601C26.4912 93.4426 25.7554 93.7601 25.7554 94.2892C28.2784 96.4057 31.8526 96.0882 35.1115 96.5115C37.6345 96.829 39.9472 97.6756 42.3651 98.5222C49.7238 100.956 57.3979 102.649 65.072 103.602C64.7567 103.39 64.4413 103.178 64.1259 102.861C64.4413 102.967 64.7566 102.544 64.7566 102.226C64.8618 100.639 62.9695 99.7921 61.3927 99.3688C54.4544 97.7814 47.6213 96.2999 40.6831 94.7125C35.6371 93.5484 30.5911 92.4902 25.5451 92.0669L25.7554 92.596Z" fill="#D19977"/>
<path d="M40.1575 15.344C34.2705 19.2595 28.0681 22.6459 21.8657 25.9265C18.6069 27.6196 15.4531 29.4187 12.0891 30.5827C10.4071 31.1118 8.72514 31.641 6.93802 31.641C6.20215 31.641 5.46627 31.5351 4.62527 31.5351C4.09965 31.5351 2.31253 31.641 1.89203 31.9584C3.57403 30.3711 5.1509 30.4769 7.35852 30.1594C9.46101 29.842 11.6686 29.4187 13.666 28.5721C16.9249 27.3022 19.9735 25.7148 23.0221 24.1274C28.804 21.1644 34.3756 17.9896 40.0523 14.9207C40.1574 14.8149 40.3677 15.1324 40.1575 15.344Z" fill="#C4C3AD"/>
<path d="M106.491 109.528C104.809 111.539 101.445 113.655 98.712 112.808C98.5017 112.703 98.3966 112.385 98.712 112.279C99.8683 111.962 101.13 111.962 102.286 111.539C103.653 111.009 104.914 110.057 105.966 108.999C106.281 108.681 106.807 109.105 106.491 109.528Z" fill="#6E4E40"/>
<path d="M98.5017 112.491C94.6121 112.068 90.7225 110.798 86.938 109.846C83.1535 108.893 79.2639 107.941 75.4794 106.988C67.8053 105.189 60.1312 103.39 52.3519 101.803C36.8986 98.6283 21.3401 95.8768 5.67652 93.6545C4.83552 93.5487 5.1509 92.173 5.99189 92.2788C30.5911 95.771 54.8749 100.533 79.0536 106.459C82.4176 107.306 85.7816 108.152 89.0405 109.105C92.1942 109.951 95.6633 110.692 98.712 112.068C98.8171 112.28 98.712 112.597 98.5017 112.491Z" fill="#6B4327"/>
<path d="M103.863 104.448C102.917 104.448 102.076 104.343 101.13 104.554C100.394 104.766 99.7632 105.295 99.0273 105.295C98.8171 105.295 98.712 105.083 98.8171 104.872C99.2376 104.131 100.394 103.813 101.235 103.708C102.181 103.496 103.127 103.496 103.968 103.813C104.178 104.025 104.073 104.448 103.863 104.448Z" fill="#6E4E40"/>
<path d="M98.2915 105.824C95.348 105.718 92.5096 104.977 89.6712 104.554C86.5175 104.025 83.4689 103.496 80.3151 102.861C77.4768 102.332 74.6384 101.908 71.8 101.062C68.8565 100.215 66.0182 99.2629 62.9695 98.6279C50.8802 95.8765 38.6857 93.8659 26.4912 91.6435C19.553 90.3737 12.6148 89.1038 5.5714 88.1513C4.94065 88.0455 5.1509 87.0931 5.78164 87.1989C21.4452 89.3154 36.8986 92.7018 52.3519 95.6649C56.1364 96.4056 60.026 97.0406 63.8105 97.8872C67.595 98.7338 71.1693 100.109 74.9538 100.956C78.7383 101.803 82.5227 102.438 86.4124 103.073C90.302 103.813 94.507 104.237 98.2915 105.507C98.5017 105.612 98.5017 105.824 98.2915 105.824Z" fill="#C37B51"/>
<path d="M99.0273 108.576C99.1324 109.316 99.1324 110.057 99.0273 110.692C99.0273 111.327 99.1324 111.962 99.0273 112.597C99.0273 112.914 98.6068 112.809 98.6068 112.597C98.5017 111.856 98.7119 111.115 98.7119 110.48C98.7119 109.845 98.7119 109.211 98.8171 108.576C98.8171 108.47 98.9222 108.576 99.0273 108.576Z" fill="#6E4E40"/>
<path d="M5.25602 89.2098C5.25602 89.104 5.25602 89.104 5.25602 88.9982C5.25602 88.6807 5.25602 88.4691 5.25602 88.1516C5.04577 88.0458 4.7304 87.9399 4.52015 87.8341C4.20477 88.6807 3.99452 89.7389 3.99452 90.6914C4.09965 91.6438 4.41502 92.5962 5.04577 93.337C5.1509 93.4428 5.25602 93.5486 5.46627 93.5486V93.4428C5.57139 93.4428 5.57139 93.5486 5.67652 93.5486C5.88677 93.5486 6.09702 93.5486 6.30727 93.337C5.67652 92.0671 5.25602 90.5855 5.25602 89.2098Z" fill="#935D3C"/>
<path d="M6.41239 45.2927C6.30727 45.2927 6.30727 45.2927 6.20214 45.1869V45.6102C6.30727 45.5044 6.30727 45.3985 6.41239 45.2927Z" fill="#F6D39B"/>
<path d="M103.443 100.956C102.391 102.015 99.4478 102.65 98.0812 103.179C97.9761 103.179 97.871 103.285 97.7658 103.285C95.5582 103.92 91.3532 102.332 89.0405 101.803C85.9919 101.168 82.9432 100.639 79.9997 99.8982C77.1614 99.1575 55.0852 94.607 47.8316 93.0196C39.737 91.2206 31.6423 89.6333 23.5477 88.0459C17.6607 86.8818 9.46101 86.776 7.25339 80.0033C5.04577 73.2305 4.52015 65.9287 4.41502 58.8384C4.3099 53.2297 3.25865 44.3405 7.77902 40.1075C9.98664 38.0969 13.2455 37.2503 16.0839 37.8852C13.4558 36.6153 10.7225 35.8746 7.77902 35.6629C6.41239 35.5571 4.83552 35.6629 3.67915 36.4037C1.68178 37.6736 1.99715 42.7532 1.57665 44.9755C1.05103 48.9968 0.945905 52.9123 1.05103 56.8278C1.26128 64.9762 2.83815 73.0189 3.99452 81.0615C4.20477 82.5431 3.99452 86.776 5.46627 87.6226C5.78164 87.8343 6.09702 87.8343 6.41239 87.8343C8.72514 88.1517 10.9328 88.4692 13.2455 88.7867C17.03 89.4216 20.7094 89.9508 24.4939 90.5857L45.2034 94.7128L66.8592 99.0516L72.8513 101.168L80.4202 102.755L93.7711 104.766C95.1377 105.189 97.5556 106.142 98.9222 105.295C99.553 104.872 100.079 104.131 100.814 104.025C101.235 104.025 101.55 104.131 101.971 104.131C102.707 104.131 103.653 104.131 103.968 103.285C104.073 102.861 104.178 102.544 104.178 102.121C104.284 100.851 104.599 99.6866 105.019 98.5225C104.599 99.4749 104.178 100.322 103.443 100.956Z" fill="#F6D39B"/>
<path d="M1.57665 35.0279C1.47153 35.2396 1.47153 35.3454 1.3664 35.5571C0.945904 36.8269 0.945904 38.2027 1.05103 39.4725C8.40976 35.6629 14.2968 37.6735 21.9709 39.1551C29.5398 40.6366 37.0037 42.1182 44.5727 43.4939C57.7133 46.0337 70.7488 48.5734 83.8894 50.7957C86.2021 51.219 91.2481 50.9016 93.2455 52.0656C95.6633 53.5472 95.9787 58.2034 96.2941 60.6374C96.2941 58.6267 96.2941 56.6161 96.2941 54.6054C96.2941 53.9705 96.2941 53.2297 96.7146 52.7006C97.9761 50.9016 103.337 53.5472 104.494 51.219C104.494 51.219 106.176 47.8327 105.125 44.9754C103.968 42.1182 16.2941 30.16 16.2941 30.16C11.6686 29.8425 3.8894 30.0542 1.57665 35.0279Z" fill="#F6C899"/>
<path d="M46.3598 16.2966L40.4728 15.0267L30.486 20.847L16.3992 28.4664L6.83289 31.2178L11.2481 32.8051L40.6831 40.0012L68.3309 45.0808C80.1049 47.0914 91.984 48.9963 103.968 49.3137C104.284 49.3137 104.704 49.3137 105.019 49.1021C105.23 48.9963 105.44 48.6788 105.545 48.4671C106.281 47.1972 106.701 45.8215 106.596 44.4458C106.281 38.8371 100.079 37.1439 95.8736 35.3449C90.302 33.0168 84.7304 30.477 79.2639 27.8314C75.164 25.9266 70.6436 24.9742 66.4386 23.3868C59.7107 21.0587 52.9827 18.7305 46.3598 16.2966Z" fill="#FFF8D8"/>
<path d="M81.3664 47.3032C83.574 47.7265 85.8867 48.1498 87.9892 48.6789C93.0352 49.843 99.8683 50.0547 104.914 49.7372C99.8683 48.044 93.5608 48.4673 88.1995 47.6207C83.4689 46.8799 78.8434 46.5625 74.1128 45.7159C70.959 45.1868 67.7002 44.7635 64.5464 44.3402C57.9235 43.3877 51.3007 42.012 44.7829 40.5305C31.327 37.5674 18.0812 34.0752 4.7304 30.7947C4.3099 30.6888 4.20477 31.3238 4.62527 31.3238C12.1943 33.2286 19.7632 35.1335 27.3322 37.0383C40.2626 40.213 53.2981 43.2819 66.5438 45.1868C71.3795 45.8217 76.4255 46.4566 81.3664 47.3032Z" fill="#C4C3AD"/>
<path d="M104.284 75.6644C104.178 69.5266 104.178 63.3888 104.494 57.251C104.599 54.7112 105.44 52.8064 103.337 51.6423C102.181 50.9015 95.9787 50.9015 95.348 52.4889C95.2428 52.7005 95.2428 52.9122 95.348 53.018C95.7685 57.0393 96.7146 60.2141 96.2941 64.3412C96.189 65.7169 95.8736 67.0926 96.0838 68.4684C96.189 69.4208 96.5043 70.3732 96.8197 71.3256C97.5556 73.9712 97.6607 76.6168 97.7658 79.3682C98.0812 88.1516 98.0812 96.935 97.7658 105.718C99.553 104.554 101.55 103.602 103.653 103.073C105.23 93.972 104.494 84.7653 104.284 75.6644Z" fill="#975B3B"/>
<path d="M105.966 41.3769C106.281 42.1177 106.701 42.6468 106.912 43.3876C107.122 44.1283 107.227 44.9749 107.122 45.7157C107.122 46.4565 107.017 47.1972 106.596 47.7263C106.281 48.3613 105.86 48.9962 105.65 49.737C105.44 51.0069 105.545 52.3826 105.545 53.7583C105.65 55.9806 105.86 58.2029 105.65 60.4252C105.335 63.2825 104.599 66.0339 104.284 68.8912C103.968 72.2776 104.914 75.4523 105.125 78.8387C105.335 82.3309 105.335 85.8231 105.125 89.3153C105.019 90.4793 105.23 95.0298 103.443 95.2414C103.443 94.9239 103.443 94.6065 103.443 94.289C103.968 94.289 104.494 94.289 105.019 94.289C105.335 94.289 105.44 94.5006 105.545 94.7123C105.755 96.088 105.755 97.3579 105.65 98.7336C105.44 100.215 104.284 102.12 104.809 103.39C105.23 104.554 105.545 104.131 106.386 104.871C106.596 105.083 106.701 105.189 106.807 105.401C107.227 106.247 106.807 107.305 106.701 108.152C106.701 108.787 105.755 108.787 105.755 108.152C105.755 107.729 105.966 107.2 105.966 106.67C105.86 105.189 105.44 105.295 104.599 104.871C103.968 104.554 103.443 104.131 103.337 103.39C103.232 102.332 104.178 100.956 104.389 100.003C104.809 98.2045 104.914 96.4055 104.599 94.6065C104.809 94.7123 104.914 94.9239 105.125 95.0298C104.599 95.0298 104.073 95.0298 103.548 95.0298C102.917 95.0298 102.917 94.1832 103.548 94.0773C104.073 93.9715 104.284 90.9026 104.284 90.5851C104.494 88.5745 104.494 86.6696 104.494 84.659C104.494 81.5901 104.704 78.2037 103.968 75.1348C103.337 72.595 103.232 70.1611 103.653 67.5155C104.073 64.3407 105.019 61.166 105.125 57.8855C105.23 55.3457 104.599 52.7001 104.914 50.1603C105.019 49.2079 105.23 48.2555 105.65 47.4089C106.281 46.3506 106.491 45.6099 106.596 44.34C106.596 43.5992 106.386 42.4351 105.966 41.3769Z" fill="#FAF9D4"/>
<path d="M25.1246 77.7809L23.6529 75.5585L27.0169 74.3945L28.4886 78.6275L25.1246 77.7809Z" fill="#DAC397"/>
<path d="M41.2087 65.505L38.5806 66.14L38.6857 62.5419L43.1009 62.6478L41.2087 65.505Z" fill="#DAC397"/>
<path d="M20.0786 53.3351L17.871 51.7477L20.6042 49.4196L23.4426 52.806L20.0786 53.3351Z" fill="#DAC397"/>
<path d="M65.913 90.1623L63.8105 88.6808L66.4386 86.3527L69.277 89.739L65.913 90.1623Z" fill="#47250C"/>
<path d="M84.0996 63.4944L81.892 61.907L84.6252 59.5789L87.4636 62.9653L84.0996 63.4944Z" fill="#47250C"/>
<path d="M62.2337 71.1137L60.1312 69.5263L62.7593 67.1982L65.7028 70.5846L62.2337 71.1137Z" fill="#47250C"/>
<path d="M65.913 89.1039L63.8105 87.5165L66.4386 85.1884L69.277 88.5748L65.913 89.1039Z" fill="#DAC397"/>
<path d="M84.0996 62.33L81.892 60.7426L84.6252 58.5203L87.4636 61.8008L84.0996 62.33Z" fill="#DAC397"/>
<path d="M62.2337 69.95L60.1312 68.3626L62.7593 66.0345L65.7028 69.4209L62.2337 69.95Z" fill="#D79060"/>
<path d="M88.8302 95.0299L86.7277 93.4425L89.3558 91.1144L92.2993 94.5008L88.8302 95.0299Z" fill="#DAC397"/>
<path d="M10.8276 53.8641C10.9328 53.9699 11.0379 54.0757 11.143 54.1816C11.0379 54.0757 10.9328 53.9699 10.8276 53.8641Z" fill="#F7F8DB"/>
<path d="M9.46101 52.2769C10.4071 52.3827 10.5123 52.5944 11.143 52.9119C11.5635 53.1235 12.1943 53.1235 12.7199 53.3352C13.666 53.5468 14.6121 53.9701 15.5583 54.1818C16.0839 54.2876 16.2941 53.6526 15.8736 53.441C15.0326 52.806 13.8763 52.4886 12.825 52.2769C12.4045 52.1711 11.8789 51.9595 11.3533 52.0653C10.6174 51.9595 10.0918 52.1711 9.46101 52.2769C9.46101 52.2769 9.46101 52.1711 9.46101 52.2769Z" fill="#B36C49"/>
<path d="M18.0812 51.6423C19.1325 51.6423 20.4991 50.6899 20.394 49.5258C20.394 49.3142 19.9735 48.9967 19.7632 48.9967C19.2376 49.1025 18.9222 49.42 18.6069 49.8433C18.2915 50.1608 17.9761 50.4782 17.7659 50.9015C17.5556 51.219 17.7659 51.6423 18.0812 51.6423Z" fill="#B36C49"/>
<path d="M39.2113 64.4471C39.0011 64.5529 39.4216 64.4471 39.5267 64.4471C40.0523 64.5529 40.578 63.9179 40.578 63.3888C40.578 62.7539 40.1575 62.4364 39.5267 62.3306C38.7908 62.2247 38.1601 62.7539 38.055 63.3888C37.8447 64.2354 38.5806 64.7645 39.2113 64.4471Z" fill="#B36C49"/>
<path d="M61.3927 68.6797C61.9183 68.3623 62.4439 68.1506 62.8644 67.8332C63.8105 67.1982 63.39 65.7167 62.3388 65.7167C61.4978 65.7167 60.6568 66.2458 60.1312 66.8807C59.8158 67.304 59.7107 67.8332 60.026 68.2565C60.3414 68.7856 60.9722 68.9972 61.3927 68.6797Z" fill="#B36C49"/>
<path d="M83.0484 61.0606C83.7842 60.7431 84.415 59.8965 84.2047 59.0499C84.0996 58.6266 83.6791 58.415 83.2586 58.5208C82.4176 58.6266 81.9971 59.6849 81.892 60.4256C81.892 61.0605 82.6279 61.1664 83.0484 61.0606Z" fill="#B36C49"/>
<path d="M64.7566 87.6223C65.2823 87.5165 65.5976 87.5165 65.913 87.199C66.4386 86.7757 66.0181 85.9291 65.3874 85.9291C64.9669 85.9291 64.6515 86.035 64.3362 86.2466C63.8105 86.5641 64.0208 87.7282 64.7566 87.6223Z" fill="#B36C49"/>
<path d="M86.6226 93.2308C86.8329 93.5483 87.1482 93.8657 87.4636 94.0774C88.1995 94.6065 89.1456 94.0774 89.3558 93.3366C89.5661 92.49 88.9353 91.6434 88.0944 91.6434C87.779 91.6434 87.4636 91.6434 87.1482 91.7493C86.6226 91.9609 86.2021 92.7017 86.6226 93.2308Z" fill="#B36C49"/>
<path d="M24.3887 76.8281C25.8605 76.8281 25.8605 74.5 24.3887 74.5C22.917 74.6058 22.917 76.8281 24.3887 76.8281Z" fill="#B36C49"/>
<path d="M25.0195 55.4515C26.4912 56.6156 28.0681 56.8272 29.8552 57.1447C31.2218 57.3564 32.6936 57.6738 33.9551 57.1447C34.1653 57.0389 34.1653 56.7214 33.9551 56.6156C32.5885 55.8748 30.9065 56.0865 29.5398 55.8748C27.963 55.6631 26.7015 55.2398 25.1246 55.3457C24.9144 55.2398 24.9144 55.4515 25.0195 55.4515Z" fill="#B36C49"/>
<path d="M37.3191 57.5688C38.1601 57.8862 39.1062 57.9921 39.9472 57.6746C40.0523 57.5688 39.9472 57.4629 39.8421 57.4629C39.0011 57.3571 38.1601 57.4629 37.3191 57.1454C37.1088 57.0396 37.0037 57.4629 37.3191 57.5688Z" fill="#B36C49"/>
<path d="M46.3598 60.0024C47.3059 60.1083 48.2521 60.1082 49.1982 60.2141C50.0392 60.3199 50.8802 60.4257 51.7212 60.2141C51.9314 60.2141 51.9314 59.8966 51.8263 59.7908C51.0904 59.4733 50.2494 59.4733 49.4084 59.4733C48.3572 59.3675 47.4111 59.3675 46.3598 59.2617C45.8342 59.2617 45.8342 60.0024 46.3598 60.0024Z" fill="#B36C49"/>
<path d="M54.4544 60.4256C54.8749 60.5314 55.1903 60.6373 55.6108 60.7431C55.7159 60.7431 55.7159 60.6373 55.6108 60.6373C55.2954 60.5314 54.8749 60.4256 54.4544 60.3198C54.3493 60.214 54.3493 60.4256 54.4544 60.4256Z" fill="#B36C49"/>
<path d="M57.8184 60.8489C70.2231 64.976 83.3637 71.4313 96.6095 71.6429C98.0812 71.6429 98.0812 69.4206 96.6095 69.4206C89.8815 69.4206 83.3637 67.1983 76.9511 65.611C70.6436 64.0236 64.1259 62.6479 57.8184 60.7431C57.8184 60.6372 57.7133 60.7431 57.8184 60.8489Z" fill="#B36C49"/>
<path d="M96.189 60.8489C95.9787 61.8013 95.348 63.0712 96.189 63.9178C96.2941 64.0236 96.5043 64.0236 96.6095 63.9178C97.4505 63.0712 96.8197 61.8013 96.6095 60.8489C96.5043 60.7431 96.2941 60.7431 96.189 60.8489Z" fill="#B36C49"/>
<path d="M95.9787 64.2355C95.6633 66.0345 95.6633 68.0452 96.0838 69.8442C96.189 70.1617 96.3992 70.3733 96.7146 70.4791C96.8197 70.4791 96.8197 70.4791 96.9248 70.4791C97.1351 70.585 97.4505 70.4791 97.5556 70.2675C98.0812 69.4209 97.4505 68.786 97.1351 67.9394C96.7146 66.7753 96.7146 65.6112 96.8197 64.3413C96.9248 63.918 96.0838 63.7064 95.9787 64.2355Z" fill="#B36C49"/>
<path d="M97.9761 84.6596C98.7119 80.4267 99.5529 74.818 98.1863 70.585C97.871 69.7384 96.8197 69.9501 96.7146 70.7967C96.5043 73.019 96.9248 75.4529 97.1351 77.6752C97.3453 80.0034 97.3453 82.3315 97.4504 84.5538C97.4504 84.8713 97.8709 84.9771 97.9761 84.6596Z" fill="#B36C49"/>
<path d="M5.67652 70.3733C20.4991 72.0665 34.4807 77.781 49.5136 78.8392C50.6699 78.9451 50.6699 77.1461 49.5136 77.0402C34.691 76.0878 20.4991 70.4791 5.67652 69.95C5.46627 69.95 5.46627 70.2675 5.67652 70.3733Z" fill="#B36C49"/>
<path d="M69.0668 80.4265C68.1206 80.1091 67.2796 79.7916 66.2284 79.5799C65.4925 79.4741 64.7567 79.3683 63.9157 79.2625C62.3388 79.0508 60.9722 78.31 59.3953 78.5217C58.9748 78.6275 58.9748 79.1566 59.2902 79.3683C60.6568 80.2149 62.3388 79.8974 63.8105 80.2149C64.7567 80.4265 65.7028 80.744 66.6489 80.744C67.4899 80.8498 68.2258 80.744 68.9616 80.744C69.1719 80.8498 69.277 80.4265 69.0668 80.4265Z" fill="#B36C49"/>
<path d="M56.5569 78.4154C55.2954 78.0979 54.139 77.8863 52.9827 77.463C51.9314 77.1455 50.9853 76.6164 49.8289 76.828C49.0931 77.0397 48.9879 77.9921 49.6187 78.4154C50.5648 79.0503 51.7212 78.8387 52.7724 78.8387C54.0339 78.8387 55.2954 79.0503 56.4518 79.1561C56.8723 79.262 56.9774 78.5212 56.5569 78.4154Z" fill="#B36C49"/>
<path d="M74.8486 82.2256C76.6357 82.6489 78.2126 82.6489 79.9997 82.7548C81.7869 82.8606 83.574 83.9188 85.256 83.3897C85.5713 83.2839 85.6765 82.7548 85.3611 82.6489C83.8894 81.9082 82.4176 82.5431 80.7356 82.4373C78.6331 82.3315 76.846 82.014 74.7435 82.1198C74.7435 82.1198 74.7435 82.2256 74.8486 82.2256Z" fill="#B36C49"/>
<path d="M89.0405 84.4476C90.6173 84.7651 92.0891 84.6593 93.666 85.2942C95.0326 85.8233 96.189 86.5641 97.6607 86.1408C98.3966 85.9292 98.9222 84.7651 98.1863 84.1301C97.03 83.1777 95.7685 83.2836 94.2967 83.3894C92.6147 83.601 90.9327 83.2836 89.2507 83.4952C88.7251 83.7068 88.5149 84.3418 89.0405 84.4476Z" fill="#B36C49"/>
<path d="M98.0812 85.4C100.499 85.1884 103.337 84.7651 105.44 83.4952C106.071 83.0719 105.65 82.0136 104.914 82.3311C102.602 83.1777 100.394 84.2359 97.9761 84.7651C97.5556 84.8709 97.6607 85.5058 98.0812 85.4Z" fill="#B36C49"/>
<path d="M96.9248 70.6908C98.1863 70.6908 99.4478 70.0558 100.709 69.8442C101.971 69.5267 103.443 69.5267 104.494 68.8918C104.914 68.6801 104.914 67.9393 104.389 67.8335C103.127 67.6219 101.866 68.151 100.604 68.4685C99.3427 68.7859 97.7658 68.9976 96.6095 69.7383C96.189 69.95 96.2941 70.6908 96.9248 70.6908Z" fill="#B36C49"/>
<path d="M48.0418 36.4034C53.9288 37.6733 60.9722 38.0966 66.754 36.2975C69.277 37.0383 71.8 37.7791 74.323 37.8849C76.9511 38.0966 79.5792 37.5674 81.7869 36.1917C82.733 35.5568 83.6791 34.4985 83.3637 33.3345C83.2586 32.9112 82.9432 32.4879 82.6279 32.2762C79.7895 29.419 73.5871 29.1015 69.8026 28.1491C63.8105 26.5617 57.8184 25.0802 51.5109 24.6569C47.0957 24.3394 42.6804 24.3394 38.3703 24.9744C36.8986 25.186 26.4912 26.6676 30.3808 28.9957C32.4833 30.2656 34.7961 30.9005 37.0037 31.6413C39.8421 32.4879 42.7856 33.4403 45.7291 33.8636C47.8316 34.1811 51.5109 33.3345 53.1929 34.7102C52.0365 35.2393 50.7751 35.5568 49.5136 35.8742C49.1982 35.9801 48.7777 36.0859 48.6726 36.5092C48.5674 36.8267 49.1982 37.1441 49.3033 36.8267L48.0418 36.4034Z" fill="#C4C3AD"/>
<path d="M42.9958 31.3239C49.3033 30.5831 55.5057 32.8054 61.6029 34.287C67.7001 35.7685 74.6384 36.5093 79.9998 33.2287C77.687 31.9588 75.2691 30.7948 72.8513 29.7365C66.2284 26.6676 58.8697 24.1279 51.6161 24.9744C47.9367 25.3977 43.8368 27.1967 42.9958 30.7948V31.3239Z" fill="#A38E7B"/>
<path d="M40.8933 11.1115C40.8933 11.1115 40.2626 8.88923 40.3677 8.14846C40.4728 7.30187 40.7882 6.24363 40.7882 6.24363H42.0497L42.6804 1.48154L43.1009 0L44.6778 2.6456L45.6239 0.952418C45.6239 0.952418 48.1469 1.26989 49.4084 2.32813C50.6699 3.28055 52.1417 4.86791 52.1417 4.86791L52.9827 5.82033L54.1391 4.86791L55.5057 5.50286L56.5569 6.9844L53.4032 10.5824L51.5109 14.7096C51.5109 14.7096 50.6699 13.1222 49.3033 12.4873C47.9367 11.8523 47.0957 11.9581 47.0957 11.9581C47.0957 11.9581 42.8907 10.5824 40.8933 11.1115Z" fill="#8DA12F"/>
<path d="M63.8105 3.49255C63.8105 3.49255 59.2902 5.29157 57.3979 6.45563C55.6108 7.6197 54.0339 9.94783 54.0339 9.94783L51.9314 14.075L51.5109 14.7099C51.5109 14.7099 52.3519 16.4031 52.7724 17.673C53.1929 19.0487 53.5083 21.0594 53.5083 21.0594C53.5083 21.0594 56.4518 19.472 58.2389 20.2128C60.026 20.9535 61.2875 21.906 61.2875 21.906L61.9183 22.8584C61.9183 22.8584 63.39 22.2234 64.4413 22.8584C65.3874 23.4933 66.1233 24.2341 66.1233 24.2341C66.1233 24.2341 65.8079 22.7526 65.913 21.8001C66.0182 20.8477 66.5438 19.8953 66.5438 19.8953L71.3795 20.107L74.0076 20.4244C74.0076 20.4244 75.0589 17.7788 73.6923 14.075C72.3256 10.3711 70.5385 8.88959 70.5385 8.88959L68.5411 7.09058L66.754 6.13816C66.6489 6.03233 64.5464 3.59838 63.8105 3.49255Z" fill="#A85F49"/>
<path d="M47.2008 11.9583C47.2008 11.9583 44.1522 10.5825 40.9984 11.1117C37.8447 11.6408 36.4781 12.9107 36.4781 12.9107L32.5885 16.2971C32.5885 16.2971 30.6962 19.1543 29.8552 20.8475C29.0142 22.5407 28.804 24.3397 28.804 24.3397C28.804 24.3397 29.0142 26.562 29.5398 27.5144C30.0655 28.4668 31.327 29.3134 31.327 29.3134C31.327 29.3134 33.7448 30.9008 36.5832 31.5357C39.4216 32.1707 41.419 31.7474 41.419 31.7474C41.419 31.7474 43.6266 31.5357 46.1496 30.4775C48.6726 29.4192 49.9341 28.361 49.9341 28.361L51.0904 24.2339L53.6134 20.9533C53.6134 20.9533 53.4032 18.0961 52.2468 15.8738C51.1956 13.6514 48.8828 11.535 47.2008 11.9583Z" fill="#A85F49"/>
<path d="M41.9446 22.7525C41.9446 22.7525 45.7291 20.8477 46.4649 19.2603C47.2008 17.6729 47.2008 17.2497 46.8854 16.2972C46.5701 15.3448 46.4649 15.0273 46.6752 14.0749C46.8854 13.1225 47.2008 12.0643 47.2008 12.0643C47.2008 12.0643 50.1443 12.2759 51.3007 13.8633C52.3519 15.4506 53.0878 18.2021 53.0878 18.2021L53.6134 21.0593L51.8263 23.07L50.9853 24.3399C50.9853 24.3399 49.4084 24.869 48.4623 23.3875C47.5162 21.9059 47.5162 21.5884 46.8854 21.271C46.2547 20.8477 45.5188 19.8953 41.9446 22.7525Z" fill="#A97C50"/>
<path d="M61.9183 22.8583C61.9183 22.8583 60.6568 20.636 58.5543 20.4243C56.4518 20.2127 54.8749 20.7418 54.8749 20.7418C54.8749 20.7418 52.6673 21.3767 51.5109 23.2816C50.4597 25.1864 50.1443 26.9854 50.1443 26.9854L49.6187 31.0067L49.1982 33.6523L47.8316 36.5096L50.5648 36.1921C50.5648 36.1921 55.9262 36.8271 58.6594 36.4038C61.3927 35.9805 64.3362 33.5465 64.3362 33.5465L65.2823 32.4883C65.2823 32.4883 68.7514 34.8164 71.3795 34.9222C73.9025 35.028 76.4255 33.4407 76.4255 33.4407C76.4255 33.4407 78.4229 31.2184 78.9485 29.9485C79.5793 28.5728 80.1049 26.3505 80.1049 26.3505C80.1049 26.3505 80.6305 23.599 79.4741 22.5408C78.3178 21.4826 75.8999 20.9534 75.8999 20.9534L70.7488 19.8952H66.4387L65.8079 21.8L66.0182 24.234C66.1233 24.234 64.231 22.2233 61.9183 22.8583Z" fill="#DAC397"/>
<path d="M55.6108 8.57139C54.5595 10.3704 54.0339 12.3811 53.9288 14.3917C53.9288 14.9208 53.9288 15.5558 54.2442 16.0849C54.5595 16.614 55.1903 16.9315 55.821 17.1431C57.7133 17.8839 59.7107 18.6247 61.708 18.2014C64.0208 17.6723 66.0181 17.3548 68.0155 15.7674C67.9104 16.4024 68.2258 17.0373 68.6463 17.4606C69.3821 18.2014 70.5385 18.2014 71.4846 18.413C72.641 18.6247 73.7974 19.2596 74.5333 20.2121C73.482 20.847 72.2205 20.1062 71.0641 19.8946C69.6975 19.5771 68.3309 19.7888 66.9643 19.8946C66.8591 19.8946 66.6489 19.8946 66.5438 20.0004C66.4386 20.1062 66.3335 20.2121 66.3335 20.4237C65.913 21.5878 65.8079 22.9635 65.913 24.2334C64.7566 23.8101 63.7054 23.4926 62.549 23.0693C62.2337 22.9635 62.0234 22.8577 61.708 22.7518C61.4978 22.646 61.3927 22.4344 61.2875 22.3285C59.3953 20.5295 56.4518 20.0004 54.0339 21.0586C53.4032 19.3655 52.6673 17.6723 52.0366 15.9791C51.9314 15.5558 51.7212 15.1325 51.7212 14.7092C51.7212 14.3917 51.9314 14.1801 52.0366 13.8626C53.0878 11.6403 54.5595 9.62963 56.1364 7.72479L55.6108 8.57139Z" fill="#7D4533"/>
<path d="M67.3848 6.87831C67.9104 9.20644 68.436 11.5346 68.9616 13.8627C69.1719 15.0268 69.4873 16.1908 70.4334 16.9316C70.8539 17.2491 71.3795 17.4607 71.9051 17.6724C72.7461 18.0957 73.5871 18.6248 74.2179 19.3656C74.6384 14.0744 71.4846 8.67732 66.754 6.45502L67.3848 6.87831Z" fill="#BF8874"/>
<path d="M41.6292 10.7942C41.5241 9.9476 41.4189 9.20683 41.3138 8.36024C41.6292 8.78353 42.0497 9.101 42.3651 9.5243C43.1009 9.5243 43.8368 9.73595 44.3624 10.2651C44.4676 9.20683 44.4676 8.14859 44.3624 7.19617C44.5727 8.46606 45.8342 9.20683 46.9906 9.84177C46.8854 8.57188 46.5701 7.40782 46.2547 6.13793C47.4111 6.8787 48.5674 7.51364 49.7238 8.25441C49.4084 6.4554 48.4623 4.76221 47.0957 3.59814C49.5136 4.76221 52.2468 6.13793 53.1929 8.67771C53.6134 8.25441 53.9288 7.72529 54.2442 7.09034C54.7698 7.19617 55.1903 7.40782 55.7159 7.51364C53.6134 9.31265 52.2468 11.8524 51.7212 14.6039C51.4058 13.4398 50.1443 12.8049 48.9879 12.3816C46.5701 11.4291 44.0471 10.9 41.4189 10.6884L41.6292 10.7942Z" fill="#768930"/>
<path d="M35.0063 14.1803C33.009 16.5084 30.9065 18.9424 30.486 22.0113C30.3808 22.8579 30.486 23.9161 31.2218 24.3394C31.5372 24.5511 31.8526 24.5511 32.2731 24.5511C36.1627 24.7627 39.737 22.3288 42.5753 19.5774C43.4163 18.7308 44.1522 17.8842 44.4676 16.8259C44.6778 16.2968 44.6778 15.6619 44.7829 15.0269C44.8881 14.6036 45.0983 14.2861 45.0983 13.8628C45.0983 13.0162 44.1522 12.4871 43.3112 12.1697C41.9446 11.6405 40.5779 11.2172 39.2113 11.5347C38.1601 11.7464 37.3191 12.4871 36.5832 13.1221C35.7422 13.757 35.0063 14.392 34.1653 15.0269L35.0063 14.1803Z" fill="#BF8874"/>
<path d="M50.0392 13.7571C49.6187 13.6513 49.3033 13.5454 48.8828 13.6513C48.9879 14.0746 49.0931 14.392 49.3033 14.7095C48.7777 14.7095 48.3572 15.2386 48.2521 15.7677C48.1469 16.2969 48.3572 16.826 48.6726 17.2493C48.7777 17.3551 48.7777 17.4609 48.7777 17.5667C48.7777 17.6726 48.6726 17.6726 48.6726 17.7784C48.3572 18.0959 48.1469 18.4133 47.8316 18.8366C48.2521 18.9425 48.5674 19.1541 48.7777 19.5774C48.7777 19.6832 48.8828 19.6832 48.8828 19.7891C48.8828 20.0007 48.6726 20.1065 48.6726 20.3182C48.6726 20.424 48.7777 20.5298 48.8828 20.6356C49.4084 21.0589 50.0392 21.4822 50.6699 21.7997C51.3007 22.1172 52.0366 22.223 52.7724 21.9055C52.9827 21.7997 53.1929 21.6939 53.2981 21.4822C53.4032 21.3764 53.2981 21.1648 53.2981 21.0589C53.0878 18.9425 52.4571 16.9318 51.3007 15.1328C50.8802 14.4978 50.3546 13.9687 49.6187 14.1804L50.0392 13.7571Z" fill="#B98858"/>
<path d="M30.2757 28.1492C34.7961 29.8424 40.0523 30.0541 44.2573 27.5143C44.9932 26.9852 45.8342 26.456 46.2547 25.6094C46.7803 24.8687 46.8854 23.8104 46.4649 22.9638C46.0444 22.1172 45.0983 21.5881 44.1522 21.9056C43.5214 22.1172 43.1009 22.6464 42.4702 22.5405C44.4676 21.9056 46.0444 20.3182 46.7803 18.3076C46.1496 20.5299 47.6213 23.1755 49.8289 23.9162C50.0392 24.0221 50.2494 24.0221 50.4597 24.2337C50.4597 24.3395 50.5648 24.4454 50.5648 24.5512C50.6699 25.6094 50.2494 26.5619 49.6187 27.4085C48.9879 28.1492 48.0418 28.6783 47.0957 29.1016C42.7856 31.0065 37.9498 31.1123 33.3243 30.1599C32.7987 30.0541 32.3782 29.9482 31.8526 29.7366C30.5911 29.1016 29.8552 27.6201 29.645 26.1386L30.2757 28.1492Z" fill="#7D4533"/>
<path d="M47.9367 36.4031C48.3572 36.2973 49.0931 34.2866 49.3033 33.8633C49.6187 33.0167 49.6187 32.276 49.7238 31.4294C49.9341 29.5245 50.0392 27.1964 50.6699 25.3974C50.3546 26.5615 50.3546 27.7255 50.4597 28.8896C50.5648 29.5245 50.6699 30.2653 51.0904 30.7944C52.7724 33.0167 54.5595 29.1012 55.1903 27.9372C56.1364 26.4556 57.2928 25.1857 58.7645 24.1275C59.2902 23.7042 60.026 23.2809 60.6568 23.0693C61.2875 22.7518 62.2337 23.0693 62.7593 22.8576C60.1312 23.9158 57.8184 25.9265 56.4518 28.4663C56.0313 29.2071 55.7159 29.9478 55.2954 30.5828C54.7698 31.3235 54.139 31.9585 54.3493 32.9109C54.6647 34.075 56.0313 34.4983 57.2928 34.4983C61.6029 34.4983 65.8079 31.4294 67.1745 27.3022C66.754 30.9002 64.0208 33.7575 60.9722 35.6623C60.1312 36.1915 59.0799 36.2973 58.2389 36.5089C57.8184 36.6148 57.3979 36.6148 56.9774 36.5089C54.8749 36.4031 52.6673 36.1915 50.5648 36.1915C49.6187 36.2973 48.7777 36.2973 47.9367 36.4031Z" fill="#E8D9BE"/>
<path d="M67.3848 21.0588C67.1745 22.4346 67.0694 23.8103 67.1745 25.186C67.1745 25.8209 67.2797 26.4559 67.595 26.985C67.9104 27.4083 68.3309 27.8316 68.7514 28.1491C69.277 28.5724 69.9078 28.8898 70.5385 28.9957C71.0641 29.1015 71.6949 29.1015 72.2205 29.1015C74.4281 28.9957 76.5306 27.9374 78.0024 26.4559C78.6331 25.8209 79.1587 24.9743 78.9485 24.1277C78.7382 23.1753 77.687 22.752 76.846 22.4346C73.9025 21.4821 70.8539 21.0588 67.7002 21.1647L67.3848 21.0588Z" fill="#E8D9BE"/>
<path d="M65.8079 32.0645C66.4386 32.8053 67.3848 33.1227 68.2258 33.4402C69.277 33.7577 70.4334 34.0751 71.5898 34.181C72.7461 34.2868 73.9025 34.0751 74.8486 33.4402C74.5332 33.546 74.2179 33.6518 73.9025 33.6518C73.5871 33.6518 73.2717 33.3344 73.2717 33.0169C73.2717 32.8053 73.3769 32.6994 73.482 32.5936C74.323 31.4295 75.7947 31.0062 76.9511 30.2655C77.7921 29.7363 78.4229 28.9956 78.8434 28.149C77.1614 29.4189 74.8486 30.2655 72.5359 30.4771C71.8 30.5829 71.0641 30.4771 70.3283 30.3713C69.1719 30.0538 68.1206 29.4189 67.0694 28.6781C66.754 29.6305 66.3335 30.5829 66.0181 31.6412C65.913 31.8528 65.5976 32.1703 65.4925 31.9587L65.8079 32.0645Z" fill="#C6A462"/>
<path d="M56.2415 34.6043C56.662 34.8159 57.1877 34.7101 57.6082 34.7101C58.1338 34.6043 58.7645 34.6043 59.0799 34.181C59.185 34.0752 59.0799 33.7577 58.9748 33.7577C58.5543 33.7577 58.0287 33.9693 57.6082 34.0752C57.1877 34.181 56.662 34.181 56.2415 34.3926C56.1364 34.3926 56.1364 34.4985 56.2415 34.6043Z" fill="white"/>
<path d="M40.8933 10.8993C40.578 9.62939 39.8421 5.7139 42.2599 6.77214C42.3651 6.77214 42.3651 6.77214 42.4702 6.66632C42.6804 5.07895 42.6804 3.49159 42.9958 1.90423C43.4163 -0.31808 44.1522 2.01005 44.7829 3.06829C44.8881 3.17412 44.9932 3.17412 44.9932 3.06829C45.9393 -1.48215 52.0366 4.76148 53.0878 6.45467C53.1929 6.56049 53.298 6.56049 53.4032 6.45467C53.9288 4.97313 54.8749 5.18478 56.3467 6.98379C56.4518 7.19544 56.7672 7.08961 56.662 6.87797C56.1364 5.60807 55.4005 4.97313 54.139 4.76148C54.0339 4.76148 54.0339 4.76148 53.9288 4.86731C53.298 5.92555 53.1929 5.81972 52.4571 5.18478C51.7212 4.44401 51.0904 3.70324 50.3546 3.06829C48.8828 2.01005 47.3059 1.37511 45.6239 0.95181C45.6239 0.95181 45.5188 0.95181 45.5188 1.05763C45.4137 1.37511 45.0983 2.43335 44.7829 2.43335C44.2573 2.32752 43.5214 0.634338 43.2061 0.105217C43.1009 -0.000607554 42.9958 -0.000607554 42.9958 0.211041C42.8907 1.48093 42.6804 2.75082 42.5753 4.02071C42.4702 5.18478 42.6804 6.87797 41.1036 6.24302C40.9984 6.24302 40.9984 6.24302 40.9984 6.34884C40.1575 7.72456 40.0523 9.2061 40.8933 10.8993C40.8933 11.0051 40.7882 11.0051 40.8933 10.8993Z" fill="#768930"/>
<path d="M49.7238 28.2549C46.6752 30.583 42.6805 31.9587 38.7908 31.5354C35.3217 31.1121 29.9603 29.7364 29.3296 25.7151C28.6989 22.0113 31.8526 17.7783 34.1653 15.2385C37.5293 11.7463 42.4702 10.3706 46.9906 12.1696C47.3059 12.2754 47.6213 11.7463 47.3059 11.5347C42.8907 9.41817 37.7396 10.7939 34.2705 14.0744C31.4321 16.72 27.963 21.588 28.6989 25.7151C29.3296 29.6306 34.0602 31.1121 37.4242 31.7471C41.7343 32.4878 46.6752 31.4296 50.0392 28.4665C50.0392 28.4665 49.8289 28.1491 49.7238 28.2549Z" fill="#7D4533"/>
<path d="M47.2008 12.1695C47.2008 13.016 46.4649 13.651 46.3598 14.4976C46.2547 15.3442 46.6752 15.7675 46.7803 16.6141C47.4111 19.8946 43.7317 21.3762 41.7343 23.0693C41.6292 23.1752 41.7343 23.3868 41.9446 23.281C43.6266 22.1169 46.5701 20.4237 47.2008 18.3073C47.5162 17.249 46.8854 16.6141 46.7803 15.6617C46.5701 14.1801 47.6213 13.3335 47.2008 12.1695C47.2008 12.0636 47.3059 12.0636 47.2008 12.1695Z" fill="#B98858"/>
<path d="M46.1496 20.9536C47.4111 21.3769 47.8316 22.6468 48.6726 23.5992C49.1982 24.2342 50.0392 24.7633 50.8802 24.34C50.9853 24.2342 50.9853 24.0225 50.7751 24.1284C48.4623 24.6575 48.2521 21.1653 46.2547 20.8478C46.0444 20.742 46.0444 20.9536 46.1496 20.9536Z" fill="#B98858"/>
<path d="M47.3059 11.9586C52.0366 13.1226 52.2468 17.4614 53.2981 21.2711C53.4032 21.5886 53.8237 21.4827 53.8237 21.1653C53.7185 17.3556 51.8263 11.8528 47.3059 11.5353C47.2008 11.6411 47.2008 11.9586 47.3059 11.9586Z" fill="#592E1E"/>
<path d="M47.9367 36.1916C50.3546 33.8635 49.6187 30.0538 50.3546 27.0907C50.8802 24.8684 52.1417 22.5403 54.2442 21.3762C56.662 20.0005 59.9209 20.5296 61.3927 22.8578C61.708 23.2811 62.4439 22.8578 62.1285 22.4345C60.026 19.2597 55.6108 19.0481 52.7724 21.3762C48.2521 25.2917 50.5648 31.4295 47.9367 36.1916C47.8316 36.1916 47.8316 36.0858 47.9367 36.1916Z" fill="#C6A462"/>
<path d="M51.9314 14.498C54.3493 8.99511 58.344 5.82038 64.0208 4.33885C64.5464 4.23302 64.4413 3.2806 63.9157 3.38643C58.1338 4.02137 52.9827 8.78346 51.4058 14.3921C51.3007 14.498 51.7212 14.7096 51.9314 14.498Z" fill="#BF8874"/>
<path d="M63.7054 3.80955C67.595 5.50274 67.4899 9.84153 68.0155 13.5454C68.0155 13.8629 68.5411 13.757 68.5411 13.4396C68.0155 9.73571 68.0155 4.97362 63.8105 3.49208C63.7054 3.38626 63.4952 3.80955 63.7054 3.80955Z" fill="#7D4533"/>
<path d="M66.9643 6.34934C72.3256 9.73572 74.4281 14.392 73.9025 20.5298C73.9025 20.6356 74.1128 20.6356 74.1128 20.5298C75.6896 14.9211 72.1154 8.7833 66.9643 6.34934C66.9643 6.34934 66.9643 6.24352 66.9643 6.34934Z" fill="#7D4533"/>
<path d="M65.8079 24.1276C65.913 23.3868 65.913 22.646 66.1233 21.9052C66.2284 21.3761 66.4387 20.7412 66.4387 20.2121C66.4387 20.1062 66.3335 20.1062 66.2284 20.2121C65.5976 21.3761 65.5976 22.9635 65.5976 24.2334C65.7028 24.2334 65.8079 24.2334 65.8079 24.1276Z" fill="#9E844E"/>
<path d="M67.0694 20.1068C70.0129 20.3185 79.5792 20.5301 79.9997 24.6573C80.3151 27.5145 76.9511 29.3135 74.7435 29.8427C72.3256 30.4776 70.0129 30.266 67.9104 28.7844C67.595 28.5728 67.2796 29.1019 67.4899 29.3135C71.0641 32.4883 78.8434 31.0067 80.5254 26.2446C82.8381 19.7893 70.7488 19.366 67.0694 19.7893C66.8591 19.7893 66.8591 20.001 67.0694 20.1068Z" fill="#9E844E"/>
<path d="M79.9997 27.1971C78.7382 30.0544 77.7921 32.8058 74.6384 34.0757C71.1693 35.4514 68.1206 34.3932 65.1772 32.3825C64.9669 32.2767 64.8618 32.4884 65.072 32.7C67.9104 34.8165 71.3795 35.8747 74.8486 34.3932C77.7921 33.1233 79.369 30.1602 79.9997 27.1971C80.1049 27.1971 80.1049 27.1971 79.9997 27.1971Z" fill="#C6A462"/>
<path d="M53.7185 31.9589C56.2415 30.3715 57.1877 27.7259 59.0799 25.6094C60.867 23.5988 64.4413 22.0114 66.2284 25.0803C67.3848 26.9851 66.6489 29.5249 65.4925 31.3239C63.6003 34.287 60.2363 36.1918 56.7672 36.4035C53.7185 36.5093 50.8802 35.2394 47.8316 36.1918C47.3059 36.2977 47.5162 37.0384 48.0418 36.9326C50.8802 36.1918 53.5083 37.3559 56.3467 37.2501C58.1338 37.2501 59.9209 36.8268 61.4978 35.9802C64.5464 34.3928 67.4899 31.2181 67.595 27.6201C67.7001 24.7628 65.4925 22.223 62.549 22.6463C58.0287 23.2813 56.5569 29.1016 53.7185 31.9589C53.7185 32.0647 53.6134 31.9589 53.7185 31.9589Z" fill="#9E844E"/>
<path d="M46.8854 14.1809C46.6752 14.4983 46.4649 14.6042 46.3598 15.0275C46.3598 15.3449 46.7803 15.4507 46.8854 15.2391C47.0957 14.9216 47.0957 14.71 47.0957 14.2867C47.2008 14.1809 46.9906 14.075 46.8854 14.1809Z" fill="white"/>
<path d="M48.6726 4.65611C48.9879 4.86775 49.4084 5.39688 49.8289 5.39688C49.8289 5.39688 49.8289 5.39688 49.8289 5.29105C49.6187 4.86775 49.0931 4.65611 48.6726 4.44446C48.6726 4.44446 48.5674 4.55028 48.6726 4.65611Z" fill="white"/>
<path d="M68.1207 9.31264C68.0155 10.7942 68.2258 12.4874 68.436 14.0747C68.436 14.1806 68.6463 14.2864 68.6463 14.0747C68.9617 12.5932 68.8565 10.6884 68.1207 9.31264C68.1207 9.20682 68.2258 9.20682 68.1207 9.31264Z" fill="white"/>
<path d="M81.4715 29.2075C81.7869 29.4192 81.9971 29.6308 82.4176 29.525C82.5227 29.525 82.6279 29.3133 82.5227 29.2075C82.3125 28.89 81.9971 28.9959 81.5766 28.9959C81.4715 28.9959 81.3664 29.2075 81.4715 29.2075Z" fill="#CBBFB3"/>
<path d="M83.574 29.9485C87.779 33.2291 112.799 40.7426 103.758 48.9969C103.022 49.7377 104.178 50.9017 104.914 50.161C108.594 46.7746 106.281 41.695 102.917 39.0494C97.1351 34.6048 89.8815 33.5466 83.7842 29.8427C83.574 29.7369 83.4689 29.8427 83.574 29.9485Z" fill="#CBBFB3"/>
<path d="M2.73303 56.4045C2.41765 48.3619 1.99715 39.7901 6.93802 33.0174C7.46364 32.2766 7.67389 31.2184 6.93802 30.6893C6.51752 30.4776 5.99189 30.4776 5.5714 30.5834C4.3099 30.7951 2.94328 31.1125 1.99715 31.8533C-0.736092 33.9698 0.210031 41.1658 0.104906 44.2347C-0.000218572 49.2085 0.104906 54.0764 0.525405 59.0501C1.26128 68.7859 3.67915 77.9926 5.46627 87.5168C3.57402 77.2519 3.15352 66.7753 2.73303 56.4045Z" fill="#C37B51"/>
<path d="M68.1206 55.4515H68.2258C69.0668 55.4515 69.0668 54.0758 68.2258 54.0758H68.1206C67.2796 54.0758 67.2796 55.4515 68.1206 55.4515Z" fill="#B36C49"/>
<path d="M44.1522 51.5365C45.9393 51.5365 45.9393 48.785 44.1522 48.785C42.4702 48.785 42.4702 51.5365 44.1522 51.5365Z" fill="#B36C49"/>
<path d="M53.4032 54.6049C53.4032 54.4991 53.2981 54.4991 53.2981 54.3933C53.0878 53.97 52.3519 53.97 52.1417 54.3933C52.1417 54.4991 52.0366 54.4991 52.0366 54.6049C51.8263 55.134 52.0365 55.769 52.6673 55.769C53.298 55.769 53.7186 55.134 53.4032 54.6049Z" fill="#B36C49"/>
<path d="M36.7935 83.3895C37.0037 83.3895 37.0037 82.9662 36.7935 82.9662C36.5832 82.9662 36.5832 83.3895 36.7935 83.3895Z" fill="#B36C49"/>
<path d="M45.9393 79.8968C45.9393 79.791 46.0444 79.791 46.0444 79.6852C46.9906 78.0978 45.0983 76.193 43.5214 77.1454C43.4163 77.1454 43.4163 77.2512 43.3112 77.2512C42.2599 77.8862 42.0497 79.3677 42.8907 80.2143C43.9419 81.1667 45.3086 80.9551 45.9393 79.8968Z" fill="#B36C49"/>
<path d="M51.6161 83.2836V83.1778C51.8263 82.2254 50.3546 82.2254 50.5648 83.1778V83.2836C50.6699 83.8128 51.5109 83.8128 51.6161 83.2836Z" fill="#B36C49"/>
<path d="M31.7475 86.0348C31.8518 86.0348 31.8518 85.9301 31.7475 86.0348C31.7475 85.9301 31.7475 86.0348 31.7475 86.0348Z" fill="#B36C49"/>
<path d="M37.6345 86.5641C37.6345 86.2466 37.6345 86.035 37.4242 85.8234C37.1088 85.2942 36.4781 85.2942 36.1627 85.8234C35.9525 86.035 35.9525 86.2466 35.9525 86.5641C36.0576 87.6224 37.6345 87.6224 37.6345 86.5641Z" fill="#B36C49"/>
<path d="M28.4886 80.1086C29.2245 80.1086 29.2245 78.9445 28.4886 78.9445C27.6476 78.9445 27.6476 80.1086 28.4886 80.1086Z" fill="#B36C49"/>
<path d="M26.3861 44.0226C26.4912 44.0226 26.5964 43.9168 26.5964 43.9168C27.0169 43.8109 27.0169 43.176 26.5964 42.9643C26.4912 42.9643 26.3861 42.8585 26.3861 42.8585C25.44 42.6469 25.44 44.3401 26.3861 44.0226Z" fill="#B36C49"/>
<path d="M14.1916 44.5521C14.8224 44.5521 14.8224 43.5997 14.1916 43.5997C13.5609 43.5997 13.5609 44.5521 14.1916 44.5521Z" fill="#B36C49"/>
<path d="M30.3808 53.6528V53.547C30.486 52.8062 29.0142 52.8062 29.1193 53.547V53.6528C29.3296 54.3936 30.3808 54.3936 30.3808 53.6528Z" fill="#B36C49"/>
<path d="M20.1837 42.6473C20.2889 42.5415 20.394 42.5415 20.394 42.4357C20.9196 42.0124 20.9196 41.1658 20.7094 40.6367C20.394 40.0017 19.8684 39.6843 19.2376 39.6843C19.1325 39.6843 19.0274 39.6843 18.9222 39.6843C17.6607 39.6843 16.8197 41.06 17.3454 42.1182C17.871 43.2823 19.2376 43.3881 20.1837 42.6473Z" fill="#B36C49"/>
<path d="M12.9301 77.1457H13.0353C13.2455 77.1457 13.5609 77.1457 13.666 76.9341C13.7711 76.7224 13.7711 76.6166 13.666 76.405C13.5609 76.1933 13.3506 76.0875 13.0353 76.1933H12.9301C12.4045 76.2991 12.4045 77.1457 12.9301 77.1457Z" fill="#B36C49"/>
<path d="M14.507 82.6487C15.2429 82.6487 15.2429 81.4846 14.507 81.4846C13.666 81.4846 13.666 82.6487 14.507 82.6487Z" fill="#B36C49"/>
<path d="M20.7094 83.9189C20.8145 83.9189 20.9196 83.8131 21.0247 83.8131C22.1811 83.3898 22.8119 81.9082 21.7606 80.85C20.7094 79.7918 19.2376 80.4267 18.8171 81.5908C18.8171 81.6966 18.712 81.8024 18.712 81.9082C18.3966 82.9665 19.6581 84.3422 20.7094 83.9189Z" fill="#B36C49"/>
<path d="M81.2612 55.6633C81.9971 55.6633 81.9971 54.4992 81.2612 54.4992C80.5254 54.3934 80.5254 55.6633 81.2612 55.6633Z" fill="#B36C49"/>
<path d="M91.8788 66.4578V66.352C92.2993 64.9763 89.7763 64.9763 90.1968 66.352V66.4578C90.5122 67.3044 91.5635 67.3044 91.8788 66.4578Z" fill="#B36C49"/>
<path d="M80.1049 95.8764C80.1049 95.6648 80.1049 95.4532 79.9997 95.3473C79.7895 94.6066 78.6331 94.6066 78.528 95.3473C78.528 95.559 78.4229 95.7706 78.4229 95.8764C78.6331 96.8289 80.1049 96.8289 80.1049 95.8764Z" fill="#B36C49"/>
<path d="M79.2639 87.5167L79.1587 87.4109C78.528 86.7759 77.2665 86.6701 76.5306 87.4109C75.8999 88.1516 75.7948 89.3157 76.5306 90.0565L76.6358 90.1623C77.2665 90.7972 78.528 90.9031 79.2639 90.1623C79.8946 89.3157 79.8946 88.2575 79.2639 87.5167Z" fill="#B36C49"/>
<path d="M92.7198 89.6331C93.3506 89.6331 93.3506 88.5749 92.7198 88.5749C92.0891 88.5749 92.0891 89.6331 92.7198 89.6331Z" fill="#B36C49"/>
<path d="M58.6594 90.0567C58.6594 89.9509 58.5543 89.845 58.5543 89.845C58.344 89.3159 57.7133 89.3159 57.503 89.845C57.503 89.9508 57.3979 90.0567 57.3979 90.0567C57.1877 91.0091 58.9748 91.0091 58.6594 90.0567Z" fill="#B36C49"/>
<path d="M66.6489 80.6377V80.7435C66.6489 82.0134 68.6463 82.0134 68.6463 80.7435V80.6377C68.5411 79.3678 66.6489 79.3678 66.6489 80.6377Z" fill="#B36C49"/>
<path d="M101.13 77.7811C101.761 77.7811 101.761 76.7228 101.13 76.7228C100.499 76.7228 100.499 77.7811 101.13 77.7811Z" fill="#B36C49"/>
<path d="M101.971 90.9027C102.286 90.9027 102.496 90.7969 102.707 90.5853C102.917 90.2678 102.917 90.0561 102.707 89.7387C102.496 89.527 102.286 89.4212 101.971 89.4212C101.025 89.527 101.025 90.9027 101.971 90.9027Z" fill="#B36C49"/>
<path d="M102.076 99.4744V99.3686C102.076 98.522 100.814 98.522 100.814 99.3686V99.4744C100.814 100.321 102.076 100.321 102.076 99.4744Z" fill="#B36C49"/>
<path d="M98.8171 94.1832C98.2915 93.5483 97.3453 93.5483 96.8197 94.0774C96.8197 94.0774 96.8197 94.0774 96.7146 94.1832C95.8736 95.1356 96.3992 96.723 97.7658 96.723C99.0273 96.723 99.6581 95.1356 98.8171 94.1832Z" fill="#B36C49"/>
<path d="M101.13 60.32C102.076 60.32 102.076 58.7327 101.13 58.7327C100.184 58.7327 100.184 60.32 101.13 60.32Z" fill="#B36C49"/>
<path d="M99.6581 57.145C100.289 56.2984 99.3427 55.346 98.5017 55.9809C97.3453 56.8275 98.8171 58.2033 99.6581 57.145Z" fill="#B36C49"/>
<path d="M21.4452 84.1302C22.6016 84.1302 22.6016 82.2254 21.4452 82.2254C20.2889 82.2254 20.2889 84.1302 21.4452 84.1302Z" fill="#704228"/>
<path d="M27.6476 76.2992C27.8579 76.7225 28.0681 77.1457 28.2783 77.6749C28.4886 78.204 28.5937 78.6273 29.1193 78.8389C29.7501 79.1564 30.3808 78.7331 30.3808 78.0982C30.486 77.569 30.0655 77.1457 29.8552 76.7224C29.645 76.2992 29.4347 75.8759 29.1193 75.4526C28.5937 74.3943 27.2271 75.2409 27.6476 76.2992Z" fill="#704228"/>
<path d="M20.0786 54.8171C20.6042 54.9229 21.1299 54.8171 21.6555 54.8171C22.1811 54.8171 22.7067 54.8171 23.3375 54.7113C23.9682 54.6055 24.3887 53.8647 24.1785 53.2297C23.9682 52.5948 23.3375 52.2773 22.7067 52.3832C22.1811 52.489 21.7606 52.7006 21.3401 52.9123C20.9196 53.1239 20.394 53.2297 19.9735 53.4414C19.3427 53.7589 19.3427 54.7113 20.0786 54.8171Z" fill="#704228"/>
<path d="M6.83289 45.2927C7.35851 44.7635 7.67389 44.1286 8.19951 43.5995C8.83026 43.0703 9.56614 42.5412 10.302 42.1179C11.5635 41.2713 13.1404 40.848 14.6121 40.6364C16.8197 40.3189 15.9787 36.7209 13.666 37.1442C11.5635 37.5675 9.77639 38.4141 8.30464 40.0014C7.14827 41.1655 5.88677 43.282 5.78164 44.8694C5.88677 45.3985 6.51752 45.7159 6.83289 45.2927Z" fill="#704228"/>
<path d="M20.4991 39.4724C20.1837 39.0491 20.0786 38.8375 19.6581 38.6258C19.1325 38.3083 18.5017 38.2025 17.9761 38.0967C17.4505 37.9909 16.9249 37.7792 16.5044 37.5676C15.9788 37.3559 15.6634 37.0384 15.1378 36.8268C13.2455 35.9802 12.2994 39.684 14.7173 39.8957C15.348 39.8957 15.9788 39.7899 16.6095 39.8957C17.03 39.8957 17.4505 40.0015 17.871 40.1073C18.2915 40.2132 18.712 40.319 19.1325 40.319C19.6581 40.319 19.7632 40.2132 20.2889 40.0015C20.6042 39.8957 20.7094 39.684 20.4991 39.4724Z" fill="#704228"/>
<path d="M4.52015 49.1023C3.99452 49.9489 4.20477 51.113 4.09965 52.0654C4.09965 53.0178 3.78427 54.076 4.52015 54.8168C4.7304 55.0285 5.15089 55.0285 5.36114 54.8168C5.99189 54.076 5.78164 53.0178 5.78164 52.0654C5.78164 51.113 5.88677 49.9489 5.36114 49.1023C5.25602 48.7848 4.7304 48.7848 4.52015 49.1023Z" fill="#704228"/>
<path d="M10.9328 83.707C10.9328 81.273 8.93539 79.1565 8.51489 76.7226C7.98927 73.9711 8.51489 70.9022 7.77902 68.2566C7.56877 67.3042 5.9919 66.9867 5.5714 67.9391C4.3099 70.6906 5.1509 74.1828 6.20214 77.04C7.14827 79.3682 8.19952 82.9662 10.8276 83.9186C10.8276 83.8128 10.9328 83.8128 10.9328 83.707Z" fill="#704228"/>
<path d="M83.4689 84.448C85.3611 85.1888 87.1482 85.1888 89.1456 85.2946C91.8788 85.4005 93.666 85.8237 95.8736 87.4111C97.4504 88.4694 99.0273 85.8237 97.3453 84.8713C95.348 83.7073 93.1403 84.448 90.9327 84.3422C88.5148 84.2364 85.9918 83.8131 83.4689 84.448Z" fill="#704228"/>
<path d="M97.9761 92.5963C98.6068 91.4322 98.3966 90.1623 98.3966 88.8924C98.3966 87.6225 99.1325 86.5643 98.0812 85.506C97.4505 84.8711 96.5043 85.1886 96.189 86.0352C95.7685 87.3051 96.7146 87.8342 97.03 88.8924C97.3453 90.1623 97.03 91.4322 97.4505 92.5963C97.5556 92.7021 97.871 92.8079 97.9761 92.5963Z" fill="#704228"/>
<path d="M23.9682 40.5308C45.9393 47.1977 69.0668 51.6423 91.7737 55.3462C93.8762 55.6636 94.8223 52.3831 92.6147 52.0656C69.6975 48.4676 46.9906 43.9171 24.1785 40.0016C23.758 39.8958 23.6529 40.4249 23.9682 40.5308Z" fill="#704228"/>
<path d="M95.8736 62.7537C96.6095 61.4838 95.9787 59.5789 95.8736 58.2032C95.6633 56.51 95.1377 54.8168 94.4018 53.3353C94.0865 52.7003 93.2455 52.4887 92.7198 52.5945C92.4045 52.7004 92.2993 52.8062 92.0891 53.0178C91.6686 53.4411 91.4583 54.2877 91.8788 54.8168C92.7198 56.0867 93.4557 57.2508 94.1916 58.6265C94.8223 59.8964 94.7172 61.5896 95.5582 62.7537C95.4531 62.9653 95.7685 62.9653 95.8736 62.7537Z" fill="#704228"/>
<path d="M2.52278 35.9805C3.15352 35.9805 3.78427 35.3456 4.3099 35.0281C4.09965 35.0281 3.99452 35.134 3.78427 35.134C4.41502 35.0281 5.04577 34.9223 5.67652 34.6048C6.62264 34.1815 7.14827 33.3349 6.72777 32.3825C6.41239 31.5359 5.25602 31.2185 4.41502 31.7476C3.57402 32.1709 3.0484 32.9116 2.73303 33.8641C2.41765 34.499 1.99715 35.2398 2.52278 35.9805C2.52278 35.9805 2.41765 35.9805 2.52278 35.9805Z" fill="white"/>
<path d="M9.98663 89.2102C10.1969 89.2102 10.4071 89.316 10.6174 89.316C10.9328 89.316 11.2481 89.5277 11.6686 89.5277C11.8789 89.5277 12.0891 89.316 11.8789 89.1044C11.5635 88.8927 11.2481 88.7869 10.9328 88.6811C10.7225 88.6811 10.5123 88.6811 10.302 88.6811C10.1969 88.6811 10.0918 88.7869 9.98663 88.8927C9.88151 88.9986 9.88151 89.2102 9.98663 89.2102Z" fill="white"/>
<path d="M18.6069 90.4794C21.5504 90.9027 24.599 91.326 27.5425 91.0085C27.6476 91.0085 27.6476 90.7969 27.5425 90.7969C24.4939 90.5852 21.5504 90.7969 18.6069 90.3735C18.6069 90.2677 18.6069 90.3735 18.6069 90.4794Z" fill="white"/>
<path d="M29.2245 91.1144C29.645 91.2202 30.1706 91.326 30.6962 91.326C30.8013 91.326 30.8013 91.2202 30.6962 91.2202C30.2757 91.0085 29.7501 91.0085 29.3296 90.9027C29.2245 90.9027 29.1193 91.1144 29.2245 91.1144Z" fill="white"/>
<path d="M34.0602 92.4903C34.4807 92.702 34.7961 92.9136 35.2166 93.0195C35.2166 93.0195 35.2166 93.0195 35.2166 92.9136C34.9012 92.702 34.4807 92.4903 34.1653 92.2787C34.0602 92.3845 33.9551 92.4903 34.0602 92.4903Z" fill="white"/>
<path d="M32.168 20.7414C33.7448 19.0482 35.1115 17.5666 37.3191 16.9317C38.6857 16.5084 40.9985 16.7201 41.9446 15.6618C42.1548 15.4502 42.2599 15.0269 41.9446 14.7094C40.4728 13.3337 37.5293 14.8152 36.1627 15.8735C34.4807 17.1433 32.6936 18.7307 31.9577 20.7414C32.0628 20.7414 32.168 20.8472 32.168 20.7414Z" fill="white"/>
<path d="M97.9761 47.6207C99.2376 48.1498 100.184 48.2556 101.55 48.044C102.812 47.7265 103.968 47.0915 104.914 46.1391C106.071 45.0809 104.389 43.4935 103.232 44.4459C101.761 45.61 99.8683 46.5624 98.0812 47.1974C97.7658 47.1974 97.7658 47.5148 97.9761 47.6207Z" fill="white"/>
</svg>
