<svg width="132" height="121" viewBox="0 0 132 121" fill="none" xmlns="http://www.w3.org/2000/svg">
<path d="M3.17922 33.7637C3.17922 33.7637 2.28903 43.4904 2.28903 51.1693C2.28903 58.8483 3.6879 70.3667 3.6879 70.3667L6.35848 91.4839L6.99433 96.2193L15.8962 97.6271L54.6831 104.282L92.3255 112.601L120.939 120.28C120.939 120.28 125.898 120.28 127.679 118.488C129.459 116.696 130.095 115.801 130.095 115.801L129.586 111.961L126.916 109.273C126.916 109.273 128.442 105.434 128.442 104.794C128.442 104.154 128.442 98.6509 128.442 98.6509L127.043 98.011C127.043 98.011 128.823 91.4839 128.442 85.3407C127.933 79.1976 127.552 76.126 127.552 76.126C127.552 76.126 126.661 68.0631 127.552 64.2236C128.442 60.3841 129.078 55.6487 129.078 53.601C129.078 51.5533 127.679 45.6661 127.679 45.6661L81.1345 37.6032L8.52037 27.7485C8.52037 27.7485 3.43356 27.2366 3.17922 33.7637Z" fill="#F3F8EA"/>
<path d="M7.8843 38.1149C7.75724 38.1149 7.63018 38.1149 7.63018 37.987V38.4987C7.63018 38.3708 7.75724 38.2429 7.8843 38.1149Z" fill="#F6D39B"/>
<path d="M7.62974 37.859C7.50268 37.859 7.37562 37.859 7.1215 37.859C7.24856 37.859 7.37562 37.9861 7.62974 37.9861V37.859Z" fill="#F6D39B"/>
<path d="M126.534 106.202C125.263 107.482 121.702 108.25 119.921 108.89C119.794 108.89 119.667 109.018 119.54 109.018C116.869 109.785 111.655 107.866 108.858 107.226C105.17 106.458 101.482 105.818 97.7938 104.922C94.233 104.026 67.273 98.3949 58.4982 96.4752C50.6137 94.6834 42.7291 93.2756 34.8446 91.6119C29.8849 90.588 24.9253 89.6921 19.9657 88.6683C18.3125 88.2843 15.5147 88.4123 14.1159 87.5164C11.954 86.1086 11.5725 81.6292 11.1909 79.3255C10.0464 70.4947 10.1736 61.28 12.8442 52.8331C15.5147 44.2583 20.7287 36.3233 28.2317 31.588C22.0004 28.5164 15.1332 26.5966 8.13886 26.2127C6.99433 26.0847 5.8498 26.0847 4.83243 26.7246C3.30639 27.6205 2.92488 29.7962 2.79771 31.588C2.16186 40.2908 0.762991 49.8895 1.90752 58.5923C3.17922 68.063 4.83243 77.5338 6.48565 86.8765C7.37584 91.9958 11.6996 90.844 16.1506 91.4839C20.7287 92.2518 25.3068 93.0197 29.8849 93.6596L55.319 98.6509L81.7704 103.898L89.1462 106.586L98.4296 108.506L114.707 110.937C116.361 111.449 119.413 112.601 120.939 111.577C121.702 111.065 122.338 110.169 123.228 110.041C123.736 109.913 124.245 110.169 124.627 110.169C125.517 110.169 126.661 110.169 127.043 109.146C127.17 108.634 127.297 108.122 127.297 107.738C127.424 106.202 127.806 104.794 128.315 103.386C127.933 104.41 127.424 105.434 126.534 106.202Z" fill="#F6D39B"/>
<path d="M116.742 45.794C116.742 45.794 118.395 67.551 119.031 75.102C119.54 82.781 119.286 110.169 119.286 110.169L127.424 107.61L128.569 99.2908H126.661C126.661 99.2908 128.95 94.8114 128.823 87.0044C128.696 79.1975 126.661 67.551 127.552 64.0955C128.442 60.64 129.205 57.5684 129.078 53.4729C129.078 49.3775 128.187 44.3862 128.187 44.3862L116.742 45.794Z" fill="#F6D39B"/>
<path d="M5.59546 90.332C5.59546 90.332 10.6823 90.588 16.7864 91.4839C22.8906 92.3797 29.1219 93.5316 29.1219 93.5316L57.3537 98.9069L77.4466 103.13L98.684 107.866L117.251 111.449L120.176 112.089L122.465 110.297L126.916 109.145C126.916 109.145 130.095 111.193 130.095 112.729C130.095 114.265 130.095 116.569 130.095 116.569L126.534 119.512L122.719 120.152H120.939L89.6549 112.473L58.7526 105.434L31.9197 100.315L6.99433 96.2192L5.59546 90.332Z" fill="#C37B51"/>
<path d="M6.73999 92.2518L26.5785 94.9394L71.8511 103.642C71.8511 103.642 90.7994 107.482 94.1059 108.378C97.4123 109.273 120.939 114.393 120.939 114.393C120.939 114.393 122.465 112.473 124.5 111.961C126.407 111.449 128.187 111.065 128.187 111.065L127.043 110.297H123.101L119.667 111.833L111.019 110.425L92.1983 107.226L75.0303 102.49L53.6658 98.267L20.0928 91.8678L5.59546 90.332L6.73999 92.2518Z" fill="#915B3A"/>
<path d="M120.176 112.217C120.684 114.009 120.812 115.929 120.812 117.848C120.812 118.488 120.812 119.128 121.193 119.64C121.829 120.408 123.228 120.024 124.118 119.64C125.517 119 126.916 118.36 128.315 117.72C128.823 117.464 129.459 117.208 129.586 116.696C129.714 116.184 129.586 115.801 129.586 115.289C129.586 114.777 129.841 114.265 129.841 113.625C129.968 112.345 128.823 111.321 127.679 110.553C127.17 110.169 126.789 109.913 126.153 109.785C125.771 109.785 125.39 109.785 124.881 109.913C123.991 110.041 123.101 109.913 122.21 110.169C121.066 110.553 120.049 111.449 119.794 112.601L120.176 112.217Z" fill="#AC6D47"/>
<path opacity="0.54" d="M31.5382 96.0913C32.0468 96.6032 32.4284 96.9871 32.937 97.4991C32.4284 97.1151 31.5382 97.4991 31.5382 98.267C34.5902 100.827 39.0412 100.443 42.9835 100.955C46.0356 101.339 48.9605 102.49 51.7582 103.386C60.7873 106.33 70.0707 108.378 79.4813 109.529C79.0998 109.273 78.7183 109.018 78.3368 108.634C78.7183 108.762 79.0998 108.25 79.0998 107.866C79.227 105.818 76.8107 104.794 74.9032 104.41C66.51 102.49 57.9896 100.571 49.5963 98.6509C43.4922 97.2431 37.2608 95.8353 31.0295 95.4514L31.5382 96.0913Z" fill="#D19977"/>
<path d="M49.0876 1.51214C41.9661 6.24751 34.3359 10.4709 26.7057 14.4384C22.7634 16.4861 18.9483 18.6618 14.7517 20.1976C12.717 20.9655 10.5551 21.4775 8.3932 21.6054C7.37584 21.6054 6.61282 21.4775 5.59546 21.4775C4.9596 21.4775 2.79771 21.6054 2.28903 21.9894C4.32375 20.0696 6.23131 20.1976 8.90188 19.8137C11.5725 19.4297 14.1159 18.7898 16.5321 17.8939C20.4744 16.3581 24.1623 14.3104 27.9774 12.3907C34.9718 8.67918 41.8389 4.8397 48.8333 1.00021C49.0876 0.872231 49.4691 1.25618 49.0876 1.51214Z" fill="#965C2E"/>
<path d="M130.222 116.696C128.187 119.128 123.991 121.688 120.684 120.792C120.43 120.664 120.303 120.28 120.684 120.152C122.21 119.768 123.609 119.768 125.135 119.256C126.916 118.616 128.315 117.464 129.586 116.184C130.095 115.673 130.604 116.312 130.222 116.696Z" fill="#6E4E40"/>
<path d="M120.43 120.408C115.725 119.896 110.892 118.232 106.314 117.08C101.609 115.929 96.9036 114.777 92.1983 113.625C82.7877 111.321 73.3771 109.273 63.9665 107.354C45.0182 103.386 26.0698 100.059 6.86716 97.3711C5.8498 97.2431 6.23131 95.5793 7.24867 95.7073C37.2608 100.059 67.1458 105.818 96.5221 113.113C100.592 114.137 104.661 115.161 108.858 116.312C112.8 117.336 116.869 118.232 120.684 119.896C120.939 120.024 120.684 120.408 120.43 120.408Z" fill="#6B4327"/>
<path d="M127.043 110.554C125.898 110.554 124.881 110.426 123.737 110.682C122.846 110.938 122.083 111.578 121.066 111.578C120.812 111.578 120.684 111.322 120.812 111.066C121.32 110.17 122.846 109.786 123.864 109.657C125.008 109.401 126.153 109.401 127.297 109.786C127.424 110.042 127.297 110.554 127.043 110.554Z" fill="#6E4E40"/>
<path d="M120.176 112.217C116.615 112.089 113.054 111.193 109.621 110.681C105.806 110.041 101.99 109.401 98.1753 108.634C94.6145 107.994 91.1809 107.482 87.7474 106.458C84.1866 105.434 80.6258 104.282 76.9379 103.386C62.1862 100.059 47.1801 97.499 32.3012 94.8114C23.7808 93.2756 15.2604 91.7398 6.73998 90.588C5.97696 90.46 6.2313 89.3081 6.99432 89.4361C26.197 91.9958 45.0182 96.2192 63.9665 99.8027C68.6718 100.699 73.3771 101.466 78.0824 102.49C82.6605 103.514 87.1115 105.178 91.6896 106.202C96.2677 107.226 100.973 107.994 105.678 108.889C110.511 109.785 115.598 110.297 120.176 111.833C120.43 111.833 120.43 112.217 120.176 112.217Z" fill="#C37B51"/>
<path d="M121.066 115.545C121.193 116.44 121.193 117.336 121.066 118.104C121.066 118.872 121.193 119.64 121.066 120.408C121.066 120.792 120.557 120.664 120.43 120.408C120.303 119.512 120.557 118.616 120.557 117.72C120.557 116.952 120.557 116.185 120.684 115.417C120.812 115.417 121.066 115.417 121.066 115.545Z" fill="#6E4E40"/>
<path d="M129.586 33.3796C129.968 34.2755 130.477 34.9154 130.731 35.9393C130.985 36.8352 131.112 37.859 130.985 38.7549C130.985 39.6508 130.858 40.5467 130.349 41.3146C129.968 42.0825 129.459 42.8504 129.205 43.7462C128.95 45.282 129.078 47.0738 129.078 48.6096C129.205 51.2972 129.459 53.9849 129.205 56.8005C128.823 60.256 127.933 63.5836 127.552 67.1671C127.17 71.3905 128.315 75.23 128.569 79.3254C128.823 83.5489 128.823 87.9003 128.569 92.1237C128.442 93.5315 128.696 99.1628 126.534 99.4187C126.534 99.0348 126.534 98.6508 126.534 98.2669C127.17 98.2669 127.806 98.2669 128.442 98.2669C128.823 98.2669 128.95 98.5229 129.078 98.7788C129.332 100.443 129.332 102.106 129.205 103.77C128.95 105.562 127.552 107.866 128.187 109.529C128.696 110.937 129.078 110.425 130.095 111.321C130.349 111.577 130.477 111.705 130.604 111.961C131.112 112.985 130.604 114.265 130.477 115.417C130.477 116.184 129.332 116.184 129.332 115.417C129.332 114.777 129.586 114.137 129.586 113.625C129.459 111.833 128.95 111.961 127.933 111.449C127.17 111.065 126.407 110.553 126.28 109.657C126.153 108.378 127.297 106.714 127.552 105.562C128.187 103.386 128.187 101.21 127.806 98.9068C128.06 99.0348 128.187 99.2908 128.442 99.4187C127.806 99.4187 127.17 99.4187 126.534 99.4187C125.771 99.4187 125.771 98.3949 126.534 98.2669C127.17 98.1389 127.424 94.4274 127.424 93.9155C127.679 91.4838 127.679 89.0521 127.679 86.6205C127.679 82.909 127.933 78.6855 127.043 74.974C126.28 71.7745 126.153 68.9588 126.661 65.7593C127.17 61.7918 128.315 57.9523 128.442 53.9849C128.569 50.7853 127.806 47.7137 128.187 44.5141C128.315 43.3623 128.569 42.2104 129.078 41.1866C129.841 39.9068 130.095 38.8829 130.222 37.4751C130.349 36.0673 130.095 34.6595 129.586 33.3796Z" fill="#C7AC7F"/>
<path d="M6.48565 91.8678C6.48565 91.7398 6.48565 91.7398 6.48565 91.6118C6.48565 91.2279 6.48565 90.9719 6.48565 90.5879C6.10413 90.4599 5.84979 90.332 5.59545 90.204C5.08677 91.2278 4.83243 92.5077 4.9596 93.6595C5.08677 94.8114 5.46828 96.0912 6.23131 96.9871C6.35848 96.9871 6.61282 97.243 6.73999 97.1151V96.9871C6.86716 96.9871 6.86716 97.1151 6.99433 97.1151C7.24867 97.1151 7.50301 97.1151 7.75735 96.8591C6.86716 95.3233 6.48565 93.5315 6.48565 91.8678Z" fill="#935D3C"/>
<path d="M3.30639 51.6812C2.92488 41.8266 2.4162 31.332 8.3932 23.1411C9.02905 22.2452 9.28339 20.9654 8.3932 20.3255C7.88452 20.0695 7.37584 20.0695 6.86716 20.1975C5.34111 20.4534 3.6879 20.8374 2.4162 21.7333C-0.890222 24.2929 0.254309 33.1237 0.127139 36.8352C-3.13797e-05 42.8504 0.127139 48.8656 0.635819 55.0088C1.52601 67.0392 4.57809 78.1737 6.73999 89.8201C4.32375 77.2778 3.81507 64.4795 3.30639 51.6812Z" fill="#C37B51"/>
<path d="M1.90752 25.7007C1.78035 25.9567 1.78035 26.0847 1.65318 26.3406C1.1445 27.8764 1.1445 29.5402 1.27167 31.204C10.3007 26.4686 17.4223 29.0283 26.8329 30.82C36.1163 32.6118 45.2725 34.4035 54.556 36.1953C70.5794 39.2669 86.6028 42.4665 102.626 45.1541C105.551 45.666 111.655 45.2821 114.072 46.6899C116.996 48.4817 117.378 54.1129 117.76 57.1845C117.76 54.7528 117.76 52.3211 117.76 49.7615C117.76 48.9936 117.76 48.0977 118.268 47.4578C119.794 45.2821 126.28 48.4817 127.806 45.666C127.806 45.666 129.968 41.5706 128.569 38.115C127.17 34.6595 19.8385 20.0695 19.8385 20.0695C14.3702 19.3016 4.70526 19.5575 1.90752 25.7007Z" fill="#D19977"/>
<path d="M56.7178 2.79196L49.4692 1.25616L37.2608 8.29522L20.0928 17.638L8.3932 20.9655L13.8615 22.8852L49.7235 31.7161L83.5507 37.8592C98.0481 40.2909 112.418 42.7226 127.043 43.1065C127.552 43.1065 127.933 43.1065 128.315 42.8506C128.569 42.7226 128.823 42.3386 128.95 42.0827C129.841 40.5469 130.349 38.8831 130.222 37.0913C129.841 30.1803 122.21 28.1325 117.124 25.9568C110.256 23.1412 103.516 20.0696 96.7764 16.8701C91.8168 14.4384 86.2213 13.2865 81.0073 11.4948C72.9956 8.55118 64.8567 5.60758 56.7178 2.79196Z" fill="#AF6F48"/>
<path d="M56.3363 3.68834L50.2322 2.40851L39.8042 8.4237L25.1797 16.3586L15.1332 19.1742L19.7113 20.838L50.3593 28.389L79.227 33.6363C91.5625 35.684 103.771 37.7317 116.361 38.1157C116.742 38.1157 117.124 38.1157 117.505 37.8597C117.76 37.7317 117.887 37.4758 118.014 37.2198C118.777 35.94 119.286 34.5322 119.158 32.9964C118.777 27.1092 112.418 25.4454 107.967 23.5257C102.118 21.094 96.3949 18.4063 90.6723 15.7187C86.4757 13.671 81.7704 12.7751 77.3194 11.1113C70.1979 8.55168 63.3307 6.12001 56.3363 3.68834Z" fill="#C37B51"/>
<path d="M99.447 40.5467C102.245 41.0586 104.915 41.5706 107.586 42.2105C113.69 43.6183 122.083 44.0022 128.315 43.4903C122.083 41.4426 114.326 41.9545 107.84 40.9307C102.118 40.0348 96.3949 39.5228 90.5451 38.627C86.6028 37.9871 82.6606 37.4751 78.8454 36.9632C70.7066 35.8113 62.6948 34.0196 54.6831 32.3558C38.2782 28.7723 22.0004 24.4209 5.72263 20.4534C5.21394 20.3254 5.08677 21.0933 5.59546 21.2213C14.8789 23.653 24.1623 25.9567 33.3185 28.1324C49.0876 31.9719 65.1111 35.8113 81.2617 37.9871C87.3658 38.755 93.47 39.5228 99.447 40.5467Z" fill="#965C2E"/>
<path d="M12.8442 52.8331L118.777 72.6704C118.777 72.6704 119.921 84.5728 119.667 87.3884C119.413 90.204 119.413 90.204 119.413 90.204L10.5551 68.447C10.4279 68.447 10.4279 58.3363 12.8442 52.8331Z" fill="#BDA0B1"/>
<path d="M125.898 88.1563C119.54 91.0999 115.598 88.5402 109.112 88.2843C111.528 88.4123 114.072 88.4123 116.488 88.5403C116.869 88.5403 117.378 88.5402 117.76 88.2843C118.268 88.0283 118.395 87.3884 118.65 86.8765C119.794 82.781 119.794 78.4296 118.65 74.4622C118.523 74.0782 118.395 73.6943 118.141 73.4383C117.76 73.0543 117.124 72.9264 116.488 72.7984C113.054 72.4144 109.748 71.6465 106.441 70.4947C113.181 71.5186 119.667 72.5424 126.153 70.6227C127.679 75.358 128.187 80.4773 127.806 85.3407C127.806 85.9806 127.679 86.6205 127.297 87.0045C126.916 87.6444 126.407 87.9003 125.898 88.1563Z" fill="#A38B9A"/>
<path opacity="0.25" d="M92.9613 15.0781L52.5212 32.2278L84.5681 111.321L119.031 120.024C119.031 120.024 122.973 122.456 126.534 119.512C130.095 116.568 132.384 114.905 130.095 112.729C127.806 110.553 126.534 111.833 127.424 107.482C128.442 103.13 128.569 99.1628 128.569 99.1628C128.569 99.1628 126.789 98.3949 127.679 94.8114C128.569 91.0999 128.187 82.525 127.17 74.8461C126.153 67.1671 128.442 64.0955 128.442 58.9762C128.442 53.8569 128.315 42.7224 128.315 42.7224C128.315 42.7224 134.927 33.5076 122.846 27.8764C110.765 22.2452 92.9613 15.0781 92.9613 15.0781Z" fill="#AF6F48"/>
<path d="M5.8498 20.4535C5.8498 20.4535 13.6072 19.5576 22.6363 15.3342C31.6653 11.1108 45.654 2.91988 45.654 2.91988C45.654 2.91988 49.9778 -0.0237214 53.2843 1.76804C56.4635 3.5598 84.9496 13.2865 84.9496 13.2865L47.4344 31.716L5.8498 20.4535Z" fill="url(#paint0_radial)"/>
<path d="M25.9427 61.024C26.3242 60.1281 25.9427 59.2322 25.0525 59.2322C24.1623 59.2322 23.7808 60.1281 24.1623 60.896V61.024C24.5438 61.6639 25.5612 61.6639 25.9427 61.024Z" fill="#F3F8EA"/>
<path d="M33.7 60.1281H33.8272C34.4631 60.0001 35.0989 59.8721 35.4804 59.3602C35.8619 58.9762 36.2435 58.2083 36.2435 57.6964C36.1163 56.2886 35.2261 55.3927 33.8272 55.2647H33.7C32.4283 55.1367 31.1566 56.5445 31.2838 57.6964C31.411 58.8482 32.4283 60.384 33.7 60.1281Z" fill="#F3F8EA"/>
<path d="M43.6188 69.0864C44.3812 69.0864 44.3812 67.935 43.6188 67.935C42.8565 67.8071 42.8565 69.0864 43.6188 69.0864Z" fill="#F3F8EA"/>
<path d="M33.1914 75.1021C35.9891 75.1021 35.9891 70.6227 33.1914 70.6227C30.3936 70.7507 30.3936 75.1021 33.1914 75.1021Z" fill="#F3F8EA"/>
<path d="M58.1167 72.2872C59.1341 72.2872 59.1341 70.7507 58.1167 70.7507C57.2265 70.7507 57.2265 72.2872 58.1167 72.2872Z" fill="#F3F8EA"/>
<path d="M51.3767 69.3428C53.9201 69.3428 53.9201 65.3754 51.3767 65.3754C48.8333 65.2474 48.8333 69.3428 51.3767 69.3428Z" fill="#F3F8EA"/>
<path d="M66.8915 67.6788C66.8915 67.8067 66.8915 67.8067 67.0185 67.9346C67.1456 68.3184 67.6538 68.3184 67.7809 67.9346C67.7809 67.8067 67.7809 67.8067 67.9079 67.6788C68.1621 66.9112 66.7644 66.9112 66.8915 67.6788Z" fill="#F3F8EA"/>
<path d="M81.3889 80.4773C83.8051 80.4773 83.8051 76.6378 81.3889 76.6378C78.9726 76.6378 78.9726 80.4773 81.3889 80.4773Z" fill="#F3F8EA"/>
<path d="M97.4123 75.9986C98.4296 75.9986 98.4296 74.4622 97.4123 74.4622C96.3949 74.4622 96.3949 75.9986 97.4123 75.9986Z" fill="#F3F8EA"/>
<path d="M85.0768 69.8548C88.0017 69.8548 88.0017 65.3754 85.0768 65.3754C82.1519 65.3754 82.1519 69.8548 85.0768 69.8548Z" fill="#F3F8EA"/>
<path d="M88.0017 68.831C87.7474 68.575 87.3659 68.4469 87.1115 68.703C87.1115 68.703 86.9843 68.703 86.9843 68.831C86.6028 69.0871 86.6028 69.5993 86.9843 69.8554C86.9843 69.8554 87.1115 69.8554 87.1115 69.9834C87.3659 70.1115 87.7474 70.1115 88.0017 69.8554C88.0017 69.8554 88.0017 69.8554 88.1289 69.7273C88.256 69.4713 88.256 69.0871 88.0017 68.831Z" fill="#F3F8EA"/>
<path d="M90.9266 84.3164C91.0537 84.3164 91.0537 84.1893 90.9266 84.3164C90.9266 84.1893 90.9266 84.3164 90.9266 84.3164Z" fill="#F3F8EA"/>
<path d="M90.9262 83.9329C90.7992 83.9329 90.7992 83.9329 90.6721 83.9329C90.418 83.9329 90.418 84.4446 90.6721 84.4446C90.7992 84.4446 90.7992 84.4446 90.9262 84.4446C91.4345 84.7005 91.4345 83.8049 90.9262 83.9329Z" fill="#F3F8EA"/>
<path d="M83.9322 79.7102C85.0768 79.7102 85.0768 78.0457 83.9322 78.0457C82.9149 78.0457 82.9149 79.7102 83.9322 79.7102Z" fill="#F3F8EA"/>
<path d="M107.84 77.6618C108.858 77.6618 109.748 76.7659 109.748 75.742C109.748 74.7181 108.858 73.8223 107.84 73.8223C106.823 73.8223 105.933 74.7181 105.933 75.742C105.933 76.7659 106.823 77.6618 107.84 77.6618Z" fill="#F3F8EA"/>
<path d="M108.985 79.7102C110.002 79.7102 110.002 78.0457 108.985 78.0457C107.84 78.0457 107.84 79.7102 108.985 79.7102Z" fill="#F3F8EA"/>
<path d="M97.412 82.6528C97.7932 82.6528 97.7932 82.0131 97.412 82.0131C97.0309 81.8852 97.0309 82.6528 97.412 82.6528Z" fill="#F3F8EA"/>
<path d="M105.551 71.9024C107.204 71.9024 107.204 69.3428 105.551 69.3428C103.898 69.4708 103.898 71.9024 105.551 71.9024Z" fill="#F3F8EA"/>
<path d="M11.3181 61.1529C12.5898 61.1529 12.5898 59.2322 11.3181 59.2322C10.0464 59.2322 10.0464 61.1529 11.3181 61.1529Z" fill="#F3F8EA"/>
<path d="M7.88452 87.3883C7.88452 87.3883 4.83243 63.7115 6.2313 51.8091C6.73999 47.8417 9.53773 32.0998 15.3876 32.3558C22.7634 32.6117 30.0121 32.8677 37.388 33.1237C31.2838 31.7158 25.1797 30.436 19.0755 29.0282C16.2777 28.3883 13.48 27.7484 10.6823 28.1323C8.01169 28.3883 5.84979 28.3883 4.32375 30.948C2.4162 34.1475 2.92488 37.859 3.17922 41.3146C3.43356 45.7939 2.54337 78.0456 7.88452 87.3883Z" fill="#CFB384"/>
<path d="M8.3932 24.6768C8.64754 23.525 6.99433 23.1411 6.23131 23.1411C4.5781 23.1411 -0.38154 25.8287 2.79771 27.2365C3.6879 27.6204 4.83244 27.1085 5.46829 26.4686C5.8498 25.9567 8.26603 25.1888 8.26603 25.0608C8.3932 24.8048 8.3932 24.6768 8.3932 24.6768Z" fill="#F6D39B"/>
<path d="M25.8155 25.9569C26.4514 26.213 27.0872 26.469 27.8502 26.5971C27.9774 26.5971 28.1046 26.341 27.9774 26.213C27.4687 25.8288 26.5785 25.7008 25.9427 25.5728C25.6883 25.5728 25.5612 25.8288 25.8155 25.9569Z" fill="#F6D39B"/>
<path d="M38.0238 28.9005C39.5499 29.2846 41.3303 29.9248 42.9835 29.7968C43.1106 29.7968 43.1106 29.6687 42.9835 29.5407C41.4574 28.9005 39.677 28.7724 38.0238 28.5164C37.8967 28.5164 37.8967 28.9005 38.0238 28.9005Z" fill="#F6D39B"/>
<path d="M46.1627 30.948C47.4344 31.4599 48.8333 31.7159 50.2322 31.9718C51.631 32.2278 53.0299 32.8677 54.4288 32.8677C54.8103 32.8677 55.0646 32.3558 54.6831 32.0998C53.4114 31.4599 51.8854 31.4599 50.4865 31.2039C49.0876 30.948 47.6888 30.564 46.2899 30.564C46.0356 30.564 46.0356 30.82 46.1627 30.948Z" fill="#F6D39B"/>
<path d="M58.1167 33.2515C58.1167 33.3795 58.1167 33.3795 58.1167 33.5074C58.1167 34.1471 59.1332 34.1471 59.0061 33.5074C59.0061 33.3795 59.0061 33.3795 59.0061 33.2515C58.8791 32.7398 58.1167 32.7398 58.1167 33.2515Z" fill="#F6D39B"/>
<path d="M62.5676 34.4034C62.6947 34.5313 62.6947 34.5313 62.8217 34.6592C63.0758 34.7872 63.33 34.5313 63.2029 34.2754C63.0758 34.1475 63.0758 34.1475 62.9488 34.0196C62.6947 33.6358 62.3135 34.0196 62.5676 34.4034Z" fill="#F6D39B"/>
<path d="M65.6195 35.0433C65.7466 35.0433 65.7466 35.0433 65.8736 35.0433C66.1278 35.0433 66.1278 34.6595 65.8736 34.6595C65.7466 34.6595 65.7466 34.6595 65.6195 34.6595C65.2383 34.4037 65.2383 35.1713 65.6195 35.0433Z" fill="#F6D39B"/>
<path d="M67.0186 35.4277C67.7817 35.5557 68.4175 35.8118 69.1805 35.9399C69.6892 36.0679 70.3251 36.324 70.8337 36.1959C70.9609 36.1959 71.0881 35.9399 70.9609 35.8118C70.4522 35.4277 69.9435 35.4277 69.3077 35.2997C68.5447 35.1716 67.9088 34.9155 67.1458 34.7875C66.7643 34.5314 66.51 35.2997 67.0186 35.4277Z" fill="#F6D39B"/>
<path d="M72.8684 36.3235C75.4119 36.8356 78.2096 37.7319 80.8802 37.6039C81.0073 37.6039 81.0073 37.4758 80.8802 37.4758C78.4639 36.4515 75.539 36.4515 72.9956 35.9393C72.7413 35.9393 72.6141 36.3235 72.8684 36.3235Z" fill="#F6D39B"/>
<path d="M82.9149 37.8591C93.2157 41.1866 104.788 43.1064 115.598 43.6183C116.615 43.6183 116.615 42.0825 115.598 42.0825C104.534 41.5706 93.8515 39.0109 82.9149 37.7311C82.7877 37.6031 82.7877 37.8591 82.9149 37.8591Z" fill="#F6D39B"/>
<path d="M119.667 43.6179C120.429 43.6179 120.429 42.4665 119.667 42.4665C119.031 42.4665 119.031 43.6179 119.667 43.6179Z" fill="#F6D39B"/>
<path d="M9.53773 92.7641C9.91924 92.7641 10.0464 92.7641 10.3008 92.38C10.3008 92.252 10.3008 92.1239 10.3008 92.1239C10.1736 91.8678 9.91924 91.7398 9.53773 91.7398C8.90188 91.7398 8.90188 92.7641 9.53773 92.7641Z" fill="#F6D39B"/>
<path d="M12.8442 93.02C13.2257 93.02 13.48 93.02 13.7343 92.6358C13.8615 92.5078 13.7343 92.2517 13.6072 92.2517C13.2257 92.1237 12.9713 92.2517 12.5898 92.5078C12.3355 92.7639 12.5898 93.02 12.8442 93.02Z" fill="#F6D39B"/>
<path d="M15.5146 93.0194C15.8957 93.0194 15.8957 92.5077 15.5146 92.5077C15.2604 92.3798 15.2604 93.0194 15.5146 93.0194Z" fill="#F6D39B"/>
<path d="M22.0004 93.5318C22.7634 93.7878 23.5264 94.172 24.2895 93.6598C24.4166 93.5318 24.4166 93.4037 24.2895 93.2757C23.6536 93.0196 22.8906 93.1476 22.1276 93.0196C21.7461 93.1476 21.7461 93.4037 22.0004 93.5318Z" fill="#F6D39B"/>
<path d="M25.9427 94.1717C26.197 94.5558 26.7057 94.8119 27.2144 94.6839C27.4687 94.5558 27.4687 94.2998 27.2144 94.1717C26.8329 94.0437 26.5785 94.0437 26.197 93.7876C26.0698 93.6596 25.6883 93.9156 25.9427 94.1717Z" fill="#F6D39B"/>
<path d="M29.8849 95.1955C31.411 95.1955 32.937 95.4516 34.4631 95.5797C35.6076 95.7077 36.7521 96.2199 38.0238 96.0918C38.151 96.0918 38.151 95.9638 38.0238 95.9638C35.8619 94.5553 32.3012 94.6834 29.8849 94.8114C29.7578 94.8114 29.7578 95.1955 29.8849 95.1955Z" fill="#F6D39B"/>
<path d="M38.914 96.3473C39.5499 96.6034 40.1857 96.7314 40.8216 96.7314C40.9487 96.7314 41.0759 96.4754 40.9488 96.4754C40.3129 96.2193 39.677 96.0912 38.914 96.0912C38.7869 95.9632 38.7869 96.2193 38.914 96.3473Z" fill="#F6D39B"/>
<path d="M42.9835 97.1147C43.1105 97.1147 43.1105 96.9876 42.9835 97.1147C42.9835 96.9876 42.9835 97.1147 42.9835 97.1147Z" fill="#F6D39B"/>
<path d="M46.4171 98.3951C47.0529 98.6512 47.5616 98.9073 48.1974 99.0353C48.3246 99.0353 48.579 98.9073 48.7061 98.6512C48.7061 98.5232 48.7061 98.5231 48.7061 98.3951C48.7061 98.139 48.4518 98.011 48.1974 98.011C47.6888 98.011 47.0529 98.139 46.5442 98.011C46.2899 98.139 46.2899 98.3951 46.4171 98.3951Z" fill="#F6D39B"/>
<path d="M52.2669 99.5471C52.6484 99.8032 52.7756 99.9312 53.2843 99.8032C53.5386 99.6751 53.6658 99.419 53.5386 99.291C53.2843 98.9069 53.1571 98.9069 52.6484 98.7788C52.1397 98.6508 51.7582 99.291 52.2669 99.5471Z" fill="#F6D39B"/>
<path d="M120.557 115.162C121.829 115.162 121.829 113.113 120.557 113.113C119.286 113.113 119.158 115.162 120.557 115.162Z" fill="#F6D39B"/>
<defs>
<radialGradient id="paint0_radial" cx="0" cy="0" r="1" gradientUnits="userSpaceOnUse" gradientTransform="translate(53.1828 -23.5563) scale(55.6765 56.0323)">
<stop stop-color="white"/>
<stop offset="0.1571" stop-color="#C2C2C2"/>
<stop offset="0.3247" stop-color="#878787"/>
<stop offset="0.487" stop-color="#575757"/>
<stop offset="0.6396" stop-color="#313131"/>
<stop offset="0.7803" stop-color="#161616"/>
<stop offset="0.9048" stop-color="#060606"/>
<stop offset="1"/>
</radialGradient>
</defs>
</svg>
