<svg width="131" height="88" viewBox="0 0 131 88" fill="none" xmlns="http://www.w3.org/2000/svg">
<path d="M49.5188 0.919507L45.0529 3.02126L37.3033 0.131348L33.6255 0.262708L29.0283 1.57631L29.1596 3.28398C29.1596 3.28398 28.2402 4.2035 27.5834 3.67806C27.058 3.28398 26.1386 2.62718 26.1386 2.62718L21.6727 4.72894C21.6727 4.72894 16.2874 8.8011 14.1858 10.6401C12.0842 12.6105 11.2961 14.0555 11.2961 14.0555L10.3766 17.4708L10.508 18.9158L9.19447 21.0176L9.06312 22.5939L7.09288 23.9075L3.94048 29.6873L3.15239 35.3358L2.36429 45.5819L4.46588 48.8659L4.07183 51.6244C4.07183 51.6244 2.88969 52.938 3.94048 54.9084C4.85993 56.8788 6.43613 58.7178 6.43613 58.7178L8.80042 60.8196L14.0544 69.0953L19.0457 75.7946C19.0457 75.7946 21.1473 77.765 22.0667 77.5023C22.9862 77.3709 24.5624 76.7141 24.5624 76.7141L29.0283 78.2905L32.8374 78.4218L37.6974 83.4135L42.5573 83.0194L50.8323 82.8881C50.8323 82.8881 57.0058 82.0999 60.4208 80.7863C63.8359 79.4727 66.5943 78.0277 66.5943 78.0277C66.5943 78.0277 70.2721 80.3922 72.8991 80.3922C75.6574 80.3922 78.6785 80.5236 78.6785 80.5236L84.5892 81.8372L92.7329 81.7058L104.817 80.9177L115.062 80.5236L119.922 80.6549C119.922 80.6549 122.418 81.5745 124.914 79.7354C127.409 77.765 130.562 75.1378 130.562 75.1378C130.562 75.1378 130.693 71.8538 129.773 70.6716C128.854 69.4894 126.49 68.7012 126.49 68.7012L125.308 66.7308L121.892 65.8113C121.892 65.8113 125.176 63.4468 125.702 62.1332C126.227 60.8196 127.278 57.9297 127.278 57.9297L125.308 54.9084L123.206 53.2007L118.74 52.8067C118.74 52.8067 120.842 51.4931 122.024 47.815C123.206 44.1369 122.943 42.4292 122.943 42.4292L121.761 40.3275L120.448 39.1452L109.283 37.4375L96.0166 36.6494L87.3475 37.1748L82.7503 38.3571C82.7503 38.3571 81.9622 36.7807 81.9622 34.5476C81.9622 32.3145 82.0935 31.2636 82.0935 31.2636C82.0935 31.2636 80.9114 23.9075 78.0217 19.704C75.132 15.5004 71.0602 12.6105 71.0602 12.6105L70.2721 10.1147C70.2721 10.1147 66.9883 6.8307 60.0268 3.94078C53.0653 1.05087 52.5399 2.23311 52.5399 2.23311L49.5188 0.919507Z" fill="#A97C50"/>
<path d="M9.45718 78.9473L8.01233 81.4435L7.61829 82.7572L11.2961 85.3847L14.5798 84.071L16.4187 83.02L15.3679 79.6042L9.45718 78.9473Z" fill="#A97C50"/>
<path d="M4.59723 83.939L5.91073 85.7779L4.07184 86.3033L0.262695 86.0406L0.919444 83.939H4.59723Z" fill="#A97C50"/>
<path d="M18.6521 84.9898C18.6521 84.9898 17.7322 84.9898 17.7322 85.7782C17.7322 86.5667 18.5207 86.6981 18.5207 86.6981L19.3091 86.3038C19.3091 86.1724 20.229 84.8583 18.6521 84.9898Z" fill="#A97C50"/>
<path d="M82.0936 34.5476C82.0936 34.5476 83.6697 34.0222 84.8519 34.4163C86.034 34.8103 86.8221 35.2044 86.8221 35.2044L88.5297 37.0433L82.8816 38.3568L82.0936 34.5476Z" fill="#784331"/>
<path d="M96.1479 36.6491C96.1479 36.6491 97.9868 34.2848 98.6436 34.0221C99.3003 33.7594 100.482 32.84 100.482 32.84L107.05 35.0729L111.779 37.8313L96.1479 36.6491Z" fill="#784331"/>
<path d="M27.9775 77.6337L29.9477 80.6553C29.9477 80.6553 30.9985 82.3632 32.5747 82.4946C34.1509 82.6259 37.566 82.8887 37.566 82.8887L32.8374 78.4219L27.9775 77.6337Z" fill="#784331"/>
<path d="M6.43612 58.5865C6.43612 58.5865 5.91073 60.6885 6.17342 62.265C6.43612 63.8415 8.40637 66.0749 8.40637 66.0749L11.1647 65.418L8.93177 60.0316L6.43612 58.5865Z" fill="#784331"/>
<path d="M26.664 6.96169C26.9267 7.35577 27.1894 7.74985 27.3207 8.14393C26.7953 8.01257 26.2699 7.74985 25.7445 7.61849C26.4013 8.80073 27.058 10.1143 27.7148 11.2966C27.4521 10.1143 26.0072 9.32617 24.6937 9.45753C23.3802 9.58889 22.3294 10.2457 21.2787 11.0338C20.2279 11.6906 19.1771 12.3474 18.1263 13.0042C17.7322 13.267 17.3382 13.9238 17.7322 14.1865C17.2068 13.661 16.2874 14.0551 15.6306 14.4492C12.7409 16.6823 10.6393 19.9663 9.85123 23.6444C10.2453 23.513 10.508 23.3817 10.902 23.2503C10.6393 24.0385 11.8215 24.3012 12.4782 24.1698C13.2663 24.0385 14.4485 24.1698 14.3171 24.958C10.1139 27.8479 8.01234 33.4964 9.19448 38.6194C8.93178 38.2253 8.53773 38.094 8.01234 38.094C6.43614 43.7424 9.19448 49.6536 11.9528 54.7767C12.3469 55.4335 12.6096 56.0903 13.2663 56.6157C13.6604 56.8784 14.0544 57.1412 14.3171 57.4039C15.4993 58.192 16.156 59.5056 17.3382 60.4251C18.389 61.3447 20.3592 61.476 21.016 60.2938C20.4906 62.921 22.3294 65.4168 24.5624 66.7304C26.7953 68.044 29.4223 68.9635 31.5239 70.5399C32.7061 71.4594 33.8882 72.6416 35.3331 72.773C35.9898 72.773 36.6466 72.6416 37.3033 72.5103C38.3541 72.3789 39.4049 72.3789 40.3244 72.9043C41.1125 73.4298 41.6378 74.7434 40.9811 75.6629C43.3454 76.057 45.7097 76.3197 48.2053 76.057C50.5696 75.7943 52.9339 74.8747 54.6415 73.1671C55.0355 72.6416 55.4296 72.1162 56.0863 71.9848C55.955 72.5103 55.8236 73.0357 55.5609 73.5611C61.2089 69.6203 65.9375 64.3659 69.0899 58.3234C69.878 56.8784 70.5348 55.4335 71.1915 53.9885C71.7169 52.9376 72.111 51.8868 72.6364 50.8359C73.5558 48.8655 74.3439 47.0264 74.738 44.9247C75.0007 43.4797 74.8693 42.0348 74.6066 40.7212C73.8185 42.8229 73.0304 44.9247 72.3737 47.0264C74.3439 40.4585 73.2931 32.9709 69.6153 27.1911C69.3526 26.797 68.8272 26.4029 68.4332 26.6657C69.2213 25.6148 68.9586 24.3012 68.4332 23.119C66.9883 19.5722 63.3105 16.945 59.5014 16.8137C59.2387 15.7628 58.7133 14.7119 58.1879 13.9238C56.0863 10.7711 52.4085 9.19481 48.9934 7.61849C46.7605 6.69897 44.5275 5.64809 42.0319 5.25401C36.7779 4.20313 31.3926 5.64809 26.2699 6.96169C27.1894 7.48713 28.2402 8.01257 29.1596 8.53801L26.664 6.96169Z" fill="#B38B64"/>
<path d="M42.5573 8.67061C42.1632 8.67061 41.7692 8.67061 41.3751 8.53925C40.8497 8.53925 40.3243 8.40789 40.0616 8.01381C39.9303 7.88245 39.9303 7.61973 39.7989 7.48837C39.6676 7.35701 39.4049 7.35701 39.1422 7.35701C37.9601 7.22565 36.9093 7.22565 35.7271 7.22565C34.4136 7.22565 33.1001 7.22565 32.0493 7.75109C31.3926 8.01381 30.8672 8.53925 30.0791 8.53925C27.4521 8.67061 29.5537 12.3487 29.685 13.3996C28.8969 11.4292 26.0072 10.5096 24.037 11.6919C23.7743 11.8232 23.5116 12.086 23.5116 12.48C23.5116 13.0055 24.037 13.3996 24.037 13.7936C24.037 14.0564 23.7743 14.3191 23.6429 14.5818C22.5921 15.5013 21.0159 15.8954 19.8338 16.5522C17.8636 17.6031 16.5501 19.3108 15.2366 21.0184C14.8425 21.5439 14.5798 22.4634 15.1052 22.7261C15.2366 22.7261 15.4993 22.7261 15.6306 22.8575C16.8128 23.3829 13.7917 25.7474 13.3977 26.2728C12.4782 27.8491 12.0842 29.6882 11.5588 31.3959C10.1139 35.9935 9.85122 40.4597 10.2453 45.32C10.2453 45.7141 10.3766 46.2395 10.6393 46.6336C11.0334 46.8963 11.6901 46.8963 11.8215 46.5023C13.2663 49.3922 14.5798 52.4134 16.0247 55.3034C16.156 55.6974 16.2874 55.9602 16.6814 56.2229C16.9441 56.3542 17.2068 56.4856 17.4695 56.4856C19.4397 56.8797 21.2786 57.5365 22.9862 58.5874C23.5116 58.8501 23.9056 59.2442 24.037 59.7696C24.037 60.1637 23.9056 60.4264 23.7743 60.8205C23.5116 61.74 24.037 62.7909 24.6937 63.579C26.5326 65.8122 29.4223 66.863 32.0493 67.5198C33.7569 67.9139 35.5958 68.4394 37.0406 69.4902C37.4347 69.8843 38.0914 70.147 38.6168 69.8843C38.7481 69.7529 38.8795 69.6216 39.1422 69.4902C39.6676 69.0962 40.3243 69.4902 40.7184 69.8843C41.1124 70.2784 41.5065 70.6725 42.0319 70.9352C42.82 71.4606 43.8708 71.3293 44.9216 71.3293C45.5783 71.3293 46.2351 71.1979 46.8918 71.1979C48.5994 71.0665 50.9637 70.8038 52.5399 70.147C55.0355 69.0962 60.5522 66.6003 61.0776 63.4477C60.8149 63.7104 60.4208 63.4477 60.4208 63.0536C60.4208 62.6595 60.6835 62.3968 60.9462 62.2654C62.9165 60.4264 65.1494 58.9814 66.857 57.1424C67.3824 56.617 71.9796 49.1294 71.0602 48.9981C70.6661 48.9981 70.4034 48.8667 70.0094 48.8667C71.1915 44.0064 72.3737 38.752 70.2721 34.1544C69.878 33.3663 68.9586 32.4467 68.3018 33.1035C68.1705 30.4763 68.0391 27.8491 67.1197 25.3533C66.3316 23.3829 64.8867 21.1498 63.1792 19.8362C62.7851 19.5735 62.1284 19.3108 61.7343 19.7048C61.603 19.8362 61.603 19.9676 61.3403 19.9676C61.2089 19.9676 61.0776 19.9676 60.9462 19.8362C60.4208 19.5735 59.7641 19.3108 59.3701 18.9167C58.976 18.5226 58.582 18.1285 58.0566 17.7344C56.2177 16.5522 52.4085 18.1285 51.6204 15.2386C51.2264 14.0564 51.2264 12.8741 51.6204 11.6919V11.5605C51.6204 11.4292 51.4891 11.2978 51.3577 11.2978C48.468 9.06469 45.7097 8.80197 42.5573 8.67061Z" fill="#D1A66F"/>
<path d="M8.01232 24.1702C7.88097 25.3524 7.88097 26.5347 7.88097 27.7169C7.35557 27.4542 6.83017 28.111 6.56747 28.7678C5.51668 31.6577 4.99128 34.8104 5.25398 37.963C5.25398 38.4884 5.38533 38.8825 5.12263 39.2766C4.99128 39.5393 4.85993 39.802 4.59723 39.9334C2.75833 42.2979 3.41508 45.8446 4.72858 48.6031C2.75833 47.2895 2.62698 44.3996 2.75833 41.9038C2.88968 39.4079 3.02103 36.9121 3.28373 34.4163C3.41508 33.1027 3.54643 31.5264 3.94048 30.0814C4.72858 27.1915 6.83017 24.6956 8.80042 22.4625C8.53772 22.988 8.40637 23.6448 8.01232 24.1702Z" fill="#D1A66F"/>
<path d="M9.71988 60.1628C12.0842 64.7604 15.1052 69.0952 18.6517 72.9047C18.6517 72.642 19.0457 72.5106 19.3084 72.642C21.804 73.036 23.7743 75.0064 26.0072 76.32C27.8461 77.3709 29.9477 78.0277 31.918 78.5532C29.0283 78.6845 26.2699 76.7141 23.5116 77.2396C22.7235 77.3709 21.8041 77.765 21.016 77.5023C20.3592 77.2396 19.9652 76.7141 19.5711 76.0573C16.8128 71.9852 14.0544 67.913 11.2961 63.8409C10.6393 62.79 9.85123 61.7391 9.98258 60.5569L9.71988 60.1628Z" fill="#D1A66F"/>
<path d="M34.6763 78.6846C36.7779 79.6041 39.0109 80.2609 41.2438 80.2609C41.3752 79.4728 41.6378 78.6846 41.7692 77.8965C41.2438 78.816 42.0319 80.1296 43.0827 80.3923C44.1335 80.655 45.1843 80.3923 46.2351 79.9982C50.4383 78.5533 54.3788 76.7142 58.1879 74.3497C58.7133 75.6633 57.7939 77.1083 56.4804 77.7651C55.2982 78.4219 53.8534 78.6846 52.5399 78.9473C50.9637 79.3414 49.3875 80.1296 48.074 81.1805C47.6799 81.4432 47.2859 81.7059 46.8918 81.8373C46.2351 81.9686 45.5783 81.7059 44.7902 81.5745C43.3454 81.1804 41.7692 81.4432 40.4557 82.2313C40.0617 82.494 39.5363 82.8881 39.0109 82.8881C38.2228 83.0195 37.566 82.4941 36.9093 81.9686C35.7271 80.9177 34.545 79.6041 33.6255 78.2905C34.0196 78.4219 34.4136 78.4219 34.939 78.5533L34.6763 78.6846Z" fill="#D1A66F"/>
<path d="M60.8149 70.2775C61.9971 70.4089 63.0479 69.7521 63.9673 69.0953C65.4122 68.1758 66.857 67.1249 68.1705 66.2054C69.484 65.2859 70.7975 64.3663 71.3229 62.9214C70.4034 61.8705 71.3229 60.2942 72.2423 59.2433C73.1618 58.1924 74.3439 57.0102 74.0812 55.6966C73.9499 55.1711 73.5558 54.6457 73.2931 54.1203C72.3737 51.7558 74.6066 49.2599 74.2126 46.7641C71.8483 53.5948 69.2213 60.5569 64.3614 65.8113C62.2598 68.0444 59.7641 70.0148 57.7939 72.3793C58.582 71.9852 59.2387 71.4598 59.8955 70.803L60.8149 70.2775Z" fill="#D1A66F"/>
<path d="M45.7097 3.28393C47.2859 3.67801 48.5994 4.46617 49.7815 5.51704C50.4383 6.17384 51.095 6.83064 51.8831 7.22472C52.6712 7.6188 53.8534 7.6188 54.3788 6.83064C54.3788 7.75016 54.3788 8.53832 54.5101 9.45784C55.5609 9.32648 56.6117 10.1146 57.2685 11.0342C57.9252 11.9537 58.3193 13.0046 59.1074 13.7927C60.1582 14.8436 61.8657 15.2377 63.3105 15.8945C65.8062 16.9454 67.9078 18.9158 69.3526 21.1489C69.0899 18.653 68.4332 16.1572 67.5137 13.7927C67.251 13.2673 67.1197 12.7418 66.5943 12.3478C65.8062 11.5596 64.3613 11.8223 63.1792 12.085C62.9165 9.72056 60.6836 8.01288 58.7133 6.56792C56.349 4.86025 53.9847 3.28393 51.6204 1.57625C50.9637 1.18217 50.3069 0.65673 49.5188 0.78809C48.8621 0.78809 48.3367 1.18217 47.9426 1.57625C47.2859 2.10169 46.4978 2.75849 45.841 3.28393H45.7097Z" fill="#D1A66F"/>
<path d="M83.407 40.7216C83.1443 39.0139 82.4876 37.4376 82.2249 35.8613C81.9622 34.4163 82.0935 32.9714 81.9622 31.5264C81.6995 28.3738 80.9114 25.2211 79.7292 22.3312C78.153 18.6531 75.6574 14.9751 71.9796 13.3987C74.2126 15.7632 68.6959 16.0259 70.7975 17.4709C71.9796 18.2591 72.3737 19.8354 72.3737 21.2803C72.3737 22.7253 72.111 24.1703 72.3737 25.4839C72.505 26.4034 73.0304 27.3229 73.4245 28.2424C74.6066 30.7382 75.6574 33.3654 76.3142 36.124C77.2336 40.1962 77.1023 44.2683 76.7082 48.4718C76.5769 49.5227 76.4455 50.705 76.0515 51.6245C75.5261 52.6754 74.6066 53.4635 73.5558 53.5949C74.4753 54.383 74.6066 55.828 74.2126 57.0102C73.8185 58.1925 73.0304 59.112 72.111 60.0315C71.8483 60.2942 71.5856 60.5569 71.4542 60.951C71.1915 61.6078 71.7169 62.2646 71.7169 63.0528C71.7169 63.4469 71.3229 63.8409 71.0602 64.235C69.2213 66.5995 67.3824 68.964 65.5435 71.3285C64.7554 72.248 63.9673 73.1675 62.9165 73.6929C61.603 74.2184 59.8954 73.9557 59.1073 75.1379C60.2895 75.2693 61.4716 75.4006 62.6538 75.6633C62.3911 76.3201 62.2597 76.9769 61.997 77.6337C62.3911 77.5024 62.7851 77.5024 63.1792 77.371C63.8359 78.2905 65.2808 78.4219 66.3316 77.8965C67.3824 77.371 68.1705 76.4515 68.6959 75.4006C69.3526 74.4811 69.878 73.4302 70.7975 72.6421C71.5856 71.9853 72.6364 71.7225 73.4245 71.0657C75.0007 70.0149 75.7888 67.9131 76.8396 66.4681C78.153 64.4977 79.3352 62.2646 80.2546 60.0315C82.6189 53.989 84.4578 46.8955 83.407 40.7216Z" fill="#965A41"/>
<path d="M84.3265 38.3571C89.5805 38.0944 94.9658 38.4885 100.088 39.8021C100.614 39.9334 101.402 40.3275 101.271 40.8529C101.271 41.1157 101.008 41.247 100.877 41.5097C97.8555 44.0056 93.1269 43.0861 89.9745 45.3192C94.7031 43.3488 100.088 44.1369 104.948 45.1878C109.94 46.3701 114.931 47.815 120.054 47.2896C120.448 47.2896 120.842 47.1582 121.104 46.8955C121.367 46.6328 121.498 46.3701 121.63 46.1073C122.155 44.3997 122.155 42.5606 121.498 40.9843C121.367 40.5902 121.104 40.1961 120.71 39.9334C120.316 39.6707 119.791 39.5393 119.397 39.408C107.969 37.3062 96.0166 35.5985 84.7205 38.6198L84.3265 38.3571Z" fill="#D1A66F"/>
<path d="M84.0638 52.6753C84.0638 52.6753 90.1059 51.6244 93.3896 51.7558C96.542 51.8872 101.271 52.1499 101.271 52.1499L116.901 52.2812L123.206 53.0694L127.278 57.9297C127.278 57.9297 123.469 59.2433 121.893 59.112C120.316 58.9806 115.588 59.112 115.588 59.112L106.656 59.7688L96.148 60.6883L89.4491 60.2942C89.4491 60.2942 88.7924 59.6374 88.3984 59.6374C88.0043 59.6374 85.1146 60.4256 85.1146 60.4256L84.3265 59.506L82.2249 62.5273L81.3055 61.7392L80.386 60.0315C80.1233 59.506 83.013 52.544 83.013 52.544H84.0638V52.6753Z" fill="#B38B64"/>
<path d="M90.2372 52.4126C92.3388 53.0693 94.5718 53.4634 96.8047 53.7261C97.0674 54.5142 97.1987 55.3023 97.4614 56.2217C97.5928 55.959 97.8555 55.6963 97.9868 55.4336C98.9063 56.6158 100.614 56.7471 102.059 56.7471C109.546 56.8785 117.033 57.0098 124.519 57.0098C124.914 55.6963 123.994 54.2515 122.681 53.5947C121.367 52.938 120.054 52.8066 118.609 52.8066C117.164 52.6753 115.588 52.5439 114.012 52.5439C105.868 52.0185 97.8555 51.6245 89.7118 52.2812L90.2372 52.4126Z" fill="#D1A66F"/>
<path d="M74.6066 69.7521C76.3142 69.7521 78.0217 69.8835 79.5979 70.2775C81.4368 70.803 83.1443 71.9852 84.9832 72.5107C88.661 73.5615 92.7329 72.1166 96.2793 73.4302C97.1988 73.8243 97.9869 74.2183 98.9063 74.481C100.088 74.7438 101.402 74.481 102.584 74.087C107.969 72.7734 113.355 71.4598 118.609 70.1462C120.842 69.6207 123.075 69.0953 124.914 67.7817C122.681 66.3367 119.922 65.5486 117.295 65.5486C116.901 65.5486 116.376 65.5486 115.982 65.8113C115.719 66.074 115.456 66.3367 115.194 66.5995C114.668 66.9935 114.012 67.1249 113.355 67.1249C110.334 67.3876 107.181 67.6503 104.16 67.7817C102.847 67.9131 101.402 68.0444 100.088 67.519C99.3004 67.2563 98.6436 66.8622 97.8555 66.4681C95.2285 65.4172 92.2075 65.5486 89.4491 65.8113C85.3773 66.2054 81.1741 66.4681 77.1023 66.8622C76.7082 66.8622 76.1828 66.9935 75.9201 67.2563C75.132 67.9131 75.132 69.4894 74.0812 69.6207L74.6066 69.7521Z" fill="#B38B64"/>
<path d="M93.2583 66.2055C92.9956 66.9938 92.7329 67.782 92.3388 68.5703C94.5718 68.9644 96.6734 69.3585 98.9063 69.7527C101.927 70.2782 105.08 70.8037 108.101 71.0664C110.071 71.1978 111.91 71.1978 113.88 71.1978C118.346 71.1978 122.943 71.1978 127.409 71.3292C127.935 71.3292 128.591 71.3292 128.854 70.8037C127.803 69.7527 126.621 68.7017 125.57 67.5193C125.308 67.2565 124.914 66.8624 124.519 66.731C123.994 66.4683 123.337 66.3369 122.681 66.3369C120.448 66.0742 118.215 65.5487 115.982 64.8918C115.325 66.731 113.092 67.2565 111.122 67.5193C108.101 67.782 105.08 68.0448 102.059 67.3879C98.9063 66.731 95.6226 65.2859 92.4702 66.0742L93.2583 66.2055Z" fill="#D1A66F"/>
<path d="M69.0899 75.5321C72.3737 76.0576 75.6574 76.7144 78.9411 77.2399C79.5979 77.3713 80.2546 77.5027 80.78 77.2399C81.4368 77.1086 81.9622 76.5831 81.9622 75.9262C84.9832 77.8968 88.7924 77.7654 92.4702 77.6341C99.6944 77.2399 106.787 76.8458 114.012 76.4517C117.033 76.3203 120.054 76.1889 122.812 77.1086C121.63 78.1596 120.448 79.3419 118.871 79.8674C116.507 80.6557 113.88 79.9988 111.516 79.8674C108.889 79.7361 106.393 80.2616 103.898 80.5243C101.402 80.7871 98.7749 80.9184 96.1479 81.0498C94.0463 81.1812 91.8134 81.3126 89.7118 81.3126C88.267 81.444 86.8221 81.444 85.3773 81.3126C83.5384 81.1812 81.8308 80.6557 79.9919 80.5243C77.6276 80.2616 75.2633 80.5243 73.0304 80.2616C70.6661 80.1302 68.3018 79.4733 66.5943 77.7654C67.6451 76.8458 68.5645 75.9262 69.484 74.8752L69.0899 75.5321Z" fill="#965A41"/>
<path d="M106.656 64.4982C101.533 64.8923 96.4107 65.155 91.1567 64.8923C89.4491 64.8923 87.7416 64.7609 86.2967 63.8413C87.7416 62.9217 89.3178 61.8707 90.7626 60.951C90.3686 60.2942 89.5805 60.1628 88.7924 60.1628C87.0848 60.1628 85.5086 60.1628 83.8011 60.1628C83.407 61.4765 82.2249 62.3962 80.9114 62.5275C80.78 61.7393 80.2546 60.951 79.5979 60.4255C78.5471 62.6589 77.4963 64.8923 76.3141 67.1257C82.0935 66.3374 87.8729 65.8119 93.6523 65.4178C95.0972 65.2864 96.542 65.2864 97.8555 65.8119C99.0376 66.3374 99.9571 67.3884 101.271 67.6512C103.241 68.0453 105.08 66.4688 106.393 64.8923C106.656 64.6295 106.787 64.2354 106.525 63.9727L106.656 64.4982Z" fill="#965A41"/>
<path d="M120.316 50.8363C108.758 49.5227 96.936 48.2091 85.3773 49.654C85.5086 46.2387 85.2459 42.8233 84.8519 39.408C84.8519 39.0139 84.7205 38.6198 84.4578 38.2257C84.1951 37.963 83.6697 37.8317 83.407 38.0944C83.9324 42.9547 83.6697 47.9464 82.4876 52.6753C86.1654 52.2812 89.9745 51.8872 93.6523 51.6244C95.7539 51.3617 97.8555 51.2304 99.8257 51.2304C101.796 51.2304 103.898 51.6244 105.868 51.7558C109.94 52.1499 114.143 52.2812 118.346 52.4126C119.397 52.4126 120.71 52.0185 120.579 51.099C120.579 50.8363 119.922 50.8363 120.185 51.099L120.316 50.8363Z" fill="#965A41"/>
<path opacity="0.35" d="M27.9775 71.8547C26.4013 70.6725 24.2997 69.2275 23.2489 67.3885C22.3294 65.5494 21.9354 62.9222 21.804 60.8205C21.5413 56.4856 22.7235 52.2821 25.4818 48.8667C28.5029 45.32 32.0493 42.2987 35.5957 39.2775C42.6886 33.3663 50.4383 28.3746 58.4506 23.777C59.6327 23.1202 60.9462 22.3321 62.3911 22.2007C63.8359 21.938 65.4121 22.3321 66.2002 23.3829C65.1494 20.3617 62.6538 17.9972 60.2895 15.7641C58.4506 14.0564 56.6117 12.3487 54.5101 11.0351C47.6799 6.56887 38.4854 6.17479 30.8672 9.19607C23.2489 12.2173 16.9441 18.2599 12.8723 25.222C11.6901 27.1924 10.7707 29.1628 9.98256 31.2645C7.09287 38.8834 7.48691 47.6845 10.7707 55.172C14.0544 62.6595 20.3592 68.8334 27.9775 71.8547Z" fill="#E0C39C"/>
<path d="M62.5225 42.2979C61.209 43.2175 60.5522 45.1881 61.3403 46.6333C61.4717 47.0274 61.7344 47.2901 62.1284 47.5529C62.3911 47.6843 62.6538 47.6843 63.0479 47.8156C63.836 47.947 64.6241 48.3411 65.2808 48.7353C66.2003 47.2901 66.857 45.7136 67.1197 44.0058C67.1197 43.743 67.251 43.4803 67.1197 43.2175C66.9883 42.8234 66.5943 42.4293 66.2003 42.2979C65.8062 42.1665 65.2808 42.1665 64.8868 42.1665C63.9673 42.1665 63.0479 42.1665 62.2598 42.5606L62.5225 42.2979Z" fill="#784331"/>
<path d="M43.3454 32.0518C42.5573 32.7086 41.7692 33.4968 41.1125 34.1536C40.7184 34.5477 40.193 35.0731 40.193 35.5985C40.193 35.9926 40.3244 36.3867 40.4557 36.6494C41.2438 38.2257 42.6887 39.2766 44.1335 40.3275C44.2648 40.4589 44.5275 40.5902 44.7902 40.7216C45.3156 40.8529 45.7097 40.5902 46.1037 40.3275C48.5994 38.6198 50.9637 36.3867 51.2264 33.4968C51.2264 33.3654 51.2264 33.2341 51.2264 33.1027C51.095 32.9713 50.9637 32.84 50.8323 32.7086C49.5188 31.7891 48.2053 31.0009 46.8918 30.0814C45.5783 31.1323 44.2648 32.0518 42.9514 32.84L43.3454 32.0518Z" fill="#784331"/>
<path d="M45.9724 58.3238C44.9216 59.506 44.1335 60.951 43.4767 62.3959C44.9216 63.1841 46.3664 63.9723 47.9426 64.6291C48.074 64.7604 48.3367 64.7604 48.468 64.7604C48.5994 64.7604 48.7307 64.6291 48.8621 64.4977C51.6204 62.3959 53.9847 59.2433 53.8534 55.6966C52.9339 55.6966 52.0145 55.9593 51.2264 56.3534C50.5696 56.6161 49.9129 56.8788 49.2561 57.1416C48.074 57.5356 46.7605 58.0611 45.7097 58.7179L45.9724 58.3238Z" fill="#784331"/>
<path d="M51.6204 11.4284C51.4891 12.7422 51.4891 14.056 51.4891 15.3697C51.4891 15.5011 51.4891 15.6325 51.6204 15.7638C51.7518 15.8952 51.8831 15.8952 51.8831 15.8952C53.4593 16.4207 55.0355 16.9462 56.6117 17.3403C57.2685 15.2383 57.0058 12.7422 55.6923 10.9029C55.5609 10.7716 55.5609 10.6402 55.4296 10.6402C55.1669 10.3774 54.6415 10.6402 54.3788 10.7716C53.4593 11.1657 52.5399 11.4284 51.4891 11.4284C51.6204 11.1657 52.0145 11.0343 52.2772 11.1657L51.6204 11.4284Z" fill="#784331"/>
<path d="M41.2438 14.0555C40.8498 14.9749 40.5871 16.0257 40.7184 17.0765C40.7184 17.2079 40.7184 17.4706 40.8498 17.6019C40.9811 17.996 41.3752 18.1273 41.7692 18.2587C42.6886 18.39 43.7394 17.8646 44.1335 16.9452C44.5275 16.0257 44.2648 14.9749 43.6081 14.3182C43.214 13.9241 42.82 13.6614 42.2946 13.6614C41.7692 13.6614 41.2438 13.9241 41.2438 14.4495V14.0555Z" fill="#784331"/>
<path d="M27.8461 22.1998C27.1894 23.5134 26.7953 25.0897 26.7953 26.666C26.7953 26.7974 26.7953 27.0601 26.9267 27.1914C27.058 27.3228 27.058 27.3228 27.1894 27.4542C28.6342 28.3737 30.2104 29.2932 31.6553 30.2127C31.7866 30.2127 31.918 30.3441 32.0493 30.3441C32.1807 30.3441 32.1807 30.3441 32.312 30.2127C34.4136 29.0305 36.1212 26.9287 36.9093 24.6956C34.545 22.3311 30.9985 21.2803 27.7148 21.9371C27.5834 21.9371 27.5834 21.937 27.4521 22.0684C27.4521 22.1998 27.4521 22.3311 27.5834 22.1998H27.8461Z" fill="#784331"/>
<path d="M27.9775 54.3836C28.3715 52.2816 29.1596 50.1796 30.3418 48.4717C30.3418 48.3404 30.4731 48.3404 30.6045 48.209C30.7358 48.209 30.8672 48.209 30.9985 48.209C33.6255 49.26 35.8585 50.9679 37.566 53.0699C36.9093 53.7268 36.3839 54.3836 35.7271 55.0405C35.2017 55.6974 34.545 56.2229 33.7569 56.3543C33.3628 56.3543 32.9688 56.2229 32.5747 56.0915C30.9985 55.4346 29.5537 54.9091 27.9775 54.3836C27.8461 54.3836 27.7148 54.515 27.7148 54.6464L27.9775 54.3836Z" fill="#784331"/>
<path d="M14.0544 41.1156C13.6604 43.2174 13.2663 45.1878 13.0036 47.2895C12.8723 47.6836 12.8723 48.0777 13.0036 48.4718C13.135 48.8659 13.529 49.2599 13.7917 49.5226C14.5798 50.1794 15.4993 50.8362 16.4187 51.2303C16.5501 51.3617 16.8128 51.493 17.0755 51.3617C17.3382 51.3617 17.4695 51.099 17.6009 50.8362C18.9144 48.6031 20.2278 46.37 21.1473 44.0055C21.2786 43.6115 21.41 43.2174 21.41 42.8233C21.41 42.2978 20.8846 41.7724 20.3592 41.5097C19.8338 41.247 19.1771 41.1156 18.6517 41.1156C17.3382 40.9843 16.0247 40.9843 14.7112 40.9843C14.4485 40.9843 14.0544 40.9843 13.7917 41.247L14.0544 41.1156Z" fill="#784331"/>
<path d="M91.9448 38.8826C91.8134 38.7512 91.6821 38.7512 91.4194 38.7512C90.3686 38.7512 89.5805 39.802 89.8432 40.7215C90.1059 41.6409 91.288 42.2977 92.2075 41.9036C92.6015 41.7723 92.9956 41.3782 93.2583 41.1155C93.6523 40.7215 94.0464 40.3274 94.3091 40.0647C94.8345 39.5393 95.2285 38.8826 94.9658 38.3572C93.915 38.7512 92.7329 39.0139 91.6821 39.0139C91.5507 39.0139 91.4194 39.0139 91.4194 39.1453C91.4194 39.2766 91.6821 39.1453 91.5507 39.1453L91.9448 38.8826Z" fill="#784331"/>
<path d="M113.617 38.0944C114.537 39.6706 115.588 41.1155 116.901 42.429C117.033 42.5603 117.033 42.5603 117.164 42.5603C117.295 42.5603 117.427 42.429 117.427 42.429C118.346 41.3782 118.215 39.9333 118.215 38.6198C117.033 38.0944 115.719 38.0944 114.406 38.3571C114.143 38.3571 114.012 38.4885 113.749 38.3571C113.486 38.2258 113.355 37.9631 113.617 37.8317V38.0944Z" fill="#784331"/>
<path d="M110.859 56.8788C109.677 57.4042 108.758 58.455 108.363 59.6371C108.363 59.7685 108.232 60.0312 108.363 60.1625C108.495 60.2939 108.626 60.2939 108.758 60.2939C111.122 60.2939 113.486 60.0312 115.85 59.3744C114.274 58.455 112.698 57.5355 110.99 56.7474L110.859 56.8788Z" fill="#784331"/>
<path opacity="0.44" d="M103.898 67.6501C103.898 67.5187 104.16 67.3874 104.292 67.5187C105.08 67.6501 105.868 67.7814 106.787 68.0441C107.575 68.1755 108.363 68.3068 109.283 68.3068C109.94 68.3068 110.596 68.0441 111.122 67.9128C112.435 67.5187 113.749 67.1247 115.062 66.862C113.617 65.2858 111.516 64.7604 109.414 64.235C109.02 64.1036 108.626 64.1036 108.363 64.235C108.101 64.3663 107.969 64.4977 107.838 64.629C106.656 65.6798 105.605 66.5993 104.423 67.6501H103.898Z" fill="#965A41"/>
<path d="M101.139 71.3284C100.088 71.3284 99.4317 72.5106 99.8258 73.43C100.483 73.6927 101.008 73.824 101.665 73.824C102.321 73.824 102.978 73.6927 103.372 73.1673C103.766 72.7733 103.898 72.1165 104.029 71.5911C103.372 71.7225 102.715 71.5911 102.19 71.0657C102.059 70.9344 102.059 70.803 101.927 70.803C101.533 70.6717 101.139 71.0657 101.139 71.3284Z" fill="#784331"/>
<path d="M83.2757 69.8836C82.6189 70.0149 82.3562 70.8032 82.7503 71.4601C83.013 71.9856 83.6697 72.3797 84.1951 72.6424C85.1146 73.0366 85.9027 73.5621 86.8221 73.9562C87.6102 74.3503 88.3983 74.7444 89.1864 74.7444C90.3686 74.7444 91.4194 73.6934 92.2075 72.9052C92.7329 72.3797 93.2583 71.7228 93.6523 71.1973C93.915 70.8032 94.1777 70.5404 94.1777 70.0149C94.1777 69.6208 93.7837 69.2267 93.3896 68.9639C92.9956 68.8325 92.4702 68.8325 92.0761 68.7012C89.5805 68.7012 87.2162 68.7012 84.7205 68.9639C84.0638 68.9639 83.2757 69.0953 82.8816 69.7522L83.2757 69.8836Z" fill="#784331"/>
<path d="M55.8236 11.0342C55.8236 11.0342 55.1669 14.7128 54.2474 15.2383C53.328 15.6324 51.7518 15.8951 51.7518 15.8951C51.7518 15.8951 53.4593 16.8148 54.3788 16.9461C55.2982 17.0775 56.7431 17.603 56.7431 17.603C56.7431 17.603 58.1879 13.0049 55.8236 11.0342Z" fill="#93533F"/>
<path d="M40.5871 36.1246L44.9216 37.9639L48.074 34.5481L46.6291 30.2127C46.6291 30.0813 40.8498 32.3147 40.5871 36.1246Z" fill="#93533F"/>
<path d="M32.8374 22.4627L32.1807 25.747L26.7953 27.1922L26.9267 24.1705L27.7148 21.8058C27.8461 21.9372 31.918 21.1489 32.8374 22.4627Z" fill="#93533F"/>
<path d="M13.3977 46.8962C14.4485 46.1079 15.6306 45.3197 16.6814 44.6628L21.016 44.1373C21.016 44.1373 20.2279 41.7725 19.9652 41.5098C18.783 40.5902 15.3679 40.9843 13.9231 40.9843C13.9231 42.9549 13.2663 44.9255 13.3977 46.8962Z" fill="#93533F"/>
<path d="M28.7656 52.2808L32.0493 51.6241L38.0914 52.9376L34.8077 49.9165L30.9985 48.3403C30.9985 48.209 29.8164 49.9165 28.7656 52.2808Z" fill="#93533F"/>
<path d="M44.1335 62.2651L48.3367 61.871C48.9934 60.2945 49.6502 59.2435 49.6502 57.5356C49.6502 57.4042 49.6502 57.2728 49.5188 57.1415C49.3875 57.0101 49.1248 57.1415 48.8621 57.2728C48.468 57.5356 47.9426 57.4042 47.4172 57.5356C46.7605 57.667 46.1037 58.0611 45.7097 58.718C45.5783 58.9807 44.0022 62.2651 44.1335 62.2651Z" fill="#93533F"/>
<path d="M61.8657 46.7647C62.7852 47.0274 63.5733 46.2392 64.0986 45.4509C64.4927 44.9254 64.7554 44.3999 64.8867 43.8744C65.0181 43.3489 64.8867 42.692 64.3613 42.2979C63.836 41.9038 62.9165 41.9038 62.3911 42.4293C61.8657 42.8234 61.4717 43.4803 61.209 44.1372C60.9463 44.794 60.6836 45.4509 60.9463 46.1078C61.0776 46.7647 61.8657 47.2902 62.3911 47.1588L61.8657 46.7647Z" fill="#93533F"/>
<path d="M72.7677 13.9242C72.2423 14.975 71.4542 15.8946 70.2721 16.42C69.3526 15.1064 68.3018 13.9242 67.1197 12.8733C66.9883 14.581 67.7764 16.2886 69.0899 17.3395C69.6153 17.865 70.2721 18.1277 70.7975 18.6531C71.7169 19.5726 72.2423 20.8862 72.111 22.0685C72.111 22.8566 71.8483 23.6448 71.8483 24.433C71.8483 25.3525 72.1109 26.272 72.3736 27.0602C73.0304 28.8992 73.5558 30.7382 74.2125 32.5773C74.6066 33.6281 74.8693 34.5477 75.526 35.4672C75.7887 35.8613 76.1828 36.3867 76.3141 36.7808C76.4455 37.1749 76.4455 37.5689 76.4455 38.0944C76.5768 40.5902 76.5768 43.2174 76.7082 45.7133C76.8395 45.4505 76.9709 45.1878 77.2336 44.9251C77.8903 45.5819 78.2844 46.3701 78.5471 47.2896C79.0725 45.7133 79.5979 44.1369 80.1233 42.5606C80.6487 42.9547 81.4368 42.9547 81.9622 42.692C81.9622 43.2174 82.4876 43.6115 83.013 43.4801C83.1443 41.6411 82.8816 39.9334 82.7503 38.0944C82.3562 34.2849 81.9622 30.6069 81.0427 26.9288C79.8606 21.8058 77.4963 16.5514 73.0304 13.7928C72.7677 13.6614 72.505 13.5301 72.3736 13.7928C72.2423 13.9242 72.6363 14.1869 72.6363 13.9242H72.7677Z" fill="#A8745E"/>
<path d="M85.1146 38.0943C83.6697 40.1961 84.3265 43.4801 86.5594 44.6623C85.9027 44.7937 85.3773 45.5818 85.3773 46.37C89.8432 44.925 94.5717 44.531 99.169 45.3191C95.6225 45.4505 92.0761 45.5818 88.661 46.6327C86.8221 47.2895 84.7205 48.6031 84.8519 50.5735C86.1654 50.8362 87.4789 50.9676 88.661 51.2303C87.2162 51.493 85.7713 51.8871 84.3265 52.1498C84.1951 53.0694 83.9324 53.8575 83.5384 54.6457C83.9324 54.9084 84.3265 55.1711 84.7205 55.4338C82.7503 55.8279 81.1741 57.6669 81.1741 59.7687C81.8308 60.1628 82.7503 60.2941 83.407 60.0314C82.8816 60.6882 82.3562 61.4764 81.6995 62.1332C80.9114 61.8705 80.1233 62.3959 79.8606 63.0527C79.5979 63.7095 79.5979 64.629 79.5979 65.2858C81.1741 65.6799 82.7503 65.9426 84.3265 66.3367C81.6995 66.3367 78.5471 66.7308 77.1022 68.9639C76.0514 70.8029 76.5768 72.7733 76.7082 74.7437C76.8395 75.5319 77.1022 80.3922 78.2844 80.3922C75.9201 80.3922 72.8991 80.3922 70.6661 79.604C69.2213 79.0786 68.0391 78.2904 66.5943 77.8964C67.5137 76.5828 68.4332 75.2692 69.2213 73.9556C69.6153 73.4301 70.0094 72.7733 70.5348 72.3792C70.9288 71.9852 71.4542 71.7224 71.9796 71.4597C72.6364 70.9343 73.0304 70.2775 73.5558 69.752C76.7082 65.4172 79.5979 60.9509 81.4368 55.9593C83.2757 50.9676 84.0638 45.4505 83.013 40.3274C82.8816 39.5393 82.6189 38.7511 83.013 38.0943C83.6697 37.3062 84.9832 37.1748 85.1146 38.0943Z" fill="#965A41"/>
<path d="M67.9078 14.581C69.0899 15.7632 70.1407 16.9454 71.3229 18.1277C71.5856 17.9963 71.8483 17.865 72.111 17.7336C72.3737 19.704 74.3439 21.4117 76.3142 21.543C75.132 21.0176 73.9499 22.1998 73.8185 23.3821C73.6872 24.5643 74.3439 25.7466 74.738 26.9288C75.5261 28.6365 75.9201 30.6069 76.1828 32.4459C76.9709 32.4459 77.759 32.4459 78.5471 32.4459C78.0217 32.5773 77.4963 32.84 76.8396 32.9714C78.0217 36.7808 76.8396 40.4589 77.6277 44.1369C77.8904 45.3192 79.3352 46.1073 80.386 45.5819C81.6995 44.9251 82.0935 43.2174 82.0935 41.6411C82.2249 40.0648 82.2249 38.4885 82.3562 36.9121C83.407 41.9038 83.407 47.1582 82.2249 52.1499C82.0935 50.8363 81.8308 49.5227 81.0427 48.3405C80.6487 47.815 80.2546 47.2896 79.5979 47.2896C76.9709 47.1582 76.3142 52.2812 75.6574 53.9889C74.6066 56.8788 73.4245 59.7688 71.9796 62.5273C71.1915 62.1332 71.0602 61.0824 71.4542 60.2942C71.8483 59.506 72.505 58.8492 73.0304 58.1924C73.9499 56.7475 73.9499 54.6457 73.0304 53.2008C74.8693 52.8067 75.6574 50.5736 75.9201 48.6032C76.4455 44.7937 76.7082 40.9843 76.5769 37.1749C76.5769 36.7808 76.5769 36.3867 76.4455 36.124C76.1828 35.7299 75.7888 35.4672 75.5261 35.0731C75.0007 34.5477 74.738 33.7595 74.4753 32.9714C73.8185 31.001 73.1618 29.0306 72.505 27.0602C72.111 26.0093 71.7169 24.827 71.8483 23.7762C71.9796 22.7253 72.3737 21.6744 72.2423 20.7549C71.8483 18.1277 68.0391 17.0768 67.6451 14.3182C68.3018 14.0555 68.9586 13.7928 69.6153 13.5301L67.9078 14.581Z" fill="#965A41"/>
<path d="M41.1124 82.7567C42.1632 81.1804 44.5275 81.9686 46.3664 81.8372C47.5486 81.7058 48.5994 81.1804 49.6502 80.655C51.095 79.9982 52.5399 79.3414 53.9847 78.6846C55.0355 78.2905 56.2177 77.8964 57.1371 77.1082C58.0565 76.3201 58.7133 75.1378 58.4506 73.9556C61.8657 73.4302 65.1494 71.5911 67.3824 68.9639C66.3316 70.803 61.8657 73.4302 62.2597 75.6633C62.3911 76.0574 62.6538 76.4514 63.0478 76.7142C64.23 77.5023 65.9375 76.8455 67.1197 76.0574C68.1705 75.4006 69.2213 74.481 69.878 73.4302C68.1705 76.7142 65.2808 79.3414 61.7343 80.655C62.1284 79.9982 61.4716 79.0786 60.8149 78.8159C57.7938 77.6337 53.722 80.5236 50.9637 81.4431C47.8113 82.6254 44.2648 83.4135 40.9811 82.6254C40.587 82.8881 40.3243 83.1508 39.9303 83.4135L41.1124 82.7567Z" fill="#965A41"/>
<path d="M22.4608 32.5773C24.2997 32.3145 26.0072 31.9205 27.7148 31.2637C27.9775 31.1323 28.3715 31.001 28.6342 31.001C28.8969 31.001 29.1596 31.1323 29.4223 31.2637C30.2104 31.6577 31.1299 31.9205 31.918 32.3146C32.1807 32.4459 32.4434 32.4459 32.5747 32.4459C32.7061 32.4459 32.8374 32.3146 32.9688 32.1832C35.4644 29.556 37.566 26.5347 39.2735 23.3821C38.3541 23.5134 37.566 24.1702 37.0406 24.9584C36.5152 25.7466 36.1211 26.6661 35.5957 27.4542C34.939 28.5051 33.8882 29.556 32.8374 30.2128C32.312 30.4755 31.6553 30.7382 31.1299 30.4755C30.7358 30.2128 30.6045 29.8187 30.2104 29.556C29.685 29.2933 29.0283 29.4246 28.5029 29.6874C26.0072 30.7382 23.7743 31.9205 21.5413 33.4968L22.4608 32.5773Z" fill="#E0C39C"/>
<path d="M41.2438 39.1453C40.7184 39.408 40.193 39.6707 39.799 39.9334C41.7692 41.3784 43.7394 42.8233 45.7097 44.1369C45.841 44.2683 45.9724 44.2683 46.2351 44.3997C46.4978 44.3997 46.6291 44.2683 46.7605 44.1369C48.074 43.2174 48.8621 41.7725 49.5188 40.3275C50.4383 38.3571 50.9637 36.124 51.095 33.8909C50.1756 36.124 48.7307 38.0944 47.0232 39.8021C46.2351 40.5902 45.1843 41.3784 44.1335 40.8529C43.214 40.4589 42.82 39.408 41.7692 39.2766C41.2438 39.1453 40.587 39.408 40.193 39.8021L41.2438 39.1453Z" fill="#E0C39C"/>
<path d="M24.8251 54.3834C28.1088 55.8285 31.3926 57.2736 34.6763 58.7188C34.8077 58.8501 35.0703 58.8501 35.2017 58.8501C35.333 58.8501 35.4644 58.7188 35.5957 58.456C37.8287 55.9599 39.9303 53.3324 42.1632 50.8362C40.193 51.4931 38.2227 52.6755 36.7779 54.1206C35.8584 55.0403 34.8077 56.0913 33.6255 55.8285C33.1001 55.6971 32.5747 55.4344 32.0493 55.303C31.3926 55.0403 30.7358 55.1716 30.0791 55.0403C28.2402 55.0403 26.4013 54.6461 24.6937 53.9893L24.8251 54.3834Z" fill="#E0C39C"/>
<path d="M16.8128 40.1961C18.5203 40.1961 20.2278 40.0648 21.9354 40.0648C22.3294 40.0648 22.8548 40.1961 22.8548 40.5902C22.7235 41.7724 23.3802 43.086 23.2489 44.2683C23.1175 45.3192 22.3294 46.2387 21.6727 47.0268C20.0965 48.7345 18.6517 50.4422 16.9441 52.0185C18.1263 49.7854 19.3084 47.4209 20.4905 45.1878C21.0159 44.1369 21.5413 42.8233 20.7532 41.9038C19.5711 41.5097 18.389 41.1156 17.2068 40.4588C17.0755 40.3275 16.9441 40.5902 16.8128 40.5902C16.6814 40.5902 16.8128 40.3275 16.8128 40.4588V40.1961Z" fill="#E0C39C"/>
<path d="M43.8708 63.3154C45.3156 64.4977 46.7605 65.5486 48.2053 66.4681C48.3367 66.5994 48.468 66.5994 48.7307 66.5994C48.8621 66.5994 48.9934 66.4681 49.1248 66.3367C52.5399 63.3154 56.0863 59.9001 57.1371 55.4338C56.349 55.4338 55.6923 55.4338 54.9042 55.4338C54.6415 55.4338 54.5101 55.4338 54.2474 55.5652C54.1161 55.6966 53.9847 55.8279 53.9847 56.0906C53.328 57.7983 52.9339 59.506 52.1458 61.0823C51.3577 62.3959 50.1756 63.4468 49.1248 64.4977C48.9934 64.629 48.7307 64.8918 48.468 64.8918C48.2053 64.8918 48.074 64.8918 47.8113 64.7604C46.4978 64.235 45.0529 63.5782 43.7394 63.0527L43.8708 63.3154Z" fill="#E0C39C"/>
<path d="M63.8359 48.8658C62.7851 48.0777 60.8149 49.3913 60.0268 48.3404C59.8955 48.209 59.7641 47.9463 59.7641 47.6836C59.5014 46.5013 59.3701 45.3191 59.5014 44.1369C59.7641 42.9546 60.4209 41.9037 61.3403 41.2469C62.6538 40.4588 64.23 40.4588 65.6748 40.5901C65.9375 40.5901 66.2002 40.5901 66.4629 40.7215C67.251 41.1156 67.251 42.0351 67.251 42.9546C66.0689 41.641 63.8359 41.3783 62.2597 42.4292C61.4717 42.9546 60.8149 43.8741 60.6836 44.7937C60.5522 45.7132 60.9462 46.8954 61.7343 47.4209C62.3911 47.8149 63.1792 47.9463 63.5732 48.6031C63.5732 48.7345 63.7046 48.8658 63.5732 48.9972C63.4419 48.9972 63.4419 48.7345 63.5732 48.8658H63.8359Z" fill="#E0C39C"/>
<path d="M41.1125 19.1792C41.2438 19.5733 41.6379 19.836 42.0319 19.9674C43.6081 20.3615 45.5783 19.0478 45.7097 17.4713C45.841 15.7634 44.3962 14.1869 42.6887 14.1869C43.6081 14.8438 44.1335 16.2889 43.7395 17.3399C43.2141 18.3909 41.6379 18.9164 40.7184 18.1282C40.7184 18.5223 40.9811 18.9164 41.1125 19.1792Z" fill="#E0C39C"/>
<path d="M47.1545 9.19519C48.8621 9.98335 49.5188 12.0851 49.7815 14.0555C49.7815 14.7123 49.9129 15.3691 50.1756 15.8945C50.8323 17.3395 52.8025 17.4709 54.2474 17.7336C57.3998 18.3904 60.2895 20.0981 62.2597 22.7253C61.7343 21.0176 60.5522 19.5726 59.1073 18.5217C57.0057 17.0768 54.5101 16.8141 52.1458 15.8945C51.8831 15.7632 51.7518 15.7632 51.6204 15.6318C51.4891 15.5005 51.3577 15.2377 51.3577 14.975C51.095 13.6614 51.095 12.3478 51.4891 11.0342C50.1756 9.98335 48.5994 9.32655 47.0232 9.32655C47.1545 9.45791 47.2859 9.72063 47.2859 9.85199L47.1545 9.19519Z" fill="#E0C39C"/>
<path d="M10.3766 41.2478C9.32585 35.4679 10.7707 29.1627 14.3171 24.4337C14.7112 24.0396 14.9739 23.5142 15.1052 22.9888C15.1052 22.4633 14.7112 21.8065 14.1858 21.8065C16.0247 19.1793 18.5203 16.8148 21.2787 15.2385C22.4608 14.5817 23.7743 13.5308 23.2489 12.3486C23.9057 11.2977 25.2192 11.035 26.27 11.2977C27.4521 11.5604 28.3716 12.3486 29.1597 13.1368C28.897 12.3486 28.5029 11.5604 28.2402 10.7723C28.1089 10.3782 27.9775 9.98413 28.1089 9.72141C28.5029 9.45869 28.7656 9.32733 28.897 9.19597C33.2315 6.96285 38.3541 6.43742 42.9514 7.75101C39.0109 7.35693 34.939 8.27645 31.3926 10.3782C30.9985 10.6409 30.6045 10.9037 30.4731 11.1664C29.685 12.3486 30.9985 14.0563 30.6045 15.3699C29.4223 15.5012 28.6343 14.319 27.4521 14.0563C26.27 13.7936 25.0878 14.4504 24.1684 15.2385C21.5414 17.0776 19.0457 19.1793 16.5501 21.2811C17.0755 21.6752 17.6009 21.9379 18.1263 22.332C12.7409 26.4041 9.7199 33.2348 10.1139 39.9342C10.1139 40.8537 10.2453 41.9046 9.4572 42.43L10.3766 41.2478Z" fill="#E0C39C"/>
<path opacity="0.47" d="M8.93176 53.2007C8.93176 53.2007 13.529 63.4468 16.6814 67.519C19.8338 71.5911 25.3505 74.087 27.8461 75.0065C30.3418 75.926 38.2227 75.6633 38.2227 75.6633C38.2227 75.6633 28.1088 74.6124 21.0159 68.9639C14.0544 63.3155 8.93176 53.2007 8.93176 53.2007Z" fill="#965A41"/>
<path opacity="0.57" d="M11.6901 14.7123L10.508 17.0768V18.9158L15.6306 14.4496C15.6306 14.4496 19.7025 11.0342 21.5414 9.98334C23.2489 9.06382 26.2699 9.4579 26.2699 9.4579L25.8759 7.4875C26.2699 6.43662 27.5834 6.04254 28.6342 5.77982C29.8164 5.38574 31.6553 4.46623 32.8374 4.46623C32.312 4.46623 32.0493 3.80943 32.312 3.28399C32.5747 2.88991 33.1001 2.62719 33.6255 2.49583C36.9093 1.57631 40.4557 1.57631 43.6081 2.75855C39.9303 0.13135 34.8077 -0.39409 30.7358 1.44495C30.2104 1.70767 29.5537 2.10175 29.4223 2.62719C29.291 3.15263 29.291 3.67807 29.0283 4.20351C28.5029 4.33487 27.1894 4.20351 26.9267 3.67807L26.2699 2.75855C26.2699 2.75855 14.4485 8.1443 11.6901 14.7123Z" fill="#E0C39C"/>
<path d="M7.0929 58.9807C7.48695 61.3455 8.4064 63.5788 9.7199 65.5495C9.32585 65.8122 8.80045 65.8122 8.4064 65.5495C8.01235 65.2867 7.74965 65.024 7.48695 64.6298C6.17346 62.7906 5.77941 60.4258 6.30481 58.1924C6.69886 58.5866 7.0929 58.7179 7.48695 58.8493L7.0929 58.9807Z" fill="#A35C47"/>
<path opacity="0.44" d="M83.1444 70.409L88.5297 71.7228L94.4404 69.4894C94.4404 69.4894 93.3896 71.0659 92.0761 72.7738C90.894 74.4816 88.0043 74.8758 88.0043 74.8758L82.3563 71.9855L83.1444 70.409Z" fill="#965A41"/>
<path opacity="0.44" d="M108.363 63.9723L108.626 66.7306C108.626 66.7306 115.062 66.4679 115.062 66.7306C115.062 66.9933 109.283 68.1755 109.283 68.1755L106.262 68.0441C106.262 68.0441 101.271 68.4382 108.363 63.9723Z" fill="#965A41"/>
<path opacity="0.57" d="M122.024 75.926C124.651 76.32 127.278 76.0573 129.773 75.2692C130.036 75.1378 130.168 75.1378 130.299 74.8751C130.43 74.7437 130.43 74.3496 130.43 74.2183C130.43 72.2479 129.117 70.4088 127.409 69.4893C126.884 69.2266 126.358 69.0952 125.964 68.7012C125.702 68.4384 125.439 68.0444 125.176 67.6503C124.388 66.7308 123.075 66.4681 122.024 66.3367C120.71 66.2053 119.397 65.9426 117.952 65.8113C117.558 65.8113 117.164 65.6799 116.901 65.8113C116.507 65.9426 116.244 66.2053 115.982 66.468C114.537 67.913 112.304 68.3071 110.334 68.7012C112.435 69.358 114.537 68.3071 116.639 68.8325C118.215 69.2266 120.973 70.1461 121.892 71.5911C122.287 71.9852 122.812 75.926 122.024 75.926Z" fill="#E0C39C"/>
<path opacity="0.57" d="M116.244 52.938C118.215 54.3829 119.528 56.7474 119.528 59.2433C121.236 59.2433 123.337 59.3746 124.257 60.9509C124.519 61.4764 124.914 62.1332 125.439 62.0018C125.702 62.0018 125.833 61.7391 125.964 61.4764C126.49 60.5569 127.146 59.3746 127.015 58.3237C126.884 57.2729 126.227 56.4847 125.702 55.6965C124.914 54.777 124.125 53.7261 123.075 53.3321C122.418 53.0693 121.63 53.0694 120.842 53.0694C119.266 53.0694 117.558 53.0694 115.982 53.0694L116.244 52.938Z" fill="#E0C39C"/>
<path d="M111.122 37.7003C112.435 39.9333 114.143 42.4289 116.77 42.6916C115.85 42.5603 115.194 41.7722 114.8 40.9841C114.406 40.196 114.143 39.2765 113.486 38.6198C112.829 37.963 111.779 37.569 111.122 38.0944V37.7003Z" fill="#E1C5A0"/>
<path opacity="0.44" d="M100.22 32.84C100.614 33.8908 101.139 34.9416 101.533 35.9924C99.9571 36.2551 98.3809 36.3864 96.8047 36.1237C97.7242 35.2043 98.5123 34.2848 99.4317 33.234C99.5631 33.1027 99.6944 33.1027 99.6944 33.1027C99.8258 33.1027 99.5631 33.3654 99.5631 33.234L100.22 32.84Z" fill="#965A41"/>
<path d="M14.5798 79.8667C14.1858 80.5235 13.6604 81.0489 13.2663 81.7056C11.5588 82.0997 9.71987 82.231 8.01233 82.231C8.40638 81.3116 8.66908 80.5235 9.06313 79.604C9.06313 79.4727 9.19448 79.3413 9.32583 79.21C9.45718 79.0786 9.58853 79.0786 9.71988 79.0786C11.2961 78.6846 13.135 78.9473 14.5798 79.8667C14.7112 79.8667 14.8425 79.8667 14.9739 79.8667C15.1052 79.7354 14.8425 79.604 14.8425 79.7354L14.5798 79.8667Z" fill="#D1A66F"/>
<path d="M26.0072 2.75836C22.3294 3.41516 18.5203 6.5678 15.6306 8.93228C12.7409 11.2968 10.3766 14.318 9.98257 18.2588C9.98257 18.6529 10.6393 18.7843 10.7707 18.3902C11.4274 14.318 13.7917 11.4281 17.0755 8.93228C18.5203 7.8814 19.9651 6.83052 21.5413 5.77964C23.1175 4.86012 24.8251 4.07196 26.2699 3.15244C26.4013 3.02108 26.2699 2.75836 26.0072 2.75836Z" fill="#E1C5A0"/>
<path d="M15.1052 14.4496C13.2663 16.1572 11.1647 17.4708 9.85122 19.704C8.66908 21.543 8.01233 23.7761 8.01233 26.0092C8.01233 26.4033 8.53773 26.4033 8.66908 26.0092C8.93178 23.7761 9.45718 21.543 10.7707 19.5726C12.0842 17.7336 13.7917 16.2886 15.3679 14.7123C15.4993 14.5809 15.2366 14.3182 15.1052 14.4496Z" fill="#E1C5A0"/>
<path d="M8.40639 22.1998C7.22424 23.1194 6.43614 24.5646 5.64804 25.7469C4.85994 26.9293 3.9405 28.3744 3.54645 29.8196C3.54645 30.0823 3.80915 30.3451 3.9405 30.0823C4.85994 29.0313 5.38534 27.5862 6.04209 26.4038C6.83019 25.0901 7.88099 23.9077 8.53773 22.4625C8.80043 22.1998 8.66908 22.0684 8.40639 22.1998Z" fill="#E1C5A0"/>
<path d="M3.67779 29.4246C2.49564 34.5476 2.36429 39.9334 2.23294 45.1878C2.23294 45.7132 3.15239 45.7132 3.15239 45.1878C3.28374 39.9334 3.94049 34.679 4.33454 29.4246C4.20319 29.1619 3.67779 29.1619 3.67779 29.4246Z" fill="#E1C5A0"/>
<path d="M2.23294 45.7132C2.75834 46.6326 3.28374 47.6834 3.94049 48.6028C4.20318 48.9969 4.85993 48.6028 4.59723 48.2088C4.07184 47.2894 3.41509 46.2386 2.88969 45.3191C2.62699 44.9251 1.97024 45.3191 2.23294 45.7132Z" fill="#E1C5A0"/>
<path d="M4.33455 48.6031C4.2032 49.1285 4.07185 49.7853 3.9405 50.3107C3.80915 50.8361 3.54645 51.4928 3.4151 52.0182C3.28375 52.4123 3.80915 52.5436 4.07185 52.2809C4.72859 51.2301 4.99129 49.7853 4.85994 48.6031C4.72859 48.4718 4.4659 48.3404 4.33455 48.6031Z" fill="#E1C5A0"/>
<path d="M5.64804 58.5866C5.25399 61.0828 6.04209 63.973 8.01234 65.6809C8.27504 65.9436 8.66909 65.5495 8.40639 65.2868C6.69884 63.3161 6.04209 61.3455 6.30479 58.718C6.30479 58.3239 5.77939 58.3239 5.64804 58.5866Z" fill="#653B27"/>
<path d="M8.40638 66.0739C9.45718 66.3366 10.6393 66.0739 11.5588 65.4172C11.8215 65.2858 11.5588 64.7604 11.2961 64.8918C10.3766 65.5485 9.45718 65.6799 8.40638 65.6799C8.27503 65.6799 8.14369 66.0739 8.40638 66.0739Z" fill="#653B27"/>
<path d="M8.93179 60.9509C10.1139 63.5781 11.6901 66.2053 13.3977 68.5698C14.8425 70.6715 16.5501 73.036 18.5203 74.8751C18.783 75.0064 19.1771 74.8751 18.9144 74.6123C17.3382 72.3792 15.3679 70.4088 13.7917 68.0443C12.2155 65.6799 10.902 63.184 9.45719 60.8195C9.32584 60.4255 8.80044 60.6882 8.93179 60.9509Z" fill="#653B27"/>
<path d="M18.6517 75.4007C19.8338 77.765 22.9862 78.4217 25.2191 76.9769C25.7445 76.7142 25.2191 75.9261 24.8251 76.1888C22.7235 77.5023 20.4906 76.8455 18.6517 75.4007C18.6517 75.4007 18.783 75.2693 18.6517 75.4007Z" fill="#653B27"/>
<path d="M23.9056 75.4006C23.6429 75.532 23.6429 75.532 23.3802 75.926C23.2489 76.0574 23.3802 76.3201 23.5116 76.4514C26.4013 77.8963 29.5537 79.0784 32.8374 79.0784C33.3628 79.0784 33.3628 78.2903 32.8374 78.2903C31.1299 78.159 29.4223 77.8963 27.8461 77.3709C27.1894 76.9768 23.9056 76.0574 23.9056 75.4006Z" fill="#653B27"/>
<path d="M28.3715 78.6845C28.5029 79.4726 29.0283 80.1294 29.4223 80.7861C29.8164 81.3115 30.3418 82.0996 30.9985 82.231C31.1299 82.231 31.3926 82.0996 31.2612 81.9683C30.9985 81.3115 30.3418 80.9175 29.9477 80.3921C29.4223 79.7353 29.1596 79.0786 28.5029 78.5532C28.5029 78.4218 28.3715 78.5532 28.3715 78.6845Z" fill="#653B27"/>
<path d="M31.1299 82.3626C34.6763 84.2015 39.4049 84.0701 42.9513 82.2312C43.3454 81.9685 43.0827 81.3118 42.6886 81.5745C38.7482 83.0193 35.4644 83.0193 31.5239 81.8372C30.9985 81.7058 30.7358 82.2312 31.1299 82.3626Z" fill="#653B27"/>
<path d="M42.5573 81.8372C43.7394 82.0999 45.3156 82.3626 46.4978 82.0999C46.7605 82.0999 46.7605 81.5745 46.4978 81.5745C45.3156 81.1804 43.8708 81.3118 42.6886 81.4431C42.426 81.4431 42.426 81.7058 42.5573 81.8372Z" fill="#653B27"/>
<path d="M46.1037 82.6261C50.3069 81.181 54.5101 79.079 58.4506 76.977C58.976 76.7142 58.4506 76.0573 58.0566 76.3201C54.1161 78.4221 50.0442 80.2614 45.9724 82.1006C45.7097 82.232 45.841 82.6261 46.1037 82.6261Z" fill="#653B27"/>
<path d="M58.3193 76.7139C58.582 75.9258 59.1074 75.0064 59.1074 74.0869C59.1074 73.8242 58.7133 73.6929 58.582 73.9556C58.1879 74.7437 58.0566 75.7945 57.7939 76.5826C57.7939 76.9766 58.3193 77.108 58.3193 76.7139Z" fill="#653B27"/>
<path d="M58.7133 74.087C65.1494 74.8752 68.5645 66.9936 72.2423 63.0528C72.6364 62.6587 71.9796 62.0019 71.5856 62.396C67.9078 66.4681 65.0181 73.2989 58.7133 73.5616C58.3193 73.5616 58.3193 74.087 58.7133 74.087Z" fill="#653B27"/>
<path d="M71.9796 62.79C71.8483 62.3959 71.7169 62.0019 71.5856 61.7392C71.4542 61.4765 71.4542 61.0824 71.1915 60.9511C71.0602 60.8197 70.9288 60.9511 70.9288 61.0824C70.7975 61.3451 71.0602 61.7392 71.1915 62.0019C71.3229 62.3959 71.4542 62.6586 71.5856 62.9213C71.5856 63.3154 71.9796 63.0527 71.9796 62.79Z" fill="#653B27"/>
<path d="M70.9288 61.0822C71.3229 60.8195 71.7169 60.5568 72.111 60.1627C72.505 59.9 72.8991 59.6373 73.1618 59.2433C73.2931 58.9806 73.0304 58.8492 72.7677 58.8492C72.3737 58.9806 71.9796 59.3746 71.7169 59.6373C71.3229 59.9 70.9288 60.2941 70.6661 60.6881C70.5348 60.9508 70.6661 61.2135 70.9288 61.0822Z" fill="#653B27"/>
<path d="M73.0304 59.2429C73.2931 58.5861 73.6872 57.9294 73.9499 57.2726C74.2126 56.6159 74.6066 55.9592 74.6066 55.3024C74.6066 55.0397 74.2126 55.0397 74.0812 55.1711C73.6872 55.6965 73.5558 56.3532 73.2931 57.01C73.0304 57.6667 72.7677 58.3234 72.6364 59.1115C72.6364 59.3742 72.8991 59.5056 73.0304 59.2429Z" fill="#653B27"/>
<path d="M74.3439 55.3023C73.9499 54.7769 73.6872 54.2515 73.6872 53.5947C73.6872 53.2007 73.0304 53.332 73.0304 53.7261C73.0304 54.1201 73.1618 54.5142 73.2931 54.9082C73.4245 55.3023 73.8185 55.565 74.0812 55.6963C74.2126 55.6963 74.4753 55.4336 74.3439 55.3023Z" fill="#653B27"/>
<path d="M73.0304 53.5948C75.5261 53.9889 76.1828 50.8363 76.4455 48.9972C76.7082 46.8955 76.9709 44.6624 76.9709 42.5606C77.1023 40.5902 77.2336 38.3571 76.8396 36.3867C76.8396 36.124 76.3142 36.124 76.3142 36.3867C75.9201 38.8825 76.1828 41.5097 76.0515 44.1369C75.9201 46.5014 76.3142 52.8067 73.0304 53.2007C72.7677 53.0694 72.6364 53.5948 73.0304 53.5948Z" fill="#653B27"/>
<path d="M76.4462 36.5186C76.3148 36.1244 76.052 35.7301 75.7892 35.4673C75.6578 35.2045 75.395 34.6789 75.0007 34.9417C74.6065 35.2045 75.0007 35.5987 75.2636 35.8616C75.5264 36.2558 75.7892 36.5186 76.052 36.9128C76.1834 37.0442 76.5777 36.7814 76.4462 36.5186Z" fill="#653B27"/>
<path d="M74.738 39.6706C76.4455 34.9417 73.6872 29.6873 71.8483 25.3524C71.717 24.9583 71.0602 25.2211 71.1916 25.6151C72.8991 30.2127 75.2634 34.5476 74.4753 39.5393C74.4753 39.802 74.738 39.802 74.738 39.6706Z" fill="#653B27"/>
<path d="M71.5856 25.6149C72.111 25.2208 72.2423 24.4327 72.505 23.776C72.6364 23.1192 72.8991 22.3311 72.7677 21.6744C72.7677 21.543 72.505 21.4117 72.3737 21.6744C72.111 22.1998 72.111 22.9879 71.9796 23.6446C71.8483 24.3014 71.4542 24.8268 71.4542 25.4835C71.1915 25.6149 71.4542 25.6149 71.5856 25.6149Z" fill="#653B27"/>
<path d="M72.505 21.8053C72.7677 20.8858 71.9796 19.5723 71.4542 18.9156C70.7975 18.1275 70.0094 17.3394 69.0899 16.9454C68.6959 16.814 68.5645 17.3394 68.8272 17.6021C69.7467 18.1275 70.5348 18.7843 71.0602 19.5723C71.5856 20.2291 71.7169 21.2799 72.2423 21.8053C72.3737 21.9366 72.505 21.9366 72.505 21.8053Z" fill="#653B27"/>
<path d="M69.3526 21.4117C69.2213 18.259 68.1705 15.2377 66.9883 12.3478C66.857 11.9538 66.2002 12.2165 66.3316 12.6106C67.5137 15.5005 68.3018 18.3904 69.0899 21.4117C69.0899 21.6744 69.3526 21.543 69.3526 21.4117Z" fill="#653B27"/>
<path d="M65.8062 12.0851C65.6748 12.0851 65.5435 12.0851 65.4121 12.0851C65.1494 12.0851 65.0181 12.2165 64.7554 12.2165C64.3613 12.2165 64.0986 12.0851 63.7046 12.0851C63.5732 12.0851 63.5732 12.3478 63.5732 12.3478C63.8359 12.7419 64.3613 12.7419 64.7554 12.7419C65.0181 12.7419 65.1494 12.7419 65.4121 12.6105C65.6748 12.6105 65.6748 12.4792 65.9375 12.3478C66.2002 12.3478 66.0689 12.0851 65.8062 12.0851Z" fill="#653B27"/>
<path d="M63.8359 11.9552C63.4419 11.1669 63.0478 10.2473 62.6538 9.45903C62.2597 8.67078 61.997 7.75115 61.3403 7.09427C61.2089 6.9629 60.9462 7.09427 61.0776 7.22565C61.2089 8.0139 61.7343 8.80215 62.1284 9.59041C62.5224 10.3787 62.9165 11.2983 63.4419 12.0865C63.5732 12.3493 63.9673 12.2179 63.8359 11.9552Z" fill="#653B27"/>
<path d="M60.9463 7.09413C60.1582 7.35688 58.582 6.04313 57.9252 5.649C56.7431 4.72937 55.5609 3.67837 54.3788 2.75874C53.0653 1.70774 51.2264 0.525359 49.3875 0.919486C49.2561 0.919486 49.2561 1.18224 49.3875 1.31361C50.9637 1.83911 52.5399 2.23324 53.9847 3.28424C55.1669 4.20387 56.349 5.25487 57.5312 6.1745C58.0566 6.56863 60.5522 8.67064 61.0776 7.22551C61.209 7.09413 61.0776 7.09413 60.9463 7.09413Z" fill="#E1C5A0"/>
<path d="M45.1843 3.15238C46.1037 3.02103 46.8918 2.62699 47.6799 2.23294C48.468 1.83889 49.3875 1.57619 50.0442 0.91944C50.1756 0.78809 50.0442 0.525391 49.7815 0.525391C48.8621 0.65674 48.074 1.18214 47.2859 1.57619C46.4978 1.97024 45.7097 2.36429 45.1843 3.15238C45.0529 3.15238 45.0529 3.02103 45.1843 3.15238Z" fill="#E1C5A0"/>
<path d="M46.8918 3.80914C41.6379 0.656748 34.8077 -1.70755 29.1596 1.70755C28.7656 1.97024 29.1596 2.62699 29.5537 2.36429C35.3331 -1.0508 41.1125 1.83889 46.6291 4.07184C47.0232 4.20319 47.1545 3.94049 46.8918 3.80914Z" fill="#E1C5A0"/>
<path d="M26.0072 3.41507C26.4013 3.28372 27.058 4.07182 27.4521 4.20317C27.8461 4.33452 28.3715 4.33452 28.7656 4.20317C29.4223 3.80912 29.685 3.02102 29.291 2.36428C29.0283 1.97023 28.6342 2.36428 28.7656 2.62698C28.8969 3.02102 28.7656 3.41507 28.3715 3.54642C27.8461 3.67777 27.4521 3.41507 27.1894 3.15237C26.7953 2.88968 26.4013 2.62698 25.8759 2.75833C25.3505 2.75833 25.4818 3.54642 26.0072 3.41507Z" fill="#E1C5A0"/>
<path d="M26.7954 6.96153C30.3418 4.99129 35.3331 4.33454 39.4049 4.33454C43.7395 4.33454 47.5486 5.25399 51.2264 7.48693C51.4891 7.61828 51.6204 7.35558 51.3577 7.22423C47.9426 4.59724 43.4768 3.80914 39.2736 3.80914C34.8077 3.80914 30.4731 4.46589 26.664 6.83018C26.664 6.83018 26.664 6.96153 26.7954 6.96153Z" fill="#E1C5A0"/>
<path d="M32.5747 78.6845C33.7569 80.2607 35.4644 81.5742 37.0406 82.7563C37.3033 82.8877 37.6974 82.4936 37.4347 82.2309C36.6466 81.5742 35.9898 81.0488 35.2017 80.392C34.545 79.7353 33.8882 78.9472 33.1001 78.2904C32.8374 78.1591 32.4434 78.4218 32.5747 78.6845Z" fill="#653B27"/>
<path d="M50.8323 76.5827C51.7518 76.1887 52.8026 75.7946 53.5907 75.1379C53.722 75.0065 53.5907 74.8752 53.4593 74.8752C52.5399 75.1379 51.6204 75.7946 50.701 76.32C50.4383 76.4514 50.5696 76.7141 50.8323 76.5827Z" fill="#653B27"/>
<path d="M55.0355 73.9556C59.3701 71.9852 62.9165 68.4385 65.9375 64.7604C68.4332 61.7392 71.4542 57.4043 71.5856 53.4635C71.5856 53.3321 71.3229 53.2008 71.3229 53.3321C70.5348 55.3025 70.0094 57.2729 69.0899 59.2433C68.0391 61.2137 66.7256 63.1841 65.2808 64.8918C62.3911 68.1758 58.976 71.9852 55.0355 73.9556Z" fill="#653B27"/>
<path d="M72.1111 52.5445C72.2425 52.2817 72.2425 52.1503 72.3739 51.8874C72.5053 51.756 72.5053 51.6246 72.5053 51.3618C72.5053 51.2304 72.3739 51.2304 72.3739 51.3618C72.2425 51.4932 72.1111 51.6246 72.1111 51.756C71.9797 51.8874 71.9797 52.1503 71.8483 52.2817C71.7169 52.5445 71.9797 52.6759 72.1111 52.5445Z" fill="#653B27"/>
<path d="M6.30478 44.7938C7.61828 52.9381 11.6901 60.6883 17.6009 66.4682C23.1175 71.8539 31.5239 76.1888 39.5363 76.1888C40.0616 76.1888 40.0616 75.532 39.5363 75.4006C35.3331 74.8752 31.3926 74.087 27.5834 72.248C23.9056 70.5403 20.6219 68.1759 17.7322 65.2859C12.0842 59.6375 8.53772 52.2813 6.56748 44.6624C6.43613 44.5311 6.30478 44.6624 6.30478 44.7938Z" fill="#653B27"/>
<path d="M9.32582 32.3154C9.85122 30.7389 10.3766 29.2938 11.2961 27.9801C12.0842 26.7977 13.135 25.8781 14.0544 24.6957C14.1858 24.5643 13.9231 24.4329 13.7917 24.4329C11.2961 25.8781 9.58852 29.4252 9.06312 32.1841C8.93177 32.4468 9.32582 32.4468 9.32582 32.3154Z" fill="#965A41"/>
<path d="M51.4891 11.9536C52.9339 11.4282 54.3788 11.1655 55.955 11.2969C56.349 11.2969 56.349 10.7715 55.955 10.6401C54.2474 10.5088 52.6712 10.7715 51.2264 11.5595C50.9637 11.6909 51.2264 12.0849 51.4891 11.9536Z" fill="#A97C50"/>
<path d="M55.6923 11.1656C56.2177 12.2166 56.7431 13.0049 56.8744 14.1873C57.0058 15.2383 56.6117 16.1579 56.4804 17.2089C56.4804 17.3403 56.7431 17.4716 56.8744 17.3403C58.1879 15.6324 57.5312 12.2166 55.955 10.9029C55.955 10.7715 55.5609 11.0342 55.6923 11.1656Z" fill="#A97C50"/>
<path d="M61.4716 20.4919C61.2089 20.0978 61.0776 19.7038 60.8149 19.3097C60.4208 18.9157 60.0268 18.5216 59.6327 18.2589C58.976 17.7335 58.0565 16.9454 57.1371 17.0768C57.0058 17.0768 57.0058 17.3395 57.0058 17.4708C57.2685 17.7335 57.6625 17.8649 58.0565 17.9962C58.4506 18.2589 58.8446 18.3903 59.2387 18.653C59.6327 18.9157 60.0268 19.3097 60.4208 19.5724C60.6835 19.9665 61.0776 20.2292 61.4716 20.4919C61.4716 20.4919 61.3403 20.6232 61.4716 20.4919Z" fill="#B38B64"/>
<path d="M46.8918 9.1952C47.6799 9.4579 48.468 9.58925 49.2561 9.98329C50.1756 10.3773 50.9637 10.9027 51.6204 11.4281C51.8831 11.6908 52.2772 11.2968 52.0145 11.0341C50.701 9.85194 48.5994 8.6698 46.8918 8.9325C46.7605 8.9325 46.7605 9.06385 46.8918 9.1952Z" fill="#B38B64"/>
<path d="M47.1545 31.0009C47.8113 31.5263 48.468 31.9203 49.1248 32.3144C49.7815 32.7084 50.4383 33.2338 51.095 33.2338C51.2264 33.2338 51.3577 33.1025 51.2264 32.9711C50.8323 32.4457 50.0442 32.183 49.3875 31.789C48.7307 31.3949 47.9426 31.0009 47.2859 30.7382C47.1545 30.6068 47.0232 30.8695 47.1545 31.0009Z" fill="#B38B64"/>
<path d="M50.701 32.9713C50.4383 35.0731 49.1248 36.7807 47.8113 38.2257C46.8918 39.4079 45.5783 39.9334 44.5276 40.9843C44.3962 41.1156 44.5275 41.3783 44.6589 41.3783C46.3664 41.3783 47.8113 39.5393 48.7307 38.3571C49.9129 36.7807 51.3577 35.0731 51.2264 32.9713C51.2264 32.5772 50.701 32.7086 50.701 32.9713Z" fill="#653B27"/>
<path d="M44.9216 40.8526C44.0022 40.0645 43.2141 39.4078 42.426 38.4883C42.0319 38.0943 41.6379 37.5689 41.2438 37.0435C40.9811 36.6494 40.8498 36.3867 40.4557 36.2554C40.3244 36.2554 40.193 36.3867 40.193 36.5181C40.193 37.4375 41.3752 38.4883 42.0319 39.0137C42.82 39.8018 43.7394 40.5899 44.7902 41.2467C44.7902 41.5094 45.1843 41.1153 44.9216 40.8526Z" fill="#653B27"/>
<path d="M40.3244 36.1247C42.2946 33.3658 44.3962 31.3952 47.68 30.607C48.074 30.4756 47.9427 29.8187 47.5486 29.9501C44.3962 30.607 41.2438 32.8403 39.9303 35.862C39.6676 36.1247 40.0617 36.3875 40.3244 36.1247Z" fill="#B38B64"/>
<path d="M27.7148 22.0684C27.1894 22.8565 26.7953 23.6446 26.664 24.564C26.5326 25.2208 26.2699 26.2716 26.664 26.797C26.7953 26.9283 27.058 26.9283 27.058 26.797C27.3207 26.1402 27.058 25.3521 27.1894 24.6954C27.3207 23.9073 27.5834 23.1192 27.9775 22.3311C28.2402 22.0684 27.8461 21.937 27.7148 22.0684Z" fill="#B38B64"/>
<path d="M32.1807 30.8704C34.6763 29.8194 36.3839 27.4547 37.172 24.9585C37.3033 24.433 36.6466 24.3016 36.5152 24.8271C35.7271 27.1919 34.2823 29.0312 32.0493 30.4763C31.7866 30.6077 31.918 31.0018 32.1807 30.8704Z" fill="#653B27"/>
<path d="M27.8461 22.3311C31.3926 21.4116 34.1509 22.4624 36.7779 24.9581C37.0406 25.2208 37.566 24.8267 37.3033 24.564C35.2017 21.6743 30.9985 20.6235 27.7148 21.937C27.4521 22.0684 27.4521 22.4624 27.8461 22.3311Z" fill="#B38B64"/>
<path d="M41.5065 13.6614C40.8497 14.0555 40.587 14.8435 40.4557 15.5003C40.193 16.157 39.9303 17.0765 40.193 17.6019C40.3243 17.7332 40.4557 17.7332 40.587 17.6019C40.9811 17.0765 40.8497 16.4197 41.1124 15.763C41.3751 15.1062 41.6378 14.4495 41.9005 13.7928C41.7692 13.6614 41.6378 13.5301 41.5065 13.6614Z" fill="#B38B64"/>
<path d="M40.0617 17.208C40.4557 18.5215 42.1632 19.1782 43.3454 18.3901C43.8708 17.9961 44.2648 17.3393 44.3962 16.6826C44.5275 16.1572 44.5275 15.2377 44.0021 14.975C43.8708 14.975 43.7394 14.975 43.7394 15.1064C43.6081 15.5004 43.8708 15.8945 43.8708 16.2885C43.8708 16.8139 43.6081 17.4707 43.214 17.7334C42.2946 18.6528 41.1125 17.8647 40.4557 17.0766C40.193 16.9453 39.9303 17.0766 40.0617 17.208Z" fill="#B38B64"/>
<path d="M21.8041 32.971C23.2489 32.3143 24.5624 31.6575 26.0072 31.1321C27.3207 30.6067 28.6342 30.344 29.8164 29.8186C30.0791 29.6873 30.0791 29.1619 29.685 29.1619C26.9267 29.4246 23.7743 31.0008 21.6727 32.7083C21.41 32.8397 21.5414 33.1024 21.8041 32.971Z" fill="#B38B64"/>
<path d="M28.1088 54.2524C28.7656 52.2818 29.685 50.4425 30.8672 48.6033C31.1299 48.3405 30.6045 47.9464 30.3418 48.3405C29.1596 50.0484 28.1088 52.019 27.5834 54.121C27.5834 54.3838 27.9775 54.5152 28.1088 54.2524Z" fill="#B38B64"/>
<path d="M30.7358 48.3405C33.3628 49.5229 35.7271 51.0994 37.6974 53.2014C38.0914 53.5955 38.4855 53.07 38.2228 52.6759C36.1212 50.5739 33.7569 48.866 30.8672 47.815C30.6045 47.6836 30.3418 48.2091 30.7358 48.3405Z" fill="#B38B64"/>
<path d="M43.4767 62.6586C44.7902 63.7094 46.8918 65.1543 48.7307 65.0229C48.8621 65.0229 48.9934 64.7602 48.8621 64.6289C48.074 64.2348 47.2859 64.1035 46.4978 63.8408C45.5783 63.4467 44.5275 62.9213 43.7394 62.3959C43.4767 62.3959 43.3454 62.5273 43.4767 62.6586Z" fill="#653B27"/>
<path d="M48.8621 65.1545C51.8831 63.4468 53.722 60.0315 53.9847 56.7475C53.9847 56.3534 53.328 56.222 53.328 56.6161C52.8026 59.9001 51.3577 62.6587 48.5994 64.7604C48.3367 64.8918 48.468 65.2859 48.8621 65.1545Z" fill="#653B27"/>
<path d="M46.1037 58.4549C49.7815 57.1414 53.1966 56.0907 57.1371 56.0907C57.6625 56.0907 57.6625 55.3026 57.1371 55.3026C53.328 55.3026 49.2561 56.0907 45.9724 58.1922C45.841 58.1922 45.9724 58.4549 46.1037 58.4549Z" fill="#B38B64"/>
<path d="M60.9463 43.8741C60.6836 44.6622 60.5522 45.319 60.8149 46.1071C60.9462 46.6325 61.2089 47.5519 61.8657 47.6833C61.997 47.6833 62.1284 47.5519 62.1284 47.4206C61.997 46.8952 61.603 46.3698 61.4716 45.8444C61.3403 45.1876 61.209 44.5309 61.3403 43.8741C61.209 43.7428 60.9463 43.7428 60.9463 43.8741Z" fill="#653B27"/>
<path d="M61.603 47.5523C62.6538 48.0776 63.8359 48.4717 64.8867 48.8657C65.2808 48.9971 65.4121 48.3403 65.0181 48.209C63.9673 47.8149 62.7851 47.4209 61.7343 47.1582C61.4717 47.1582 61.3403 47.4209 61.603 47.5523Z" fill="#653B27"/>
<path d="M65.6748 48.4726C66.9883 46.6333 67.6451 44.5313 67.6451 42.4293C67.6451 41.9038 66.857 41.9038 66.857 42.4293C66.857 44.5313 66.2002 46.5019 65.1494 48.2098C65.0181 48.6039 65.4121 48.7353 65.6748 48.4726Z" fill="#653B27"/>
<path d="M67.3824 42.8231C65.9375 41.3783 63.5732 41.2469 61.8657 42.2977C61.4717 42.5604 61.8657 43.2172 62.2598 42.9545C63.836 42.035 65.5435 42.1664 67.1197 43.0858C67.3824 43.2172 67.5137 42.9545 67.3824 42.8231Z" fill="#653B27"/>
<path d="M61.3403 44.2681C61.603 43.8741 61.7343 43.48 61.997 43.086C62.2597 42.8233 62.5224 42.4292 62.6538 42.1665C62.6538 42.0352 62.5224 41.9038 62.3911 42.0352C61.997 42.1665 61.7343 42.6919 61.603 42.9546C61.3403 43.3487 61.2089 43.7427 61.0776 44.2681C60.9462 44.3995 61.3403 44.5308 61.3403 44.2681Z" fill="#653B27"/>
<path d="M13.529 41.6411C12.6096 44.2686 12.3469 46.7647 12.8723 49.5236C13.0036 50.0491 13.6604 49.7864 13.6604 49.2609C13.2663 46.7647 13.2663 44.1372 13.7917 41.6411C13.7917 41.6411 13.6604 41.5097 13.529 41.6411Z" fill="#B38B64"/>
<path d="M13.7917 50.3108C14.8425 50.5735 15.762 51.2302 16.8128 51.7556C17.0755 51.887 17.4695 51.4929 17.2068 51.2302C16.2874 50.4421 15.1052 50.1794 13.9231 49.9167C13.6604 49.9167 13.529 50.1794 13.7917 50.3108Z" fill="#653B27"/>
<path d="M17.3381 51.7568C18.9143 49.2607 20.3592 46.6332 21.5413 44.0057C21.6727 43.6116 21.2786 43.3488 21.0159 43.7429C19.5711 46.2391 18.1262 48.998 16.9441 51.6255C16.9441 51.7568 17.2068 52.0196 17.3381 51.7568Z" fill="#653B27"/>
<path d="M13.6604 41.2469C13.9231 41.1156 14.7112 41.2469 14.9739 41.2469C15.6306 41.2469 16.4187 41.2469 17.0755 41.3783C18.389 41.5096 19.5711 41.9037 20.7533 42.2977C21.2787 42.4291 21.41 41.7723 21.016 41.5096C19.9652 41.1156 18.783 40.8529 17.7322 40.7215C16.6814 40.5902 14.8425 40.3275 13.9231 40.7215C13.529 40.8529 12.8723 41.3783 13.529 41.641H13.6604C13.6604 41.641 13.7917 41.641 13.7917 41.5096C14.0544 41.5096 13.9231 41.2469 13.6604 41.2469Z" fill="#B38B64"/>
<path d="M53.0653 1.97033C56.349 2.1017 59.37 3.67821 62.2597 4.86059C65.4121 6.04297 67.7764 7.61947 70.4034 9.85285C70.5348 9.98423 70.6661 9.85285 70.5348 9.72148C68.3018 7.61947 65.9375 6.04297 63.0478 4.86059C59.8954 3.67821 56.4804 1.70758 53.0653 1.83895C52.9339 1.83895 52.9339 1.97033 53.0653 1.97033Z" fill="#E1C5A0"/>
<path d="M70.6661 10.1147C70.6661 11.0341 70.9288 11.8222 71.3229 12.6103C71.4542 12.7417 71.5856 12.6103 71.5856 12.479C71.1915 11.6909 70.9288 10.9028 70.9288 10.1147C70.9288 9.98334 70.6661 9.98334 70.6661 10.1147Z" fill="#653B27"/>
<path d="M71.9796 12.8732C74.6066 15.5004 77.2336 17.9963 79.0725 21.4116C80.78 24.6956 81.5681 28.2423 82.3562 31.7891C82.3562 31.9204 82.7503 31.9204 82.6189 31.6577C81.8308 28.111 80.9114 24.5643 79.3352 21.2803C77.6277 17.8649 75.0007 15.1064 71.9796 12.8732C71.9796 12.7419 72.111 12.6105 71.9796 12.8732Z" fill="#653B27"/>
<path d="M81.9622 32.1832C81.5681 35.4672 83.013 38.8825 83.2757 42.2979C83.5384 45.8446 83.1443 49.5227 82.3562 52.938C80.6487 59.9001 77.1023 66.3367 72.3737 71.5911C72.111 71.8539 72.505 72.1166 72.7677 71.9852C77.365 66.8622 80.9114 60.6883 82.6189 53.9889C83.407 50.8363 83.9324 47.4209 83.8011 44.1369C83.8011 42.4292 83.6697 40.8529 83.407 39.1452C83.013 36.7808 82.2249 34.5477 82.3562 32.1832C82.2249 32.0518 81.9622 31.9205 81.9622 32.1832Z" fill="#462411"/>
<path d="M72.3736 71.9852C69.6153 71.9852 69.7467 74.7438 68.1705 76.3201C66.2002 78.5532 63.0478 79.7355 60.2895 80.655C57.9252 81.4431 55.2982 82.0999 52.8026 82.3627C48.074 83.0195 43.4767 82.7567 38.7481 83.1508C38.6168 83.1508 38.6168 83.4135 38.7481 83.4135C45.5783 83.6763 52.8026 83.2822 59.5014 81.3118C61.997 80.5236 64.4927 79.6041 66.5943 78.1591C67.5137 77.5023 68.3018 76.8455 68.8272 76.0574C69.878 74.6124 70.0094 72.3793 72.2423 72.248C72.505 72.248 72.505 71.9852 72.3736 71.9852Z" fill="#462411"/>
<path d="M66.4629 78.2908C68.3018 79.6046 70.1407 80.2615 72.3737 80.5242C75.3947 80.9183 78.4158 81.0497 81.4368 81.5752C87.4789 82.7576 93.2583 81.9693 99.4317 81.4438C102.584 81.1811 105.868 81.0497 109.02 81.0497C111.91 81.0497 114.931 80.787 117.821 81.0497C120.185 81.3125 122.155 81.4438 124.388 80.2615C126.621 79.0791 128.723 77.5026 130.43 75.6633C130.562 75.532 130.43 75.4006 130.299 75.532C128.46 77.3712 126.358 78.9477 123.994 80.1301C121.236 81.4438 118.74 80.6556 115.85 80.5242C110.202 80.2615 104.292 80.787 98.775 81.1811C96.0166 81.4438 93.3896 81.7066 90.6313 81.838C87.4789 82.1007 84.4578 81.7066 81.3055 81.1811C76.4455 80.2615 71.0602 80.9183 66.857 78.0281C66.4629 77.8967 66.3316 78.1595 66.4629 78.2908Z" fill="#653B27"/>
<path d="M117.033 65.5486C119.003 65.5486 120.71 66.074 122.681 66.4681C123.206 66.5994 123.731 66.7308 124.257 66.8622C125.045 66.8622 125.57 67.3876 125.964 68.1758C126.096 68.3071 126.227 68.5698 126.49 68.7012C127.409 69.4894 128.46 69.6207 129.379 70.6716C130.43 71.9852 130.299 73.4301 130.43 75.0065C130.43 75.4005 130.956 75.4005 130.956 75.0065C131.087 73.5615 130.956 72.1165 130.168 70.9343C129.248 69.4894 128.066 69.358 126.884 68.4385C126.49 68.0444 126.358 67.2562 125.833 66.8622C125.176 66.3367 124.257 66.3367 123.6 66.074C121.498 65.5486 119.134 64.4977 117.033 64.8918C116.638 65.1545 116.77 65.5486 117.033 65.5486Z" fill="#653B27"/>
<path d="M116.245 65.0232C116.245 65.0232 116.114 65.0232 116.114 65.1546L115.982 65.286C115.851 65.4174 115.719 65.5488 115.719 65.6802C115.588 65.943 115.325 66.2059 115.194 66.4687C115.062 66.7315 115.456 67.1257 115.719 66.8629C115.982 66.6001 116.114 66.3373 116.245 66.0744C116.376 65.943 116.376 65.8116 116.508 65.6802C116.508 65.5488 116.639 65.5488 116.639 65.4174V65.286C116.639 65.0232 116.376 64.8918 116.245 65.0232Z" fill="#653B27"/>
<path d="M115.588 66.5995C113.617 66.8622 111.779 67.5189 109.808 67.913C107.707 68.307 105.736 67.2562 103.635 67.2562C103.241 67.2562 103.241 67.913 103.635 67.913C105.605 67.7816 107.313 68.9638 109.283 68.7011C111.385 68.4384 113.749 67.7816 115.719 67.1249C115.85 66.9935 115.85 66.5995 115.588 66.5995Z" fill="#653B27"/>
<path d="M104.16 67.6501C104.948 67.1247 105.736 66.4679 106.393 65.9425C107.05 65.2858 107.969 64.7604 108.495 63.9723C108.626 63.7096 108.363 63.5782 108.101 63.5782C107.313 63.9723 106.656 64.7604 105.999 65.2858C105.211 65.9425 104.423 66.5993 103.766 67.256C103.766 67.5187 104.029 67.7814 104.16 67.6501Z" fill="#653B27"/>
<path d="M107.838 64.2349C110.465 64.7603 113.092 65.2857 115.325 66.9933C115.588 67.1246 115.85 66.7306 115.719 66.5992C113.617 64.7603 110.728 64.2349 108.101 63.8409C107.575 63.7095 107.444 64.1036 107.838 64.2349Z" fill="#653B27"/>
<path d="M102.584 67.5188C101.008 67.9129 100.482 66.7307 99.3004 66.2053C98.6436 65.9426 98.1182 65.8113 97.4615 65.8113C95.3599 65.6799 93.1269 65.4172 90.894 65.4172C88.5297 65.5486 86.1654 65.9426 83.8011 66.2053C81.3054 66.468 78.6785 66.5994 76.1828 66.8621C75.6574 66.8621 75.6574 67.6502 76.1828 67.6502C78.9412 67.3875 81.6995 67.2561 84.5892 66.9934C87.2162 66.7307 89.8432 66.2053 92.3388 66.3367C94.8345 66.468 97.9869 66.3367 100.088 67.7815C101.008 68.4383 101.927 68.8323 102.847 68.0442C102.978 67.7815 102.847 67.5188 102.584 67.5188Z" fill="#653B27"/>
<path d="M83.1443 69.2267C82.619 69.7521 82.2249 70.6715 82.3563 71.4596C82.3563 71.7223 82.8816 71.7223 82.8816 71.4596C82.8816 71.0656 82.8817 70.8029 83.013 70.4088C83.1444 70.0148 83.2757 69.7521 83.4071 69.358C83.5384 69.358 83.407 69.0953 83.1443 69.2267Z" fill="#653B27"/>
<path d="M82.0935 71.8538C83.8011 73.1673 85.7713 74.2181 87.7416 74.8748C88.0043 75.0062 88.1356 74.6121 87.8729 74.4808C85.9027 73.5613 84.0638 72.6419 82.2249 71.5911C82.0935 71.4597 81.8308 71.7224 82.0935 71.8538Z" fill="#653B27"/>
<path d="M88.1356 75.0073C90.7626 74.6131 94.4404 72.3797 94.7031 69.3581C94.7031 69.0954 94.4404 69.0954 94.3091 69.2267C93.521 70.4091 93.1269 71.5915 91.9448 72.6425C90.7626 73.6935 89.4491 74.219 88.0043 74.6131C87.7416 74.6131 87.8729 75.1386 88.1356 75.0073Z" fill="#653B27"/>
<path d="M83.407 69.6206C85.2459 69.4893 87.0848 69.0952 88.9237 69.0952C90.7626 69.0952 92.6015 69.4893 94.4404 69.4893C94.7031 69.4893 94.7031 69.0952 94.4404 68.9639C91.288 67.6504 86.4281 67.9131 83.2757 69.0952C83.1444 69.2266 83.1443 69.6206 83.407 69.6206Z" fill="#653B27"/>
<path d="M100.22 71.3284C99.8258 71.5911 99.4317 71.9852 99.3004 72.5106C99.3004 72.9046 99.3004 73.6927 99.8258 73.824C99.9571 73.824 100.088 73.824 100.088 73.6927C100.22 73.2986 99.9571 73.0359 99.9571 72.6419C99.9571 72.2478 100.088 71.8538 100.482 71.5911C100.482 71.4598 100.351 71.1971 100.22 71.3284Z" fill="#653B27"/>
<path d="M99.8257 73.5613C100.877 73.5613 101.402 74.7435 102.584 74.2181C103.504 73.824 103.898 72.7732 104.16 71.8538C104.292 71.5911 104.029 71.4597 103.766 71.5911C103.241 71.8538 102.453 70.6716 101.927 70.6716C101.139 70.5403 100.614 71.3284 100.22 71.9851C100.088 72.2478 100.482 72.5105 100.745 72.2478C101.139 71.7224 101.533 71.0657 102.321 71.3284C102.584 71.4597 102.847 71.7224 103.109 71.8538C103.504 72.1165 103.766 72.2478 104.16 71.9851C104.029 71.8538 103.898 71.8538 103.766 71.7224C103.504 72.6419 102.978 74.0867 101.665 73.824C101.008 73.6927 100.614 73.1673 99.9571 73.1673C99.563 73.2986 99.563 73.5613 99.8257 73.5613Z" fill="#653B27"/>
<path d="M103.898 78.1589C108.626 77.8962 113.355 77.1081 118.083 76.9767C121.63 76.8454 126.49 77.7648 129.642 75.926C130.036 75.6633 129.773 75.1379 129.379 75.2692C125.308 76.5827 120.842 76.1887 116.507 76.32C112.304 76.5827 107.838 76.7141 103.766 77.7648C103.635 77.7648 103.635 78.1589 103.898 78.1589Z" fill="#653B27"/>
<path d="M82.4876 53.0692C85.7713 52.8065 88.9237 52.4125 92.3388 52.2811C95.6226 52.2811 99.0377 52.4125 102.321 52.5438C109.152 52.6752 116.244 52.6752 123.075 53.5946C123.469 53.5946 123.731 52.9379 123.206 52.9379C116.507 51.7557 109.414 52.1498 102.715 51.7557C96.148 51.493 88.7924 50.5736 82.4876 52.6752C82.2249 52.6752 82.2249 53.0692 82.4876 53.0692Z" fill="#E1C5A0"/>
<path d="M122.943 53.5947C124.125 53.5947 125.176 55.1709 125.702 55.959C126.358 56.7471 126.752 57.7979 127.409 58.4547C127.541 58.586 127.803 58.4547 127.803 58.3233C127.541 57.1412 126.358 55.8277 125.57 54.9082C124.914 54.1201 124.125 53.2007 122.943 53.4634C122.812 53.332 122.812 53.5947 122.943 53.5947Z" fill="#653B27"/>
<path d="M127.278 58.1924C126.752 59.5062 126.358 60.82 125.57 62.0023C124.782 63.1847 123.863 64.2357 123.075 65.2867C122.943 65.4181 123.206 65.6808 123.337 65.5495C125.439 63.8416 126.884 60.82 127.278 58.1924C127.409 58.1924 127.409 58.1924 127.278 58.1924Z" fill="#653B27"/>
<path d="M79.8606 60.0314C80.2546 61.0822 80.6487 61.8703 81.5681 62.6584C81.6995 62.7898 81.8308 62.7898 81.9622 62.6584C83.1443 62.0017 83.6697 60.9509 84.4578 59.9001C84.3265 59.9001 84.0638 59.9001 83.9324 59.9001C84.1951 60.4255 84.5892 60.6882 85.1146 60.6882C86.034 60.6882 87.0848 60.1628 88.0043 60.0314C88.7924 60.0314 89.7118 60.1628 90.4999 60.1628C90.7626 60.1628 90.7626 59.9001 90.6313 59.7687C89.8432 59.3747 88.9237 59.2433 88.0043 59.3747C87.2162 59.3747 84.9832 60.2941 84.5892 59.506C84.4578 59.2433 84.1951 59.3747 84.0638 59.506C83.6697 60.0314 83.2757 61.0822 82.6189 61.4763C81.4368 62.2644 80.78 60.6882 80.386 59.7687C80.1233 59.6374 79.8606 59.9001 79.8606 60.0314Z" fill="#653B27"/>
<path d="M89.4491 60.8195C92.4702 60.9509 95.4912 60.9509 98.6436 60.9509C101.665 60.9509 104.948 59.7687 107.838 60.2941C108.101 60.2941 108.232 59.9001 107.969 59.9001C105.211 59.112 102.059 60.1628 99.3004 60.2941C96.0166 60.4255 92.7329 60.4255 89.4491 60.4255C89.1864 60.5568 89.1864 60.8195 89.4491 60.8195Z" fill="#653B27"/>
<path d="M108.363 59.6371C108.758 59.1117 109.152 58.5863 109.677 58.0609C109.94 57.7982 110.202 57.6669 110.465 57.4042C110.728 57.2728 110.99 57.2728 111.122 57.0101C111.122 56.8788 111.122 56.7474 110.99 56.7474C110.465 56.6161 109.677 57.2728 109.283 57.6669C108.758 58.1923 108.364 58.7177 108.101 59.5058C107.969 59.7685 108.232 59.7685 108.363 59.6371Z" fill="#653B27"/>
<path d="M111.122 57.0102C112.829 57.7983 114.406 58.7177 115.982 59.7685C115.982 59.6372 115.982 59.3745 116.113 59.2431C115.062 59.6372 114.012 59.8999 112.829 60.0312C111.779 60.1626 109.283 60.688 108.363 59.8999C108.232 59.7685 107.969 59.8999 107.969 60.0312C108.101 61.082 109.546 60.9507 110.334 60.8193C112.304 60.8193 114.274 60.4253 116.244 59.7685C116.507 59.6372 116.507 59.3745 116.376 59.2431C114.8 58.3237 113.092 57.5356 111.385 56.7475C110.99 56.6161 110.859 56.8788 111.122 57.0102Z" fill="#653B27"/>
<path d="M117.821 59.2432C120.71 59.8999 124.257 59.5059 126.884 58.061C127.015 57.9297 126.884 57.667 126.752 57.667C123.731 58.8491 121.104 59.2432 117.821 58.9805C117.689 59.1118 117.689 59.2432 117.821 59.2432Z" fill="#653B27"/>
<path d="M120.185 52.0185C122.681 48.7345 125.964 41.9038 120.973 39.1453C120.842 39.1453 120.71 39.2766 120.842 39.2766C122.943 41.1157 123.6 43.3488 122.943 46.1073C122.287 48.0777 121.236 50.1795 120.185 52.0185C120.054 52.0185 120.054 52.0185 120.185 52.0185Z" fill="#653B27"/>
<path d="M97.0674 36.1237C97.4615 35.467 97.9869 34.8102 98.6436 34.2848C99.3004 33.7594 100.088 33.6281 100.745 33.1027C100.877 32.9713 100.877 32.84 100.614 32.84C99.8258 32.84 98.9063 33.4967 98.2496 33.8908C97.4615 34.4162 96.9361 35.0729 96.6734 35.9924C96.542 36.1237 96.9361 36.2551 97.0674 36.1237Z" fill="#653B27"/>
<path d="M100.22 33.234C103.766 34.0221 106.919 35.3356 109.94 37.1745C110.334 37.4372 110.596 36.9118 110.334 36.6491C107.444 34.5475 103.898 33.3653 100.351 33.1026C100.088 32.9713 100.088 33.234 100.22 33.234Z" fill="#653B27"/>
<path d="M88.7924 45.5817C99.4317 42.4294 109.94 47.552 120.579 47.552C120.842 47.552 120.842 47.1579 120.579 47.1579C109.94 46.7639 99.3004 42.1667 88.661 45.319C88.5297 45.4504 88.661 45.7131 88.7924 45.5817Z" fill="#653B27"/>
<path d="M9.71987 78.5532C9.06312 79.0786 8.66907 79.604 8.27502 80.2608C8.01233 80.7862 7.61828 81.5743 7.88098 82.231C7.88098 82.3624 8.14368 82.3624 8.27502 82.231C8.66907 81.837 8.80042 81.0489 9.06312 80.5235C9.19447 79.8667 9.58852 79.3413 9.98257 78.8159C10.1139 78.5532 9.85122 78.4219 9.71987 78.5532Z" fill="#653B27"/>
<path d="M7.48693 82.888C7.88098 83.5448 8.40638 84.0702 9.06313 84.5956C9.58853 84.9896 10.3766 85.6464 11.1647 85.515C11.4274 85.515 11.5588 85.2523 11.2961 85.121C10.7707 84.7269 10.1139 84.5956 9.58853 84.2015C8.93178 83.8075 8.40638 83.1507 7.88098 82.6253C7.61828 82.494 7.35558 82.6253 7.48693 82.888Z" fill="#653B27"/>
<path d="M11.8215 85.515C12.8723 85.2523 13.7917 84.9896 14.5798 84.3329C15.2366 83.9388 16.156 83.4134 16.4187 82.6253C16.4187 82.494 16.2874 82.3626 16.156 82.3626C15.3679 82.6253 14.8425 83.4134 14.0544 83.8075C13.2663 84.3329 12.4782 84.7269 11.6901 85.121C11.5588 85.2523 11.6901 85.6464 11.8215 85.515Z" fill="#653B27"/>
<path d="M9.32585 79.0786C10.1139 79.3413 11.1647 79.2099 12.0842 79.3413C13.135 79.4726 14.0544 79.8667 15.1052 80.2607C15.4993 80.3921 15.762 79.8667 15.3679 79.7353C14.3171 79.2099 13.2663 78.8159 12.2155 78.6845C11.2961 78.5532 10.1139 78.4218 9.32585 79.0786C9.32585 78.9472 9.32585 78.9472 9.32585 79.0786Z" fill="#653B27"/>
<path d="M14.9739 79.8668C15.2366 80.5236 15.4993 81.1803 15.762 81.8371C15.8933 82.3625 15.8933 83.0192 16.2874 83.5446C16.4187 83.676 16.5501 83.676 16.6814 83.5446C16.9441 83.0192 16.6814 82.2311 16.4187 81.5744C16.156 80.9176 15.8933 80.2609 15.4993 79.6041C15.2366 79.4728 14.8425 79.6041 14.9739 79.8668Z" fill="#653B27"/>
<path d="M1.3135 83.4135C0.656748 84.0702 0.262699 84.5956 0 85.5151C0 85.6464 0 85.9091 0.13135 85.9091C1.18215 86.4345 3.02104 86.9599 4.07184 86.3032C4.20319 86.1718 4.20319 86.0405 4.07184 85.9091C3.54644 85.7778 3.02104 85.9091 2.49564 85.7778C1.8389 85.6464 1.18215 85.5151 0.525399 85.121C0.525399 85.2524 0.656748 85.3837 0.656748 85.5151C0.788098 84.727 1.18215 84.0702 1.5762 83.4135C1.70755 83.4135 1.44485 83.2821 1.3135 83.4135Z" fill="#653B27"/>
<path d="M1.3135 84.3329C2.49564 84.3329 3.54644 84.4643 4.72859 84.3329C5.12264 84.3329 5.12264 83.8075 4.72859 83.8075C3.67779 83.6762 2.49564 83.8075 1.3135 83.8075C0.919447 83.8075 0.919447 84.3329 1.3135 84.3329Z" fill="#653B27"/>
<path d="M4.33454 84.333C4.85994 84.8584 5.38534 85.3838 5.91074 85.7779C5.91074 85.6465 5.91074 85.5152 5.91074 85.3838C5.51669 85.6465 5.25399 85.9092 4.85994 86.0406C4.59724 86.3033 4.20319 86.3033 3.94049 86.6973C3.94049 86.6973 3.94049 86.96 4.07184 86.96C4.46589 86.96 4.72859 86.8287 5.12264 86.6973C5.51669 86.4346 5.91074 86.1719 6.30479 85.9092C6.43613 85.7779 6.56748 85.6465 6.30479 85.5152C5.64804 84.9898 5.12264 84.5957 4.46589 84.2017C4.33454 84.0703 4.20319 84.2017 4.33454 84.333Z" fill="#653B27"/>
<path d="M17.6008 84.8585C17.2068 85.3839 17.2068 86.172 17.7322 86.6974C18.2576 87.2228 19.0457 87.0914 19.5711 86.566C19.9651 86.0406 19.9651 85.2525 19.3084 84.9898C18.9143 84.7271 17.8635 84.7271 17.8635 85.3839C17.8635 85.5152 17.9949 85.5152 17.9949 85.5152C18.2576 85.5152 18.5203 85.2525 18.783 85.3839C19.0457 85.5152 19.177 85.7779 18.9143 86.0406C18.6516 86.3033 18.2576 86.4347 17.9949 86.172C17.7322 85.9093 17.7322 85.6466 17.8635 85.2525C18.2576 84.9898 17.8635 84.5958 17.6008 84.8585Z" fill="#653B27"/>
<path d="M88.9237 40.4587C89.8432 41.5095 90.6313 42.1663 91.9448 42.5603C92.0761 42.5603 92.2075 42.5603 92.2075 42.4289C92.9956 41.7722 93.7837 40.9841 94.7031 40.3274C95.0972 39.9333 95.7539 39.5393 95.7539 39.0139C95.7539 38.3571 95.0972 37.9631 94.7031 38.4885C94.5718 38.6198 94.7031 38.7512 94.8345 38.7512C94.8345 39.0139 94.7031 39.4079 94.7031 39.6706C94.5718 39.802 94.4404 39.802 94.3091 39.9333C94.1777 40.196 93.7837 40.3274 93.6523 40.4587C93.2583 40.8528 92.6015 41.6409 92.0761 41.6409C91.288 41.7722 89.8432 40.5901 89.1864 40.0647C88.9237 40.196 88.9237 40.3274 88.9237 40.4587Z" fill="#653B27"/>
<path d="M91.9448 38.7512C91.288 38.8826 90.7626 39.0139 90.2372 39.5393C89.9745 39.802 89.3178 40.5901 89.5805 41.1155C89.7118 41.2469 89.8432 41.2469 89.8432 41.1155C89.9745 40.9842 89.9745 40.8528 90.1059 40.5901C90.2372 40.3274 90.3686 40.0647 90.4999 39.802C90.894 39.2766 91.288 38.8826 91.9448 38.7512Z" fill="#653B27"/>
<path d="M113.617 38.6198C113.88 39.6706 114.668 40.59 115.325 41.3781C115.719 41.9035 116.244 42.6916 117.033 42.823C117.689 42.9543 117.952 42.6916 118.083 42.1662C118.346 41.1154 118.609 39.9333 118.609 38.8825C118.609 38.6198 118.215 38.4884 118.083 38.7511C117.952 39.5392 117.952 40.196 117.821 40.9841C117.821 41.2468 117.689 42.0349 117.558 42.1662C117.033 42.5603 116.507 41.9035 116.244 41.6408C115.456 40.59 114.931 39.1452 113.88 38.4884C113.749 38.3571 113.617 38.4884 113.617 38.6198Z" fill="#653B27"/>
<path d="M81.9622 34.4163C82.8816 34.679 83.6697 34.5476 84.5892 34.679C85.5086 34.8103 86.2967 35.2044 87.0848 35.4671C87.3475 35.5984 87.4789 35.2044 87.2162 35.073C86.4281 34.5477 85.3773 34.4163 84.4578 34.1536C83.5384 34.0223 82.7503 33.7596 81.8308 33.8909C81.6995 34.0223 81.6995 34.285 81.9622 34.4163Z" fill="#653B27"/>
<path d="M86.9535 35.4673C87.0849 35.5987 87.2163 35.8615 87.2163 35.9929C87.3478 36.1243 87.4792 36.2557 87.6106 36.5186C87.8734 36.7814 88.1362 37.1756 88.5304 37.4384C88.7933 37.5698 89.0561 37.4384 88.9247 37.1756C88.6618 36.7814 88.399 36.5186 88.0048 36.2557C87.8734 36.1243 87.742 35.9929 87.6106 35.8615C87.4792 35.7301 87.2164 35.5987 87.0849 35.4673C86.9535 35.2045 86.8221 35.3359 86.9535 35.4673Z" fill="#653B27"/>
<path d="M26.664 27.5855C27.5834 28.2423 28.3715 28.7677 29.291 29.4244C30.0791 29.9498 30.8672 30.6065 31.7866 30.8692C32.0493 30.8692 32.1807 30.6066 32.0493 30.4752C31.3926 29.8185 30.4731 29.2931 29.685 28.899C28.7656 28.3736 27.8461 27.8482 26.9267 27.3228C26.5326 27.0601 26.4013 27.4542 26.664 27.5855Z" fill="#653B27"/>
<path d="M24.2997 53.9889C28.1088 54.2516 31.3926 57.0099 35.2017 56.6159C35.7271 56.6159 35.7271 55.8278 35.2017 55.8278C31.3926 55.9591 28.1088 53.0694 24.2997 53.4635C23.9056 53.5948 23.9056 53.9889 24.2997 53.9889Z" fill="#B38B64"/>
<path d="M35.4644 56.2227C36.6466 55.5659 37.4347 54.3835 38.4854 53.5952C39.6676 52.5442 40.9811 51.756 42.4259 51.0991C42.82 50.8364 42.4259 50.1795 42.0319 50.4422C40.587 51.0991 39.4049 52.0187 38.0914 52.9384C37.0406 53.7266 35.7271 54.7776 35.2017 56.0914C35.2017 56.2227 35.3331 56.3541 35.4644 56.2227Z" fill="#B38B64"/>
<path d="M51.095 11.4282C50.8323 12.7417 50.8323 14.3179 51.2264 15.6314C51.3577 15.8941 51.7518 15.8941 51.7518 15.5C51.7518 14.1865 51.6204 12.873 51.6204 11.4282C51.6204 11.1655 51.2264 11.0342 51.095 11.4282Z" fill="#653B27"/>
<path d="M51.3577 15.8945C52.6712 16.9453 55.1669 17.9961 56.7431 17.208C56.8744 17.0766 56.8744 16.8139 56.7431 16.8139C55.955 16.5512 55.0355 16.6826 54.2474 16.5512C53.328 16.2885 52.5399 15.8945 51.6204 15.5004C51.4891 15.3691 51.2264 15.7631 51.3577 15.8945Z" fill="#653B27"/>
<path d="M3.28374 52.4126C3.41509 55.9593 5.64803 59.1119 8.66907 60.8196C9.19447 61.0823 9.71987 60.2941 9.19447 60.0314C6.17343 58.3237 4.72858 55.5652 3.80914 52.4126C3.67779 52.1498 3.28374 52.1498 3.28374 52.4126Z" fill="#E1C5A0"/>
<path d="M120.316 38.8823C107.969 36.518 96.0166 35.0731 83.5384 37.7001C83.013 37.8315 83.1443 38.7509 83.8011 38.6196C89.8432 37.4374 95.8853 36.912 102.059 37.1747C108.101 37.4374 114.143 38.4882 120.185 39.4077C120.448 39.4077 120.579 39.0136 120.316 38.8823Z" fill="#E1C5A0"/>
</svg>
