<svg width="180" height="179" viewBox="0 0 180 179" fill="none" xmlns="http://www.w3.org/2000/svg">
<g clip-path="url(#clip0)">
<path d="M44.3544 165.173C75.4626 158.551 107.448 157.087 139.031 160.841C141.135 161.09 141.116 157.781 139.031 157.532C107.124 153.768 74.8162 155.273 43.3981 161.989C41.3229 162.429 42.2027 165.613 44.2779 165.173H44.3544Z" fill="#F23D71"/>
<path d="M90.6885 63.0794C91.4918 57.5136 98.8173 37.5168 104.823 40.3475L115.553 45.2917C116.644 45.8306 117.481 46.7743 117.886 47.9216C118.776 49.9968 117.341 54.788 115.132 58.2978L127.928 49.4039L104.02 11.7246L67.7271 34.7243L90.6789 74.7944C92.0082 71.3708 90.0669 67.5837 90.6885 63.0794Z" fill="#3FBEE0"/>
<path d="M101.572 90.7459H106.353C103.264 88.4316 100.845 85.4 97.3828 84.7306L101.572 90.7459Z" fill="#3FBEE0"/>
<path d="M56.2606 86.146C51.8997 85.8017 46.4391 83.5256 45.3489 81.2783C44.7509 80.2177 44.5864 78.9668 44.8898 77.7877L47.0033 65.8336C48.7725 59.4453 68.6928 67.0003 73.4267 70.0318C76.9173 72.2983 79.0881 76.0472 82.2918 77.7781L56.9874 41.5428L20.7139 64.5712L37.2966 90.7459H64.2746L71.2749 86.7676C67.1914 86.9875 63.6243 86.7963 56.2606 86.146Z" fill="#3FBEE0"/>
<path d="M108.237 75.416C112.684 74.7179 116.222 74.584 124.169 74.5744C128.54 74.5744 134.173 76.315 135.464 78.3997C136.146 79.4054 136.419 80.6329 136.229 81.833L135.473 90.6981H154.179L134.842 60.306L108.237 75.416Z" fill="#3FBEE0"/>
<path d="M66.7039 32.9264C66.4553 32.4578 66.1588 32.5917 65.7476 32.8021C64.2748 33.5958 58.9194 36.9908 56.6146 38.5401C56.1747 38.8748 55.3427 39.2095 55.8018 39.8407L56.9876 41.5334L67.7272 34.7147L66.7039 32.9264Z" fill="white"/>
<path d="M136.344 59.455C136.812 59.2159 136.678 58.9098 136.468 58.4986C135.684 56.9972 132.298 51.5366 130.73 49.184C130.405 48.725 130.07 47.8834 129.439 48.3329L127.909 49.3944L134.842 60.3061L136.344 59.455Z" fill="white"/>
<path d="M85.4096 78.6962C86.9589 77.6155 88.5368 76.5349 90.0669 75.4542C90.1903 75.3721 90.3311 75.3197 90.4782 75.3012L90.6981 74.7944L67.7462 34.7242L56.9875 41.5429L82.292 77.7781C83.2535 78.3039 84.3166 78.617 85.4096 78.6962Z" fill="white"/>
<path d="M114.425 59.3306C107.472 68.9512 106.028 70.424 98.5686 77.2808C102.786 76.4201 105.665 75.8272 108.237 75.416L134.842 60.306L127.918 49.3848L115.132 58.2977C114.903 58.642 114.673 58.9959 114.425 59.3306Z" fill="white"/>
<path d="M85.8494 84.9124C84.8698 85.2763 83.8479 85.5141 82.8083 85.62C77.5485 86.2225 74.2778 86.5764 71.275 86.7676L64.2747 90.7459H82.617C83.3343 89.3975 84.1567 87.877 85.113 86.1173C85.3617 85.6678 85.6008 85.2758 85.8494 84.9124Z" fill="white"/>
<path d="M94.9345 84.6637L92.4767 86.366C91.9921 87.7858 91.9921 89.3262 92.4767 90.7459H101.533L97.3253 84.7306C96.5369 84.5819 95.7299 84.5593 94.9345 84.6637V84.6637Z" fill="white"/>
<path d="M66.4074 82.0147C57.9056 80.4463 49.1361 78.8109 46.0854 79.729C45.9271 79.7648 45.7789 79.8358 45.6518 79.9368C45.5247 80.0377 45.422 80.166 45.3512 80.312C45.2805 80.4581 45.2435 80.6183 45.2432 80.7806C45.2428 80.9429 45.279 81.1032 45.3491 81.2496C46.4393 83.497 51.8999 85.773 56.2608 86.1173C63.6245 86.7676 67.1916 86.9589 71.2751 86.7389L75.9324 84.1186C73.2547 83.5735 70.424 82.7702 66.4074 82.0147Z" fill="#DBDBDB"/>
<path d="M85.7728 84.6638C82.4847 85.0149 79.1614 84.8308 75.9322 84.1187L71.2749 86.7581C74.2778 86.5955 77.5484 86.213 82.8082 85.6105C83.8478 85.5046 84.8698 85.2668 85.8493 84.9028C85.8475 84.8774 85.8475 84.8518 85.8493 84.8263L85.7728 84.6638Z" fill="#DBDBDB"/>
<path d="M48.017 68.4444C45.368 75.0239 67.0862 79.1744 74.3734 78.8684C77.3399 79.0217 80.2906 79.3989 83.2003 79.9968L83.6594 79.7386L82.2918 77.826C79.0881 76.095 76.9173 72.3462 73.4267 70.0797C68.6928 67.0003 48.7725 59.4453 47.0033 65.8336L44.8898 77.7877C44.5941 78.9579 44.7584 80.1969 45.3489 81.2496C45.2077 80.917 45.1143 80.566 45.0715 80.2072C44.7368 78.0077 46.4965 72.9391 48.017 68.4444Z" fill="white"/>
<path d="M83.2005 79.9968L83.8795 80.1211C83.9224 79.8649 84.0629 79.6352 84.2716 79.4804L85.4096 78.6962C84.3138 78.6052 83.2504 78.279 82.292 77.7399L83.6595 79.6525L83.2005 79.9968Z" fill="white"/>
<path d="M46.0854 79.729C49.1361 78.7727 57.9056 80.4463 66.4073 82.0146C70.4239 82.7701 73.2546 83.5734 75.9706 84.1281L83.2005 79.9968C80.2908 79.3989 77.3401 79.0217 74.3735 78.8683C67.0863 79.1743 45.3681 75.043 48.0172 68.4443C46.4966 72.9391 44.737 78.0076 45.0717 80.2359C45.117 80.5849 45.2104 80.926 45.349 81.2496C45.2789 81.1032 45.2427 80.9429 45.2431 80.7806C45.2435 80.6182 45.2804 80.4581 45.3512 80.312C45.4219 80.1659 45.5246 80.0377 45.6518 79.9367C45.7789 79.8358 45.9271 79.7648 46.0854 79.729V79.729Z" fill="white"/>
<path d="M83.8795 80.1211L83.2005 79.9968L75.9324 84.1186C79.1621 84.8276 82.4854 85.0084 85.773 84.6541C84.5585 82.9997 83.6117 81.1731 83.8795 80.1211Z" fill="white"/>
<path d="M116.232 47.4434C113.545 49.1552 109.031 56.8441 104.66 64.3035C104.23 65.0303 103.848 65.7093 103.484 66.3691L115.132 58.2977C117.341 54.788 118.776 49.9968 117.886 47.9216C117.827 47.7659 117.731 47.6262 117.608 47.5135C117.486 47.4007 117.338 47.3179 117.178 47.2716C117.018 47.2253 116.849 47.2167 116.685 47.2465C116.521 47.2763 116.366 47.3437 116.232 47.4434Z" fill="#DBDBDB"/>
<path d="M96.7708 77.692C97.0863 77.6059 97.4115 77.5199 97.7271 77.4529L98.5304 77.2808C105.99 70.4239 107.434 68.9512 114.386 59.3305C114.635 58.9958 114.864 58.642 115.094 58.2786L103.446 66.3691C100.854 71.1316 99.6015 74.2588 96.7708 77.692Z" fill="#DBDBDB"/>
<path d="M93.6149 73.226C94.6251 71.4803 95.7765 69.8203 97.0577 68.2627C102.059 62.955 113.143 43.8189 106.439 41.4855C110.829 43.2834 115.811 45.3108 117.284 46.9844C117.525 47.2516 117.728 47.5509 117.886 47.8738C117.481 46.7264 116.644 45.7828 115.553 45.2438L104.823 40.2996C98.8173 37.4307 91.4918 57.4657 90.6885 63.0315C90.0669 67.555 92.0082 71.342 90.6885 74.7657L90.8798 75.1004L93.6149 73.226Z" fill="white"/>
<path d="M92.0274 75.8464C92.5056 75.0431 93.0507 74.1346 93.6149 73.2261L90.8512 75.1292L90.6599 74.7944L90.4399 75.3013C90.7276 75.2812 91.0163 75.319 91.289 75.4127C91.5617 75.5063 91.8129 75.6538 92.0274 75.8464Z" fill="white"/>
<path d="M106.439 41.5142C113.133 43.8189 102.059 62.955 97.0575 68.2913C95.7764 69.849 94.6249 71.509 93.6147 73.2547L103.484 66.3978C103.847 65.7379 104.23 65.0589 104.66 64.3321C109.031 56.8728 113.545 49.1839 116.232 47.4721C116.364 47.3719 116.518 47.3036 116.681 47.2725C116.844 47.2414 117.013 47.2484 117.173 47.2928C117.333 47.3372 117.48 47.4179 117.604 47.5286C117.728 47.6393 117.824 47.777 117.886 47.9311C117.728 47.6082 117.525 47.3089 117.284 47.0417C115.811 45.3012 110.829 43.3121 106.439 41.5142Z" fill="white"/>
<path d="M94.5329 78.5623C95.2454 78.1926 95.9957 77.9008 96.7707 77.6921C99.6397 74.2588 100.854 71.1317 103.465 66.3691L93.6148 73.226C93.0506 74.1823 92.5055 75.043 92.0273 75.8463C92.9932 76.6218 93.8377 77.5372 94.5329 78.5623V78.5623Z" fill="white"/>
<path d="M114.425 79.5856C123.032 80.3985 131.906 81.24 134.871 80.0638C135.029 80.0132 135.174 79.9272 135.294 79.8123C135.413 79.6974 135.506 79.5566 135.563 79.4007C135.62 79.2448 135.641 79.0779 135.624 78.9127C135.606 78.7475 135.552 78.5884 135.464 78.4476C134.173 76.315 128.54 74.5362 124.17 74.6223C116.222 74.6223 112.694 74.7657 108.237 75.4638L103.36 78.2372C106.516 78.4571 109.662 79.1266 114.425 79.5856Z" fill="#DBDBDB"/>
<path d="M97.488 78.2754C99.4374 78.048 101.405 78.0192 103.36 78.1894L108.237 75.416C105.665 75.8272 102.786 76.3723 98.5687 77.2809L97.488 78.2754Z" fill="#DBDBDB"/>
<path d="M96.7707 77.6921C96.5603 77.9503 96.3499 78.1989 96.1204 78.4571C96.589 78.3902 97.0767 78.3232 97.4879 78.2754L98.5686 77.3191L97.7652 77.4912C97.4114 77.5199 97.0863 77.606 96.7707 77.6921Z" fill="#DBDBDB"/>
<path d="M94.6765 78.7153L96.1588 78.4571C96.3883 78.1989 96.5987 77.9502 96.8091 77.692C96.034 77.9008 95.2838 78.1926 94.5713 78.5623C94.6008 78.6169 94.6361 78.6682 94.6765 78.7153V78.7153Z" fill="#DBDBDB"/>
<path d="M106.764 83.43C104.852 83.6978 99.8502 83.2674 96.8473 82.9996C96.8473 83.1909 96.8473 83.3248 96.7708 83.3822L96.5413 83.5447L97.3637 84.7306C100.826 85.4 103.245 88.4316 106.334 90.7459H134.068C134.402 84.5298 113.726 82.5215 106.764 83.43Z" fill="white"/>
<path d="M135.464 78.4475C135.63 78.7676 135.752 79.1085 135.827 79.4612C136.334 81.546 135.186 86.3276 134.115 90.7459H135.473L136.229 81.8807C136.419 80.6807 136.146 79.4531 135.464 78.4475V78.4475Z" fill="white"/>
<path d="M97.3637 84.7306L96.5891 83.5448L94.9824 84.6637C95.7747 84.5603 96.5784 84.5829 97.3637 84.7306V84.7306Z" fill="white"/>
<path d="M135.798 79.4612C135.723 79.1086 135.601 78.7676 135.435 78.4475C135.523 78.5884 135.578 78.7475 135.595 78.9127C135.612 79.0778 135.591 79.2448 135.534 79.4007C135.477 79.5566 135.385 79.6974 135.265 79.8123C135.145 79.9272 135 80.0132 134.842 80.0637C131.877 81.24 123.003 80.3984 114.396 79.5856C109.614 79.1265 106.487 78.4571 103.331 78.1893L96.522 82.0146C96.654 82.3222 96.7533 82.6427 96.8184 82.971C99.8213 83.2387 104.861 83.6691 106.736 83.4013C113.698 82.445 134.373 84.5011 134.039 90.7172H134.087C135.186 86.3277 136.334 81.546 135.798 79.4612Z" fill="white"/>
<path d="M97.488 78.2754L96.6465 79.0596C96.2448 79.423 95.8527 79.7386 95.4797 80.0159C95.8932 80.6735 96.2638 81.3571 96.5891 82.0624L103.398 78.2371C101.432 78.0485 99.4516 78.0613 97.488 78.2754V78.2754Z" fill="white"/>
<path d="M95.1641 79.4995L95.4796 80.0159C95.8526 79.7386 96.2447 79.423 96.6464 79.0596L97.4879 78.2754C97.048 78.2754 96.589 78.3902 96.1204 78.4571C95.8144 78.8014 95.4988 79.1456 95.1641 79.4995Z" fill="white"/>
<path d="M95.164 79.4995C95.4987 79.1457 95.8143 78.8014 96.1203 78.4572L94.6763 78.7154C94.8197 78.9736 94.9919 79.2413 95.164 79.4995Z" fill="white"/>
<path d="M83.2578 90.7459H84.4245C84.501 90.4207 84.5871 90.0956 84.6827 89.7896L83.2578 90.7459Z" fill="#DBDBDB"/>
<path d="M86.3086 85.3618L85.9356 84.8837H85.8496C85.6009 85.2471 85.3618 85.6392 85.1132 86.0886C84.1569 87.8578 83.3344 89.3688 82.6172 90.7173H83.2579L84.6829 89.7609C85.1091 88.2544 85.6527 86.7835 86.3086 85.3618V85.3618Z" fill="#DBDBDB"/>
<path d="M85.8494 84.9124H85.9354C85.9068 84.9101 85.878 84.9101 85.8494 84.9124V84.9124Z" fill="#DBDBDB"/>
<path d="M89.8948 90.7459H90.3442L90.0191 90.1816C89.8948 90.3729 89.8948 90.5642 89.8948 90.7459Z" fill="white"/>
<path d="M92.4768 86.366L90.5641 87.7048C90.4015 88.4699 90.2198 89.321 90.0286 90.1817L90.3537 90.7459H92.5628C92.0503 89.3357 92.02 87.7953 92.4768 86.366Z" fill="white"/>
<path d="M88.6515 87.8674C88.4858 87.7335 88.3041 87.5709 88.1064 87.3796L84.6828 89.7609C84.5871 90.0956 84.5011 90.4208 84.4246 90.7172H89.8948C89.8948 90.5355 89.9713 90.3442 90.0191 90.153L88.6515 87.8674Z" fill="white"/>
<path d="M88.6516 87.8674L89.9809 90.1817C90.1722 89.321 90.3539 88.4699 90.5165 87.7048L89.5601 88.336C89.4549 88.4316 89.1106 88.2499 88.6516 87.8674Z" fill="white"/>
<path d="M84.6826 89.7609L88.1063 87.3797C87.462 86.7485 86.8613 86.0743 86.3084 85.3618C85.6524 86.7835 85.1088 88.2543 84.6826 89.7609V89.7609Z" fill="white"/>
<path d="M92.9741 83.6882L92.4385 82.072L91.6448 82.751L92.9741 83.6882Z" fill="#F2F2F2"/>
<path d="M93.2897 84.6255C92.9579 85.1752 92.6854 85.7587 92.4768 86.366L94.9346 84.6637C94.4161 84.723 93.904 84.8286 93.4044 84.9793L93.2897 84.6255Z" fill="#F2F2F2"/>
<path d="M87.8196 78.5144L88.4795 81.2495C88.5847 81.0678 88.6803 80.8957 88.8046 80.7044L90.8512 82.2059L87.9822 78.1893C89.0298 77.4443 89.8854 76.461 90.4782 75.3203C90.3311 75.3388 90.1903 75.3911 90.067 75.4733C88.5369 76.554 86.9589 77.6346 85.4097 78.7153C86.2184 78.758 87.0291 78.6904 87.8196 78.5144V78.5144Z" fill="#F2F2F2"/>
<path d="M85.8973 84.8358L86.0407 84.635H85.7729L85.8973 84.8358Z" fill="#F2F2F2"/>
<path d="M83.8794 80.1211C85.3426 80.3793 86.4137 80.5801 86.538 80.5897C87.7143 80.714 88.1542 81.1061 88.3167 81.546C88.3741 81.4599 88.4219 81.3643 88.4793 81.2687L87.8195 78.5049C87.0281 78.6745 86.2173 78.7356 85.4095 78.6866L84.2715 79.4708C84.0607 79.6279 83.9199 79.8613 83.8794 80.1211Z" fill="#F2F2F2"/>
<path d="M87.523 82.9615L88.3167 81.5557C88.1541 81.1062 87.7142 80.7141 86.5379 80.5993C86.4136 80.5993 85.3425 80.3889 83.8793 80.1307C83.6116 81.1827 84.5583 82.9997 85.792 84.6733H86.0598C86.4813 84.0492 86.9721 83.4749 87.523 82.9615Z" fill="#F2F2F2"/>
<path d="M87.9822 78.1893L90.8512 82.2059L91.6258 82.7606L92.4195 82.0816L92.257 81.613C91.8656 81.7423 91.4481 81.7719 91.0424 81.6991C90.8703 81.0679 88.8237 80.8097 90.373 78.591C90.4591 78.4858 91.1189 77.3478 92.0083 75.8559C91.5843 75.4765 91.0272 75.2805 90.4591 75.3108C89.8729 76.4528 89.024 77.4394 87.9822 78.1893Z" fill="#F2F2F2"/>
<path d="M94.0453 78.8396L94.533 78.5623C93.8378 77.5372 92.9932 76.6218 92.0274 75.8463C91.138 77.3382 90.4782 78.4762 90.3921 78.5814C88.8428 80.8001 90.8894 81.0583 91.0615 81.6895C91.4672 81.7623 91.8847 81.7327 92.2761 81.6034L91.5493 79.4134C92.4386 79.1839 93.2611 79.0022 94.0453 78.8396Z" fill="#F2F2F2"/>
<path d="M94.0452 78.8397L94.6381 78.7154C94.5977 78.6683 94.5624 78.617 94.5329 78.5624L94.0452 78.8397Z" fill="#F2F2F2"/>
<path d="M96.589 83.5448L96.8186 83.3822C96.9046 83.3248 96.9237 83.1909 96.8951 82.9997L96.1587 82.9327L96.589 83.5448Z" fill="#F2F2F2"/>
<path d="M94.4947 82.7989C93.2515 82.7989 92.7925 82.3877 92.5821 81.9191L92.4004 82.0721L92.9359 83.6883L93.548 84.1186C93.4332 84.2908 93.3472 84.4629 93.2515 84.6255L93.3663 84.9793C93.8659 84.8286 94.378 84.7229 94.8964 84.6637L96.5891 83.5448L96.1588 82.9328C95.2024 82.8467 94.5904 82.7893 94.4947 82.7989Z" fill="#F2F2F2"/>
<path d="M92.2759 81.6034L92.4385 82.072L92.6202 81.919C92.5749 81.7985 92.5428 81.6734 92.5245 81.546L92.2759 81.6034Z" fill="#F2F2F2"/>
<path d="M92.3715 80.4368C92.3715 80.4368 92.7445 79.643 94.0451 78.8397C93.2609 79.0023 92.4385 79.184 91.5491 79.4135L92.2759 81.6035L92.5245 81.5461C92.4671 81.0966 92.5436 80.6472 92.3715 80.4368Z" fill="#F2F2F2"/>
<path d="M96.1108 82.9327L96.8471 82.9997C96.782 82.6714 96.6827 82.3509 96.5507 82.0433L95.7952 82.4641L96.1108 82.9327Z" fill="#F2F2F2"/>
<path d="M93.3376 81.2496L92.6204 81.9094C92.7925 82.378 93.2515 82.7701 94.533 82.7893C94.6287 82.7893 95.2407 82.7893 96.1492 82.9231L95.8336 82.4737L96.5891 82.0529C96.2762 81.3485 95.9184 80.6649 95.518 80.0063C94.8449 80.5085 94.1126 80.926 93.3376 81.2496Z" fill="#F2F2F2"/>
<path d="M93.3374 81.2496C94.0991 80.9233 94.8184 80.5059 95.4796 80.0064L95.164 79.49C94.6189 80.0638 93.9973 80.6567 93.3374 81.2496Z" fill="#F2F2F2"/>
<path d="M92.6203 81.9191L93.3375 81.2496C93.0732 81.3632 92.8017 81.4591 92.5247 81.5365C92.5423 81.6672 92.5743 81.7955 92.6203 81.9191Z" fill="#F2F2F2"/>
<path d="M94.6764 78.7153L94.0835 78.8397C92.7828 79.643 92.3716 80.4176 92.4099 80.4367C92.582 80.6471 92.5055 81.0966 92.5629 81.5461C92.8399 81.4686 93.1115 81.3727 93.3758 81.2592C94.0356 80.6567 94.6573 80.0638 95.2024 79.4995C94.992 79.2413 94.8198 78.9735 94.6764 78.7153Z" fill="#F2F2F2"/>
<path d="M86.6337 84.5681C86.4233 84.6733 86.1938 84.7785 85.9355 84.8837L86.3085 85.3619C86.4233 85.1037 86.5667 84.8359 86.691 84.5681H86.6337Z" fill="#F2F2F2"/>
<path d="M86.0695 84.635L85.926 84.8358C86.1842 84.7307 86.4138 84.6255 86.6241 84.5203L86.0695 84.635Z" fill="#F2F2F2"/>
<path d="M87.523 82.9614C86.9777 83.4635 86.4901 84.0248 86.0693 84.635L86.6623 84.5681H86.7388C86.9587 84.023 87.2265 83.497 87.523 82.9614Z" fill="#F2F2F2"/>
<path d="M92.9741 83.6883L91.6448 82.732L91.4153 82.9328L90.851 82.206L88.7854 80.7428C88.661 80.9341 88.5654 81.1062 88.4602 81.2879L88.661 82.139C88.9181 81.9656 89.2135 81.8573 89.5217 81.8234C89.8851 82.359 91.9125 81.9478 91.1666 84.549C91.1666 84.6733 90.8606 85.9835 90.4972 87.7144L92.4098 86.3756C92.6184 85.7682 92.8909 85.1848 93.2227 84.635L92.9741 83.6883Z" fill="#F2F2F2"/>
<path d="M88.3934 82.3016C88.486 82.2393 88.5818 82.1819 88.6803 82.1295L88.4795 81.2496C88.4221 81.3453 88.3743 81.4409 88.3169 81.527C88.3927 81.7777 88.4187 82.0409 88.3934 82.3016V82.3016Z" fill="#F2F2F2"/>
<path d="M88.3932 82.3016C88.4148 82.0504 88.3888 81.7973 88.3167 81.5557L87.5229 82.9615C87.7953 82.7191 88.0863 82.4985 88.3932 82.3016Z" fill="#F2F2F2"/>
<path d="M91.4153 82.9519L91.6448 82.751L90.8511 82.2059L91.4153 82.9519Z" fill="#F2F2F2"/>
<path d="M93.5862 84.1186L92.9741 83.6882L93.2897 84.6446C93.3853 84.4629 93.4714 84.2907 93.5862 84.1186Z" fill="#F2F2F2"/>
<path d="M88.1064 87.3797C88.3105 87.571 88.4922 87.7335 88.6516 87.8674L88.2977 87.2554L88.1064 87.3797Z" fill="#F2F2F2"/>
<path d="M89.541 81.8138C89.2327 81.8477 88.9374 81.956 88.6803 82.1294L89.1776 84.2238C88.2882 84.3672 87.4753 84.4724 86.6911 84.5681C86.5668 84.8358 86.4234 85.1036 86.3086 85.3618C86.8615 86.0743 87.4622 86.7485 88.1065 87.3797L88.2978 87.2554L88.6516 87.8674C89.1106 88.2499 89.4549 88.4316 89.6079 88.336L90.5643 87.7048C90.9277 85.9739 91.1859 84.6637 91.2337 84.5394C91.9318 81.9382 89.8948 82.3494 89.541 81.8138Z" fill="#F2F2F2"/>
<path d="M88.4507 83.1622C88.017 83.7877 87.4129 84.2756 86.7102 84.568V84.568C87.4944 84.4724 88.3073 84.3672 89.1967 84.2238L88.6994 82.1294C88.6008 82.1818 88.5051 82.2393 88.4125 82.3015C88.3742 82.6458 88.3264 82.9518 88.4507 83.1622Z" fill="#F2F2F2"/>
<path d="M86.7102 84.5298C87.4081 84.2478 88.0116 83.7736 88.4507 83.1623C88.3264 82.9901 88.3742 82.6841 88.3933 82.3398C88.0864 82.5367 87.7955 82.7573 87.5231 82.9997C87.2266 83.497 86.9589 84.023 86.7102 84.5298Z" fill="#F2F2F2"/>
<path d="M40.8159 90.746L23.1716 60.3061L110.819 13.9529L154.179 90.746" stroke="#F23D71" stroke-width="0.75" stroke-miterlimit="10"/>
<path d="M9.24771 54.2429C9.32422 54.0899 9.19033 54.0612 9.0947 54.0229C9.06255 54.0139 9.03493 53.9933 9.01724 53.965C8.99954 53.9366 8.99306 53.9028 8.99907 53.8699C8.99907 53.736 8.84605 53.7265 8.87474 53.5735C8.90343 53.4204 8.71217 53.3248 8.59741 53.2005C8.48265 53.0762 8.47309 52.7128 8.32007 52.5311C8.16706 52.3494 7.65064 52.0051 7.52632 51.6034C7.52632 51.5556 7.44982 51.5174 7.46894 51.4504C7.48807 51.3835 7.56458 51.3165 7.46894 51.2783C7.37331 51.24 7.34462 51.2783 7.36375 51.1731C7.38287 51.0679 7.59327 51.0296 7.62196 50.9722C7.65064 50.9149 7.34462 50.9722 7.32549 50.8766C7.30637 50.781 7.47851 50.6853 7.41156 50.6184C7.40333 50.5903 7.40333 50.5604 7.41156 50.5323C7.34462 50.3315 7.15335 50.1498 7.15335 49.9203C7.15335 49.6908 7.28724 49.4804 7.15335 49.2795C7.01947 49.0787 7.32549 49.1361 7.35418 49.0692C7.38287 49.0022 7.16292 48.964 7.41156 48.9161C7.59495 48.8828 7.78285 48.8828 7.96623 48.9161C8.16706 48.9735 8.14794 49.0883 8.1575 49.1743C8.17645 49.3332 8.17645 49.4937 8.1575 49.6525C8.1575 49.8438 8.45396 49.9585 8.34876 50.1689C8.24357 50.3793 8.34876 50.3984 8.42527 50.5132C8.50178 50.628 8.64523 50.6949 8.48265 50.8862C8.32007 51.0774 8.48265 51.0296 8.56872 51.0966C8.65479 51.1635 8.75042 51.2305 8.72173 51.3357C8.69304 51.4408 8.79824 51.4982 8.81737 51.5747C8.83649 51.6512 9.16164 51.7756 9.2764 51.8999C9.39116 52.0242 9.2764 52.1963 9.2764 52.3398C9.2764 52.4832 9.46767 52.598 9.55374 52.7319C9.58811 52.8225 9.61686 52.9151 9.63981 53.0092C9.63981 53.0092 9.73544 53.057 9.70675 53.124C9.67806 53.1909 9.91714 53.277 9.97452 53.3822C10.0319 53.4874 9.97452 53.5161 9.97452 53.5448C9.97452 53.5735 10.0893 53.5448 10.1275 53.5448C10.1658 53.5448 10.2614 53.6404 10.1275 53.8317C9.96496 54.2907 9.13295 54.4724 9.24771 54.2429Z" fill="#F23D71"/>
<path d="M8.77905 43.8763C8.76581 43.9318 8.73576 43.9819 8.69298 44.0198C8.58779 44.1632 8.40609 44.2588 8.41565 44.431C8.42521 44.6031 8.56866 44.9091 8.41565 45.0717C8.26264 45.2343 8.2722 45.2726 8.18613 45.3777C8.10006 45.4829 8.25307 45.6742 8.05225 45.7794C7.85142 45.8846 8.00443 45.8942 8.05225 45.9611C8.10006 46.028 8.05225 46.095 8.05225 46.1619V46.4106C8.05225 46.6592 7.95661 46.8887 7.95661 47.1374V47.3095C7.95661 47.3669 8.32958 47.6921 7.66015 47.6347C7.39035 47.6444 7.12286 47.5817 6.88553 47.453C6.80902 47.3573 6.88553 47.2617 6.88553 47.1661C6.88553 47.0704 6.78033 46.9844 6.7612 46.8887C6.74208 46.7931 7.10548 46.2767 6.88553 46.2576C6.91962 46.2692 6.95663 46.2692 6.99072 46.2576C6.90933 46.1348 6.84197 46.0033 6.78989 45.8655C6.61775 45.7603 6.78989 45.6838 6.89509 45.6168C6.69426 45.416 6.89509 45.2534 7.00985 45.11L7.23937 44.9091C7.29675 44.9091 7.52626 44.8422 7.40194 44.7561C7.32963 44.7019 7.25285 44.6539 7.17242 44.6127C7.09592 44.5649 7.24893 44.4788 7.335 44.4788C7.42107 44.4788 7.335 44.4119 7.27762 44.364C7.22024 44.3162 7.17242 44.2206 7.19155 44.1728C7.2136 44.0986 7.24578 44.0278 7.28718 43.9624C7.28718 43.9624 7.40194 43.9624 7.4402 43.8954C7.47845 43.8285 7.4402 43.7711 7.50714 43.7137C7.57408 43.6564 7.72709 43.5033 7.66015 43.3408C7.59321 43.1782 7.58364 43.2451 7.66015 43.2547C7.73666 43.2643 7.77491 43.1973 7.8036 43.1591C7.83229 43.1208 7.92792 43.0539 7.99487 43.0061C8.02296 42.9978 8.05284 42.9978 8.08093 43.0061C8.28839 43.0334 8.47877 43.1354 8.61648 43.293C8.7173 43.4384 8.78279 43.6054 8.80774 43.7807C8.80531 43.8143 8.79552 43.8469 8.77905 43.8763V43.8763Z" fill="#F23D71"/>
<path d="M15.1289 40.7492C15.215 40.577 15.2724 40.3858 15.3489 40.2041C15.4254 40.0224 15.2437 40.0797 15.2437 40.0224C15.2437 39.965 15.301 39.8789 15.2437 39.8502C15.1863 39.8215 15.1289 39.7833 15.1672 39.7068C15.2054 39.6303 14.8611 39.7068 15.1672 39.3721C15.0237 39.4294 15.062 39.3721 15.1672 39.2382C15.2724 39.1043 15.1672 39.2382 15.1672 39.2382C14.9281 39.3625 14.995 39.1904 14.9281 39.1425C14.8611 39.0947 14.6699 39.1425 14.6125 38.9321C14.5551 38.7218 14.6125 38.8269 14.5073 38.8843C14.4021 38.9417 14.3065 38.98 14.2204 38.9417C14.1594 38.9073 14.0954 38.8785 14.0291 38.8556C14.0291 38.8556 13.9144 38.7122 13.8666 38.8556C13.7327 39.1808 13.5605 39.0852 13.3693 38.9417C13.178 38.7983 13.2162 38.8461 13.178 38.9417C13.1397 39.0373 13.178 39.1808 13.0632 38.9417C12.9485 38.7026 12.7572 37.9854 12.8815 38.1193C12.7859 37.9949 13.0345 37.9089 13.0441 37.8993C13.0537 37.8897 13.3501 37.8993 13.3406 37.8324C13.7422 37.9184 14.1152 37.7367 14.536 37.8324C14.6603 37.8324 14.7751 37.8993 14.8898 37.9471C15.0046 37.9949 15.0333 38.148 15.148 38.1193C15.2628 38.0906 15.2724 38.0619 15.3106 38.0714C15.3489 38.081 15.3106 38.2914 15.3775 38.3775C15.4445 38.4635 15.4923 38.4635 15.5401 38.5209C15.5879 38.5783 15.8175 38.4157 15.9035 38.4444C15.9896 38.4731 15.9705 38.5305 15.9035 38.6357C15.869 38.6763 15.8401 38.7213 15.8175 38.7696C15.8175 38.7696 15.8175 38.7696 15.9035 38.7696C16.2 38.7696 16.0565 39.0182 16.1426 39.1425C16.2415 39.2546 16.3018 39.3953 16.3147 39.5442C16.3147 39.7068 16.1235 39.8693 16.2382 39.9937C16.353 40.118 16.3626 40.0989 16.3434 40.1467C16.3243 40.1945 16.1713 40.1467 16.2669 40.2328C16.7834 40.424 16.0565 40.5483 16.1713 40.7014C16.2861 40.8544 16.0183 41.1604 15.9227 41.2082C15.827 41.256 15.6262 41.2082 15.3106 40.9787C14.995 40.7492 15.1002 40.8161 15.1289 40.7492Z" fill="#F23D71"/>
<path d="M10.0128 42.3462C9.93627 42.3462 9.88845 42.3462 10.0128 42.0976C10.0128 42.0497 10.0128 42.0019 10.0128 42.0211C9.98283 42.0424 9.9482 42.0562 9.91181 42.0613C9.87541 42.0664 9.83832 42.0628 9.80364 42.0506C9.76897 42.0384 9.73772 42.0181 9.71254 41.9913C9.68736 41.9645 9.66898 41.9321 9.65894 41.8967C9.65894 41.8967 9.65894 41.8202 9.65894 41.7246C9.80882 41.5287 9.98227 41.3521 10.1754 41.1986C10.2423 41.1986 10.2423 41.1986 10.271 41.256C10.2997 41.3134 10.4431 41.256 10.5292 41.256C10.6153 41.256 10.7587 41.3325 10.8065 41.4759C10.8543 41.6194 10.8065 41.7724 10.9978 41.715C11.1891 41.6576 11.0456 41.715 11.0647 41.715C11.1451 41.7489 11.222 41.7906 11.2943 41.8394C11.3607 41.9007 11.4216 41.9679 11.476 42.0402C11.476 42.0976 11.629 42.2793 11.7342 42.2123C11.8394 42.1454 11.8776 42.2123 11.9446 42.2123C11.9446 42.3175 11.9924 42.2793 12.0593 42.2123C12.1263 42.1454 12.1741 42.2123 12.2506 42.2123C12.3271 42.2123 12.308 42.2123 12.3367 42.2123C12.3664 42.2202 12.3978 42.2189 12.4268 42.2087C12.4558 42.1985 12.481 42.1797 12.4992 42.1549C12.614 42.0402 12.6905 42.1549 12.7861 42.2123C12.8818 42.2697 12.8722 42.2123 12.9104 42.2123C12.9487 42.2123 12.9678 42.2123 12.9965 42.2123C13.1538 42.279 13.3171 42.3302 13.4842 42.3653C13.4842 42.3653 13.4842 42.2984 13.5608 42.2793C13.6373 42.2601 13.5608 42.2793 13.6181 42.2793C13.6755 42.2793 13.752 42.5566 13.7329 42.3558C13.7138 42.1549 13.7903 42.2219 13.8094 42.1836C13.821 42.1047 13.8505 42.0295 13.8955 41.9637C13.8955 41.9637 13.8955 41.9637 14.0007 42.0306C14.1401 42.2269 14.2678 42.4313 14.3832 42.6427C14.4186 42.6941 14.4415 42.753 14.4501 42.8148C14.4501 42.8148 14.4501 42.8148 14.4023 42.8148C14.3545 42.8148 14.4023 42.8817 14.4023 42.9391C14.4131 42.9928 14.4131 43.0481 14.4023 43.1017C14.4023 43.1017 14.3354 43.1017 14.3163 42.9869C14.3163 43.2165 14.0102 43.1495 13.8859 43.1782C13.7616 43.2069 13.7807 43.3503 13.6946 43.3695C13.4316 43.4105 13.1639 43.4105 12.9009 43.3695C12.5965 43.2517 12.2651 43.2219 11.9446 43.2834C11.8394 43.2834 11.7724 43.1782 11.7342 43.0061C11.6959 42.8339 11.6577 42.8722 11.5333 43.0539C11.409 43.2356 11.476 43.1017 11.476 42.9965C11.476 42.8913 11.409 42.9965 11.3708 42.9965C11.2312 43.011 11.0901 42.9926 10.959 42.9427C10.8278 42.8929 10.7101 42.8131 10.6153 42.7096C10.5483 42.6331 10.3762 42.7096 10.2519 42.7096C10.1275 42.7096 10.2519 42.6044 10.2519 42.5853C10.2519 42.5662 10.0893 42.3749 10.0128 42.3462Z" fill="#F23D71"/>
<path d="M8.25307 40.8926C8.25307 40.6822 7.89923 40.7109 7.99486 40.4336C7.99486 40.3284 7.99486 40.271 7.99486 40.2327C7.99486 40.1945 7.94704 40.118 7.90879 40.0702C7.87054 40.0223 7.90879 39.8598 7.7749 39.7928C7.64102 39.7259 7.61233 39.7928 7.57407 39.7928C7.53582 39.7928 7.57407 39.6781 7.57407 39.6111C7.57407 39.5442 7.33499 39.4199 7.488 39.1712C7.64102 38.9226 7.18198 39.2382 7.22023 39.1712C7.23598 39.1404 7.25524 39.1115 7.27761 39.0851C7.33499 38.9799 7.09591 39.0182 7.06722 38.9513C7.04656 38.8433 7.00069 38.7417 6.93334 38.6548C6.93334 38.5974 6.74207 38.5879 6.74207 38.5018C6.74207 38.4157 7.06722 38.2436 6.96203 38.1958C6.85683 38.1479 6.67513 38.1958 6.61775 38.1958C6.56037 38.1958 6.61775 38.1288 6.61775 38.0619C6.61775 37.9949 6.69425 37.9376 6.69425 37.928C6.69425 37.9184 6.54124 37.928 6.50299 37.928C6.46473 37.928 6.56037 37.861 6.60818 37.8228C6.656 37.7845 6.60818 37.7559 6.52211 37.7272C6.43604 37.6985 6.52211 37.622 6.41692 37.5837C6.31172 37.5455 6.41692 37.4594 6.3691 37.402C6.32129 37.3446 6.3691 37.402 6.3691 37.402C6.3691 37.402 6.45517 37.2777 6.3691 37.2586C6.0822 37.2107 6.13002 36.7995 6.22565 36.6274C6.34964 36.4977 6.51575 36.4163 6.69425 36.3979C6.75665 36.3793 6.82312 36.3793 6.88552 36.3979C7.16285 36.5222 7.14373 36.7039 7.17242 36.9047C7.04809 37.2777 7.66971 37.3638 7.51669 37.7559C7.51669 37.8324 7.80359 37.8993 7.63145 37.9949C7.45932 38.0906 7.65058 38.1193 7.65058 38.1288C7.99486 38.2053 7.97573 38.4731 8.10962 38.6644C8.2435 38.8556 8.33914 39.1138 8.55909 39.2668C8.55909 39.2668 8.48259 39.372 8.50171 39.3912C8.52084 39.4103 8.8173 39.3912 8.89381 39.3912C8.97031 39.3912 8.999 39.5442 8.89381 39.7068C8.78861 39.8693 8.89381 39.8311 8.95119 39.9076C9.00857 39.9841 8.95119 40.0893 8.95119 40.1371C8.95119 40.1849 9.09464 40.1849 9.13289 40.2423C9.17114 40.2997 8.28176 41.0839 8.25307 40.8926Z" fill="#F23D71"/>
<path d="M6.6941 31.6832C6.6721 31.7923 6.63677 31.8983 6.58891 31.9987C6.58891 32.0848 6.52196 32.1518 6.58891 32.2474C6.65585 32.343 6.6941 32.4769 6.59847 32.4769C6.50284 32.4769 6.59847 32.7542 6.54109 32.8977C6.48371 33.0411 6.34983 33.2802 6.54109 33.4619C6.49327 33.5289 6.34982 33.6054 6.43589 33.6628C6.52196 33.7201 6.56022 33.7775 6.55065 33.8445C6.54109 33.9114 6.48371 33.9783 6.55065 34.007C6.6176 34.0357 6.55065 34.1122 6.55065 34.16L6.6941 34.3896C6.70845 34.5103 6.70845 34.6323 6.6941 34.753C6.6941 34.8486 6.53153 34.9921 6.6941 35.059C6.85668 35.1259 6.56022 35.1833 6.21594 35.2598C6.0438 35.2598 5.87166 35.2598 5.85253 35.2598C5.78559 35.0399 5.73778 34.8103 5.67083 34.5904C5.66633 34.5555 5.66633 34.5201 5.67083 34.4852C5.67083 34.4087 5.76646 34.3322 5.67083 34.2652C5.5752 34.1983 5.51782 34.1696 5.52738 34.1218C5.53695 34.074 5.73778 33.9975 5.76647 33.9401C5.79516 33.8827 5.67083 33.8349 5.69952 33.7775C5.72821 33.7201 5.69952 33.6819 5.60389 33.6341C5.50826 33.5862 5.44131 33.5767 5.60389 33.5002C5.76647 33.4237 5.60389 33.3854 5.47957 33.328C5.35524 33.2707 5.47957 33.2228 5.54651 33.1559C5.61345 33.089 5.54651 33.0125 5.54651 32.9359C5.54651 32.8594 5.76647 32.8307 5.64214 32.7829C5.51782 32.7351 5.58476 32.7829 5.5752 32.7829C5.56564 32.7829 5.5752 32.7829 5.64214 32.7829C5.32655 32.6108 5.64214 32.4387 5.58476 32.2665C5.52738 32.0944 5.50826 32.1804 5.52738 32.1518C5.54651 32.1231 5.66127 32.0944 5.69952 32.0561C5.73778 32.0179 5.69952 31.9509 5.69952 31.8935C5.69952 31.8362 5.64214 31.8362 5.8621 31.7884C6.08205 31.7405 5.73778 31.6162 5.73778 31.5875C5.73778 31.5588 5.73778 31.4728 5.91948 31.4441C5.78559 31.4441 5.81428 31.3771 5.8621 31.3484C5.96362 31.2794 6.08358 31.2424 6.20638 31.2424C6.32917 31.2424 6.44913 31.2794 6.55065 31.3484C6.60906 31.3661 6.65967 31.4033 6.6941 31.4536C6.71537 31.5287 6.71537 31.6081 6.6941 31.6832V31.6832Z" fill="#F23D71"/>
<path d="M8.1001 42.3748C7.93752 42.0592 8.33918 41.868 8.54001 41.7437C8.74084 41.6193 8.74084 41.7437 8.75996 41.6672L8.81734 41.4472C8.81734 41.3994 8.97035 41.4472 8.96079 41.3516C8.95123 41.2559 8.8556 41.1699 8.86516 41.1029C8.87472 41.036 9.07555 40.7873 9.18075 40.6343C9.28594 40.4813 9.5059 40.6343 9.43896 40.4048C9.37201 40.1753 9.73542 40.51 9.71629 40.4048C9.68802 40.3424 9.65608 40.2817 9.62066 40.2231C9.56328 40.0988 9.76411 40.2231 9.77367 40.1657C9.78323 40.1083 9.77367 39.7545 10.0701 39.7927C10.1262 39.8162 10.1863 39.8282 10.2471 39.8282C10.3078 39.8282 10.3679 39.8162 10.424 39.7927C10.4814 39.7927 10.424 39.4963 10.5005 39.5154C10.577 39.5345 10.9691 39.9745 10.9978 40.0988C11.0265 40.2231 10.9978 40.2805 10.8734 40.2805C10.7491 40.2805 10.8734 40.3761 10.8734 40.4335C10.8734 40.4909 10.7491 40.6056 10.6822 40.6917C10.6152 40.7778 10.5387 40.7395 10.4718 40.7586C10.4048 40.7778 10.4048 40.8351 10.4718 41.0073C10.5387 41.1794 10.3953 41.0073 10.3666 41.0647C10.3182 41.1053 10.2576 41.1289 10.1945 41.1316C10.0319 41.1316 9.78323 41.1316 9.8693 41.3133C9.95537 41.495 9.8693 41.4568 9.8693 41.4759C9.8693 41.495 9.62066 41.4759 9.65891 41.4759C9.69716 41.4759 9.71629 41.6002 9.65891 41.6289C9.60153 41.6576 9.65891 41.7723 9.65891 41.8775C9.65891 41.9827 9.65891 42.1071 9.55371 42.1358C9.44852 42.1644 9.55372 42.2696 9.49634 42.3079C9.36801 42.3465 9.25881 42.4318 9.19031 42.547C9.19031 42.6426 8.92254 42.6904 9.06599 42.8626C9.20944 43.0347 8.19573 42.5374 8.1001 42.3748Z" fill="#F23D71"/>
<path d="M7.96603 28.1639C7.8757 28.2522 7.77252 28.3264 7.66001 28.3839C7.57394 28.3839 7.66001 28.5273 7.66001 28.5942C7.66001 28.6612 7.5835 28.9577 7.507 29.1298C7.43049 29.3019 7.2966 29.4263 7.23922 29.5984C7.18184 29.7705 7.23922 29.7705 7.23922 29.8566C7.23922 29.9427 7.15315 30.0766 7.12446 30.1913C7.09577 30.3061 6.96189 30.1913 6.81844 30.1913C6.27333 30.1148 6.21595 29.7227 6.22552 29.6653C6.22552 29.3593 6.51242 29.0533 6.57936 28.7568C6.57936 28.6708 6.44547 28.5082 6.57936 28.489C6.65851 28.5022 6.73929 28.5022 6.81844 28.489C6.90451 28.4125 6.61761 28.1543 6.88538 28.183C6.72281 28.0491 6.77062 28.0109 6.83757 27.9631C6.90451 27.9153 6.89495 27.4084 7.22966 27.5518C7.37471 27.5842 7.51581 27.6323 7.65044 27.6953C7.71624 27.7539 7.77702 27.8178 7.83215 27.8866C7.88953 28.0109 8.02341 28.1256 7.96603 28.1639Z" fill="#F23D71"/>
<path d="M12.3748 39.4485C12.2409 39.4485 12.107 39.5155 11.9731 39.5346C11.8295 39.5428 11.6922 39.5964 11.581 39.6876C11.581 39.6876 11.4663 39.6876 11.5045 39.8024C11.5428 39.9171 11.5619 39.9267 11.5045 39.9267C11.236 39.7097 11.0035 39.4515 10.816 39.1616C10.5673 38.7217 10.9499 39.1138 10.9307 38.9512C10.9116 38.7887 11.0933 38.9512 11.0933 38.8843C11.0933 38.8174 11.2846 38.8843 11.3228 38.8843C11.3611 38.8843 11.4185 38.6835 11.5523 38.7313C11.6257 38.772 11.7076 38.795 11.7914 38.7982C11.8584 38.7982 11.8392 38.6548 11.8775 38.5878C11.9158 38.5209 12.0401 38.5878 12.1357 38.5878C12.2313 38.5878 12.2792 38.1479 12.4896 38.7504C12.6999 39.3529 12.4322 39.4294 12.3748 39.4485Z" fill="#F23D71"/>
<path d="M14.45 41.562C14.45 41.4951 14.603 41.562 14.6603 41.562C14.7177 41.562 14.6603 41.4377 14.7464 41.4759C14.9507 41.5698 15.1407 41.6922 15.3106 41.8393C15.3106 41.9063 15.3106 41.935 15.3106 41.9637C15.3106 41.9924 15.3106 42.1741 15.3106 42.1836C15.3106 42.1932 15.1863 42.7765 14.842 42.4514C14.8994 42.5183 14.7177 42.4514 14.4882 41.9828C14.4858 41.9478 14.4858 41.9126 14.4882 41.8776L14.45 41.562Z" fill="#F23D71"/>
<path d="M6.0534 36.1492C6.0534 36.1013 6.17772 36.0057 6.0534 36.0057C5.79519 36.0057 5.89082 35.9292 5.90038 35.8718C5.90995 35.8144 5.97689 35.7666 6.07252 35.7093C6.17235 35.6598 6.27856 35.6244 6.38811 35.6041C6.45747 35.5893 6.52914 35.5893 6.5985 35.6041C6.70205 35.6374 6.8015 35.6823 6.89496 35.7379C6.89496 35.7379 6.89496 35.8049 6.89496 35.8336C6.89496 35.8623 6.89496 35.9101 6.89496 35.9388C6.89496 35.9675 6.95234 36.0248 6.62719 36.1109L6.33073 36.2065C6.26094 36.2164 6.19013 36.2164 6.12034 36.2065C6.04735 36.1854 5.97683 36.1565 5.90995 36.1205L6.0534 36.1492Z" fill="#F23D71"/>
<path d="M6.18744 30.8703C6.05356 30.8703 5.82404 30.7459 5.84316 30.6981C5.86229 30.6503 5.90054 30.6981 5.94836 30.6981C6.16832 30.6312 6.00574 30.526 6.03443 30.4208C6.06312 30.3156 6.31177 30.306 6.65604 30.4208C7.00032 30.5355 6.86644 30.6981 6.89512 30.7842C6.92381 30.8703 6.89512 30.9181 6.78993 30.9372C6.58753 30.9325 6.38593 30.9101 6.18744 30.8703V30.8703Z" fill="#F23D71"/>
<path d="M7.91827 48.1798C7.91827 48.1798 7.73657 48.2564 7.98521 48.2755C7.98521 48.2755 7.87045 48.3902 7.88002 48.3998C7.88958 48.4094 7.88002 48.3998 7.88002 48.4476C7.88002 48.4954 7.88002 48.4476 7.78438 48.505C7.64799 48.5244 7.50955 48.5244 7.37316 48.505C6.94282 48.4189 6.62723 48.2659 7.09583 48.0938C7.26221 48.0521 7.4363 48.0521 7.60268 48.0938C7.71511 48.0798 7.8285 48.1107 7.91827 48.1798V48.1798Z" fill="#F23D71"/>
<path d="M9.66831 41.0839H9.56311C9.42068 41.2198 9.25563 41.3298 9.07539 41.409C8.89368 41.4855 9.07539 41.2752 9.07539 41.2369C9.07539 41.1986 9.02757 41.2369 9.01801 41.2369C9.00844 41.2369 9.33359 40.7396 9.52486 40.6727C9.53986 40.6658 9.55617 40.6622 9.57268 40.6622C9.58918 40.6622 9.60549 40.6658 9.62049 40.6727C9.62049 40.6727 9.73525 40.73 9.76394 40.7874C9.76855 40.8407 9.76246 40.8944 9.74604 40.9453C9.72961 40.9962 9.70319 41.0433 9.66831 41.0839V41.0839Z" fill="#F23D71"/>
<path d="M161.677 63.4523C161.83 63.3471 161.734 63.2228 161.677 63.1176C161.655 63.0849 161.644 63.0467 161.644 63.0076C161.644 62.9686 161.655 62.9303 161.677 62.8977C161.753 62.7638 161.61 62.6394 161.677 62.496C161.744 62.3525 161.619 62.123 161.543 61.9222C161.466 61.7214 161.543 61.291 161.438 60.9659C161.152 60.5722 160.894 60.1601 160.663 59.7322C160.663 59.6748 160.587 59.6174 160.606 59.5505C160.625 59.4836 160.692 59.3975 160.606 59.3401C160.52 59.2827 160.462 59.2732 160.491 59.2158C160.52 59.1584 160.701 59.0437 160.73 58.9671C160.759 58.8906 160.443 58.9671 160.414 58.8619C160.386 58.7568 160.539 58.6229 160.414 58.5464C160.381 58.5181 160.354 58.482 160.338 58.4412C160.214 58.2021 159.984 58.0108 159.927 57.7335C159.869 57.4561 159.927 57.1884 159.668 56.9875C159.611 56.9302 159.783 56.758 159.774 56.672C159.764 56.5859 159.535 56.6146 159.774 56.4711C159.929 56.364 160.111 56.3012 160.3 56.2894C160.529 56.2894 160.577 56.4616 160.625 56.5763C160.733 56.7796 160.825 56.9906 160.902 57.2075C160.979 57.4561 161.304 57.5996 161.266 57.9056C161.227 58.2116 161.399 58.2212 161.447 58.3838C161.495 58.5464 161.715 58.6516 161.581 58.9098C161.447 59.168 161.648 59.1202 161.705 59.2158C161.763 59.3114 161.906 59.4453 161.887 59.5888C161.868 59.7322 161.973 59.8183 162.002 59.9426C162.031 60.0669 162.327 60.3443 162.442 60.5642C162.557 60.7842 162.442 61.0041 162.442 61.2145C162.477 61.453 162.538 61.687 162.624 61.9126C162.624 62.0561 162.624 62.2091 162.624 62.3525C162.624 62.496 162.69 62.4769 162.624 62.5438C162.557 62.6108 162.738 62.8977 162.738 63.0794C162.738 63.2611 162.643 63.2324 162.662 63.2993C162.681 63.3663 162.757 63.3949 162.786 63.4523C162.805 63.4828 162.817 63.5173 162.822 63.5531C162.826 63.589 162.822 63.6253 162.81 63.6593C162.798 63.6934 162.778 63.7243 162.752 63.7497C162.727 63.7751 162.696 63.7944 162.662 63.8062C162.27 64.0357 161.457 63.5958 161.677 63.4523Z" fill="#F23D71"/>
<path d="M155.958 50.3029C156.02 50.3596 156.074 50.4239 156.12 50.4941C156.264 50.695 156.331 50.9532 156.532 51.0775C156.733 51.2018 157.172 51.2879 157.287 51.5843C157.402 51.8808 157.44 51.9095 157.507 52.0721C157.574 52.2346 157.88 52.292 157.871 52.5598C157.871 52.665 157.957 52.7128 158.052 52.7415C158.148 52.7702 158.177 52.8945 158.244 52.9615C158.331 53.0395 158.414 53.1225 158.492 53.2101C158.722 53.4779 158.894 53.7935 159.095 54.0708C159.134 54.1466 159.182 54.2173 159.238 54.2812C159.286 54.3386 159.869 54.5298 159.238 54.8072C158.884 54.9793 158.597 55.1132 158.454 55.0558C158.31 54.9984 158.339 54.8454 158.244 54.7689C158.148 54.6924 158.033 54.6446 157.947 54.5777C157.861 54.5107 157.698 53.7743 157.526 53.8987C157.526 53.8987 157.593 53.8413 157.593 53.8222C157.593 53.803 157.593 53.8222 157.593 53.8222C157.593 53.8222 157.172 53.6787 157.182 53.6691C156.981 53.6691 157.019 53.5161 157.039 53.3727C156.733 53.3727 156.675 53.1336 156.627 52.8945L156.551 52.5407C156.551 52.445 156.637 52.2251 156.484 52.2633C156.395 52.2952 156.309 52.3335 156.226 52.3781C156.14 52.3781 156.12 52.2251 156.149 52.139C156.178 52.0529 156.082 52.139 156.006 52.139C155.929 52.139 155.814 52.139 155.767 52.0912C155.704 52.0254 155.647 51.9551 155.594 51.8808C155.589 51.8171 155.589 51.7532 155.594 51.6895C155.594 51.613 155.48 51.5748 155.432 51.5174C155.384 51.46 155.26 51.1922 155.059 51.1731C155.059 51.1731 154.935 51.1731 154.954 51.1731C154.973 51.1731 154.954 51.0297 154.887 50.9819C154.83 50.9003 154.788 50.8098 154.762 50.7141C154.751 50.6833 154.751 50.6492 154.762 50.6185C154.796 50.5162 154.855 50.4241 154.933 50.3505C155.012 50.277 155.108 50.2244 155.212 50.1977C155.429 50.1694 155.65 50.199 155.853 50.2837C155.889 50.2843 155.924 50.2907 155.958 50.3029V50.3029Z" fill="#F23D71"/>
<path d="M149.417 57.4849C149.122 57.2122 148.878 56.8882 148.699 56.5286C148.632 56.4043 148.451 56.3851 148.384 56.2704C148.317 56.1556 148.298 56.0026 148.145 55.9452C148.081 55.9234 148.025 55.8822 147.986 55.8273C147.946 55.7725 147.925 55.7067 147.925 55.6392C147.925 55.4671 147.456 55.3332 147.8 55.0176C147.647 55.0176 147.666 54.9124 147.8 54.7881C147.513 54.7881 147.609 54.5394 147.542 54.4151C147.475 54.2908 147.236 54.023 147.303 53.7457C147.317 53.7086 147.317 53.6678 147.303 53.6308C147.289 53.5939 147.262 53.5633 147.227 53.5449C147.141 53.5044 147.069 53.4389 147.021 53.357C146.973 53.275 146.952 53.1804 146.959 53.0858V52.6937C146.959 52.5981 147.054 52.4451 146.959 52.3781C146.88 52.3288 146.814 52.2619 146.765 52.1827C146.716 52.1034 146.687 52.014 146.678 51.9213C146.67 51.8287 146.683 51.7354 146.717 51.6488C146.751 51.5621 146.804 51.4844 146.873 51.4218C146.92 51.3772 146.951 51.3184 146.961 51.2545C146.971 51.1906 146.96 51.1251 146.93 51.068C146.873 50.9915 146.72 50.8767 146.93 50.848C147.14 50.8193 147.886 51.0106 147.753 51.068C147.906 51.068 147.877 51.307 147.896 51.3262C147.915 51.3453 147.839 51.6513 147.896 51.6513C147.772 52.0912 148.03 52.4929 148.154 52.9041C148.154 53.0284 148.221 53.1528 148.259 53.2675C148.298 53.3823 148.259 53.5449 148.336 53.6022C148.412 53.6596 148.47 53.6022 148.498 53.6787C148.527 53.7552 148.412 53.8796 148.384 53.9848C148.355 54.09 148.46 54.1282 148.479 54.2047C148.498 54.2812 148.766 54.2047 148.843 54.2717C148.919 54.3386 148.891 54.3577 148.843 54.4438C148.795 54.5299 148.747 54.5299 148.738 54.5681C148.728 54.6064 148.738 54.5681 148.814 54.5681C149.11 54.5681 148.948 54.8359 149.053 54.9698C149.127 55.1126 149.173 55.2685 149.187 55.4288C149.187 55.5818 149.187 55.8209 149.34 55.8879C149.493 55.9548 149.503 55.8879 149.522 55.9548C149.541 56.0217 149.426 56.1078 149.522 56.0696C150.009 55.8496 149.627 56.4617 149.856 56.4808C150.086 56.4999 150.239 56.8537 150.306 56.9494C150.373 57.045 150.306 57.2745 149.971 57.504C149.936 57.5432 149.892 57.5741 149.843 57.5947C149.795 57.6153 149.742 57.625 149.689 57.6232C149.637 57.6214 149.585 57.608 149.538 57.5842C149.491 57.5603 149.449 57.5264 149.417 57.4849V57.4849Z" fill="#F23D71"/>
<path d="M154.227 51.8234C154.227 51.7278 154.227 51.6609 154.437 51.6322C154.495 51.6322 154.533 51.6322 154.504 51.5652C154.435 51.5106 154.39 51.4306 154.379 51.3428C154.368 51.255 154.393 51.1665 154.447 51.0966C154.466 51.0715 154.49 51.0514 154.519 51.0381C154.547 51.0248 154.578 51.0186 154.609 51.0201C154.86 51.0367 155.105 51.0949 155.336 51.1923C155.394 51.2496 155.336 51.2975 155.336 51.3453C155.336 51.3931 155.413 51.5557 155.461 51.6704C155.495 51.7583 155.505 51.8541 155.488 51.9471C155.471 52.04 155.428 52.1264 155.365 52.1964C155.26 52.3494 155.088 52.4546 155.202 52.6363C155.202 52.6363 155.202 52.7033 155.202 52.732C155.202 52.7606 155.202 52.9997 155.135 53.124C155.105 53.2562 155.06 53.3845 155.002 53.5066C155.002 53.6022 154.791 53.8317 154.868 53.9656C154.908 54.0628 154.931 54.1665 154.935 54.2716V54.2716C154.82 54.3673 154.858 54.3768 154.935 54.4725C155.011 54.5681 154.868 54.6829 154.858 54.8072C154.867 54.8546 154.867 54.9032 154.858 54.9506C154.83 55.041 154.83 55.1376 154.858 55.228C154.935 55.4384 154.791 55.5914 154.676 55.7444C154.628 55.814 154.592 55.8917 154.571 55.9739C154.561 56.0277 154.541 56.0794 154.514 56.1269C154.337 56.3739 154.139 56.6043 153.921 56.8155C153.921 56.8155 153.921 56.9589 153.864 57.0163C153.806 57.0737 153.797 57.0928 153.777 57.1406C153.758 57.1884 153.491 57.0259 153.577 57.2171C153.663 57.4084 153.51 57.4467 153.481 57.5136C153.439 57.6642 153.36 57.8022 153.251 57.9152C153.251 57.9152 153.146 58.0013 153.051 57.9152C152.89 57.7351 152.752 57.536 152.639 57.3223C152.639 57.2458 152.563 57.1693 152.572 57.1502C152.582 57.1311 152.572 57.1502 152.63 57.1502C152.687 57.1502 152.63 57.0737 152.63 57.0163C152.601 56.9705 152.584 56.9176 152.582 56.8633C152.582 56.8633 152.649 56.8633 152.687 56.9589C152.687 56.739 152.936 56.7198 153.032 56.6051C153.127 56.4903 153.032 56.4043 153.032 56.3373C153.032 56.2704 153.385 55.7635 153.471 55.6105C153.702 55.3113 153.805 54.9333 153.758 54.5585C153.758 54.4438 153.873 54.3673 154.036 54.2812C154.198 54.1951 154.179 54.1569 153.978 54.0517C153.777 53.9465 153.978 53.8604 154.045 53.7648C154.055 53.7438 154.06 53.7209 154.06 53.6978C154.06 53.6748 154.055 53.6519 154.045 53.6309C153.971 53.2945 154.004 52.943 154.141 52.6268C154.189 52.5024 154.045 52.3494 154.007 52.2155C153.969 52.0817 154.112 52.2155 154.122 52.139C154.131 52.0625 154.227 51.9286 154.227 51.8234Z" fill="#F23D71"/>
<path d="M154.37 48.9545C154.514 48.7441 154.256 48.4954 154.514 48.2946C154.609 48.2181 154.629 48.1607 154.609 48.0746C154.59 47.9886 154.609 47.9121 154.609 47.8356C154.609 47.7591 154.715 47.5869 154.676 47.453C154.638 47.3191 154.552 47.3287 154.542 47.2713C154.533 47.2139 154.6 47.1374 154.648 47.0801C154.695 47.0227 154.552 46.7071 154.81 46.535C154.915 46.4584 154.514 46.4011 154.59 46.3341L154.676 46.2767C154.782 46.1907 154.552 46.0855 154.571 45.9898C154.595 45.8538 154.595 45.7147 154.571 45.5786C154.571 45.483 154.437 45.3969 154.466 45.3013C154.495 45.2057 154.868 45.1674 154.791 45.0622C154.715 44.957 154.514 44.9379 154.495 44.8614C154.476 44.7849 154.495 44.7657 154.562 44.7179C154.629 44.6701 154.657 44.7179 154.648 44.7179C154.638 44.7179 154.485 44.7179 154.456 44.6606C154.428 44.6032 154.533 44.6606 154.6 44.584C154.667 44.5075 154.6 44.4884 154.542 44.431C154.485 44.3737 154.542 44.278 154.542 44.2111C154.542 44.1441 154.542 44.0581 154.542 43.9816C154.542 43.9051 154.542 43.9816 154.542 43.9816C154.542 43.9816 154.667 43.8572 154.59 43.8094C154.332 43.6468 154.466 43.1591 154.59 42.9774C154.667 42.916 154.757 42.873 154.853 42.8514C154.949 42.8299 155.049 42.8305 155.145 42.8531C155.216 42.8531 155.285 42.8805 155.336 42.9296C155.424 43.0397 155.484 43.1694 155.51 43.3076C155.537 43.4459 155.53 43.5885 155.489 43.7233C155.489 43.7233 155.489 43.7233 155.489 43.7807C155.26 44.2206 155.824 44.651 155.489 45.0813C155.432 45.1578 155.69 45.4256 155.489 45.4639C155.489 45.4639 155.384 45.4639 155.394 45.5212C155.68 45.8368 155.537 46.1715 155.547 46.4776C155.527 46.8375 155.527 47.1983 155.547 47.5582C155.547 47.5582 155.422 47.6156 155.432 47.6539C155.441 47.6921 155.69 47.9121 155.709 48.0459C155.723 48.12 155.714 48.1964 155.686 48.2659C155.657 48.3354 155.608 48.3952 155.547 48.438C155.432 48.5241 155.489 48.6197 155.451 48.7154C155.413 48.811 155.288 48.8684 155.269 48.9545C155.25 49.0405 155.336 49.1362 155.327 49.2318C155.317 49.3274 154.265 49.1266 154.37 48.9545Z" fill="#F23D71"/>
<path d="M154.676 36.1875C154.696 36.3431 154.696 36.5004 154.676 36.6561C154.657 36.774 154.677 36.895 154.734 37.0003C154.801 37.1151 154.906 37.2203 154.839 37.3637C154.772 37.5072 154.896 37.7463 154.906 37.9567C154.915 38.1671 154.791 38.5113 155.068 38.7313C155.068 38.7313 154.896 38.9512 154.992 39.0182C155.035 39.0468 155.07 39.0852 155.095 39.1301C155.12 39.1749 155.134 39.2251 155.135 39.2764C155.135 39.3338 155.078 39.4581 155.135 39.4963C155.193 39.5346 155.135 39.6494 155.183 39.7163C155.231 39.7832 155.183 39.9076 155.183 39.9936C155.202 40.1652 155.202 40.3384 155.183 40.5101C155.183 40.6439 155.021 40.8256 155.183 40.9308C155.346 41.036 155.04 41.0934 154.686 41.1317C154.523 41.1317 154.351 41.1317 154.332 41.0456L154.15 40.1753C154.146 40.134 154.146 40.0923 154.15 40.051C154.15 39.9554 154.227 39.8502 154.15 39.7641C154.074 39.678 153.988 39.6589 153.988 39.592C153.988 39.525 154.198 39.4294 154.217 39.3529C154.236 39.2764 154.112 39.219 154.131 39.1521C154.135 39.1332 154.136 39.1137 154.132 39.0947C154.129 39.0757 154.121 39.0576 154.111 39.0416C154.1 39.0255 154.086 39.0117 154.07 39.0011C154.054 38.9906 154.036 38.9833 154.017 38.9799C153.873 38.913 153.854 38.9226 153.959 38.8078C154.064 38.693 153.911 38.6643 153.816 38.607C153.72 38.5496 153.816 38.4826 153.816 38.387C153.816 38.2914 153.816 38.2053 153.816 38.1097C153.816 38.014 154.017 37.9375 153.873 37.8993H153.806C153.806 37.8993 153.806 37.8993 153.864 37.8993C153.519 37.7463 153.73 37.4881 153.663 37.2777C153.663 37.2777 153.567 37.1916 153.577 37.1438C153.586 37.096 153.691 37.0386 153.72 36.9812C153.749 36.9238 153.72 36.8378 153.634 36.7899C153.548 36.7421 153.567 36.7326 153.758 36.6178C153.95 36.503 153.634 36.5126 153.615 36.4839C153.596 36.4552 153.615 36.3309 153.73 36.2448C153.596 36.2448 153.605 36.2448 153.644 36.1492C153.685 36.0285 153.769 35.927 153.88 35.8636C153.991 35.8003 154.121 35.7794 154.246 35.8049C154.281 35.8045 154.315 35.8121 154.347 35.827C154.378 35.8419 154.406 35.8638 154.428 35.891C154.534 35.9675 154.62 36.0694 154.676 36.1875V36.1875Z" fill="#F23D71"/>
<path d="M154.016 50.2933C153.634 50.389 153.462 49.9395 153.29 49.71C153.232 49.643 153.232 49.5092 153.156 49.4805L152.888 49.4231C152.821 49.4231 152.792 49.2605 152.735 49.2796C152.678 49.2988 152.553 49.404 152.477 49.3944C152.263 49.3421 152.052 49.2783 151.846 49.2031C151.712 49.2031 151.616 48.9162 151.463 49.0597C151.31 49.2031 151.387 48.7441 151.272 48.811C151.229 48.8688 151.191 48.9295 151.157 48.9927C151.081 49.1075 151.061 48.878 150.994 48.9067C150.928 48.9354 150.641 49.1744 150.44 48.964C150.395 48.9077 150.339 48.8621 150.274 48.8306C150.209 48.7992 150.139 48.7827 150.067 48.7823C149.981 48.7823 149.904 49.0597 149.799 48.9832C149.71 48.8836 149.649 48.7616 149.624 48.6301C149.598 48.4987 149.609 48.3629 149.656 48.2372C149.688 48.1807 149.74 48.1378 149.801 48.1167C149.863 48.0956 149.93 48.0976 149.99 48.1225C150.057 48.1225 150.057 48.0268 150.115 47.979C150.172 47.9312 150.478 47.9025 150.641 47.8834C150.758 47.8975 150.871 47.9332 150.975 47.9886C151.1 48.0364 151.138 47.9886 151.262 47.826C151.387 47.6634 151.406 47.8738 151.453 47.893C151.541 47.9226 151.622 47.968 151.693 48.0268C151.836 48.1894 151.989 48.4285 152.199 48.285C152.41 48.1416 152.372 48.2181 152.429 48.285C152.486 48.352 152.525 48.5433 152.544 48.505C152.563 48.4668 152.697 48.4381 152.745 48.505C152.792 48.5719 152.955 48.505 153.079 48.505C153.152 48.473 153.235 48.469 153.31 48.4937C153.386 48.5184 153.45 48.57 153.49 48.6389C153.548 48.7345 153.701 48.6389 153.768 48.7441C153.874 48.9058 154.01 49.0454 154.169 49.1553C154.303 49.2318 154.38 49.5092 154.619 49.4135C154.858 49.3179 154.208 50.2455 154.016 50.2933Z" fill="#F23D71"/>
<path d="M153.491 30.9467C153.509 31.1183 153.509 31.2915 153.491 31.4631C153.491 31.5683 153.615 31.6066 153.644 31.7022C153.756 31.9386 153.855 32.1813 153.94 32.429C154.007 32.6777 153.997 32.9454 154.055 33.2036C154.055 33.3088 154.189 33.4045 154.227 33.5097C154.265 33.6149 154.284 33.8444 154.342 34.007C154.399 34.1695 154.208 34.1217 154.064 34.1791C153.921 34.242 153.76 34.2494 153.611 34.1999C153.463 34.1504 153.338 34.0476 153.261 33.9113C153.108 33.5575 153.127 33.0506 152.965 32.6968C152.965 32.5916 152.697 32.5438 152.812 32.3908C152.926 32.2378 152.955 32.2282 152.965 32.1708C152.974 32.1134 152.572 31.9891 152.773 31.8074C152.563 31.8074 152.563 31.7405 152.572 31.6448C152.582 31.5492 152.19 31.0806 152.572 30.918C152.7 30.862 152.836 30.8265 152.974 30.8128C153.063 30.8013 153.153 30.8013 153.242 30.8128C153.309 30.8702 153.491 30.8511 153.491 30.9467Z" fill="#F23D71"/>
<path d="M147.274 49.4421C147.455 49.2499 147.661 49.0827 147.886 48.9448C148.116 48.8462 148.337 48.7278 148.546 48.591C148.604 48.591 148.709 48.591 148.709 48.4571C148.709 48.3232 148.709 48.3041 148.709 48.3041C148.709 48.3041 149.197 48.9831 149.244 49.1935C149.369 49.6716 149.091 49.1935 149.053 49.3847C149.015 49.576 148.871 49.3847 148.871 49.4517C148.871 49.5186 148.661 49.4517 148.604 49.4517C148.546 49.4517 148.508 49.6812 148.365 49.6716C148.221 49.6621 148.135 49.6716 148.078 49.6716C148.02 49.6716 148.078 49.8438 148.078 49.9298C148.078 50.0159 147.915 50.035 147.82 50.0924C147.724 50.1498 147.963 50.5706 147.389 50.2837C147.316 50.2443 147.254 50.1883 147.207 50.1203C147.16 50.0522 147.129 49.974 147.118 49.892C147.107 49.81 147.115 49.7265 147.142 49.6484C147.17 49.5702 147.215 49.4995 147.274 49.4421V49.4421Z" fill="#F23D71"/>
<path d="M151.578 58.4794C151.482 58.5272 151.329 58.3551 151.243 58.3169C151.157 58.2786 151.023 58.3742 150.966 58.269C150.91 58.0425 150.93 57.8039 151.023 57.59C151.071 57.5135 151.109 57.504 151.138 57.504C151.167 57.504 151.358 57.4083 151.358 57.3892C151.358 57.3701 151.807 57.0545 151.98 57.4848C151.98 57.4083 152.123 57.5518 152.056 58.0682C152.051 58.1131 152.035 58.156 152.008 58.1925C151.876 58.3033 151.731 58.3995 151.578 58.4794V58.4794Z" fill="#F23D71"/>
<path d="M154.552 42.2505C154.552 42.1836 154.686 42.088 154.552 42.0688C154.294 42.0115 154.399 41.935 154.418 41.868C154.437 41.8011 154.504 41.7437 154.609 41.6863C154.711 41.6479 154.817 41.6253 154.925 41.6194C154.993 41.5974 155.067 41.5974 155.135 41.6194C155.241 41.6897 155.338 41.7733 155.422 41.868C155.47 41.9158 155.422 41.9732 155.422 42.021C155.422 42.0688 155.422 42.1262 155.422 42.174C155.422 42.2219 155.422 42.2984 155.135 42.3271C155.03 42.3271 154.944 42.3271 154.829 42.3844C154.76 42.3954 154.689 42.3954 154.619 42.3844C154.546 42.3344 154.479 42.2767 154.418 42.2123L154.552 42.2505Z" fill="#F23D71"/>
<path d="M153.863 35.3459C153.72 35.3459 153.462 35.3459 153.462 35.3459C153.462 35.3459 153.462 35.2789 153.529 35.2407C153.691 35.059 153.529 35.0112 153.471 34.8677C153.414 34.7243 153.653 34.5999 154.036 34.5808C154.418 34.5617 154.361 34.8295 154.437 34.9155C154.514 35.0016 154.533 35.0781 154.437 35.1642C154.257 35.2546 154.063 35.316 153.863 35.3459V35.3459Z" fill="#F23D71"/>
<path d="M159.869 55.3427C159.917 55.3427 159.764 55.5244 159.994 55.4287C159.994 55.4287 159.994 55.62 159.994 55.6296H160.07C160.07 55.6296 160.07 55.687 160.013 55.7443C159.896 55.819 159.766 55.8709 159.63 55.8973C159.19 55.9643 158.817 55.9547 159.133 55.5435C159.237 55.4119 159.376 55.3124 159.534 55.2566C159.593 55.2451 159.654 55.2469 159.712 55.2618C159.769 55.2767 159.823 55.3043 159.869 55.3427V55.3427Z" fill="#F23D71"/>
<path d="M155.193 50.4463H155.088C154.894 50.4075 154.709 50.3329 154.543 50.2263C154.37 50.102 154.648 50.1211 154.648 50.0255C154.648 49.9299 154.648 49.9777 154.648 49.949C154.766 49.8929 154.895 49.8638 155.025 49.8638C155.156 49.8638 155.285 49.8929 155.403 49.949C155.403 49.949 155.48 50.0255 155.47 50.0542C155.48 50.14 155.48 50.2266 155.47 50.3124C155.44 50.3572 155.398 50.3932 155.35 50.4168C155.301 50.4403 155.247 50.4505 155.193 50.4463V50.4463Z" fill="#F23D71"/>
<path d="M166.038 83.7934C166.355 83.7934 166.659 83.6675 166.883 83.4433C167.107 83.2191 167.233 82.915 167.233 82.598C167.233 82.281 167.107 81.9769 166.883 81.7527C166.659 81.5285 166.355 81.4026 166.038 81.4026C165.721 81.4026 165.416 81.5285 165.192 81.7527C164.968 81.9769 164.842 82.281 164.842 82.598C164.842 82.915 164.968 83.2191 165.192 83.4433C165.416 83.6675 165.721 83.7934 166.038 83.7934Z" fill="#F23D71"/>
<path d="M176.175 61.3867C176.492 61.3867 176.796 61.2607 177.02 61.0365C177.244 60.8124 177.37 60.5083 177.37 60.1913C177.37 59.8742 177.244 59.5702 177.02 59.346C176.796 59.1218 176.492 58.9958 176.175 58.9958C175.858 58.9958 175.554 59.1218 175.329 59.346C175.105 59.5702 174.979 59.8742 174.979 60.1913C174.979 60.5083 175.105 60.8124 175.329 61.0365C175.554 61.2607 175.858 61.3867 176.175 61.3867Z" fill="#F23D71"/>
<path d="M171.909 114.721C172.226 114.721 172.531 114.595 172.755 114.371C172.979 114.147 173.105 113.843 173.105 113.526C173.105 113.209 172.979 112.905 172.755 112.68C172.531 112.456 172.226 112.33 171.909 112.33C171.592 112.33 171.288 112.456 171.064 112.68C170.84 112.905 170.714 113.209 170.714 113.526C170.714 113.843 170.84 114.147 171.064 114.371C171.288 114.595 171.592 114.721 171.909 114.721Z" fill="#F23D71"/>
<path d="M163.905 133.953C164.222 133.953 164.526 133.827 164.75 133.603C164.974 133.379 165.1 133.074 165.1 132.757C165.1 132.44 164.974 132.136 164.75 131.912C164.526 131.688 164.222 131.562 163.905 131.562C163.588 131.562 163.284 131.688 163.06 131.912C162.835 132.136 162.709 132.44 162.709 132.757C162.709 133.074 162.835 133.379 163.06 133.603C163.284 133.827 163.588 133.953 163.905 133.953Z" fill="#F23D71"/>
<path d="M178.833 99.0182H178.298C177.981 99.0182 177.677 99.1441 177.452 99.3683C177.228 99.5925 177.102 99.8966 177.102 100.214C177.102 100.531 177.228 100.835 177.452 101.059C177.677 101.283 177.981 101.409 178.298 101.409H178.833C179.15 101.409 179.454 101.283 179.679 101.059C179.903 100.835 180.029 100.531 180.029 100.214C180.029 99.8966 179.903 99.5925 179.679 99.3683C179.454 99.1441 179.15 99.0182 178.833 99.0182V99.0182Z" fill="#F23D71"/>
<path d="M19.8341 85.4001C20.1511 85.4001 20.4552 85.2742 20.6794 85.05C20.9035 84.8258 21.0295 84.5217 21.0295 84.2047C21.0295 83.8876 20.9035 83.5836 20.6794 83.3594C20.4552 83.1352 20.1511 83.0093 19.8341 83.0093C19.517 83.0093 19.213 83.1352 18.9888 83.3594C18.7646 83.5836 18.6387 83.8876 18.6387 84.2047C18.6387 84.5217 18.7646 84.8258 18.9888 85.05C19.213 85.2742 19.517 85.4001 19.8341 85.4001Z" fill="#F23D71"/>
<path d="M7.43066 98.6069V99.1425C7.43066 99.4595 7.55661 99.7635 7.78079 99.9877C8.00497 100.212 8.30903 100.338 8.62607 100.338C8.94312 100.338 9.24717 100.212 9.47136 99.9877C9.69554 99.7635 9.82148 99.4595 9.82148 99.1425V98.6069C9.82148 98.2899 9.69554 97.9858 9.47136 97.7616C9.24717 97.5374 8.94312 97.4115 8.62607 97.4115C8.30903 97.4115 8.00497 97.5374 7.78079 97.7616C7.55661 97.9858 7.43066 98.2899 7.43066 98.6069Z" fill="#F23D71"/>
<path d="M4.88682 82.2059C5.20386 82.2059 5.50792 82.0799 5.7321 81.8558C5.95628 81.6316 6.08223 81.3275 6.08223 81.0105C6.08223 80.6934 5.95628 80.3894 5.7321 80.1652C5.50792 79.941 5.20386 79.8151 4.88682 79.8151C4.56977 79.8151 4.26572 79.941 4.04153 80.1652C3.81735 80.3894 3.69141 80.6934 3.69141 81.0105C3.69141 81.3275 3.81735 81.6316 4.04153 81.8558C4.26572 82.0799 4.56977 82.2059 4.88682 82.2059V82.2059Z" fill="#F23D71"/>
<path d="M1.15708 118.479C1.47412 118.479 1.77818 118.353 2.00236 118.129C2.22654 117.905 2.35249 117.601 2.35249 117.284C2.35249 116.967 2.22654 116.663 2.00236 116.439C1.77818 116.215 1.47412 116.089 1.15708 116.089C0.840037 116.089 0.53598 116.215 0.311797 116.439C0.0876145 116.663 -0.0383301 116.967 -0.0383301 117.284C-0.0383301 117.601 0.0876145 117.905 0.311797 118.129C0.53598 118.353 0.840037 118.479 1.15708 118.479V118.479Z" fill="#F23D71"/>
<path d="M18.763 137.673C19.0801 137.673 19.3841 137.547 19.6083 137.323C19.8325 137.099 19.9584 136.795 19.9584 136.478C19.9584 136.16 19.8325 135.856 19.6083 135.632C19.3841 135.408 19.0801 135.282 18.763 135.282C18.446 135.282 18.1419 135.408 17.9178 135.632C17.6936 135.856 17.5676 136.16 17.5676 136.478C17.5676 136.795 17.6936 137.099 17.9178 137.323C18.1419 137.547 18.446 137.673 18.763 137.673Z" fill="#F23D71"/>
<path d="M71.9253 0.918085C71.7245 1.01372 71.7532 1.22411 71.7723 1.39625C71.7799 1.51116 71.7421 1.62447 71.6671 1.71184C71.5237 1.87441 71.581 2.09437 71.4376 2.25694C71.2941 2.41952 71.3228 2.82118 71.2846 3.1272C71.2846 3.58624 70.9307 3.9879 70.9403 4.44693C70.9403 5.17374 71.0933 5.90055 71.0359 6.59867C71.0359 6.68474 71.0359 6.7995 71.0359 6.88557C71.0359 6.97164 70.8829 7.05771 70.9307 7.17247C70.9786 7.28723 71.0359 7.33504 70.9881 7.41155C70.9403 7.48806 70.7682 7.51675 70.663 7.61238C70.5578 7.70801 70.9116 7.82277 70.9116 7.92797C70.9116 8.03316 70.7108 8.19574 70.7777 8.34875C70.7868 8.40577 70.7868 8.46387 70.7777 8.52089C70.7777 8.92255 70.969 9.31464 70.9594 9.70674C70.8903 10.0892 70.9133 10.4825 71.0264 10.8543C71.0264 10.9691 70.8638 11.1125 70.8638 11.2369C70.8638 11.3612 71.0933 11.4281 70.8638 11.5238C70.6819 11.592 70.4815 11.592 70.2996 11.5238C70.2113 11.459 70.1399 11.3739 70.0917 11.2757C70.0434 11.1774 70.0195 11.069 70.0222 10.9595C69.9552 10.6255 69.9168 10.2864 69.9075 9.94582C69.9075 9.56329 69.611 9.18076 69.7545 8.78866C69.8023 8.5391 69.8023 8.28273 69.7545 8.03316C69.7545 7.7367 69.611 7.51675 69.831 7.23941C70.0509 6.96208 69.831 6.91426 69.831 6.75168C69.788 6.55315 69.788 6.34773 69.831 6.1492C69.869 5.96998 69.8882 5.78729 69.8883 5.60409C69.9553 5.25981 69.7545 4.88685 69.764 4.52344C69.8155 4.21798 69.919 3.92362 70.07 3.65318C70.1507 3.31275 70.2114 2.96788 70.2517 2.62035C70.2517 2.41952 70.4048 2.22825 70.4621 2.03699C70.5195 1.84572 70.4621 1.8266 70.5386 1.75965C70.7777 1.54926 70.6152 1.24324 70.7012 0.994591C70.7873 0.745946 70.8638 0.822452 70.8734 0.726819C70.8829 0.631187 70.8734 0.545117 70.8734 0.468611C70.8665 0.372706 70.892 0.277276 70.9457 0.197544C70.9995 0.117812 71.0784 0.05837 71.1698 0.0287001C71.7245 -0.153002 72.2027 0.793762 71.9253 0.918085Z" fill="#F23D71"/>
<path d="M76.4295 20.3698C76.3485 20.2906 76.2749 20.2042 76.2096 20.1116C76.0548 19.8181 75.8473 19.5555 75.5975 19.337C75.2437 19.1075 74.756 18.9736 74.536 18.6006C74.4021 18.3806 74.2395 18.1894 74.1056 17.979C73.9718 17.7686 73.5892 17.6538 73.5032 17.3191C73.4796 17.2572 73.441 17.2021 73.3909 17.1588C73.3409 17.1154 73.2809 17.0851 73.2163 17.0705C73.0824 17.0227 73.025 16.8505 72.9294 16.7549C72.7947 16.6347 72.667 16.507 72.5468 16.3724C72.2169 15.9627 71.9195 15.5278 71.6574 15.0718L71.4662 14.7466C71.4088 14.6605 70.7298 14.1728 71.3992 14.0198C71.7913 13.9337 72.0974 13.8477 72.2599 13.9624C72.4225 14.0772 72.4034 14.278 72.5086 14.4119C72.6138 14.5458 72.7764 14.6223 72.8911 14.737C73.0059 14.8518 73.3023 15.8273 73.4936 15.6934C73.4936 15.6934 73.4362 15.7603 73.4936 15.7794C73.551 15.7986 73.4936 15.7794 73.4936 15.7794C73.6753 15.8519 73.8511 15.9383 74.0196 16.0376C74.2587 16.0376 74.2587 16.248 74.2873 16.4202C74.6699 16.4776 74.8133 16.7836 74.9568 17.0896L75.1767 17.5391C75.2341 17.6538 75.1767 17.912 75.3584 17.8929L75.6453 17.7973C75.741 17.7973 75.827 18.0077 75.8175 18.1033C75.8079 18.1989 75.9131 18.1607 75.9992 18.1607C76.1172 18.1516 76.234 18.1894 76.3243 18.2659C76.4272 18.3642 76.5231 18.4697 76.6112 18.5815C76.659 18.6389 76.6112 18.7536 76.6877 18.8206C76.7642 18.8875 76.8503 18.9927 76.9364 19.0788C77.0224 19.1648 77.2233 19.5474 77.4815 19.643C77.4815 19.643 77.6345 19.643 77.6249 19.7004C77.6154 19.7578 77.6249 19.8916 77.7397 19.9682C77.8155 20.0946 77.8765 20.2294 77.9214 20.3698C77.9367 20.4131 77.9367 20.4604 77.9214 20.5037C77.864 20.781 77.5102 20.8097 77.3859 20.8002C77.1117 20.7346 76.85 20.6248 76.6112 20.475C76.5456 20.4494 76.4844 20.414 76.4295 20.3698V20.3698Z" fill="#F23D71"/>
<path d="M71.9444 21.4982C71.6658 21.8565 71.4224 22.2409 71.2176 22.6458C71.1315 22.7988 71.2176 22.9806 71.1602 23.1336C71.1028 23.2866 71.0072 23.4396 71.0741 23.6117C71.1094 23.6814 71.1278 23.7584 71.1278 23.8365C71.1278 23.9146 71.1094 23.9915 71.0741 24.0612C70.9689 24.262 71.3036 24.6446 70.8733 24.8167C71.0167 24.9028 70.9594 24.9888 70.8733 25.094C70.7872 25.1992 70.8733 25.094 70.8733 25.094C71.1506 25.2375 70.9881 25.467 71.055 25.6391C71.1219 25.8113 71.3515 26.1842 71.3228 26.5094C71.3164 26.5585 71.3248 26.6084 71.3469 26.6527C71.3691 26.697 71.404 26.7337 71.4471 26.758C71.5476 26.8043 71.6376 26.8705 71.7116 26.9527C71.7856 27.035 71.842 27.1314 71.8774 27.2362L72.1165 27.6187C72.1835 27.7048 72.2026 27.9056 72.3556 27.8961C72.5385 27.8956 72.7177 27.9476 72.872 28.0459C73.0262 28.1443 73.149 28.2847 73.2259 28.4507C73.2564 28.5127 73.3071 28.5626 73.3696 28.5921C73.4321 28.6216 73.5028 28.6291 73.5701 28.6133C73.6753 28.6133 73.7901 28.4507 73.8092 28.6707C73.8283 28.8907 73.6179 29.627 73.4841 29.4645V29.4071C73.551 29.5983 73.0728 29.4071 73.0346 29.4071C72.8242 29.4071 72.5277 29.0915 72.499 29.1584C71.8544 28.7569 71.2714 28.264 70.7681 27.6952C70.6531 27.5145 70.5509 27.326 70.4621 27.131C70.3856 26.978 70.4047 26.7198 70.2804 26.605C70.156 26.4903 70.1369 26.5094 70.0987 26.4425C70.0604 26.3755 70.1656 26.146 70.1943 26.0025C70.223 25.8591 70.1178 25.7539 70.1178 25.62C70.1178 25.4861 69.8118 25.4001 69.8118 25.2853C69.7807 25.2476 69.7637 25.2003 69.7637 25.1514C69.7637 25.1026 69.7807 25.0552 69.8118 25.0175C69.8118 25.0175 69.9361 24.9506 69.9552 24.9123C69.9743 24.8741 69.9552 24.8358 69.8978 24.7976C69.6396 24.5298 69.8978 24.2907 69.8978 24.0325C69.8689 23.7793 69.8883 23.5229 69.9552 23.277C70.0604 23.0379 70.2995 22.8371 70.2804 22.5693C70.2804 22.4737 70.223 22.3589 70.2804 22.2729C70.3377 22.1868 70.4716 22.2729 70.3951 22.1581C70.0222 21.7182 70.7968 21.6513 70.8159 21.3835C70.835 21.1157 71.3228 20.628 71.4853 20.5419C71.6479 20.4558 71.8583 20.5419 72.0113 20.934C72.0591 21.0236 72.0783 21.1258 72.0664 21.2266C72.0544 21.3275 72.0118 21.4223 71.9444 21.4982V21.4982Z" fill="#F23D71"/>
<path d="M83.1144 21.6704C83.2196 21.7469 83.3056 21.8234 83.1813 22.0434C83.1813 22.0912 83.1813 22.1582 83.1813 22.1582C83.4491 22.1582 83.6595 22.4546 83.6977 22.6459C83.7075 22.6814 83.7073 22.7189 83.6972 22.7543C83.6871 22.7898 83.6674 22.8217 83.6404 22.8467C83.4475 23.0107 83.2178 23.1255 82.9709 23.1814C82.8849 23.1814 82.8753 23.0762 82.837 23.0093C82.7988 22.9424 82.598 22.8372 82.4545 22.7798C82.3446 22.7244 82.2478 22.6463 82.1703 22.5507C82.0928 22.455 82.0365 22.3441 82.005 22.2251C81.9285 21.9956 81.8998 21.7661 81.6416 21.7183C81.5966 21.7104 81.5559 21.6866 81.5269 21.6513C81.3863 21.5344 81.2522 21.4099 81.1252 21.2783C81.0009 21.1445 80.8574 21.0393 80.7331 20.8958C80.6088 20.7524 80.4271 20.4846 80.2358 20.4655C80.1048 20.4356 79.9768 20.394 79.8533 20.3411C79.8533 20.3411 79.7481 20.2264 79.6238 20.2168C79.4995 20.2073 79.3751 20.0447 79.2699 20.0447C79.2087 20.0203 79.1509 19.9881 79.0978 19.949C78.992 19.9153 78.8784 19.9153 78.7726 19.949C78.5447 19.9491 78.3243 19.8677 78.151 19.7195C78.067 19.6767 77.9766 19.6476 77.8833 19.6335C77.8199 19.6435 77.7554 19.6435 77.692 19.6335C77.3814 19.5048 77.0618 19.3993 76.7357 19.3179C76.6592 19.3179 76.5827 19.3657 76.5061 19.3848C76.4489 19.3801 76.3913 19.3801 76.334 19.3848C76.2671 19.3848 76.2097 19.0883 76.1236 19.2892C76.0375 19.49 75.8941 19.4135 75.8272 19.4518C75.6995 19.536 75.5652 19.6096 75.4255 19.6717C75.3681 19.6717 75.3107 19.6717 75.2438 19.5856C75.1543 19.3633 75.087 19.1327 75.043 18.8971C75.043 18.8206 75.043 18.7249 75.043 18.7058C75.043 18.6867 75.043 18.7058 75.1195 18.7058C75.196 18.7058 75.1195 18.6389 75.1769 18.5719C75.1811 18.5106 75.2009 18.4514 75.2342 18.3998C75.2342 18.3998 75.3203 18.4572 75.3203 18.5337C75.5116 18.2946 75.9324 18.438 76.1714 18.4285C76.3014 18.3623 76.4397 18.3141 76.5827 18.285C76.5827 18.285 76.9174 18.285 77.2425 18.285C77.5147 18.3142 77.7837 18.3686 78.0458 18.4476C78.6042 18.6632 79.176 18.8421 79.7577 18.9832C79.9298 18.9832 80.0446 19.1935 80.1211 19.4135C80.1976 19.6335 80.2645 19.6239 80.4653 19.4996C80.6662 19.3752 80.7236 19.6048 80.8192 19.7578C80.8615 19.8149 80.9224 19.8554 80.9913 19.8725C81.4978 20.0541 81.9355 20.3882 82.2441 20.8289C82.3589 20.9819 82.6171 21.001 82.8083 21.0966C82.9996 21.1923 82.8083 21.2305 82.8083 21.2783C82.8975 21.4186 83 21.5499 83.1144 21.6704V21.6704Z" fill="#F23D71"/>
<path d="M85.4382 25.4383C85.4382 25.8017 85.7825 26.0791 85.639 26.4616C85.5912 26.578 85.5912 26.7086 85.639 26.825C85.649 26.9491 85.649 27.0738 85.639 27.198C85.6964 27.3988 85.639 27.5805 85.6964 27.7813C85.7538 27.9822 85.8494 27.9343 85.8781 28.0204C85.888 28.1269 85.8646 28.2338 85.8112 28.3264C85.706 28.6133 85.9833 28.8907 85.7442 29.1776C85.6295 29.2923 86.0407 29.3401 85.9737 29.4549C85.9068 29.5697 85.9068 29.5123 85.8877 29.541C85.8685 29.5697 86.012 29.8374 86.0024 29.9809C85.9881 30.191 85.9881 30.4019 86.0024 30.6121C86.0024 30.7459 86.1268 30.899 86.0789 31.0328C86.0311 31.1667 85.6677 31.2145 85.7347 31.3771C85.8016 31.5397 86.0024 31.5875 86.012 31.7118C86.0216 31.8362 86.012 31.8648 85.9164 31.9127C85.8207 31.9605 85.8112 31.9605 85.8303 31.9892C85.8494 32.0179 85.9737 32.0465 86.0024 32.0944C86.0311 32.1422 85.9259 32.1613 85.8494 32.19C85.7729 32.2187 85.8494 32.3334 85.8494 32.4291C85.8494 32.5247 85.8494 32.6586 85.8494 32.7734C85.8494 32.8881 85.8494 33.0029 85.7729 33.1176C85.781 33.1392 85.781 33.163 85.7729 33.1846C85.6677 33.242 85.6103 33.3376 85.6773 33.4237C85.8877 33.7297 85.6008 34.38 85.4 34.6573C85.4 34.7243 85.1513 34.839 84.8261 34.6573C84.7891 34.6424 84.7559 34.6191 84.7294 34.5893C84.7028 34.5594 84.6836 34.5238 84.6731 34.4852C84.5833 34.1029 84.6134 33.7022 84.7592 33.3376C84.7592 33.3376 84.7592 33.2802 84.7592 33.2515C85.1226 32.6682 84.6062 31.9796 84.9696 31.4058C85.0365 31.3006 84.7975 30.899 84.9696 30.8703C85.027 30.8703 85.0844 30.8129 85.0652 30.7842C84.9032 30.3411 84.8475 29.8661 84.9027 29.3975C84.8888 28.8914 84.8215 28.3881 84.7018 27.8961C84.7018 27.8961 84.8166 27.7909 84.7975 27.7431C84.7783 27.6953 84.4627 27.4562 84.4054 27.284C84.3678 27.1947 84.3484 27.0988 84.3484 27.0019C84.3484 26.905 84.3678 26.8091 84.4054 26.7198C84.4819 26.5668 84.4054 26.4616 84.4054 26.3181C84.4054 26.1747 84.4914 26.0599 84.4627 25.9356C84.4101 25.815 84.3461 25.6997 84.2715 25.5913C84.2906 25.4001 85.4286 25.1323 85.4382 25.4383Z" fill="#F23D71"/>
<path d="M82.4066 44.058C82.4318 43.8282 82.4766 43.6011 82.5405 43.379C82.5991 43.2134 82.6251 43.038 82.617 42.8626C82.5457 42.6845 82.5457 42.4859 82.617 42.3079C82.8178 42.021 82.7413 41.7437 82.8178 41.4376C82.8943 41.1316 83.1717 40.7108 83.0186 40.2805C83.1047 40.1562 83.2864 40.051 83.2386 39.9075C83.2101 39.8444 83.1953 39.7759 83.1953 39.7067C83.1953 39.6374 83.2101 39.569 83.2386 39.5058C83.2386 39.4198 83.382 39.2668 83.3247 39.1807C83.2673 39.0946 83.3247 38.9512 83.3916 38.8555C83.4585 38.7599 83.4585 38.5878 83.4968 38.4443C83.5634 38.2005 83.653 37.9635 83.7646 37.7366C83.8506 37.5645 84.061 37.3828 83.9941 37.182C83.9272 36.9811 84.2045 37.0194 84.5392 37.1055C84.7113 37.1055 84.8452 37.268 84.8261 37.3732C84.74 37.8131 84.6253 38.2339 84.5296 38.6547C84.534 38.7184 84.534 38.7823 84.5296 38.846C84.4818 38.9703 84.3575 39.0755 84.3958 39.2381C84.434 39.4007 84.4818 39.458 84.3958 39.5441C84.3097 39.6302 84.128 39.678 84.0706 39.7832C84.0132 39.8884 84.0706 40.0031 84.0706 40.0892C84.041 40.1312 84.025 40.1813 84.025 40.2327C84.025 40.284 84.041 40.3341 84.0706 40.3761C84.1662 40.5291 84.1854 40.5291 84.0706 40.6343C83.9558 40.7395 84.0706 40.8543 84.0706 40.969C84.0706 41.0838 84.0706 41.1603 83.9367 41.2655C83.8028 41.3707 83.8602 41.5237 83.8315 41.6671C83.8028 41.8106 83.5829 41.8106 83.6881 41.9349L83.7454 41.9923C83.7454 41.9923 83.7454 41.9923 83.6689 41.9923C83.9272 42.3461 83.6689 42.6235 83.6116 42.9486C83.6116 43.0156 83.6689 43.1016 83.6116 43.1686C83.5542 43.2355 83.4681 43.2738 83.4203 43.3312C83.3877 43.3755 83.3701 43.4291 83.3701 43.4842C83.3701 43.5392 83.3877 43.5928 83.4203 43.6372C83.5159 43.8189 83.4681 43.7424 83.2482 43.838C83.1717 43.838 83.3247 44.0293 83.3342 44.0771C83.3438 44.1249 83.3342 44.2875 83.1525 44.3736C83.2864 44.3736 83.2577 44.4788 83.2099 44.5361C83.1621 44.5935 82.9804 45.0621 82.5309 44.823C82.495 44.8029 82.4637 44.7754 82.4391 44.7425C82.4144 44.7096 82.3968 44.6719 82.3875 44.6318C82.35 44.4415 82.3566 44.2453 82.4066 44.058V44.058Z" fill="#F23D71"/>
<path d="M78.7917 21.3261C79.2699 21.5173 79.3751 22.2824 79.4325 22.7032C79.4325 22.8371 79.3751 22.9805 79.4325 23.0857L79.6333 23.4778C79.6333 23.5735 79.6333 23.736 79.6333 23.803C79.6333 23.8699 79.8532 23.9464 79.9011 24.0707C80.0115 24.4461 80.06 24.8369 80.0445 25.2279C80.0445 25.467 79.8054 25.6869 79.9202 25.9356C80.0349 26.1842 79.595 26.0886 79.6429 26.2512C79.6811 26.3274 79.7293 26.3981 79.7863 26.4616C79.8819 26.6146 79.6237 26.605 79.6142 26.7198C79.6142 27.0545 79.6142 27.4561 79.2316 27.6187C79.0332 27.6744 78.8522 27.7798 78.7057 27.9247C78.61 28.0299 78.61 28.3455 78.4474 28.3742C78.1318 28.3742 77.9693 27.9152 77.9884 27.7622C77.9967 27.6931 78.0232 27.6274 78.0652 27.572C78.1072 27.5165 78.1632 27.4732 78.2275 27.4466C78.304 27.4466 78.2275 27.3223 78.2275 27.2458C78.2865 27.0702 78.3737 26.9055 78.4857 26.758C78.56 26.6641 78.6398 26.5747 78.7248 26.4903C78.8108 26.3659 78.8013 26.3181 78.6483 26.1555C78.4953 25.993 78.7152 26.0217 78.7439 25.9738C78.7751 25.8814 78.8203 25.7944 78.8778 25.7156C79.0404 25.5531 79.2603 25.2757 79.0499 25.0844C79.0138 25.053 78.9868 25.0125 78.9716 24.9671C78.9565 24.9217 78.9538 24.873 78.9639 24.8262C78.9639 24.8262 79.1551 24.5872 79.1073 24.5776C78.8874 24.5776 78.9734 24.4628 78.9639 24.3863C78.9543 24.3098 78.8682 24.1568 78.7439 24.0612C78.6671 24.0101 78.607 23.9375 78.5713 23.8524C78.5356 23.7674 78.5258 23.6736 78.5431 23.583C78.5431 23.4587 78.3805 23.3917 78.3805 23.2674C78.3768 23.0277 78.3179 22.7921 78.2084 22.5789C78.1223 22.4067 78.1223 22.072 77.845 22.0242C77.5676 21.9764 78.5335 21.24 78.7917 21.3261Z" fill="#F23D71"/>
<path d="M84.4341 51.8521C84.2787 51.6403 84.1592 51.4044 84.0802 51.154C84.0802 51.0009 83.8603 50.9818 83.7646 50.8575C83.5108 50.5341 83.2868 50.1884 83.0952 49.8247C82.9504 49.4493 82.8384 49.0622 82.7605 48.6675C82.7605 48.4954 82.5884 48.3519 82.531 48.1798C82.4736 48.0076 82.4545 47.6538 82.3875 47.4051C82.3206 47.1565 82.5214 47.2617 82.6649 47.2043C83.1717 47.0226 83.4682 47.6538 83.4969 47.7399C83.5816 48.0198 83.6518 48.3039 83.7073 48.591C83.7786 48.8756 83.8812 49.1514 84.0133 49.4134C84.1089 49.5569 84.3576 49.5951 84.3002 49.8055C84.2482 49.9022 84.2249 50.0117 84.2333 50.1211C84.2333 50.3219 84.721 50.2646 84.6062 50.5419C84.8166 50.5419 84.8549 50.5419 84.8931 50.7045C84.9314 50.8671 85.6486 51.2305 85.4382 51.546C85.3576 51.6631 85.2491 51.7584 85.1226 51.8234C85.0347 51.8615 84.9409 51.8841 84.8453 51.8903C84.6827 51.8999 84.5106 51.9764 84.4341 51.8521Z" fill="#F23D71"/>
<path d="M75.2917 28.6515C75.5559 28.6707 75.8212 28.6707 76.0854 28.6515C76.3607 28.6457 76.6315 28.5804 76.8792 28.4603C76.9461 28.4603 77.0705 28.4603 77.0705 28.3264C77.0705 28.1925 77.0705 28.1734 77.0705 28.1638C77.0705 28.1542 77.6538 28.7759 77.7016 28.9862C77.8164 29.4835 77.453 29.0914 77.3574 29.2827C77.2617 29.474 77.08 29.2827 77.0418 29.3783C77.0035 29.474 76.7357 29.3783 76.6114 29.3783C76.4871 29.3783 76.3054 29.6174 76.095 29.5409C75.9762 29.4795 75.8459 29.4437 75.7125 29.4357C75.5881 29.4357 75.5212 29.5696 75.3969 29.6174C75.2726 29.6652 75.0909 29.6174 74.9474 29.5218C74.804 29.4262 74.3258 29.8565 74.431 29.2062C74.4477 29.1115 74.4839 29.0214 74.5371 28.9413C74.5903 28.8613 74.6595 28.7931 74.7403 28.741C74.8211 28.6889 74.9118 28.6541 75.0066 28.6387C75.1015 28.6233 75.1986 28.6277 75.2917 28.6515V28.6515Z" fill="#F23D71"/>
<path d="M73.8475 20.102C73.7901 20.1785 73.5989 20.102 73.5032 20.102C73.4076 20.102 73.3694 20.2741 73.2546 20.2359C73.047 20.1259 72.8846 19.9465 72.7956 19.729C72.7901 19.6978 72.7925 19.6658 72.8025 19.6357C72.8126 19.6057 72.8299 19.5786 72.8529 19.5569C72.8529 19.5569 73.0633 19.2891 73.0729 19.27C73.159 19.0979 73.7806 18.5623 74.0292 18.9831C74.0292 18.9066 74.2109 19.0309 74.1631 19.5569C74.1751 19.5975 74.1751 19.6406 74.1631 19.6812L73.8475 20.102Z" fill="#F23D71"/>
<path d="M85.2853 35.6041C85.2375 35.6902 85.0845 35.7858 85.1706 35.8527C85.2566 35.9197 85.2566 36.0918 85.1706 36.1874C85.1425 36.234 85.105 36.2742 85.0606 36.3054C85.0161 36.3367 84.9656 36.3584 84.9124 36.3691C84.8057 36.3967 84.6938 36.3967 84.5872 36.3691C84.5119 36.3437 84.4477 36.2931 84.4055 36.2257C84.3402 36.0801 84.2859 35.9299 84.2429 35.7762C84.2429 35.6997 84.2429 35.6328 84.2429 35.5563C84.2707 35.4855 84.29 35.4117 84.3003 35.3363C84.3003 35.2311 84.3003 35.1546 84.635 35.2216C84.7402 35.2216 84.8358 35.2216 84.941 35.2216C85.0462 35.2216 85.1323 35.2789 85.1419 35.3076C85.1897 35.4036 85.2312 35.5027 85.2662 35.6041H85.2853Z" fill="#F23D71"/>
<path d="M82.9805 45.5308C83.1239 45.5881 83.3726 45.636 83.3726 45.722C83.3726 45.8081 83.3152 45.8081 83.277 45.8559C83.0857 46.0663 83.277 46.1906 83.277 46.3915C83.277 46.5923 83.0666 46.7262 82.684 46.6688C82.3015 46.6114 82.3684 46.2193 82.3206 46.0663C82.289 46.0071 82.2784 45.9389 82.2906 45.8729C82.3027 45.8069 82.3369 45.747 82.3876 45.7029C82.5721 45.6075 82.7735 45.549 82.9805 45.5308V45.5308Z" fill="#F23D71"/>
<path d="M70.7681 13.0443C70.7681 12.9869 70.902 12.8435 70.6534 12.8626C70.6534 12.8626 70.6534 12.614 70.6534 12.5948C70.6534 12.5757 70.5864 12.5375 70.5769 12.4992C70.5673 12.4609 70.5769 12.4131 70.6438 12.3653C70.7778 12.324 70.9211 12.324 71.055 12.3653C71.5428 12.4609 71.8966 12.6331 71.5619 13.0539C71.5064 13.1206 71.438 13.1753 71.3607 13.2147C71.2834 13.2542 71.199 13.2776 71.1124 13.2834C71.0409 13.2716 70.9728 13.2441 70.9133 13.2027C70.8537 13.1614 70.8041 13.1072 70.7681 13.0443V13.0443Z" fill="#F23D71"/>
<path d="M83.7168 23.8699L83.8029 23.803C84.0004 23.7253 84.216 23.7054 84.4245 23.7456C84.654 23.7934 84.4245 23.9369 84.4819 24.0612C84.5392 24.1855 84.5488 24.1186 84.5584 24.1568C84.5679 24.1951 84.1758 24.6446 83.9367 24.5776C83.8698 24.5776 83.822 24.5776 83.8029 24.5011C83.7332 24.4014 83.6724 24.2958 83.6212 24.1855C83.6085 24.1291 83.6107 24.0704 83.6274 24.0151C83.6442 23.9598 83.675 23.9098 83.7168 23.8699V23.8699Z" fill="#F23D71"/>
<path d="M22.6504 115V96.5156H29.125C31.3678 96.5156 33.069 96.9473 34.2285 97.8105C35.388 98.6654 35.9678 99.9222 35.9678 101.581C35.9678 102.487 35.735 103.286 35.2695 103.98C34.804 104.666 34.1566 105.17 33.3271 105.491C34.2751 105.728 35.0199 106.206 35.5615 106.926C36.1117 107.645 36.3867 108.525 36.3867 109.566C36.3867 111.344 35.8197 112.689 34.6855 113.604C33.5514 114.518 31.9349 114.983 29.8359 115H22.6504ZM26.459 106.951V111.94H29.7217C30.6188 111.94 31.3171 111.729 31.8164 111.306C32.3242 110.874 32.5781 110.282 32.5781 109.528C32.5781 107.836 31.7021 106.977 29.9502 106.951H26.459ZM26.459 104.26H29.2773C31.1986 104.226 32.1592 103.46 32.1592 101.962C32.1592 101.124 31.9137 100.523 31.4229 100.159C30.9404 99.7868 30.1745 99.6006 29.125 99.6006H26.459V104.26ZM54.4395 106.177C54.4395 107.996 54.1178 109.592 53.4746 110.963C52.8314 112.334 51.9089 113.392 50.707 114.137C49.5137 114.882 48.1426 115.254 46.5938 115.254C45.0618 115.254 43.695 114.886 42.4932 114.149C41.2913 113.413 40.3604 112.364 39.7002 111.001C39.04 109.63 38.7057 108.056 38.6973 106.278V105.364C38.6973 103.545 39.0231 101.945 39.6748 100.565C40.335 99.1774 41.2617 98.1152 42.4551 97.3789C43.6569 96.6341 45.028 96.2617 46.5684 96.2617C48.1087 96.2617 49.4756 96.6341 50.6689 97.3789C51.8708 98.1152 52.7975 99.1774 53.4492 100.565C54.1094 101.945 54.4395 103.54 54.4395 105.352V106.177ZM50.5801 105.339C50.5801 103.401 50.2331 101.928 49.5391 100.921C48.8451 99.9137 47.8548 99.4102 46.5684 99.4102C45.2904 99.4102 44.3044 99.9095 43.6104 100.908C42.9163 101.898 42.5651 103.354 42.5566 105.275V106.177C42.5566 108.064 42.9036 109.528 43.5977 110.569C44.2917 111.61 45.2904 112.131 46.5938 112.131C47.8717 112.131 48.8535 111.632 49.5391 110.633C50.2246 109.626 50.5716 108.161 50.5801 106.24V105.339ZM63.542 102.889L67.0078 96.5156H71.3877L66.0049 105.682L71.5273 115H67.0967L63.542 108.525L59.9873 115H55.5566L61.0791 105.682L55.6963 96.5156H60.0762L63.542 102.889ZM77.5068 115H73.6982V96.5156H77.5068V115ZM96.0801 115H92.2715L84.8574 102.838V115H81.0488V96.5156H84.8574L92.2842 108.703V96.5156H96.0801V115ZM114.031 112.664C113.346 113.485 112.377 114.124 111.124 114.581C109.871 115.03 108.483 115.254 106.96 115.254C105.36 115.254 103.955 114.907 102.745 114.213C101.543 113.51 100.612 112.495 99.9521 111.166C99.3005 109.837 98.9661 108.276 98.9492 106.481V105.225C98.9492 103.38 99.2581 101.784 99.876 100.438C100.502 99.0843 101.399 98.0518 102.567 97.3408C103.744 96.6214 105.119 96.2617 106.693 96.2617C108.885 96.2617 110.599 96.7865 111.835 97.8359C113.071 98.877 113.803 100.396 114.031 102.394H110.324C110.155 101.336 109.778 100.561 109.194 100.07C108.619 99.5794 107.823 99.334 106.808 99.334C105.513 99.334 104.527 99.8206 103.85 100.794C103.173 101.767 102.83 103.215 102.821 105.136V106.316C102.821 108.255 103.189 109.719 103.926 110.709C104.662 111.699 105.741 112.194 107.163 112.194C108.593 112.194 109.613 111.89 110.223 111.28V108.094H106.757V105.288H114.031V112.664ZM117.129 115V96.5156H122.816C124.441 96.5156 125.893 96.8838 127.171 97.6201C128.457 98.348 129.46 99.389 130.18 100.743C130.899 102.089 131.259 103.621 131.259 105.339V106.189C131.259 107.908 130.903 109.435 130.192 110.772C129.49 112.11 128.495 113.146 127.209 113.883C125.923 114.619 124.471 114.992 122.854 115H117.129ZM120.938 99.6006V111.94H122.778C124.268 111.94 125.406 111.454 126.193 110.48C126.98 109.507 127.382 108.115 127.399 106.304V105.326C127.399 103.447 127.01 102.025 126.231 101.061C125.453 100.087 124.314 99.6006 122.816 99.6006H120.938ZM144.195 111.191H137.518L136.248 115H132.198L139.079 96.5156H142.608L149.527 115H145.478L144.195 111.191ZM138.546 108.106H143.167L140.844 101.188L138.546 108.106ZM155.723 104.844L159.569 96.5156H163.733L157.665 108.297V115H153.793V108.297L147.725 96.5156H151.901L155.723 104.844Z" fill="#FF1A56"/>
<path d="M82.1738 118.193C82.1738 119.528 81.8402 120.773 81.1729 121.929C80.5218 123.084 79.6673 124.085 78.6094 124.932C77.5677 125.778 76.404 126.445 75.1182 126.934C73.8324 127.406 72.5628 127.625 71.3096 127.593H70.9189V127.153C71.9932 126.925 73.0023 126.535 73.9463 125.981C74.9066 125.412 75.7367 124.72 76.4365 123.906C77.1527 123.092 77.7142 122.181 78.1211 121.172C78.5443 120.163 78.7559 119.105 78.7559 117.998C78.7559 117.266 78.6663 116.574 78.4873 115.923C78.3083 115.272 78.0316 114.71 77.6572 114.238C77.2829 113.766 76.8027 113.392 76.2168 113.115C75.6471 112.839 74.9635 112.7 74.166 112.7C73.0267 112.7 71.8711 112.871 70.6992 113.213C69.5273 113.555 68.3962 114.035 67.3057 114.653C66.2152 115.272 65.1898 116.004 64.2295 116.851C63.2855 117.697 62.4554 118.625 61.7393 119.634C61.0394 120.643 60.486 121.717 60.0791 122.856C59.6722 123.996 59.4688 125.16 59.4688 126.348C59.4688 127.617 59.6478 128.716 60.0059 129.644C60.3802 130.555 60.8766 131.361 61.4951 132.061C62.1299 132.744 62.8623 133.33 63.6924 133.818C64.5225 134.307 65.4095 134.754 66.3535 135.161C67.2975 135.552 68.2578 135.918 69.2344 136.26C70.2272 136.602 71.1956 136.968 72.1396 137.358C73.0837 137.749 73.9707 138.188 74.8008 138.677C75.6309 139.149 76.3551 139.718 76.9736 140.386C77.6084 141.037 78.1048 141.818 78.4629 142.729C78.8372 143.625 79.0244 144.683 79.0244 145.903C79.0244 147.238 78.7477 148.426 78.1943 149.468C77.6572 150.509 76.9411 151.38 76.0459 152.08C75.1507 152.796 74.1253 153.333 72.9697 153.691C71.8141 154.066 70.626 154.253 69.4053 154.253C68.0869 154.253 66.8662 154.025 65.7432 153.569C64.6201 153.13 63.611 152.528 62.7158 151.763C61.8206 151.014 61.0394 150.143 60.3721 149.15C59.7048 148.174 59.1676 147.157 58.7607 146.099L59.127 145.903C59.6152 146.766 60.1768 147.612 60.8115 148.442C61.4463 149.289 62.1624 150.037 62.96 150.688C63.7575 151.356 64.6364 151.893 65.5967 152.3C66.5732 152.707 67.6312 152.91 68.7705 152.91C69.6982 152.91 70.5609 152.78 71.3584 152.52C72.1559 152.259 72.8477 151.885 73.4336 151.396C74.0195 150.908 74.4753 150.306 74.8008 149.59C75.1426 148.874 75.3135 148.06 75.3135 147.148C75.3135 145.814 75.0286 144.715 74.459 143.853C73.8893 142.99 73.1406 142.257 72.2129 141.655C71.2852 141.053 70.2272 140.54 69.0391 140.117C67.8509 139.694 66.6302 139.271 65.377 138.848C64.14 138.408 62.9274 137.92 61.7393 137.383C60.5511 136.829 59.4932 136.138 58.5654 135.308C57.6377 134.478 56.889 133.452 56.3193 132.231C55.7497 130.994 55.4648 129.481 55.4648 127.69C55.4648 126.063 55.7171 124.533 56.2217 123.101C56.7262 121.652 57.418 120.326 58.2969 119.121C59.1921 117.917 60.2419 116.842 61.4463 115.898C62.6507 114.938 63.9447 114.124 65.3281 113.457C66.7279 112.79 68.1846 112.285 69.6982 111.943C71.2119 111.585 72.7337 111.406 74.2637 111.406C75.3542 111.406 76.3796 111.536 77.3398 111.797C78.3164 112.057 79.1546 112.464 79.8545 113.018C80.5706 113.555 81.1322 114.255 81.5391 115.117C81.9622 115.98 82.1738 117.005 82.1738 118.193ZM93.4531 132.207C93.4531 132.386 93.388 132.549 93.2578 132.695C93.1276 132.826 92.973 132.891 92.7939 132.891C92.6475 132.891 92.4928 132.85 92.3301 132.769C92.1673 132.671 91.9801 132.565 91.7686 132.451C91.5732 132.337 91.3372 132.24 91.0605 132.158C90.8001 132.061 90.499 132.012 90.1572 132.012C89.3597 132.012 88.6436 132.264 88.0088 132.769C87.3903 133.257 86.8613 133.867 86.4219 134.6C85.9987 135.332 85.6732 136.113 85.4453 136.943C85.2174 137.773 85.1035 138.522 85.1035 139.189C85.1035 139.661 85.1442 140.125 85.2256 140.581C85.307 141.021 85.4453 141.427 85.6406 141.802C85.8522 142.16 86.137 142.453 86.4951 142.681C86.8532 142.892 87.3089 142.998 87.8623 142.998C88.4482 142.998 89.0098 142.892 89.5469 142.681C90.084 142.453 90.5885 142.16 91.0605 141.802C91.0768 141.281 91.1582 140.736 91.3047 140.166C91.4674 139.58 91.6709 139.01 91.915 138.457C92.1592 137.887 92.4359 137.35 92.7451 136.846C93.0706 136.341 93.4043 135.894 93.7461 135.503L94.0635 135.698C93.8844 136.252 93.7542 136.821 93.6729 137.407C93.5915 137.993 93.5508 138.571 93.5508 139.141C93.5508 139.727 93.5996 140.28 93.6973 140.801C93.7949 141.322 93.9658 141.777 94.21 142.168C94.4541 142.542 94.7878 142.843 95.2109 143.071C95.6341 143.283 96.1794 143.389 96.8467 143.389C97.6605 143.389 98.4092 143.201 99.0928 142.827C99.7764 142.453 100.379 141.981 100.899 141.411L101.095 141.509C100.802 142.078 100.419 142.624 99.9473 143.145C99.4753 143.665 98.9463 144.137 98.3604 144.561C97.7907 144.967 97.1803 145.293 96.5293 145.537C95.8783 145.781 95.2354 145.903 94.6006 145.903C93.7054 145.903 92.973 145.643 92.4033 145.122C91.8337 144.618 91.443 143.975 91.2314 143.193C90.5479 143.877 89.7829 144.455 88.9365 144.927C88.1064 145.382 87.2275 145.61 86.2998 145.61C85.6162 145.61 85.0059 145.48 84.4688 145.22C83.9479 144.976 83.5085 144.642 83.1504 144.219C82.7923 143.796 82.5156 143.299 82.3203 142.729C82.1413 142.144 82.0518 141.533 82.0518 140.898C82.0518 140.166 82.1657 139.417 82.3936 138.652C82.6377 137.871 82.9632 137.106 83.3701 136.357C83.7933 135.609 84.2897 134.901 84.8594 134.233C85.429 133.566 86.0475 132.98 86.7148 132.476C87.3984 131.971 88.1146 131.572 88.8633 131.279C89.612 130.986 90.377 130.84 91.1582 130.84C91.3372 130.84 91.557 130.864 91.8174 130.913C92.0778 130.946 92.3301 131.011 92.5742 131.108C92.8184 131.206 93.0218 131.344 93.1846 131.523C93.3636 131.702 93.4531 131.93 93.4531 132.207ZM113.106 142.314C112.586 143.389 111.853 144.243 110.909 144.878C109.965 145.496 108.891 145.806 107.687 145.806C106.694 145.806 105.807 145.505 105.025 144.902C104.244 144.3 103.552 143.511 102.95 142.534C102.364 141.558 101.86 140.459 101.437 139.238C101.03 138.001 100.688 136.748 100.411 135.479C100.151 134.209 99.9554 132.988 99.8252 131.816C99.7113 130.628 99.6543 129.595 99.6543 128.716C99.6543 127.642 99.7113 126.462 99.8252 125.176C99.9391 123.89 100.126 122.596 100.387 121.294C100.647 119.976 100.981 118.698 101.388 117.461C101.811 116.224 102.315 115.133 102.901 114.189C103.504 113.229 104.195 112.464 104.977 111.895C105.758 111.309 106.653 111.016 107.662 111.016C108.525 111.016 109.225 111.268 109.762 111.772C110.299 112.277 110.722 112.904 111.031 113.652C111.34 114.385 111.544 115.166 111.642 115.996C111.756 116.826 111.812 117.567 111.812 118.218C111.812 119.976 111.601 121.709 111.178 123.418C110.771 125.111 110.201 126.714 109.469 128.228C108.753 129.725 107.906 131.092 106.93 132.329C105.953 133.55 104.903 134.575 103.78 135.405C104.008 136.496 104.277 137.562 104.586 138.604C104.911 139.629 105.302 140.549 105.758 141.362C106.214 142.16 106.734 142.811 107.32 143.315C107.923 143.804 108.606 144.048 109.371 144.048C110.136 144.048 110.795 143.893 111.349 143.584C111.902 143.275 112.415 142.819 112.887 142.217L113.106 142.314ZM103.048 127.251C103.032 127.609 103.023 128.049 103.023 128.569C103.04 129.09 103.064 129.668 103.097 130.303C103.146 130.921 103.211 131.589 103.292 132.305C103.373 133.021 103.479 133.753 103.609 134.502C104.7 133.525 105.628 132.443 106.393 131.255C107.158 130.067 107.784 128.789 108.272 127.422C108.761 126.038 109.111 124.59 109.322 123.076C109.55 121.546 109.664 119.959 109.664 118.315C109.664 118.104 109.656 117.827 109.64 117.485C109.64 117.144 109.615 116.777 109.566 116.387C109.518 115.996 109.444 115.605 109.347 115.215C109.265 114.824 109.143 114.474 108.98 114.165C108.834 113.84 108.639 113.579 108.395 113.384C108.167 113.172 107.89 113.066 107.564 113.066C106.946 113.066 106.401 113.376 105.929 113.994C105.473 114.596 105.074 115.369 104.732 116.313C104.407 117.257 104.13 118.299 103.902 119.438C103.691 120.578 103.52 121.676 103.39 122.734C103.259 123.776 103.17 124.712 103.121 125.542C103.072 126.372 103.048 126.942 103.048 127.251ZM128.365 141.509C127.942 142.127 127.429 142.705 126.827 143.242C126.241 143.779 125.59 144.243 124.874 144.634C124.174 145.024 123.434 145.334 122.652 145.562C121.887 145.789 121.114 145.903 120.333 145.903C119.226 145.903 118.193 145.757 117.232 145.464C116.272 145.187 115.434 144.756 114.718 144.17C114.002 143.584 113.44 142.852 113.033 141.973C112.626 141.077 112.423 140.036 112.423 138.848C112.423 137.676 112.634 136.585 113.058 135.576C113.497 134.551 114.091 133.664 114.84 132.915C115.605 132.15 116.5 131.548 117.525 131.108C118.551 130.669 119.649 130.449 120.821 130.449C121.375 130.449 121.887 130.531 122.359 130.693C122.848 130.84 123.271 131.068 123.629 131.377C123.987 131.67 124.264 132.036 124.459 132.476C124.671 132.915 124.776 133.42 124.776 133.989C124.776 134.673 124.638 135.275 124.361 135.796C124.085 136.317 123.718 136.772 123.263 137.163C122.807 137.554 122.286 137.879 121.7 138.14C121.131 138.4 120.528 138.612 119.894 138.774C119.275 138.937 118.657 139.059 118.038 139.141C117.436 139.206 116.882 139.238 116.378 139.238H115.792C116.004 140.719 116.59 141.851 117.55 142.632C118.51 143.413 119.837 143.804 121.529 143.804C122.734 143.804 123.906 143.592 125.045 143.169C126.201 142.746 127.242 142.16 128.17 141.411L128.365 141.509ZM115.719 138.506H116.329C116.915 138.506 117.517 138.416 118.136 138.237C118.754 138.042 119.308 137.765 119.796 137.407C120.3 137.033 120.715 136.577 121.041 136.04C121.367 135.503 121.529 134.893 121.529 134.209C121.529 133.542 121.383 132.988 121.09 132.549C120.813 132.109 120.325 131.89 119.625 131.89C118.909 131.89 118.299 132.109 117.794 132.549C117.306 132.972 116.907 133.501 116.598 134.136C116.288 134.754 116.061 135.413 115.914 136.113C115.784 136.797 115.719 137.407 115.719 137.944V138.506Z" fill="#43BDE2"/>
<rect opacity="0.3" x="165" y="8" width="5" height="5" rx="2.5" fill="white"/>
<rect opacity="0.6" x="172" y="162" width="5" height="5" rx="2.5" fill="white"/>
<rect opacity="0.6" x="5" y="169" width="3" height="3" rx="1.5" fill="white"/>
<rect opacity="0.4" x="149" y="19" width="3" height="3" rx="1.5" fill="white"/>
<rect opacity="0.3" x="12" y="8" width="10" height="10" rx="5" fill="white"/>
</g>
<defs>
<clipPath id="clip0">
<rect width="180" height="178.489" fill="white"/>
</clipPath>
</defs>
</svg>
