<svg width="156" height="66" viewBox="0 0 156 66" fill="none" xmlns="http://www.w3.org/2000/svg">
<path d="M3.92328 37.9613L7.59617 43.7042C7.59617 43.7042 14.6898 47.4554 28.3083 44.5493C41.9268 41.6432 47.543 36.3717 47.543 36.3717L47.1702 26.8735L38.4773 24.6603L28.2274 29.7212L15.0859 30.3734L7.32071 31.3135L3.92328 37.9613Z" fill="#874636"/>
<path d="M27.4134 40.3689L33.4435 63.4384C33.9195 63.3034 34.3855 63.1644 34.8414 63.0213C33.989 59.4589 30.3188 44.1255 28.7414 37.797C27.656 38.354 28.566 39.93 27.4134 40.3689Z" fill="#F7A06A"/>
<path d="M33.7093 37.1217L38.6307 61.6911C38.9172 61.5797 39.1981 61.4683 39.4708 61.3569L35.2223 37.3812C34.7646 37.1068 34.2575 36.9261 33.7093 37.1217Z" fill="#F7A06A"/>
<path d="M24.3161 38.5848C24.0747 38.6574 23.8531 38.7833 23.6678 38.953L30.7848 64.127C30.9437 64.0904 31.1027 64.055 31.2631 64.0156C31.5152 63.9559 31.7651 63.8938 32.0127 63.8295L25.0013 38.5373C24.7728 38.4914 24.536 38.5078 24.3161 38.5848V38.5848Z" fill="#F7A06A"/>
<path d="M32.4609 39.782C31.84 39.9613 31.3823 39.5945 30.9657 39.119L36.1858 62.5838C36.5942 62.4452 36.9921 62.3053 37.3795 62.164L32.8131 39.6244C32.7045 39.6945 32.5857 39.7476 32.4609 39.782V39.782Z" fill="#F7A06A"/>
<path d="M17.5377 42.3211C16.5249 42.5372 16.2124 40.6527 15.4299 40.1636L24.5312 64.979C24.9808 64.9599 25.4481 64.9296 25.9332 64.8879L18.312 41.5739C18.1818 41.9244 18.005 42.222 17.5377 42.3211Z" fill="#F7A06A"/>
<path d="M22.1014 41.7588C21.0626 41.934 20.9488 40.5944 20.228 40.2059C22.27 46.9664 26.5322 61.0703 27.6162 64.7006C28.0813 64.6363 28.5596 64.5611 29.0511 64.475C28.2165 61.486 24.5751 48.4432 22.6277 41.4422C22.5659 41.5274 22.4875 41.5993 22.3971 41.6537C22.3067 41.708 22.2061 41.7438 22.1014 41.7588V41.7588Z" fill="#F7A06A"/>
<path d="M12.8383 42.5019C11.4555 42.6799 11.857 40.714 10.6757 40.7357C10.6524 40.7357 10.6318 40.7425 10.6085 40.7439L21.5203 64.9587C21.989 64.9886 22.4933 65.0062 23.0278 65.0103C21.889 62.13 16.6057 48.8155 13.7963 41.7234C13.6044 42.1174 13.3399 42.4381 12.8383 42.5019Z" fill="#F7A06A"/>
<path d="M7.88538 42.62C7.02608 42.5032 6.66427 41.2207 5.82965 40.5345C6.02152 40.9272 17.021 61.418 18.7423 64.6244C19.1535 64.6991 19.6236 64.7725 20.1663 64.835C18.4628 61.3107 11.3705 46.662 9.10785 42.0372C8.78715 42.4067 8.4226 42.6934 7.88538 42.62Z" fill="#F7A06A"/>
<path d="M37.1096 38.2602C37.0893 38.2651 37.0687 38.2688 37.0479 38.2711L40.7989 60.7998C41.1772 60.6359 41.5381 60.4742 41.8816 60.3148L37.8798 35.1326C36.5874 35.8935 38.0278 37.9491 37.1096 38.2602Z" fill="#F7A06A"/>
<path d="M45.4859 34.5321C45.2078 34.5824 44.9207 34.5343 44.6746 34.3963L45.2817 58.6111C45.4462 58.5201 45.5928 58.4372 45.7189 58.3652L46.2863 32.1437C46.104 33.3732 46.5453 34.3066 45.4859 34.5321Z" fill="#F7A06A"/>
<path d="M41.4375 36.6311C41.0127 36.767 40.5988 36.4246 40.1616 36.013L43.322 59.63C43.5604 59.5118 43.7852 59.3976 43.9976 59.2903C43.7496 55.622 42.5559 38.0319 42.253 33.9234C41.4225 34.7888 42.4311 36.3078 41.4375 36.6311Z" fill="#F7A06A"/>
<path d="M35.2306 37.3812L39.4791 61.3569C39.9414 61.1694 40.3831 60.9837 40.8043 60.7998L37.0478 38.2711C36.5202 38.3906 35.9186 37.7901 35.2306 37.3812Z" fill="#EF6E4B"/>
<path d="M37.9579 35.0824C37.9278 35.0973 37.9059 35.1163 37.8784 35.1327L41.8802 60.3148C42.4024 60.0757 42.8834 59.8461 43.3206 59.6355L40.1617 36.013C39.5162 35.4057 38.82 34.6531 37.9579 35.0824Z" fill="#EF6E4B"/>
<path d="M42.4174 33.7768C42.3589 33.8215 42.3039 33.8705 42.253 33.9235C42.5558 38.032 43.7495 55.6276 43.9976 59.2905C44.506 59.0296 44.935 58.8 45.2817 58.6112L44.6732 34.3936C43.9208 34.0187 43.2562 33.16 42.4174 33.7768Z" fill="#EF6E4B"/>
<path d="M46.3178 57.5895L48.0118 32.1207C48.0789 31.1072 46.5837 30.8558 46.3453 31.849C46.3453 31.8626 46.3453 31.8748 46.3357 31.8897C46.3165 31.9767 46.3014 32.0636 46.2891 32.1492L45.7217 58.3707L45.9026 58.2675C46.023 58.1973 46.1239 58.0987 46.1964 57.9804C46.2688 57.862 46.3106 57.7277 46.3178 57.5895Z" fill="#EF6E4B"/>
<path d="M4.55514 41.5943L16.9169 63.9206C16.9705 64.0191 17.0435 64.1059 17.1315 64.1759C17.2196 64.2459 17.3209 64.2977 17.4294 64.3282C17.7035 64.4057 18.1531 64.5171 18.7478 64.6271C17.0265 61.418 6.02567 40.9272 5.83517 40.5346C5.11978 39.9436 4.107 40.7859 4.55514 41.5943Z" fill="#EF6E4B"/>
<path d="M9.10791 42.0371C11.3637 46.6564 18.4628 61.3106 20.1718 64.8349C20.583 64.8838 21.0325 64.9245 21.5204 64.9544L10.6086 40.7396C9.9439 40.7953 9.57113 41.5018 9.10791 42.0371Z" fill="#EF6E4B"/>
<path d="M14.9735 40.0482C14.2348 40.1311 14.132 41.0332 13.7963 41.7234C16.6058 48.8154 21.889 62.13 23.0306 65.0062C23.5061 65.0062 24.0077 65.0062 24.5381 64.979L15.434 40.1637C15.2988 40.0732 15.1359 40.0323 14.9735 40.0482Z" fill="#EF6E4B"/>
<path d="M19.4975 40.1406C18.6067 40.3661 18.5162 41.0332 18.312 41.5766L25.9374 64.888C26.4764 64.8418 27.036 64.7793 27.6162 64.7005C26.5308 61.0702 22.2713 46.9663 20.2279 40.2058C20.0028 40.089 19.7401 40.0655 19.4975 40.1406Z" fill="#EF6E4B"/>
<path d="M22.6277 41.438C24.5752 48.4377 28.2165 61.4791 29.0512 64.4708C29.6131 64.3703 30.191 64.253 30.7848 64.1189L23.6679 38.9504C22.9224 39.6324 23.0676 40.8552 22.6277 41.438Z" fill="#EF6E4B"/>
<path d="M28.9292 37.7154C28.8655 37.738 28.8037 37.7652 28.7441 37.7969C30.3175 44.1254 33.9917 59.4589 34.8442 63.0212C35.301 62.8772 35.7482 62.7313 36.1859 62.5837L30.9684 39.1188C30.3339 38.3974 29.7953 37.4233 28.9292 37.7154Z" fill="#EF6E4B"/>
<path d="M33.5011 37.2086C32.158 37.9205 33.656 39.0753 32.8159 39.6242L37.3823 62.1638C37.8126 62.0062 38.232 61.8486 38.6363 61.691L33.7094 37.1216C33.638 37.1457 33.5684 37.1748 33.5011 37.2086V37.2086Z" fill="#EF6E4B"/>
<path d="M27.2681 40.4205C26.0264 40.7371 26.0854 38.7807 25.0054 38.5375L32.0168 63.8256C32.5033 63.702 32.9762 63.5715 33.4504 63.4384L27.4202 40.3689C27.3707 40.3893 27.3199 40.4065 27.2681 40.4205V40.4205Z" fill="#EF6E4B"/>
<path d="M19.8675 12.3539C10.3235 15.1105 7.281 22.2243 4.67845 24.6956C2.07591 27.167 -2.77834 36.3527 2.06357 38.4273C6.90549 40.5019 9.92192 32.5934 9.92192 32.5934C9.92192 32.5934 10.7154 39.5468 15.2079 38.7208C19.7003 37.8947 22.1288 32.5594 22.1288 32.5594C22.1288 32.5594 23.5843 38.3689 27.7204 36.2888C31.8565 34.2088 31.8442 30.2973 31.8442 30.2973C31.8442 30.2973 35.4376 35.1245 39.0131 32.6844C42.5887 30.2443 41.0839 25.5421 41.0839 25.5421C41.0839 25.5421 44.3895 32.9765 48.8203 28.9169C53.2511 24.8573 44.0305 21.3208 40.448 17.0574C36.8656 12.7941 26.0456 10.7942 23.2759 11.3852C20.5062 11.9762 19.8675 12.3539 19.8675 12.3539Z" fill="#FFA38A"/>
<path d="M16.7291 14.0413C16.7291 14.0413 -1.47088 30.3163 1.98274 33.7088C5.43635 37.1013 6.23123 29.9291 9.53547 30.122C12.8397 30.315 11.6419 33.9805 14.9448 34.1735C18.2476 34.3664 22.7565 29.2742 21.9109 26.2228C21.0653 23.1713 25.4742 22.5898 28.8798 20.7883C32.2855 18.9867 16.7291 14.0413 16.7291 14.0413Z" fill="#FFB7A6"/>
<path d="M18.9493 9.89348C14.3225 10.8554 8.27046 15.1283 10.1905 18.1295C12.0968 21.1089 12.3751 14.2655 14.1827 15.6622C15.2791 16.5073 14.1197 21.469 16.4522 21.1035C18.7848 20.738 18.4682 15.8511 20.1813 15.3674C21.8944 14.8837 24.0296 18.6811 26.1183 17.2437C28.0095 15.9421 24.6025 13.5088 25.5701 13.0509C29.0196 11.4206 29.1607 15.9489 31.0273 15.6568C32.8939 15.3647 33.2201 10.9763 29.861 9.37041C26.502 7.76451 18.9493 9.89348 18.9493 9.89348Z" fill="#6D2F1D"/>
<path d="M8.01282 24.2215C8.01282 24.2215 3.51215 19.1198 2.29105 21.8126C1.06995 24.5054 7.79765 29.9263 9.2997 29.6057C10.8017 29.2851 13.6441 20.4608 11.0594 20.4581C8.47467 20.4554 8.01282 24.2215 8.01282 24.2215Z" fill="#6D2F1D"/>
<path d="M34.4919 17.4311C32.5869 18.3821 30.7368 21.8235 33.6587 24.4321C36.5805 27.0406 38.8747 22.6006 41.3991 24.216C43.9236 25.8315 45.7847 26.8708 46.1739 25.3505C46.5631 23.8302 38.9049 15.2315 34.4919 17.4311Z" fill="#EF7965"/>
<path d="M8.21841 25.2704C8.21841 25.2704 5.47745 22.1251 4.74699 23.7759C4.01652 25.4266 8.09918 28.7743 9.00918 28.58C9.91918 28.3857 11.6241 22.9607 10.059 22.9607C8.49388 22.9607 8.21841 25.2704 8.21841 25.2704Z" fill="#874636"/>
<path d="M22.2069 23.159C22.2069 23.159 20.5486 21.0653 18.7204 22.6536C16.8922 24.2418 23.8282 29.7415 25.1617 29.0785C26.4952 28.4155 27.434 21.0626 25.2768 20.3086C23.1197 19.5545 22.2069 23.159 22.2069 23.159Z" fill="#6D2F1D"/>
<path d="M22.6564 24.117C22.6564 24.117 21.6149 22.8793 20.428 23.8453C19.2412 24.8112 23.6336 28.0448 24.4929 27.6358C25.3522 27.2269 26.0251 22.8086 24.6505 22.3793C23.2759 21.95 22.6564 24.117 22.6564 24.117Z" fill="#874636"/>
<path d="M38.269 16.7341C38.269 16.7341 34.2699 13.3375 34.1096 15.6472C33.9492 17.9568 38.169 25.216 39.4092 23.9117C40.6495 22.6074 43.2466 13.218 41.0538 12.8769C38.8611 12.5359 38.269 16.7341 38.269 16.7341Z" fill="#6D2F1D"/>
<path d="M38.3896 17.7666C38.3896 17.7666 35.5829 15.3863 35.4705 17.0099C35.3581 18.6334 38.3197 23.7188 39.19 22.799C40.0602 21.8792 41.8775 15.2953 40.3412 15.0548C38.8049 14.8143 38.3896 17.7666 38.3896 17.7666Z" fill="#874636"/>
<path d="M18.7204 12.5333C19.2823 12.5944 20.0004 12.6474 20.5103 12.3567C20.598 12.3077 20.6144 11.9722 20.487 11.9654C20.1978 11.9504 19.8977 12.0387 19.6112 12.0768C19.3159 12.1148 19.0181 12.1298 18.7204 12.1216C18.5943 12.1216 18.5902 12.5197 18.7204 12.5292V12.5333Z" fill="#EF6E4B"/>
<path d="M15.756 12.0917C15.756 12.0917 11.8762 13.7044 11.4554 14.809C10.185 18.1322 14.0018 13.1881 15.1283 14.2044C16.2549 15.2206 15.1201 18.336 16.1589 18.1145C17.1978 17.893 17.4993 14.9448 18.6039 14.3606C19.74 13.7588 21.5463 13.7316 22.9579 15.2261C24.3695 16.7206 25.9401 17.283 25.6797 16.082C25.4193 14.881 23.0292 13.0563 24.6491 12.1719C26.269 11.2874 28.2836 11.3961 29.4458 12.5795C30.6079 13.7628 31.0438 14.9312 31.2658 13.449C31.4878 11.9667 29.872 9.95188 27.9163 9.67744C24.3668 9.17747 15.756 12.0917 15.756 12.0917Z" fill="#874636"/>
<path d="M10.2824 0.113069C9.83972 0.827707 10.0083 1.89287 10.2605 2.64555C10.5688 3.55719 11.165 4.4009 12.0421 4.83837C12.6136 5.12233 12.8219 3.20802 12.2723 2.95803C11.7584 2.71892 11.2883 2.40779 10.9745 1.92955C10.6606 1.45132 10.6414 0.94319 10.5811 0.386153C10.5716 0.300559 10.4304 -0.126049 10.2824 0.114428V0.113069Z" fill="#1C8C7E"/>
<path d="M8.08962 4.15453C8.65288 4.66537 9.27919 5.10557 10.0083 5.33246C10.6209 5.52131 11.5158 5.74005 12.0243 5.27132C12.3409 4.97922 12.5382 3.77683 12.0243 3.55673C11.4761 3.31897 10.7785 3.62059 10.1755 3.60836C9.49362 3.61046 8.82163 3.44671 8.21844 3.13148C7.87856 2.94399 7.89638 3.97655 8.09373 4.15453H8.08962Z" fill="#1C8C7E"/>
<path d="M8.46777 7.24961C9.86293 7.58519 11.3225 7.33656 12.3942 6.36242C12.7944 5.99559 12.8191 5.32715 12.7204 4.83125C12.6779 4.61795 12.3325 3.74435 12.0064 4.2878C11.2594 5.53774 9.95064 6.37601 8.46777 6.32574C8.17449 6.31351 8.19368 7.18711 8.46777 7.25368V7.24961Z" fill="#1C8C7E"/>
<path d="M12.8425 0.103203C12.3429 0.731402 12.0416 1.49189 11.9763 2.28923C11.89 3.18457 11.9763 4.53097 12.7589 5.13148C13.4236 5.64368 13.4441 3.54189 13.3783 3.31228C13.4551 4.04684 13.4738 4.14557 13.4345 3.60846C13.4085 3.43311 13.3705 3.25971 13.3208 3.08946C13.2536 2.86529 13.1604 2.65199 13.0905 2.43053C12.9535 1.97403 13.0056 1.67921 13.2276 1.23901C13.355 0.98631 13.2276 -0.381827 12.8384 0.103203H12.8425Z" fill="#1C8C7E"/>
<path d="M12.1133 4.29327C9.94524 7.22926 9.55876 10.24 14.6282 12.1733C19.6976 14.1066 22.1124 13.4341 23.0087 11.6543C23.905 9.87451 22.281 6.09073 20.0347 3.86938C17.7885 1.64802 14.3431 1.27576 12.1133 4.29327Z" fill="#E52C39"/>
<path d="M13.4934 3.32847C12.3449 4.88274 12.1407 6.47777 14.8255 7.50217C17.5103 8.52657 18.7889 8.17061 19.2631 7.23045C19.7373 6.29028 18.8767 4.28494 17.6885 3.10837C16.5002 1.9318 14.6734 1.73072 13.4934 3.32847Z" fill="#F44D5D"/>
<path d="M20.0347 3.8734C19.6721 3.51073 19.2678 3.19153 18.8301 2.92236C20.4747 5.12062 21.46 7.97102 20.7186 9.44377C19.8223 11.2331 17.4007 11.9083 12.3367 9.97228C11.8363 9.78419 11.35 9.56127 10.8813 9.30519C11.3719 10.3921 12.5259 11.3771 14.6282 12.1773C19.699 14.1134 22.1124 13.4381 23.0087 11.6583C23.905 9.87853 22.281 6.09476 20.0347 3.8734Z" fill="#D3181D"/>
<path d="M15.2997 3.57177C15.5903 3.76741 15.9617 4.11522 16.3372 4.09348C16.4742 4.09348 16.4414 3.76877 16.3838 3.70627C16.1097 3.40737 15.7177 3.31635 15.345 3.19543C15.2079 3.15059 15.2079 3.51199 15.2997 3.57177V3.57177Z" fill="#F7A06A"/>
<path d="M14.7076 5.20068C14.8824 5.35653 15.0653 5.50302 15.2558 5.63951C15.4107 5.74684 15.5779 5.87184 15.7766 5.84874C15.9137 5.8338 15.863 5.55935 15.8205 5.49006C15.5875 5.11916 15.1476 4.9208 14.7597 4.74418C14.5966 4.66945 14.6144 5.12323 14.7049 5.20068H14.7076Z" fill="#F7A06A"/>
<path d="M17.572 5.0934C17.7858 5.40588 17.9831 5.83249 18.3203 6.03357C18.4683 6.12188 18.445 5.69935 18.4217 5.645C18.2504 5.25643 17.9612 4.96569 17.6871 4.65049C17.6131 4.5649 17.5501 4.67359 17.5322 4.74288C17.5148 4.80095 17.5093 4.86192 17.5161 4.92215C17.523 4.98237 17.542 5.04062 17.572 5.0934Z" fill="#F7A06A"/>
<path d="M12.7959 5.52413C12.787 5.79493 12.8254 6.06522 12.9096 6.323C12.9781 6.52136 13.0891 6.82026 13.2879 6.9208C13.4496 7.00367 13.4126 6.58114 13.3906 6.52272C13.2536 6.16268 13.0453 5.85563 12.9795 5.46706C12.9398 5.22523 12.7959 5.3312 12.7917 5.52413H12.7959Z" fill="#F7A06A"/>
<path d="M14.6104 8.75899C15.0421 9.0049 15.6766 9.25353 16.1576 9.00626C16.27 8.94784 16.2577 8.61633 16.1316 8.58101C15.9027 8.51579 15.6519 8.54297 15.4162 8.51851C15.1587 8.4949 14.9048 8.44155 14.6597 8.35955C14.5227 8.30928 14.5076 8.70057 14.6104 8.75899Z" fill="#F7A06A"/>
<path d="M17.4295 7.59473L17.9489 8.12052C18.0654 8.23872 18.223 8.46289 18.4052 8.43436C18.5067 8.41805 18.4806 8.21698 18.456 8.15448C18.363 7.95338 18.2184 7.78003 18.0366 7.65179L17.5007 7.18986C17.4034 7.10698 17.3472 7.51593 17.4254 7.59744L17.4295 7.59473Z" fill="#F7A06A"/>
<path d="M11.6172 7.73052C11.8324 8.12452 12.0791 8.59325 12.4286 8.88671C12.5423 8.98181 12.5409 8.5783 12.5204 8.53211C12.3168 8.11914 12.049 7.74044 11.7269 7.40989C11.6035 7.27403 11.5816 7.66259 11.6172 7.73052Z" fill="#F7A06A"/>
<path d="M19.9305 5.89504C20.0278 6.1885 20.1265 6.48197 20.2238 6.77543C20.2815 7.01937 20.3768 7.25307 20.5061 7.46833C20.602 7.60419 20.6432 7.28763 20.6432 7.24008C20.5527 6.69663 20.2718 6.17764 20.0648 5.67087C19.9922 5.49017 19.9086 5.81488 19.936 5.89504H19.9305Z" fill="#F7A06A"/>
<path d="M17.3307 10.3661C17.7419 10.4096 18.2092 10.4911 18.6176 10.3757C18.7423 10.3417 18.7396 10.0238 18.6176 9.98709C18.2065 9.86481 17.746 9.93682 17.3307 9.9735C17.206 9.98301 17.206 10.3539 17.3307 10.3661Z" fill="#F7A06A"/>
<path d="M14.4034 10.3908C14.7625 10.7712 15.3216 11.2385 15.8849 11.1828C16.0069 11.1706 15.9973 10.8486 15.9082 10.8011C15.6615 10.6652 15.3888 10.5986 15.1366 10.4764C14.8948 10.3583 14.671 10.2069 14.4719 10.0267C14.3883 9.95057 14.3349 10.3188 14.4034 10.3908V10.3908Z" fill="#EF6E4B"/>
<path d="M18.2928 11.82C18.6875 12.1488 19.2946 12.5306 19.836 12.4124C19.947 12.3893 19.9621 12.0728 19.8593 12.0306C19.6016 11.9274 19.3234 11.8948 19.0603 11.8024C18.8038 11.715 18.5611 11.5919 18.3394 11.4369C18.2353 11.3649 18.2024 11.7467 18.2928 11.82V11.82Z" fill="#EF6E4B"/>
<path d="M20.513 9.55659C20.6295 9.89625 20.7378 10.3093 20.9584 10.5987C21.0585 10.7345 21.0804 10.3867 21.0708 10.3446C20.976 9.98097 20.838 9.6298 20.6597 9.29845C20.5596 9.09466 20.4815 9.46828 20.5116 9.55659H20.513Z" fill="#EF6E4B"/>
<path d="M22.2946 9.29834C22.3371 9.59859 22.3741 9.9464 22.5235 10.2154C22.5934 10.3404 22.6469 10.1678 22.6469 10.0986C22.635 9.76949 22.576 9.44378 22.4714 9.13123C22.3933 8.87988 22.2768 9.16927 22.2946 9.29834Z" fill="#EF6E4B"/>
<path d="M16.2618 14.1147C15.5389 15.5206 15.3793 17.1456 15.815 18.6633C15.926 19.0451 16.2097 19.5397 16.6058 19.1307C17.0019 18.7218 16.9375 17.8237 16.8127 17.3496C16.5761 18.9917 16.5761 19.4296 16.8127 18.6633C16.8659 18.4481 16.8926 18.2273 16.8922 18.0058C16.8922 17.6077 16.7716 17.264 16.6839 16.8836C16.5435 16.2573 16.5723 15.6054 16.7675 14.9937C16.8566 14.6948 16.6305 13.4109 16.2618 14.1147Z" fill="#A55747"/>
<path d="M12.3682 13.6664C11.6252 14.0377 11.0338 14.6513 10.6935 15.4041C10.5928 15.6417 10.5409 15.8969 10.5409 16.1547C10.5409 16.4125 10.5928 16.6677 10.6935 16.9054C10.8813 17.313 11.1608 17.2613 11.3596 16.9054C11.7149 16.2503 12.1414 15.6358 12.6314 15.0726C12.8397 14.8389 12.8685 13.4151 12.3682 13.6664Z" fill="#A55747"/>
<path d="M19.7127 24.2106C19.6476 24.1491 19.5981 24.0732 19.5682 23.9891C19.5384 23.905 19.529 23.8151 19.5409 23.7267C19.5528 23.6383 19.5856 23.554 19.6367 23.4806C19.6877 23.4072 19.7556 23.3468 19.8347 23.3044C20.1375 23.1196 20.4719 23.1862 20.794 23.2895C20.9393 23.3384 20.9201 22.981 20.8639 22.9186C20.4829 22.4919 19.7785 22.6346 19.4934 23.0952C19.3556 23.3243 19.2946 23.5908 19.3192 23.8564C19.3439 24.122 19.4528 24.373 19.6305 24.5734C19.7538 24.6997 19.8031 24.3016 19.725 24.2106H19.7127Z" fill="#A55747"/>
<path d="M23.6665 22.0993C23.687 21.6102 24.1489 21.2842 24.6107 21.276C24.967 21.276 25.2754 21.4594 25.5385 21.6836C25.6372 21.7665 25.6358 21.4119 25.618 21.3765C25.5667 21.2517 25.4909 21.1382 25.3949 21.0426C25.2989 20.9471 25.1847 20.8715 25.0589 20.8201C24.9332 20.7688 24.7984 20.7428 24.6623 20.7436C24.5263 20.7444 24.3919 20.7721 24.2667 20.8249C23.7638 21.045 23.5198 21.5749 23.5294 22.1007C23.5294 22.2841 23.6596 22.2841 23.6665 22.1007V22.0993Z" fill="#A55747"/>
<path d="M38.8227 17.8074C38.2855 17.1729 36.3202 15.2735 35.7281 16.7368C35.2718 17.8672 36.0639 19.4445 36.6532 20.3711C36.7423 20.507 36.7903 20.1252 36.7628 20.0518C36.4655 19.4282 35.2841 17.1688 36.2996 16.7911C37.0397 16.5194 38.2526 17.6335 38.7761 18.0587C38.8432 18.1144 38.8611 17.8536 38.8227 17.8087V17.8074Z" fill="#A55747"/>
<path d="M9.5546 22.6115C9.96575 22.2461 10.6962 22.5952 10.9429 22.9919C11.0128 23.1034 11.0799 22.905 11.0799 22.8629C11.1142 22.4308 10.9223 22.0355 10.4975 21.8806C10.0726 21.7257 9.70125 21.9322 9.48882 22.2882C9.45867 22.3384 9.45867 22.6958 9.55049 22.6115H9.5546Z" fill="#A55747"/>
<path d="M4.54278 22.1455C4.0686 21.666 3.38336 21.8942 3.1723 22.5042C2.92425 23.2189 3.25453 24.1454 3.88084 24.5612C4.00693 24.6454 4.00418 24.2528 3.97403 24.1984C3.75202 23.8058 3.18875 23.1767 3.50944 22.7379C3.71638 22.454 4.16727 22.1469 4.49482 22.3996C4.56334 22.454 4.58801 22.1917 4.54278 22.1455V22.1455Z" fill="#A55747"/>
<path d="M23.0662 14.0154C22.7922 14.8754 23.4582 16.4174 24.5738 16.0737C24.7108 16.0289 24.6889 15.5928 24.5436 15.5615C23.953 15.4338 23.1046 15.0181 23.2663 14.2722C23.3006 14.1186 23.1731 13.692 23.0717 14.0154H23.0662Z" fill="#A55747"/>
<path d="M7.78946 37.5945C8.07178 38.4912 8.51034 39.6542 9.30659 40.2248C9.42171 40.3063 9.39567 39.934 9.36826 39.8892C8.86392 39.0238 8.28421 38.2724 7.95118 37.3078C7.87306 37.085 7.75657 37.4844 7.78946 37.5891V37.5945Z" fill="#A55747"/>
<path d="M8.89133 36.8921C9.25725 37.7589 9.59713 38.6393 10.0521 39.464C10.1508 39.642 10.2097 39.3145 10.1892 39.2357C9.8726 38.3051 9.46283 37.4179 9.06127 36.5185C8.94615 36.2604 8.84062 36.7576 8.89681 36.8908L8.89133 36.8921Z" fill="#A55747"/>
<path d="M19.9196 37.5769C19.9429 38.0891 20.0566 38.7304 20.4404 39.1027C20.5774 39.2385 20.5774 38.8418 20.5528 38.7766C20.3732 38.3853 20.1827 38.0157 20.1608 37.5769C20.1608 37.5076 20.1485 37.3052 20.0402 37.3052C19.9319 37.3052 19.9169 37.513 19.9196 37.5769V37.5769Z" fill="#A55747"/>
<path d="M21.275 36.3336C21.412 37.0211 21.5162 37.7493 21.7506 38.4137C21.8177 38.6053 21.904 38.286 21.8972 38.2221C21.8204 37.5075 21.6121 36.7956 21.4545 36.0972C21.3888 35.7997 21.2449 36.1869 21.275 36.3336Z" fill="#A55747"/>
<path d="M11.953 39.1379C12.278 39.6632 12.6398 40.1653 13.0357 40.6405C13.1371 40.7546 13.159 40.4272 13.1289 40.3688C12.8056 39.7964 12.4501 39.2426 12.064 38.7099C11.9543 38.551 11.8749 39.021 11.953 39.1365V39.1379Z" fill="#A55747"/>
<path d="M31.0054 35.081C31.0986 35.6149 31.1685 36.1883 31.3577 36.6978C31.4152 36.8554 31.4824 36.5932 31.4769 36.5415C31.4042 36.0067 31.2892 35.4784 31.1329 34.9615C31.0849 34.778 30.9876 34.9859 31.0054 35.081Z" fill="#6D2F1D"/>
<path d="M32.587 33.0403C32.528 33.8039 32.5609 34.6041 32.8542 35.3229C32.9282 35.5049 33.0118 35.206 32.9981 35.134C32.8519 34.4638 32.7697 33.7815 32.7528 33.096C32.7528 32.933 32.6048 32.8243 32.587 33.0458V33.0403Z" fill="#6D2F1D"/>
<path d="M34.4892 34.4629C34.8236 35.0348 35.1224 35.7182 35.576 36.206C35.687 36.3255 35.6939 35.9818 35.6706 35.9342C35.3965 35.297 34.9538 34.7251 34.5742 34.1477C34.4933 34.0254 34.4371 34.3841 34.4906 34.4683L34.4892 34.4629Z" fill="#6D2F1D"/>
<path d="M40.9004 32.7619C40.5564 33.3121 40.4974 34.2672 41.0635 34.7061C41.1717 34.7889 41.1566 34.418 41.1265 34.3705C40.8661 33.9466 40.7523 33.539 41.01 33.0811C41.0566 32.9969 40.9826 32.6301 40.9004 32.7619V32.7619Z" fill="#6D2F1D"/>
<path d="M42.2392 30.1792C42.2858 30.7471 42.4078 31.5378 42.8148 31.9739C42.9368 32.1098 42.9354 31.7267 42.9162 31.675C42.7189 31.1316 42.4791 30.6574 42.4188 30.0678C42.39 29.7825 42.2241 29.9958 42.2392 30.1792Z" fill="#6D2F1D"/>
<path d="M26.783 37.2603C26.646 37.9246 26.6925 38.7547 27.2243 39.2506C27.3079 39.3254 27.3174 39.0088 27.2983 38.9694C27.0502 38.4749 26.8693 37.9939 26.9653 37.4342C26.9899 37.2983 26.8392 36.994 26.783 37.2603V37.2603Z" fill="#6D2F1D"/>
<path d="M69.68 45.08H80.56C81.44 45.08 82.08 45.1867 82.48 45.4C82.88 45.5867 83.1467 45.8933 83.28 46.32C83.4133 46.7467 83.48 47.32 83.48 48.04C83.48 48.7333 83.4133 49.2933 83.28 49.72C83.1467 50.1467 82.92 50.44 82.6 50.6C82.0933 50.8667 81.4 51 80.52 51H66.12C64.2533 51 63.16 50.4933 62.84 49.48C62.68 49.0533 62.6 48.3733 62.6 47.44V25.2C62.6 24.5867 62.6133 24.1333 62.64 23.84C62.6933 23.52 62.8267 23.16 63.04 22.76C63.4133 22.04 64.4533 21.68 66.16 21.68C68.0267 21.68 69.1333 22.1733 69.48 23.16C69.6133 23.6133 69.68 24.3067 69.68 25.24V45.08ZM85.4766 40.48C85.4766 37.28 86.5966 34.64 88.8366 32.56C91.0766 30.48 93.6366 29.44 96.5166 29.44C99.3966 29.44 101.943 30.48 104.157 32.56C106.37 34.6133 107.477 37.24 107.477 40.44C107.477 42.6533 106.903 44.6267 105.757 46.36C104.61 48.0667 103.21 49.3333 101.557 50.16C99.9299 50.96 98.2366 51.36 96.4766 51.36C94.7166 51.36 93.0099 50.9333 91.3566 50.08C89.7032 49.2 88.3032 47.92 87.1566 46.24C86.0366 44.5333 85.4766 42.6133 85.4766 40.48ZM93.8366 43.36C94.6899 44 95.5566 44.32 96.4366 44.32C97.3166 44.32 98.1966 43.9867 99.0766 43.32C99.9566 42.6533 100.397 41.6667 100.397 40.36C100.397 39.0533 99.9832 38.08 99.1566 37.44C98.3299 36.8 97.4366 36.48 96.4766 36.48C95.5166 36.48 94.6232 36.8133 93.7966 37.48C92.9699 38.1467 92.5566 39.1333 92.5566 40.44C92.5566 41.72 92.9832 42.6933 93.8366 43.36ZM123.421 48.36C122.408 49.6933 120.794 50.36 118.581 50.36C116.368 50.36 114.288 49.3467 112.341 47.32C110.421 45.2667 109.461 42.88 109.461 40.16C109.461 37.44 110.434 35.0533 112.381 33C114.328 30.9467 116.461 29.92 118.781 29.92C119.688 29.92 120.514 30.0933 121.261 30.44C122.008 30.76 122.514 31.0667 122.781 31.36C123.074 31.6267 123.301 31.88 123.461 32.12C123.541 31.3733 123.808 30.8133 124.261 30.44C124.741 30.04 125.501 29.84 126.541 29.84C127.581 29.84 128.341 29.92 128.821 30.08C129.301 30.24 129.634 30.52 129.821 30.92C130.034 31.2933 130.154 31.6267 130.181 31.92C130.234 32.2133 130.261 32.6667 130.261 33.28V49.84C130.261 52.9067 129.194 55.3733 127.061 57.24C124.928 59.1333 122.528 60.08 119.861 60.08C117.834 60.08 115.901 59.5867 114.061 58.6C112.221 57.6133 111.301 56.72 111.301 55.92C111.301 54.88 111.701 53.96 112.501 53.16C113.008 52.6 113.394 52.2133 113.661 52C113.954 51.7867 114.288 51.68 114.661 51.68C115.034 51.68 115.421 51.84 115.821 52.16C117.101 53.1467 118.488 53.64 119.981 53.64C120.994 53.64 121.821 53.24 122.461 52.44C123.101 51.64 123.421 50.68 123.421 49.56V48.36ZM116.301 40.2C116.301 41.0533 116.634 41.8267 117.301 42.52C117.994 43.2133 118.821 43.56 119.781 43.56C120.768 43.56 121.581 43.2133 122.221 42.52C122.861 41.8 123.181 41.0267 123.181 40.2C123.181 39.3467 122.874 38.56 122.261 37.84C121.648 37.0933 120.821 36.72 119.781 36.72C118.741 36.72 117.901 37.08 117.261 37.8C116.621 38.52 116.301 39.32 116.301 40.2ZM132.859 40.48C132.859 37.28 133.979 34.64 136.219 32.56C138.459 30.48 141.019 29.44 143.899 29.44C146.779 29.44 149.326 30.48 151.539 32.56C153.753 34.6133 154.859 37.24 154.859 40.44C154.859 42.6533 154.286 44.6267 153.139 46.36C151.993 48.0667 150.593 49.3333 148.939 50.16C147.313 50.96 145.619 51.36 143.859 51.36C142.099 51.36 140.393 50.9333 138.739 50.08C137.086 49.2 135.686 47.92 134.539 46.24C133.419 44.5333 132.859 42.6133 132.859 40.48ZM141.219 43.36C142.073 44 142.939 44.32 143.819 44.32C144.699 44.32 145.579 43.9867 146.459 43.32C147.339 42.6533 147.779 41.6667 147.779 40.36C147.779 39.0533 147.366 38.08 146.539 37.44C145.713 36.8 144.819 36.48 143.859 36.48C142.899 36.48 142.006 36.8133 141.179 37.48C140.353 38.1467 139.939 39.1333 139.939 40.44C139.939 41.72 140.366 42.6933 141.219 43.36Z" fill="#6D2F1D"/>
</svg>
